<svg width="343" height="292" viewBox="0 0 343 292" fill="none" xmlns="http://www.w3.org/2000/svg">
<g clip-path="url(#clip0_1354_4062)">
<path d="M280 40.6446C279.993 51.1603 275.792 61.2429 268.32 68.6767C260.849 76.1106 250.718 80.2873 240.154 80.2891H190.272L171.476 99L152.68 80.2891H102.797C92.4154 80.0188 82.5498 75.7234 75.3027 68.3181C68.0556 60.9128 64 50.983 64 40.6446C64 30.3061 68.0556 20.3763 75.3027 12.971C82.5498 5.56568 92.4154 1.27027 102.797 1H240.154C250.719 0.998203 260.852 5.1738 268.324 12.6084C275.797 20.043 279.996 30.1277 280 40.6446Z" fill="#5ABEAE" stroke="#3A4A67" stroke-width="2" stroke-linecap="round" stroke-linejoin="round"/>
<path d="M118.008 26.5264C118.008 27.8271 117.516 28.9639 116.531 29.9365C115.541 30.8916 114.398 31.3691 113.104 31.3691C111.885 31.3691 110.751 30.8975 109.702 29.9541C108.776 28.9346 108.313 27.7773 108.313 26.4824C108.313 25.0938 108.773 23.9482 109.693 23.0459C110.168 22.583 110.687 22.2373 111.249 22.0088C111.817 21.7744 112.447 21.6572 113.139 21.6572C114.504 21.6572 115.655 22.1318 116.593 23.0811C117.536 24.0361 118.008 25.1846 118.008 26.5264ZM115.986 26.5264C115.986 25.7764 115.708 25.1055 115.151 24.5137C114.595 23.9219 113.933 23.626 113.165 23.626H112.963C112.939 23.626 112.928 23.623 112.928 23.6172V23.626H112.91C113.238 23.9658 113.493 24.3818 113.675 24.874C113.856 25.3604 113.947 25.9111 113.947 26.5264C113.947 27.2412 113.786 27.8916 113.464 28.4775C113.358 28.665 113.256 28.832 113.156 28.9785C113.057 29.125 112.966 29.248 112.884 29.3477H113.104C113.889 29.3477 114.551 29.0605 115.09 28.4863C115.688 27.9883 115.986 27.335 115.986 26.5264ZM111.935 26.5264C111.935 25.9697 111.847 25.5537 111.671 25.2783C111.595 25.1611 111.495 25.0469 111.372 24.9355C111.249 24.8242 111.114 24.7188 110.968 24.6191C110.763 24.8535 110.604 25.126 110.493 25.4365C110.382 25.7471 110.326 26.0957 110.326 26.4824C110.326 26.8516 110.382 27.1914 110.493 27.502C110.604 27.8125 110.763 28.0908 110.968 28.3369C111.612 27.9092 111.935 27.3057 111.935 26.5264ZM117.867 24.1182C117.85 24.0889 117.841 24.0566 117.841 24.0215C117.841 23.9863 117.853 23.957 117.876 23.9336C118.321 23.3594 118.843 22.8672 119.44 22.457V22.4658C120.22 21.9326 121.107 21.666 122.104 21.666C123.727 21.666 125.016 22.3545 125.971 23.7314C126.574 24.6162 126.876 25.5332 126.876 26.4824C126.876 28.2227 126.176 29.5498 124.775 30.4639C123.82 31.085 122.854 31.3955 121.875 31.3955C121.506 31.3955 121.104 31.3369 120.671 31.2197L120.363 31.1143L120.038 30.9385C119.54 30.7803 119.291 30.4521 119.291 29.9541C119.291 29.8369 119.314 29.7285 119.361 29.6289C119.414 29.5234 119.487 29.418 119.581 29.3125C119.769 29.0898 120 28.9785 120.275 28.9785C120.387 28.9785 120.48 28.9902 120.557 29.0137C120.633 29.0312 120.697 29.0576 120.75 29.0928L121.374 29.3389H121.365C121.412 29.3506 121.474 29.3594 121.55 29.3652C121.632 29.3711 121.734 29.374 121.857 29.374C122.654 29.374 123.352 29.0928 123.949 28.5303V28.5391C124.541 27.9648 124.837 27.2793 124.837 26.4824C124.837 26.1719 124.793 25.876 124.705 25.5947C124.623 25.3135 124.506 25.0557 124.354 24.8213C124.143 24.5049 123.812 24.2383 123.36 24.0215C122.933 23.8047 122.508 23.6963 122.086 23.6963C121.518 23.6963 120.958 23.8604 120.407 24.1885L120.425 24.1797C120.038 24.4785 119.71 24.8359 119.44 25.252L119.133 25.7266C119.092 25.7793 119.042 25.8057 118.983 25.8057C118.919 25.7998 118.869 25.7705 118.834 25.7178L117.867 24.1182ZM137.467 36.0713H138.205C138.838 36.0713 139.184 36.3906 139.242 37.0293C139.242 37.6973 138.899 38.0518 138.214 38.0928H136.43C135.82 38.0635 135.495 37.7266 135.454 37.082V26.9043C135.454 25.873 135.188 25.082 134.654 24.5312C134.115 23.9688 133.441 23.6875 132.633 23.6875C132.018 23.6875 131.414 23.916 130.822 24.373C130.348 24.7422 130.052 25.1025 129.935 25.4541C130.526 25.4658 131.045 25.5625 131.49 25.7441C131.936 25.9199 132.316 26.1807 132.633 26.5264C133.424 27.3877 133.819 28.3604 133.819 29.4443C133.819 30.7275 133.424 31.375 132.633 31.3867C131.303 31.4102 130.169 30.9443 129.231 29.9893C128.312 29.0518 127.852 27.8945 127.852 26.5176C127.852 25.1406 128.317 23.9863 129.249 23.0547C129.724 22.5918 130.239 22.2461 130.796 22.0176C131.358 21.7832 131.971 21.666 132.633 21.666C133.289 21.666 133.904 21.7861 134.479 22.0264C135.053 22.2666 135.577 22.6182 136.052 23.0811C136.298 23.3037 136.515 23.5732 136.702 23.8896C136.89 24.2002 137.042 24.5254 137.159 24.8652C137.259 25.1699 137.335 25.4951 137.388 25.8408C137.44 26.1807 137.467 26.5352 137.467 26.9043V36.0713ZM131.912 29.6113C131.912 29.5762 131.912 29.541 131.912 29.5059C131.912 29.4707 131.909 29.4326 131.903 29.3916C131.938 29.4033 131.974 29.415 132.009 29.4268C132.044 29.4326 132.079 29.4385 132.114 29.4443L131.912 29.6113ZM131.534 29.207C131.657 29.2891 131.78 29.3506 131.903 29.3916C131.892 29.3037 131.874 29.21 131.851 29.1104C131.827 29.0107 131.801 28.9023 131.771 28.7852V28.7939C131.455 27.9326 130.831 27.4727 129.899 27.4141C129.917 27.4609 129.94 27.5137 129.97 27.5723C129.999 27.6309 130.034 27.7012 130.075 27.7832C130.228 28.1172 130.424 28.4014 130.664 28.6357C130.91 28.8643 131.2 29.0547 131.534 29.207ZM147.803 29.3037C146.936 30.7451 145.582 31.4336 143.742 31.3691C142.441 31.3691 141.311 30.8887 140.35 29.9277C139.869 29.4355 139.509 28.9082 139.269 28.3457C139.028 27.7773 138.908 27.1562 138.908 26.4824C138.908 25.1172 139.377 23.9746 140.314 23.0547C141.264 22.123 142.409 21.6572 143.751 21.6572C144.501 21.6572 145.192 21.8066 145.825 22.1055C146.458 22.3984 147.021 22.8145 147.513 23.3535C147.571 23.418 147.621 23.5 147.662 23.5996C147.709 23.6934 147.738 23.8047 147.75 23.9336C147.762 24.0566 147.735 24.1914 147.671 24.3379C147.606 24.4785 147.504 24.6191 147.363 24.7598C147.141 24.9004 146.918 24.9707 146.695 24.9707C146.502 24.9707 146.294 24.9062 146.071 24.7773C145.456 24.0391 144.683 23.6699 143.751 23.6699C142.954 23.6699 142.283 23.9365 141.738 24.4697C141.199 24.9912 140.93 25.6621 140.93 26.4824C140.93 27.2559 141.208 27.9297 141.765 28.5039C142.327 29.0664 142.989 29.3477 143.751 29.3477C144.899 29.3945 145.693 28.9961 146.133 28.1523C146.385 27.7539 146.684 27.5547 147.029 27.5547C147.246 27.5547 147.445 27.6133 147.627 27.7305C147.773 27.8418 147.882 27.9648 147.952 28.0996C148.022 28.2344 148.058 28.3779 148.058 28.5303C148.058 28.7764 147.973 29.0371 147.803 29.3125V29.3037ZM147.196 16.7969C147.196 17.0957 147.114 17.3389 146.95 17.5264C146.786 17.7139 146.537 17.8398 146.203 17.9043C145.553 17.9043 145.228 17.6523 145.228 17.1484C145.228 16.8379 145.066 16.5918 144.744 16.4102C144.568 16.3105 144.404 16.2373 144.252 16.1904C144.094 16.1436 143.944 16.1201 143.804 16.1201C143.095 16.1201 142.682 16.4395 142.564 17.0781C142.564 17.7344 142.852 18.3262 143.426 18.8535C143.666 19.0762 144.064 19.3223 144.621 19.5918L145.465 20.0137C145.787 20.1777 145.948 20.4619 145.948 20.8662C145.948 21.458 145.597 21.8154 144.894 21.9385L144.472 21.7891L143.382 21.2441C142.854 20.957 142.397 20.6348 142.011 20.2773C141.624 19.9141 141.316 19.5303 141.088 19.126C140.93 18.8154 140.807 18.4697 140.719 18.0889C140.631 17.7021 140.587 17.2803 140.587 16.8232C140.728 15.9971 141.097 15.3438 141.694 14.8633V14.8721C142.286 14.374 142.989 14.125 143.804 14.125C144.618 14.125 145.354 14.3652 146.01 14.8457C146.666 15.3145 147.062 15.9561 147.196 16.7705V16.7969ZM149.323 23.7578C149.323 23.459 149.379 23.1777 149.49 22.9141C149.607 22.6504 149.763 22.4219 149.956 22.2285C150.155 22.0293 150.387 21.874 150.65 21.7627C150.914 21.6455 151.195 21.5869 151.494 21.5869C151.793 21.5869 152.074 21.6455 152.338 21.7627C152.602 21.874 152.83 22.0293 153.023 22.2285C153.217 22.4219 153.369 22.6504 153.48 22.9141C153.598 23.1777 153.656 23.459 153.656 23.7578C153.656 24.0566 153.598 24.3379 153.48 24.6016C153.369 24.8652 153.217 25.0967 153.023 25.2959C152.83 25.4893 152.602 25.6445 152.338 25.7617C152.074 25.873 151.793 25.9287 151.494 25.9287C151.195 25.9287 150.914 25.873 150.65 25.7617C150.387 25.6445 150.155 25.4893 149.956 25.2959C149.763 25.0967 149.607 24.8652 149.49 24.6016C149.379 24.3379 149.323 24.0566 149.323 23.7578ZM151.099 23.7578C151.099 23.8691 151.134 23.9629 151.204 24.0391C151.28 24.1152 151.377 24.1533 151.494 24.1533C151.605 24.1533 151.696 24.1152 151.767 24.0391C151.843 23.9629 151.881 23.8691 151.881 23.7578C151.881 23.6465 151.843 23.5527 151.767 23.4766C151.696 23.4004 151.605 23.3623 151.494 23.3623C151.377 23.3623 151.28 23.4004 151.204 23.4766C151.134 23.5527 151.099 23.6465 151.099 23.7578ZM149.323 29.1367C149.323 28.8379 149.379 28.5566 149.49 28.293C149.607 28.0293 149.763 27.8008 149.956 27.6074C150.155 27.4082 150.387 27.2529 150.65 27.1416C150.914 27.0244 151.195 26.9658 151.494 26.9658C151.793 26.9658 152.074 27.0244 152.338 27.1416C152.602 27.2529 152.83 27.4082 153.023 27.6074C153.217 27.8008 153.369 28.0293 153.48 28.293C153.598 28.5566 153.656 28.8379 153.656 29.1367C153.656 29.4355 153.598 29.7168 153.48 29.9805C153.369 30.2441 153.217 30.4756 153.023 30.6748C152.83 30.8682 152.602 31.0205 152.338 31.1318C152.074 31.249 151.793 31.3076 151.494 31.3076C151.195 31.3076 150.914 31.249 150.65 31.1318C150.387 31.0205 150.155 30.8682 149.956 30.6748C149.763 30.4756 149.607 30.2441 149.49 29.9805C149.379 29.7168 149.323 29.4355 149.323 29.1367ZM151.099 29.1367C151.099 29.248 151.134 29.3418 151.204 29.418C151.28 29.4941 151.377 29.5322 151.494 29.5322C151.605 29.5322 151.696 29.4941 151.767 29.418C151.843 29.3418 151.881 29.248 151.881 29.1367C151.881 29.0254 151.843 28.9346 151.767 28.8643C151.696 28.7881 151.605 28.75 151.494 28.75C151.377 28.75 151.28 28.7881 151.204 28.8643C151.134 28.9346 151.099 29.0254 151.099 29.1367ZM172.544 26.4824C172.544 27.8242 172.063 28.9756 171.103 29.9365C170.136 30.8916 168.993 31.3691 167.675 31.3691C166.339 31.3691 165.193 30.8916 164.238 29.9365C164.156 29.8604 164.092 29.7988 164.045 29.752C163.998 29.6992 163.96 29.6582 163.931 29.6289C163.901 29.5996 163.878 29.5762 163.86 29.5586C163.849 29.5352 163.837 29.5146 163.825 29.4971C163.778 29.5498 163.717 29.6143 163.641 29.6904C163.57 29.7607 163.491 29.8428 163.403 29.9365C162.437 30.8916 161.288 31.3691 159.958 31.3691C158.622 31.3691 157.482 30.8916 156.539 29.9365C155.602 28.9697 155.133 27.8184 155.133 26.4824C155.133 25.1113 155.599 23.9688 156.53 23.0547C157.462 22.123 158.604 21.6572 159.958 21.6572C161.288 21.6572 162.434 22.1318 163.395 23.0811C163.471 23.1572 163.532 23.2188 163.579 23.2656C163.632 23.3125 163.673 23.3506 163.702 23.3799C163.737 23.4033 163.761 23.4238 163.772 23.4414C163.79 23.459 163.805 23.4766 163.816 23.4941C163.863 23.4355 163.922 23.3711 163.992 23.3008C164.062 23.2246 164.142 23.1426 164.229 23.0547C165.179 22.123 166.327 21.6572 167.675 21.6572C168.993 21.6572 170.136 22.1318 171.103 23.0811C172.063 24.0244 172.544 25.1582 172.544 26.4824ZM170.54 26.4824C170.54 25.7207 170.256 25.0645 169.688 24.5137C169.107 23.9512 168.437 23.6699 167.675 23.6699C167.259 23.6699 166.884 23.7373 166.55 23.8721C166.222 24.0068 165.92 24.2061 165.645 24.4697C165.117 24.9912 164.854 25.6621 164.854 26.4824C164.854 27.2793 165.123 27.9561 165.662 28.5127C166.219 29.0693 166.89 29.3477 167.675 29.3477C168.466 29.3477 169.14 29.0664 169.696 28.5039C170.259 27.9355 170.54 27.2617 170.54 26.4824ZM162.832 26.4824C162.832 25.7207 162.548 25.0645 161.979 24.5137C161.399 23.9512 160.726 23.6699 159.958 23.6699C159.161 23.6699 158.49 23.9365 157.945 24.4697C157.418 24.9912 157.154 25.6621 157.154 26.4824C157.154 27.2793 157.424 27.9561 157.963 28.5127C158.52 29.0693 159.185 29.3477 159.958 29.3477C160.749 29.3477 161.426 29.0664 161.988 28.5039C162.551 27.9355 162.832 27.2617 162.832 26.4824ZM171.454 19.6445C171.454 19.8906 171.36 20.1221 171.173 20.3389C170.974 20.5557 170.733 20.6641 170.452 20.6641C170.37 20.6641 170.279 20.6494 170.18 20.6201C170.074 20.5908 169.963 20.5439 169.846 20.4795L165.565 17.1924C165.308 17.0283 165.179 16.7676 165.179 16.4102C165.179 16.1523 165.275 15.9209 165.469 15.7158C165.668 15.499 165.894 15.3906 166.146 15.3906C166.333 15.3906 166.526 15.4492 166.726 15.5664L171.032 18.8623C171.313 19.1143 171.454 19.375 171.454 19.6445ZM183.732 26.3506C183.732 27.6865 183.252 28.8613 182.291 29.875C181.342 30.8711 180.188 31.3691 178.828 31.3691C177.51 31.3691 176.37 30.8711 175.409 29.875C174.454 28.8672 173.977 27.6924 173.977 26.3506C173.977 24.4053 174.826 22.873 176.525 21.7539L176.93 21.6484C177.586 21.6484 177.949 21.9824 178.02 22.6504C178.02 23.002 177.855 23.2832 177.527 23.4941C177.305 23.6406 177.1 23.8164 176.912 24.0215C176.725 24.2207 176.561 24.4521 176.42 24.7158C176.285 24.9678 176.183 25.2344 176.112 25.5156C176.042 25.7969 176.001 26.0693 175.989 26.333L176.042 26.7109C176.675 26.0488 177.604 25.7178 178.828 25.7178C179.455 25.7178 180.012 25.8027 180.498 25.9727C180.984 26.1426 181.389 26.3828 181.711 26.6934V26.3506C181.711 25.7529 181.573 25.2139 181.298 24.7334C181.028 24.2529 180.645 23.8398 180.146 23.4941C180.029 23.4238 179.933 23.3242 179.856 23.1953C179.78 23.0664 179.728 22.9199 179.698 22.7559C179.675 22.123 180.003 21.7539 180.683 21.6484L181.096 21.7627C181.934 22.2432 182.581 22.8965 183.038 23.7227H183.029C183.498 24.5605 183.732 25.4365 183.732 26.3506ZM180.762 28.7236L180.691 28.6182L180.771 28.5215L180.762 28.7236ZM178.828 29.3477C179.637 29.3477 180.258 29.1045 180.691 28.6182C180.234 28.0146 179.613 27.7129 178.828 27.7129C178.436 27.7129 178.093 27.7979 177.8 27.9678C177.513 28.1318 177.264 28.3633 177.053 28.6621C177.275 28.8848 177.533 29.0547 177.826 29.1719C178.125 29.2891 178.459 29.3477 178.828 29.3477ZM180.173 37.0029C180.173 37.6768 179.83 38.0137 179.145 38.0137H177.079C176.417 38.0137 176.086 37.6768 176.086 37.0029C176.086 36.458 176.399 36.1328 177.026 36.0273H178.187V31.2197C178.198 30.5459 178.518 30.209 179.145 30.209C179.83 30.209 180.173 30.5459 180.173 31.2197V37.0029ZM183.609 24.1182C183.592 24.0889 183.583 24.0566 183.583 24.0215C183.583 23.9863 183.595 23.957 183.618 23.9336C184.063 23.3594 184.585 22.8672 185.183 22.457V22.4658C185.962 21.9326 186.85 21.666 187.846 21.666C189.469 21.666 190.758 22.3545 191.713 23.7314C192.316 24.6162 192.618 25.5332 192.618 26.4824C192.618 28.2227 191.918 29.5498 190.518 30.4639C189.562 31.085 188.596 31.3955 187.617 31.3955C187.248 31.3955 186.847 31.3369 186.413 31.2197L186.105 31.1143L185.78 30.9385C185.282 30.7803 185.033 30.4521 185.033 29.9541C185.033 29.8369 185.057 29.7285 185.104 29.6289C185.156 29.5234 185.229 29.418 185.323 29.3125C185.511 29.0898 185.742 28.9785 186.018 28.9785C186.129 28.9785 186.223 28.9902 186.299 29.0137C186.375 29.0312 186.439 29.0576 186.492 29.0928L187.116 29.3389H187.107C187.154 29.3506 187.216 29.3594 187.292 29.3652C187.374 29.3711 187.477 29.374 187.6 29.374C188.396 29.374 189.094 29.0928 189.691 28.5303V28.5391C190.283 27.9648 190.579 27.2793 190.579 26.4824C190.579 26.1719 190.535 25.876 190.447 25.5947C190.365 25.3135 190.248 25.0557 190.096 24.8213C189.885 24.5049 189.554 24.2383 189.103 24.0215C188.675 23.8047 188.25 23.6963 187.828 23.6963C187.26 23.6963 186.7 23.8604 186.149 24.1885L186.167 24.1797C185.78 24.4785 185.452 24.8359 185.183 25.252L184.875 25.7266C184.834 25.7793 184.784 25.8057 184.726 25.8057C184.661 25.7998 184.611 25.7705 184.576 25.7178L183.609 24.1182ZM215.733 26.5439C215.733 27.7979 215.25 28.9258 214.283 29.9277C213.316 30.9238 212.068 31.4043 210.539 31.3691L210.056 31.3428L209.581 31.1846C209.171 30.9736 208.966 30.6719 208.966 30.2793C208.966 30.127 208.998 29.9922 209.062 29.875C209.127 29.752 209.227 29.623 209.361 29.4883C209.648 29.3301 209.95 29.2832 210.267 29.3477L210.592 29.3828H210.574C211.5 29.3828 212.268 29.0928 212.877 28.5127C213.246 28.1494 213.498 27.6748 213.633 27.0889L213.624 27.0977C213.665 26.916 213.686 26.7314 213.686 26.5439C213.686 25.7412 213.404 25.0586 212.842 24.4961C212.291 23.9277 211.614 23.6436 210.812 23.6436C210.091 23.6436 209.429 23.9336 208.825 24.5137C208.562 24.7773 208.359 25.0557 208.219 25.3486C208.078 25.6416 208.008 25.9756 208.008 26.3506C208.008 27.833 207.565 29.0371 206.681 29.9629C205.79 30.9004 204.609 31.3691 203.139 31.3691C202.406 31.3691 201.715 31.2139 201.064 30.9033C200.42 30.5928 199.849 30.1621 199.351 29.6113C198.94 29.1367 198.735 28.7236 198.735 28.3721C198.735 27.7627 199.037 27.458 199.641 27.458C199.922 27.458 200.171 27.5342 200.388 27.6865C200.604 27.833 200.786 28.0469 200.933 28.3281C201.226 28.6797 201.554 28.9375 201.917 29.1016C202.28 29.2656 202.688 29.3477 203.139 29.3477C203.561 29.3477 203.941 29.2832 204.281 29.1543C204.621 29.0254 204.932 28.8291 205.213 28.5654C205.758 28.0381 206.03 27.3643 206.03 26.5439C206.03 25.7529 205.743 25.0791 205.169 24.5225C204.882 24.2412 204.571 24.0303 204.237 23.8896C203.903 23.7432 203.537 23.6699 203.139 23.6699C202.184 23.6699 201.454 23.9717 200.95 24.5752L200.757 24.8301C200.687 25.0176 200.572 25.167 200.414 25.2783C200.262 25.3838 200.074 25.4365 199.852 25.4365C199.178 25.4365 198.841 25.0381 198.841 24.2412C198.888 23.9365 198.996 23.6934 199.166 23.5117L199.315 23.3799C200.142 22.2314 201.416 21.6572 203.139 21.6572C203.561 21.6572 203.982 21.7188 204.404 21.8418C204.832 21.9648 205.23 22.1377 205.6 22.3604C205.916 22.5479 206.188 22.7383 206.417 22.9316C206.651 23.1191 206.842 23.3066 206.988 23.4941L207.015 23.4502L207.393 23.0635C208.377 22.126 209.522 21.6572 210.829 21.6572C212.147 21.6572 213.296 22.1406 214.274 23.1074C215.247 24.0625 215.733 25.208 215.733 26.5439ZM215.742 24.1182C215.725 24.0889 215.716 24.0566 215.716 24.0215C215.716 23.9863 215.728 23.957 215.751 23.9336C216.196 23.3594 216.718 22.8672 217.315 22.457V22.4658C218.095 21.9326 218.982 21.666 219.979 21.666C221.602 21.666 222.891 22.3545 223.846 23.7314C224.449 24.6162 224.751 25.5332 224.751 26.4824C224.751 28.2227 224.051 29.5498 222.65 30.4639C221.695 31.085 220.729 31.3955 219.75 31.3955C219.381 31.3955 218.979 31.3369 218.546 31.2197L218.238 31.1143L217.913 30.9385C217.415 30.7803 217.166 30.4521 217.166 29.9541C217.166 29.8369 217.189 29.7285 217.236 29.6289C217.289 29.5234 217.362 29.418 217.456 29.3125C217.644 29.0898 217.875 28.9785 218.15 28.9785C218.262 28.9785 218.355 28.9902 218.432 29.0137C218.508 29.0312 218.572 29.0576 218.625 29.0928L219.249 29.3389H219.24C219.287 29.3506 219.349 29.3594 219.425 29.3652C219.507 29.3711 219.609 29.374 219.732 29.374C220.529 29.374 221.227 29.0928 221.824 28.5303V28.5391C222.416 27.9648 222.712 27.2793 222.712 26.4824C222.712 26.1719 222.668 25.876 222.58 25.5947C222.498 25.3135 222.381 25.0557 222.229 24.8213C222.018 24.5049 221.687 24.2383 221.235 24.0215C220.808 23.8047 220.383 23.6963 219.961 23.6963C219.393 23.6963 218.833 23.8604 218.282 24.1885L218.3 24.1797C217.913 24.4785 217.585 24.8359 217.315 25.252L217.008 25.7266C216.967 25.7793 216.917 25.8057 216.858 25.8057C216.794 25.7998 216.744 25.7705 216.709 25.7178L215.742 24.1182ZM235.641 26.3506C235.641 27.6865 235.16 28.8613 234.199 29.875C233.25 30.8711 232.096 31.3691 230.736 31.3691C229.418 31.3691 228.278 30.8711 227.317 29.875C226.362 28.8672 225.885 27.6924 225.885 26.3506C225.885 24.4053 226.734 22.873 228.434 21.7539L228.838 21.6484C229.494 21.6484 229.857 21.9824 229.928 22.6504C229.928 23.002 229.764 23.2832 229.436 23.4941C229.213 23.6406 229.008 23.8164 228.82 24.0215C228.633 24.2207 228.469 24.4521 228.328 24.7158C228.193 24.9678 228.091 25.2344 228.021 25.5156C227.95 25.7969 227.909 26.0693 227.897 26.333L227.95 26.7109C228.583 26.0488 229.512 25.7178 230.736 25.7178C231.363 25.7178 231.92 25.8027 232.406 25.9727C232.893 26.1426 233.297 26.3828 233.619 26.6934V26.3506C233.619 25.7529 233.481 25.2139 233.206 24.7334C232.937 24.2529 232.553 23.8398 232.055 23.4941C231.938 23.4238 231.841 23.3242 231.765 23.1953C231.688 23.0664 231.636 22.9199 231.606 22.7559C231.583 22.123 231.911 21.7539 232.591 21.6484L233.004 21.7627C233.842 22.2432 234.489 22.8965 234.946 23.7227H234.938C235.406 24.5605 235.641 25.4365 235.641 26.3506ZM232.67 28.7236L232.6 28.6182L232.679 28.5215L232.67 28.7236ZM230.736 29.3477C231.545 29.3477 232.166 29.1045 232.6 28.6182C232.143 28.0146 231.521 27.7129 230.736 27.7129C230.344 27.7129 230.001 27.7979 229.708 27.9678C229.421 28.1318 229.172 28.3633 228.961 28.6621C229.184 28.8848 229.441 29.0547 229.734 29.1719C230.033 29.2891 230.367 29.3477 230.736 29.3477ZM232.081 37.0029C232.081 37.6768 231.738 38.0137 231.053 38.0137H228.987C228.325 38.0137 227.994 37.6768 227.994 37.0029C227.994 36.458 228.308 36.1328 228.935 36.0273H230.095V31.2197C230.106 30.5459 230.426 30.209 231.053 30.209C231.738 30.209 232.081 30.5459 232.081 31.2197V37.0029ZM120.293 55.3506C120.293 56.6865 119.812 57.8613 118.852 58.875C117.902 59.8711 116.748 60.3691 115.389 60.3691C114.07 60.3691 112.931 59.8711 111.97 58.875C111.015 57.8672 110.537 56.6924 110.537 55.3506C110.537 53.4053 111.387 51.873 113.086 50.7539L113.49 50.6484C114.146 50.6484 114.51 50.9824 114.58 51.6504C114.58 52.002 114.416 52.2832 114.088 52.4941C113.865 52.6406 113.66 52.8164 113.473 53.0215C113.285 53.2207 113.121 53.4521 112.98 53.7158C112.846 53.9678 112.743 54.2344 112.673 54.5156C112.603 54.7969 112.562 55.0693 112.55 55.333L112.603 55.7109C113.235 55.0488 114.164 54.7178 115.389 54.7178C116.016 54.7178 116.572 54.8027 117.059 54.9727C117.545 55.1426 117.949 55.3828 118.271 55.6934V55.3506C118.271 54.7529 118.134 54.2139 117.858 53.7334C117.589 53.2529 117.205 52.8398 116.707 52.4941C116.59 52.4238 116.493 52.3242 116.417 52.1953C116.341 52.0664 116.288 51.9199 116.259 51.7559C116.235 51.123 116.563 50.7539 117.243 50.6484L117.656 50.7627C118.494 51.2432 119.142 51.8965 119.599 52.7227H119.59C120.059 53.5605 120.293 54.4365 120.293 55.3506ZM117.322 57.7236L117.252 57.6182L117.331 57.5215L117.322 57.7236ZM115.389 58.3477C116.197 58.3477 116.818 58.1045 117.252 57.6182C116.795 57.0146 116.174 56.7129 115.389 56.7129C114.996 56.7129 114.653 56.7979 114.36 56.9678C114.073 57.1318 113.824 57.3633 113.613 57.6621C113.836 57.8848 114.094 58.0547 114.387 58.1719C114.686 58.2891 115.02 58.3477 115.389 58.3477ZM131.016 65.0713H131.754C132.387 65.0713 132.732 65.3906 132.791 66.0293C132.791 66.6973 132.448 67.0518 131.763 67.0928H129.979C129.369 67.0635 129.044 66.7266 129.003 66.082V55.9043C129.003 54.873 128.736 54.082 128.203 53.5312C127.664 52.9688 126.99 52.6875 126.182 52.6875C125.566 52.6875 124.963 52.916 124.371 53.373C123.896 53.7422 123.601 54.1025 123.483 54.4541C124.075 54.4658 124.594 54.5625 125.039 54.7441C125.484 54.9199 125.865 55.1807 126.182 55.5264C126.973 56.3877 127.368 57.3604 127.368 58.4443C127.368 59.7275 126.973 60.375 126.182 60.3867C124.852 60.4102 123.718 59.9443 122.78 58.9893C121.86 58.0518 121.4 56.8945 121.4 55.5176C121.4 54.1406 121.866 52.9863 122.798 52.0547C123.272 51.5918 123.788 51.2461 124.345 51.0176C124.907 50.7832 125.52 50.666 126.182 50.666C126.838 50.666 127.453 50.7861 128.027 51.0264C128.602 51.2666 129.126 51.6182 129.601 52.0811C129.847 52.3037 130.063 52.5732 130.251 52.8896C130.438 53.2002 130.591 53.5254 130.708 53.8652C130.808 54.1699 130.884 54.4951 130.937 54.8408C130.989 55.1807 131.016 55.5352 131.016 55.9043V65.0713ZM125.461 58.6113C125.461 58.5762 125.461 58.541 125.461 58.5059C125.461 58.4707 125.458 58.4326 125.452 58.3916C125.487 58.4033 125.522 58.415 125.558 58.4268C125.593 58.4326 125.628 58.4385 125.663 58.4443L125.461 58.6113ZM125.083 58.207C125.206 58.2891 125.329 58.3506 125.452 58.3916C125.44 58.3037 125.423 58.21 125.399 58.1104C125.376 58.0107 125.35 57.9023 125.32 57.7852V57.7939C125.004 56.9326 124.38 56.4727 123.448 56.4141C123.466 56.4609 123.489 56.5137 123.519 56.5723C123.548 56.6309 123.583 56.7012 123.624 56.7832C123.776 57.1172 123.973 57.4014 124.213 57.6357C124.459 57.8643 124.749 58.0547 125.083 58.207ZM127.579 66.0029C127.579 66.6768 127.236 67.0137 126.551 67.0137H124.485C123.823 67.0137 123.492 66.6768 123.492 66.0029C123.492 65.458 123.806 65.1328 124.433 65.0273H125.593V60.2197C125.604 59.5459 125.924 59.209 126.551 59.209C127.236 59.209 127.579 59.5459 127.579 60.2197V66.0029ZM130.365 47.0273C130.365 48.0996 129.99 49.0166 129.24 49.7783C128.496 50.5283 127.585 50.9033 126.507 50.9033C125.44 50.9033 124.538 50.5225 123.8 49.7607C123.05 48.999 122.675 48.0879 122.675 47.0273C122.675 45.9551 123.041 45.0352 123.773 44.2676C124.5 43.5059 125.411 43.125 126.507 43.125C127.562 43.125 128.47 43.5146 129.231 44.2939C129.987 45.0791 130.365 45.9902 130.365 47.0273ZM128.353 47.0273C128.353 46.5059 128.171 46.0605 127.808 45.6914C127.438 45.2988 127.005 45.1025 126.507 45.1025C125.968 45.1025 125.522 45.29 125.171 45.665C124.819 46.0342 124.644 46.4883 124.644 47.0273C124.644 47.5547 124.828 48.0059 125.197 48.3809C125.566 48.75 126.003 48.9346 126.507 48.9346C127.011 48.9346 127.447 48.75 127.816 48.3809C128.174 48.0059 128.353 47.5547 128.353 47.0273ZM141.773 57.5215L141.343 58.2246L140.903 58.8223C140.487 59.2441 139.945 59.6074 139.277 59.9121C138.943 60.0645 138.604 60.1787 138.258 60.2549C137.918 60.3311 137.566 60.3691 137.203 60.3691C135.855 60.3691 134.725 59.8887 133.811 58.9277C132.908 57.9727 132.457 56.8125 132.457 55.4473C132.457 54.0938 132.946 52.957 133.925 52.0371C134.897 51.1172 136.063 50.6572 137.423 50.6572C138.384 50.6572 139.23 50.9004 139.963 51.3867C140.15 51.5156 140.347 51.6826 140.552 51.8877C140.757 52.0869 140.971 52.3242 141.193 52.5996C141.387 52.8633 141.504 53.127 141.545 53.3906C141.545 54.0703 141.193 54.4102 140.49 54.4102C140.068 54.4102 139.77 54.2227 139.594 53.8477C139.424 53.6367 139.271 53.458 139.137 53.3115C139.008 53.1592 138.905 53.0596 138.829 53.0127C138.501 52.7607 138.032 52.6348 137.423 52.6348C136.591 52.6348 135.885 52.9072 135.305 53.4521C134.736 53.9854 134.452 54.6738 134.452 55.5176C134.452 56.2324 134.622 56.7832 134.962 57.1699C135.185 56.7363 135.504 56.376 135.92 56.0889C136.336 55.8018 136.857 55.5732 137.484 55.4033L138.548 55.2188C139.673 55.2188 140.692 55.6934 141.606 56.6426L141.773 57.5215ZM139.585 57.4688C139.573 57.457 139.559 57.4453 139.541 57.4336C139.523 57.4219 139.5 57.4102 139.471 57.3984L139.611 57.2578L139.585 57.4688ZM137.203 58.3477C138.076 58.3477 138.809 58.0518 139.4 57.46L139.471 57.3984C139.318 57.3281 139.028 57.293 138.601 57.293C138.308 57.293 138.023 57.3457 137.748 57.4512C137.473 57.5508 137.221 57.6973 136.992 57.8906C136.91 57.9668 136.837 58.0371 136.772 58.1016C136.708 58.166 136.658 58.2305 136.623 58.2949C136.699 58.3184 136.784 58.333 136.878 58.3389C136.978 58.3447 137.086 58.3477 137.203 58.3477ZM159.448 55.3857C159.448 56.6982 158.965 57.8408 157.998 58.8135C157.043 59.7861 155.9 60.2725 154.57 60.2725C153.293 60.2725 152.139 59.792 151.107 58.8311L150.729 58.3652C149.909 59.6133 148.629 60.2373 146.889 60.2373C145.178 60.2373 143.895 59.6514 143.039 58.4795C142.939 58.3447 142.872 58.1807 142.837 57.9873C142.837 57.6533 142.951 57.3838 143.18 57.1787L143.153 57.1963C143.282 57.0322 143.511 56.918 143.839 56.8535C144.149 56.8535 144.434 56.9912 144.691 57.2666C145.219 57.9287 145.951 58.2598 146.889 58.2598C147.615 58.2598 148.274 57.9727 148.866 57.3984C149.452 56.8184 149.745 56.0771 149.745 55.1748C149.745 54.4248 149.47 53.8037 148.919 53.3115C148.374 52.8252 147.697 52.582 146.889 52.582C145.928 52.582 145.181 52.9336 144.647 53.6367C144.542 53.7305 144.428 53.8037 144.305 53.8564C144.182 53.9092 144.053 53.9502 143.918 53.9795C143.197 53.9795 142.837 53.6396 142.837 52.96C142.837 52.8252 142.913 52.6113 143.065 52.3184C144.097 51.1465 145.371 50.5605 146.889 50.5605C148.119 50.5605 149.183 50.9473 150.079 51.7207C150.976 52.4824 151.512 53.4697 151.688 54.6826L151.723 55.5176C151.752 56.2148 152.033 56.8359 152.566 57.3809C153.146 57.9785 153.814 58.2773 154.57 58.2773C155.355 58.2773 156.026 57.9873 156.583 57.4072C157.14 56.8213 157.418 56.1357 157.418 55.3506C157.418 54.5537 157.146 53.8857 156.601 53.3467C156.056 52.8076 155.297 52.5586 154.324 52.5996H154.333L153.894 52.6523C153.214 52.6523 152.818 52.3447 152.707 51.7295C152.707 51.2666 152.88 50.9355 153.226 50.7363L153.753 50.6309L154.113 50.5781L154.623 50.5605C155.971 50.5605 157.104 51.0146 158.024 51.9229C158.974 52.8721 159.448 54.0264 159.448 55.3857ZM160.591 52.7578C160.591 52.459 160.646 52.1777 160.758 51.9141C160.875 51.6504 161.03 51.4219 161.224 51.2285C161.423 51.0293 161.654 50.874 161.918 50.7627C162.182 50.6455 162.463 50.5869 162.762 50.5869C163.061 50.5869 163.342 50.6455 163.605 50.7627C163.869 50.874 164.098 51.0293 164.291 51.2285C164.484 51.4219 164.637 51.6504 164.748 51.9141C164.865 52.1777 164.924 52.459 164.924 52.7578C164.924 53.0566 164.865 53.3379 164.748 53.6016C164.637 53.8652 164.484 54.0967 164.291 54.2959C164.098 54.4893 163.869 54.6445 163.605 54.7617C163.342 54.873 163.061 54.9287 162.762 54.9287C162.463 54.9287 162.182 54.873 161.918 54.7617C161.654 54.6445 161.423 54.4893 161.224 54.2959C161.03 54.0967 160.875 53.8652 160.758 53.6016C160.646 53.3379 160.591 53.0566 160.591 52.7578ZM162.366 52.7578C162.366 52.8691 162.401 52.9629 162.472 53.0391C162.548 53.1152 162.645 53.1533 162.762 53.1533C162.873 53.1533 162.964 53.1152 163.034 53.0391C163.11 52.9629 163.148 52.8691 163.148 52.7578C163.148 52.6465 163.11 52.5527 163.034 52.4766C162.964 52.4004 162.873 52.3623 162.762 52.3623C162.645 52.3623 162.548 52.4004 162.472 52.4766C162.401 52.5527 162.366 52.6465 162.366 52.7578ZM160.591 58.1367C160.591 57.8379 160.646 57.5566 160.758 57.293C160.875 57.0293 161.03 56.8008 161.224 56.6074C161.423 56.4082 161.654 56.2529 161.918 56.1416C162.182 56.0244 162.463 55.9658 162.762 55.9658C163.061 55.9658 163.342 56.0244 163.605 56.1416C163.869 56.2529 164.098 56.4082 164.291 56.6074C164.484 56.8008 164.637 57.0293 164.748 57.293C164.865 57.5566 164.924 57.8379 164.924 58.1367C164.924 58.4355 164.865 58.7168 164.748 58.9805C164.637 59.2441 164.484 59.4756 164.291 59.6748C164.098 59.8682 163.869 60.0205 163.605 60.1318C163.342 60.249 163.061 60.3076 162.762 60.3076C162.463 60.3076 162.182 60.249 161.918 60.1318C161.654 60.0205 161.423 59.8682 161.224 59.6748C161.03 59.4756 160.875 59.2441 160.758 58.9805C160.646 58.7168 160.591 58.4355 160.591 58.1367ZM162.366 58.1367C162.366 58.248 162.401 58.3418 162.472 58.418C162.548 58.4941 162.645 58.5322 162.762 58.5322C162.873 58.5322 162.964 58.4941 163.034 58.418C163.11 58.3418 163.148 58.248 163.148 58.1367C163.148 58.0254 163.11 57.9346 163.034 57.8643C162.964 57.7881 162.873 57.75 162.762 57.75C162.645 57.75 162.548 57.7881 162.472 57.8643C162.401 57.9346 162.366 58.0254 162.366 58.1367ZM176.13 55.3594C176.13 56.0332 176.004 56.6689 175.752 57.2666C175.5 57.8643 175.146 58.4062 174.688 58.8926C174.214 59.373 173.684 59.7393 173.098 59.9912C172.518 60.2432 171.891 60.3691 171.217 60.3691C169.863 60.3691 168.712 59.8711 167.763 58.875C166.825 57.873 166.356 56.7012 166.356 55.3594C166.356 54.4688 166.588 53.6133 167.051 52.793C167.496 51.9785 168.12 51.293 168.923 50.7363L169.336 50.6484C169.986 50.6484 170.347 50.9854 170.417 51.6592C170.417 52.0049 170.25 52.2832 169.916 52.4941C169.693 52.6289 169.488 52.7988 169.301 53.0039C169.113 53.2031 168.949 53.4375 168.809 53.707C168.516 54.2461 168.369 54.7969 168.369 55.3594C168.369 56.1738 168.653 56.874 169.222 57.46C169.796 58.0518 170.461 58.3477 171.217 58.3477C172.043 58.3477 172.731 58.0547 173.282 57.4688C173.839 56.877 174.117 56.1738 174.117 55.3594C174.117 54.791 173.974 54.2402 173.687 53.707C173.405 53.168 173.036 52.7666 172.579 52.5029C172.321 52.3506 172.166 52.1045 172.113 51.7646C172.084 51.126 172.412 50.7539 173.098 50.6484L173.511 50.7627C174.343 51.2314 174.987 51.8818 175.444 52.7139H175.436C175.898 53.5518 176.13 54.4336 176.13 55.3594ZM179.435 59.8506C179.423 60.1436 179.332 60.3721 179.162 60.5361C178.992 60.7002 178.737 60.7822 178.397 60.7822C177.753 60.7822 177.431 60.4717 177.431 59.8506V46.21C177.431 45.9111 177.293 45.6621 177.018 45.4629C176.725 45.2578 176.391 45.1553 176.016 45.1553C175.717 45.1553 175.395 45.2754 175.049 45.5156C174.727 45.75 174.565 45.9814 174.565 46.21C174.565 46.5498 174.419 46.8252 174.126 47.0361L173.669 47.2031C172.942 47.2031 172.579 46.8721 172.579 46.21C172.579 45.7822 172.676 45.3779 172.869 44.9971C173.062 44.6104 173.341 44.2646 173.704 43.96C174.032 43.6904 174.39 43.4854 174.776 43.3447C175.163 43.1982 175.576 43.125 176.016 43.125C176.918 43.125 177.697 43.3916 178.354 43.9248C178.699 44.2236 178.957 44.5693 179.127 44.9619C179.303 45.3545 179.396 45.7705 179.408 46.21L179.435 59.8506ZM197.681 55.5439C197.681 56.7979 197.197 57.9258 196.23 58.9277C195.264 59.9238 194.016 60.4043 192.486 60.3691L192.003 60.3428L191.528 60.1846C191.118 59.9736 190.913 59.6719 190.913 59.2793C190.913 59.127 190.945 58.9922 191.01 58.875C191.074 58.752 191.174 58.623 191.309 58.4883C191.596 58.3301 191.897 58.2832 192.214 58.3477L192.539 58.3828H192.521C193.447 58.3828 194.215 58.0928 194.824 57.5127C195.193 57.1494 195.445 56.6748 195.58 56.0889L195.571 56.0977C195.612 55.916 195.633 55.7314 195.633 55.5439C195.633 54.7412 195.352 54.0586 194.789 53.4961C194.238 52.9277 193.562 52.6436 192.759 52.6436C192.038 52.6436 191.376 52.9336 190.772 53.5137C190.509 53.7773 190.307 54.0557 190.166 54.3486C190.025 54.6416 189.955 54.9756 189.955 55.3506C189.955 56.833 189.513 58.0371 188.628 58.9629C187.737 59.9004 186.557 60.3691 185.086 60.3691C184.354 60.3691 183.662 60.2139 183.012 59.9033C182.367 59.5928 181.796 59.1621 181.298 58.6113C180.888 58.1367 180.683 57.7236 180.683 57.3721C180.683 56.7627 180.984 56.458 181.588 56.458C181.869 56.458 182.118 56.5342 182.335 56.6865C182.552 56.833 182.733 57.0469 182.88 57.3281C183.173 57.6797 183.501 57.9375 183.864 58.1016C184.228 58.2656 184.635 58.3477 185.086 58.3477C185.508 58.3477 185.889 58.2832 186.229 58.1543C186.568 58.0254 186.879 57.8291 187.16 57.5654C187.705 57.0381 187.978 56.3643 187.978 55.5439C187.978 54.7529 187.69 54.0791 187.116 53.5225C186.829 53.2412 186.519 53.0303 186.185 52.8896C185.851 52.7432 185.484 52.6699 185.086 52.6699C184.131 52.6699 183.401 52.9717 182.897 53.5752L182.704 53.8301C182.634 54.0176 182.52 54.167 182.361 54.2783C182.209 54.3838 182.021 54.4365 181.799 54.4365C181.125 54.4365 180.788 54.0381 180.788 53.2412C180.835 52.9365 180.943 52.6934 181.113 52.5117L181.263 52.3799C182.089 51.2314 183.363 50.6572 185.086 50.6572C185.508 50.6572 185.93 50.7188 186.352 50.8418C186.779 50.9648 187.178 51.1377 187.547 51.3604C187.863 51.5479 188.136 51.7383 188.364 51.9316C188.599 52.1191 188.789 52.3066 188.936 52.4941L188.962 52.4502L189.34 52.0635C190.324 51.126 191.47 50.6572 192.776 50.6572C194.095 50.6572 195.243 51.1406 196.222 52.1074C197.194 53.0625 197.681 54.208 197.681 55.5439ZM193.049 66.0029C193.049 66.3193 192.952 66.5654 192.759 66.7412C192.56 66.9229 192.325 67.0137 192.056 67.0137C191.382 67.0137 191.045 66.6768 191.045 66.0029V61.0723C191.051 60.4277 191.385 60.0908 192.047 60.0615C192.715 60.0615 193.049 60.3984 193.049 61.0723V66.0029ZM193.532 61.0723C193.532 60.3984 193.869 60.0615 194.543 60.0615C195.182 60.1084 195.504 60.4453 195.51 61.0723V65.0273H196.6C197.238 65.0273 197.558 65.3525 197.558 66.0029C197.558 66.6768 197.238 67.0137 196.6 67.0137H194.534C193.866 67.0137 193.532 66.6768 193.532 66.0029V61.0723ZM198.858 52.7578C198.858 52.459 198.914 52.1777 199.025 51.9141C199.143 51.6504 199.298 51.4219 199.491 51.2285C199.69 51.0293 199.922 50.874 200.186 50.7627C200.449 50.6455 200.73 50.5869 201.029 50.5869C201.328 50.5869 201.609 50.6455 201.873 50.7627C202.137 50.874 202.365 51.0293 202.559 51.2285C202.752 51.4219 202.904 51.6504 203.016 51.9141C203.133 52.1777 203.191 52.459 203.191 52.7578C203.191 53.0566 203.133 53.3379 203.016 53.6016C202.904 53.8652 202.752 54.0967 202.559 54.2959C202.365 54.4893 202.137 54.6445 201.873 54.7617C201.609 54.873 201.328 54.9287 201.029 54.9287C200.73 54.9287 200.449 54.873 200.186 54.7617C199.922 54.6445 199.69 54.4893 199.491 54.2959C199.298 54.0967 199.143 53.8652 199.025 53.6016C198.914 53.3379 198.858 53.0566 198.858 52.7578ZM200.634 52.7578C200.634 52.8691 200.669 52.9629 200.739 53.0391C200.815 53.1152 200.912 53.1533 201.029 53.1533C201.141 53.1533 201.231 53.1152 201.302 53.0391C201.378 52.9629 201.416 52.8691 201.416 52.7578C201.416 52.6465 201.378 52.5527 201.302 52.4766C201.231 52.4004 201.141 52.3623 201.029 52.3623C200.912 52.3623 200.815 52.4004 200.739 52.4766C200.669 52.5527 200.634 52.6465 200.634 52.7578ZM198.858 58.1367C198.858 57.8379 198.914 57.5566 199.025 57.293C199.143 57.0293 199.298 56.8008 199.491 56.6074C199.69 56.4082 199.922 56.2529 200.186 56.1416C200.449 56.0244 200.73 55.9658 201.029 55.9658C201.328 55.9658 201.609 56.0244 201.873 56.1416C202.137 56.2529 202.365 56.4082 202.559 56.6074C202.752 56.8008 202.904 57.0293 203.016 57.293C203.133 57.5566 203.191 57.8379 203.191 58.1367C203.191 58.4355 203.133 58.7168 203.016 58.9805C202.904 59.2441 202.752 59.4756 202.559 59.6748C202.365 59.8682 202.137 60.0205 201.873 60.1318C201.609 60.249 201.328 60.3076 201.029 60.3076C200.73 60.3076 200.449 60.249 200.186 60.1318C199.922 60.0205 199.69 59.8682 199.491 59.6748C199.298 59.4756 199.143 59.2441 199.025 58.9805C198.914 58.7168 198.858 58.4355 198.858 58.1367ZM200.634 58.1367C200.634 58.248 200.669 58.3418 200.739 58.418C200.815 58.4941 200.912 58.5322 201.029 58.5322C201.141 58.5322 201.231 58.4941 201.302 58.418C201.378 58.3418 201.416 58.248 201.416 58.1367C201.416 58.0254 201.378 57.9346 201.302 57.8643C201.231 57.7881 201.141 57.75 201.029 57.75C200.912 57.75 200.815 57.7881 200.739 57.8643C200.669 57.9346 200.634 58.0254 200.634 58.1367ZM213.967 57.5215L213.536 58.2246L213.097 58.8223C212.681 59.2441 212.139 59.6074 211.471 59.9121C211.137 60.0645 210.797 60.1787 210.451 60.2549C210.111 60.3311 209.76 60.3691 209.396 60.3691C208.049 60.3691 206.918 59.8887 206.004 58.9277C205.102 57.9727 204.65 56.8125 204.65 55.4473C204.65 54.0938 205.14 52.957 206.118 52.0371C207.091 51.1172 208.257 50.6572 209.616 50.6572C210.577 50.6572 211.424 50.9004 212.156 51.3867C212.344 51.5156 212.54 51.6826 212.745 51.8877C212.95 52.0869 213.164 52.3242 213.387 52.5996C213.58 52.8633 213.697 53.127 213.738 53.3906C213.738 54.0703 213.387 54.4102 212.684 54.4102C212.262 54.4102 211.963 54.2227 211.787 53.8477C211.617 53.6367 211.465 53.458 211.33 53.3115C211.201 53.1592 211.099 53.0596 211.022 53.0127C210.694 52.7607 210.226 52.6348 209.616 52.6348C208.784 52.6348 208.078 52.9072 207.498 53.4521C206.93 53.9854 206.646 54.6738 206.646 55.5176C206.646 56.2324 206.815 56.7832 207.155 57.1699C207.378 56.7363 207.697 56.376 208.113 56.0889C208.529 55.8018 209.051 55.5732 209.678 55.4033L210.741 55.2188C211.866 55.2188 212.886 55.6934 213.8 56.6426L213.967 57.5215ZM211.778 57.4688C211.767 57.457 211.752 57.4453 211.734 57.4336C211.717 57.4219 211.693 57.4102 211.664 57.3984L211.805 57.2578L211.778 57.4688ZM209.396 58.3477C210.27 58.3477 211.002 58.0518 211.594 57.46L211.664 57.3984C211.512 57.3281 211.222 57.293 210.794 57.293C210.501 57.293 210.217 57.3457 209.941 57.4512C209.666 57.5508 209.414 57.6973 209.186 57.8906C209.104 57.9668 209.03 58.0371 208.966 58.1016C208.901 58.166 208.852 58.2305 208.816 58.2949C208.893 58.3184 208.978 58.333 209.071 58.3389C209.171 58.3447 209.279 58.3477 209.396 58.3477ZM220.102 55.377C220.113 55.3887 220.122 55.3945 220.128 55.3945C220.532 55.6875 220.881 56.0889 221.174 56.5986C221.273 56.7744 221.364 56.9561 221.446 57.1436C221.528 57.3311 221.602 57.5039 221.666 57.6621C221.701 57.7793 221.733 57.8877 221.763 57.9873C221.798 58.0811 221.827 58.1689 221.851 58.251C222.038 58.1338 222.182 57.9961 222.281 57.8379C222.381 57.6797 222.439 57.4541 222.457 57.1611C222.434 57.0615 222.396 56.9531 222.343 56.8359C222.296 56.7129 222.229 56.5898 222.141 56.4668C221.971 56.1914 221.769 55.9893 221.534 55.8604C221.435 55.7959 221.332 55.7432 221.227 55.7021C221.121 55.6611 221.013 55.626 220.901 55.5967L220.102 55.377ZM224.435 57.0381C224.435 58.1455 224.092 58.9951 223.406 59.5869C223.184 59.751 222.814 59.9121 222.299 60.0703C222.158 60.1055 222.064 60.126 222.018 60.1318C221.971 60.1436 221.93 60.1523 221.895 60.1582V66.1875C221.895 66.873 221.549 67.2158 220.857 67.2158C220.723 67.2158 220.597 67.1895 220.479 67.1367C220.362 67.084 220.26 67.0107 220.172 66.917C220.084 66.8291 220.014 66.7207 219.961 66.5918C219.908 66.4688 219.882 66.334 219.882 66.1875L219.899 60.2988L219.381 60.3252C218.959 60.3193 218.593 60.2988 218.282 60.2637C217.978 60.2344 217.723 60.1934 217.518 60.1406C216.814 59.9414 216.27 59.6338 215.883 59.2178C215.432 58.6025 215.206 57.9492 215.206 57.2578C215.206 56.7246 215.358 56.2119 215.663 55.7197C215.938 55.333 216.261 55.0547 216.63 54.8848C217.005 54.7148 217.403 54.6299 217.825 54.6299C217.954 54.6299 218.08 54.6387 218.203 54.6562C217.969 54.4688 217.767 54.2373 217.597 53.9619C217.415 53.6631 217.324 53.3145 217.324 52.916C217.324 52.3945 217.523 51.9082 217.922 51.457C218.426 50.9297 219.085 50.666 219.899 50.666C220.274 50.666 220.623 50.7129 220.945 50.8066C221.268 50.8945 221.584 51.0732 221.895 51.3428C222.275 51.6885 222.521 51.9463 222.633 52.1162C222.668 52.2568 222.686 52.3711 222.686 52.459C222.686 52.7109 222.609 52.9365 222.457 53.1357C222.352 53.2764 222.217 53.3789 222.053 53.4434C221.895 53.5078 221.719 53.5283 221.525 53.5049C221.426 53.499 221.291 53.4404 221.121 53.3291C220.957 53.2119 220.781 53.0596 220.594 52.8721C220.529 52.8252 220.436 52.7871 220.312 52.7578C220.189 52.7285 220.052 52.7139 219.899 52.7139C219.653 52.7139 219.483 52.752 219.39 52.8281C219.378 52.8457 219.366 52.8691 219.354 52.8984C219.343 52.9219 219.337 52.9365 219.337 52.9424L219.354 53.0303C219.407 53.1064 219.53 53.1855 219.724 53.2676C219.923 53.3496 220.172 53.4258 220.471 53.4961L220.462 53.4873C220.509 53.499 220.556 53.5107 220.603 53.5225C220.655 53.5342 220.705 53.5459 220.752 53.5576C221.068 53.6221 221.382 53.6982 221.692 53.7861C222.003 53.8682 222.293 53.9941 222.562 54.1641C223.078 54.4863 223.5 54.8936 223.828 55.3857C224.162 55.8779 224.364 56.4199 224.435 57.0117V57.0381ZM219.961 58.4619L219.873 58.2773C219.826 58.1602 219.765 58.0371 219.688 57.9082C219.618 57.7793 219.533 57.6416 219.434 57.4951V57.5127C219.346 57.4014 219.267 57.3105 219.196 57.2402C219.126 57.1641 219.067 57.1025 219.021 57.0557L219.047 57.0732C218.842 56.9326 218.631 56.8242 218.414 56.748C218.203 56.666 217.995 56.6191 217.79 56.6074C217.567 56.6367 217.427 56.7012 217.368 56.8008H217.377C217.312 56.918 217.269 57.0176 217.245 57.0996C217.228 57.1816 217.219 57.252 217.219 57.3105C217.219 57.5273 217.298 57.7354 217.456 57.9346C217.485 57.9756 217.559 58.0225 217.676 58.0752C217.799 58.1221 217.96 58.1807 218.159 58.251C218.37 58.3096 218.584 58.3564 218.801 58.3916C219.023 58.4268 219.237 58.4443 219.442 58.4443L219.961 58.4619ZM224.531 53.1182C224.514 53.0889 224.505 53.0566 224.505 53.0215C224.505 52.9863 224.517 52.957 224.54 52.9336C224.985 52.3594 225.507 51.8672 226.104 51.457V51.4658C226.884 50.9326 227.771 50.666 228.768 50.666C230.391 50.666 231.68 51.3545 232.635 52.7314C233.238 53.6162 233.54 54.5332 233.54 55.4824C233.54 57.2227 232.84 58.5498 231.439 59.4639C230.484 60.085 229.518 60.3955 228.539 60.3955C228.17 60.3955 227.769 60.3369 227.335 60.2197L227.027 60.1143L226.702 59.9385C226.204 59.7803 225.955 59.4521 225.955 58.9541C225.955 58.8369 225.979 58.7285 226.025 58.6289C226.078 58.5234 226.151 58.418 226.245 58.3125C226.433 58.0898 226.664 57.9785 226.939 57.9785C227.051 57.9785 227.145 57.9902 227.221 58.0137C227.297 58.0312 227.361 58.0576 227.414 58.0928L228.038 58.3389H228.029C228.076 58.3506 228.138 58.3594 228.214 58.3652C228.296 58.3711 228.398 58.374 228.521 58.374C229.318 58.374 230.016 58.0928 230.613 57.5303V57.5391C231.205 56.9648 231.501 56.2793 231.501 55.4824C231.501 55.1719 231.457 54.876 231.369 54.5947C231.287 54.3135 231.17 54.0557 231.018 53.8213C230.807 53.5049 230.476 53.2383 230.024 53.0215C229.597 52.8047 229.172 52.6963 228.75 52.6963C228.182 52.6963 227.622 52.8604 227.071 53.1885L227.089 53.1797C226.702 53.4785 226.374 53.8359 226.104 54.252L225.797 54.7266C225.756 54.7793 225.706 54.8057 225.647 54.8057C225.583 54.7998 225.533 54.7705 225.498 54.7178L224.531 53.1182ZM232.31 45.7969C232.31 46.0957 232.228 46.3389 232.063 46.5264C231.899 46.7139 231.65 46.8398 231.316 46.9043C230.666 46.9043 230.341 46.6523 230.341 46.1484C230.341 45.8379 230.18 45.5918 229.857 45.4102C229.682 45.3105 229.518 45.2373 229.365 45.1904C229.207 45.1436 229.058 45.1201 228.917 45.1201C228.208 45.1201 227.795 45.4395 227.678 46.0781C227.678 46.7344 227.965 47.3262 228.539 47.8535C228.779 48.0762 229.178 48.3223 229.734 48.5918L230.578 49.0137C230.9 49.1777 231.062 49.4619 231.062 49.8662C231.062 50.458 230.71 50.8154 230.007 50.9385L229.585 50.7891L228.495 50.2441C227.968 49.957 227.511 49.6348 227.124 49.2773C226.737 48.9141 226.43 48.5303 226.201 48.126C226.043 47.8154 225.92 47.4697 225.832 47.0889C225.744 46.7021 225.7 46.2803 225.7 45.8232C225.841 44.9971 226.21 44.3438 226.808 43.8633V43.8721C227.399 43.374 228.103 43.125 228.917 43.125C229.731 43.125 230.467 43.3652 231.123 43.8457C231.779 44.3145 232.175 44.9561 232.31 45.7705V45.7969Z" fill="white"/>
<path d="M202.238 225.22C201.968 230.13 200.958 248.09 200.088 256.79C199.218 265.49 195.978 289.06 195.088 295.18L154.508 294.75C153.368 288.24 149.418 265.46 148.238 256.84C147.058 248.22 145.357 229.84 144.938 225.21L146.938 225.03C147.972 224.94 148.985 224.683 149.938 224.27C153.041 227.545 156.518 230.445 160.298 232.91C164.313 235.501 168.645 237.565 173.188 239.05C178.054 237.561 182.667 235.343 186.868 232.47C190.418 229.99 193.661 227.097 196.528 223.85C197.822 224.543 199.244 224.965 200.708 225.09L202.238 225.22Z" fill="#DAF1ED"/>
<path d="M206.677 163.94C206.677 189.48 191.677 210.18 173.237 210.18C154.797 210.18 139.787 189.48 139.787 163.94C139.787 151.94 139.167 140.62 144.577 132.41C150.697 123.12 163.437 117.7 173.237 117.7C183.397 117.7 192.497 123.96 198.627 133.84C203.647 141.93 206.677 152.45 206.677 163.94Z" stroke="#3A4A67" stroke-width="2" stroke-linecap="round" stroke-linejoin="round"/>
<path d="M139.176 158.46C139.176 158.46 133.896 158.68 133.896 164.76C133.896 170.84 136.746 174.39 139.786 174.39" stroke="#3A4A67" stroke-width="2" stroke-linecap="round" stroke-linejoin="round"/>
<path d="M207.288 158.46C207.288 158.46 212.578 158.68 212.578 164.76C212.578 170.84 209.718 174.39 206.678 174.39" stroke="#3A4A67" stroke-width="2" stroke-linecap="round" stroke-linejoin="round"/>
<path d="M209.627 158.46C209.627 158.46 206.177 170.84 205.627 166.46C205.287 163.46 204.397 160.67 200.097 158.12C184.627 148.95 188.737 131.12 188.737 131.12L185.237 152.82C185.133 153.499 184.793 154.12 184.278 154.575C183.763 155.03 183.104 155.29 182.417 155.31C174.867 155.56 152.007 156.31 145.257 156.91C141.847 157.2 141.257 143.55 141.257 143.55L140.797 157.25L136.197 158.48C136.197 158.48 128.197 110.68 174.737 110.68C181.337 110.68 185.607 113.26 189.967 115.52C210.337 119.61 209.627 158.46 209.627 158.46Z" fill="#3A4A67"/>
<path d="M99.5273 293.27L104.987 254.27C106.013 246.917 109.501 240.129 114.883 235.014C120.265 229.899 127.222 226.76 134.617 226.11L140.167 225.62L144.967 225.2L146.967 225.02C148.002 224.93 149.015 224.673 149.967 224.26C150.935 223.848 151.832 223.288 152.627 222.6C154.363 221.095 155.531 219.041 155.937 216.78L158.037 205.15" stroke="#3A4A67" stroke-width="2" stroke-linecap="round" stroke-linejoin="round"/>
<path d="M247.597 293.27L242.147 254.27C241.118 246.917 237.627 240.129 232.244 235.015C226.861 229.901 219.903 226.762 212.507 226.11L206.957 225.62L202.157 225.2L200.157 225.02C199.123 224.93 198.11 224.673 197.157 224.26V224.26C196.19 223.848 195.293 223.288 194.497 222.6C192.762 221.095 191.594 219.041 191.187 216.78L189.037 205.15" stroke="#3A4A67" stroke-width="2" stroke-linecap="round" stroke-linejoin="round"/>
<path d="M194.918 296.66C194.918 296.66 194.988 296.13 195.118 295.18C195.978 289.06 199.218 265.57 200.118 256.79C201.018 248.01 201.988 230.13 202.258 225.22C202.258 224.41 202.318 223.96 202.318 223.96" stroke="#3A4A67" stroke-width="2" stroke-linecap="round" stroke-linejoin="round"/>
<path d="M154.847 296.5C154.847 296.5 154.737 295.86 154.537 294.75C153.397 288.24 149.447 265.46 148.267 256.84C147.087 248.22 145.387 229.84 144.967 225.21C144.897 224.5 144.867 224.12 144.867 224.12" stroke="#3A4A67" stroke-width="2" stroke-linecap="round" stroke-linejoin="round"/>
<path d="M128.037 227.37C133.098 209.776 136.101 191.655 136.987 173.37L140.777 175.37L146.497 191.86L153.667 201.57L157.497 204.63L155.297 218.74L151.927 224.28L140.437 225.13L128.037 227.37Z" fill="#3A4A67"/>
<path d="M218.337 227C213.293 209.593 210.32 191.653 209.477 173.55L205.727 175L200.867 190L192.357 201.9L188.977 205.16L191.347 216.49C191.347 216.49 192.827 223.97 199.077 224.95C201.547 225.33 218.337 227 218.337 227Z" fill="#3A4A67"/>
<path d="M174.787 110.66C180.262 110.567 185.618 112.266 190.037 115.5C210.357 119.61 209.647 158.5 209.647 158.5" fill="#3A4A67"/>
<path d="M158.377 171.23C160.078 171.23 161.457 169.851 161.457 168.15C161.457 166.449 160.078 165.07 158.377 165.07C156.676 165.07 155.297 166.449 155.297 168.15C155.297 169.851 156.676 171.23 158.377 171.23Z" fill="#3A4A67"/>
<path d="M188.838 171.23C190.539 171.23 191.918 169.851 191.918 168.15C191.918 166.449 190.539 165.07 188.838 165.07C187.137 165.07 185.758 166.449 185.758 168.15C185.758 169.851 187.137 171.23 188.838 171.23Z" fill="#3A4A67"/>
<path d="M152.678 160.68C154.208 159.9 155.901 159.494 157.618 159.494C159.335 159.494 161.028 159.9 162.558 160.68" stroke="#3A4A67" stroke-width="2" stroke-linecap="round" stroke-linejoin="round"/>
<path d="M183.896 160.68C185.426 159.9 187.119 159.494 188.836 159.494C190.554 159.494 192.247 159.9 193.776 160.68" stroke="#3A4A67" stroke-width="2" stroke-linecap="round" stroke-linejoin="round"/>
<path d="M173.227 176.89L171.887 182.47L174.077 184.83" stroke="#3A4A67" stroke-width="2" stroke-linecap="round" stroke-linejoin="round"/>
<path d="M178.137 190.91H169.797C169.797 190.91 170.537 195.25 174.077 195.25C177.617 195.25 178.137 190.91 178.137 190.91Z" stroke="#3A4A67" stroke-width="2" stroke-linecap="round" stroke-linejoin="round"/>
<path d="M147.957 224.92L172.977 263.5L197.957 224.69" stroke="#3A4A67" stroke-width="2" stroke-linecap="round" stroke-linejoin="round"/>
<path d="M180.327 263.5H166.117V284.92H180.327V263.5Z" fill="#5ABEAE" stroke="#3A4A67" stroke-width="2" stroke-linecap="round" stroke-linejoin="round"/>
<path d="M196.637 223.79L196.577 223.85C193.711 227.097 190.468 229.99 186.917 232.47C182.716 235.343 178.104 237.562 173.237 239.05C168.695 237.565 164.363 235.501 160.347 232.91C156.585 230.442 153.125 227.542 150.037 224.27L149.957 224.19" stroke="#3A4A67" stroke-width="2" stroke-linecap="round" stroke-linejoin="round"/>
<path d="M142.796 225.53L128.066 251.72L141.156 257.53L133.066 267.18L152.546 308.82" stroke="#3A4A67" stroke-width="2" stroke-linecap="round" stroke-linejoin="round"/>
<path d="M204.187 225.53L218.917 251.72L205.827 257.53L213.917 267.18L194.447 308.82" stroke="#3A4A67" stroke-width="2" stroke-linecap="round" stroke-linejoin="round"/>
<path d="M287.867 254.07L291.757 249.35C292.599 248.331 293.324 247.221 293.917 246.04L298.807 236.37C299.075 235.917 299.491 235.571 299.985 235.389C300.478 235.207 301.019 235.2 301.517 235.37C301.838 235.482 302.133 235.659 302.382 235.89C302.631 236.122 302.83 236.402 302.965 236.714C303.1 237.026 303.169 237.363 303.168 237.703C303.167 238.043 303.095 238.379 302.957 238.69L298.177 249.54C297.896 250.168 297.561 250.77 297.177 251.34L293.087 257.71C291.729 259.827 289.931 261.628 287.817 262.99L278.817 268.79C277.569 269.585 276.389 270.482 275.287 271.47L269.607 276.53L258.037 268.05L260.507 264.11C262.461 261.017 265.201 258.497 268.447 256.81L273.677 254.11C275.507 253.164 277.025 251.709 278.047 249.92L279.357 247.64C280.179 246.204 280.649 244.593 280.727 242.94L280.807 241.34C280.833 240.733 281.098 240.16 281.543 239.746C281.989 239.332 282.579 239.111 283.187 239.13C283.773 239.147 284.33 239.384 284.749 239.793C285.168 240.203 285.417 240.755 285.447 241.34L285.547 243.44C285.606 244.758 285.338 246.07 284.767 247.26L282.407 252.15L288.407 245.29C288.868 244.755 289.28 244.179 289.637 243.57L292.787 238.14C293.085 237.633 293.535 237.232 294.074 236.995C294.612 236.758 295.212 236.697 295.787 236.82C296.07 236.884 296.335 237.012 296.562 237.193C296.788 237.373 296.972 237.603 297.097 237.864C297.223 238.126 297.289 238.412 297.289 238.702C297.289 238.992 297.223 239.279 297.097 239.54L295.177 243.48" fill="white"/>
<path d="M288.037 254.13L291.927 249.41C292.751 248.389 293.459 247.278 294.037 246.1L298.917 236.43C299.188 235.978 299.606 235.632 300.101 235.45C300.595 235.268 301.138 235.261 301.637 235.43V235.43C301.956 235.544 302.249 235.723 302.496 235.955C302.743 236.187 302.94 236.467 303.074 236.779C303.209 237.09 303.277 237.426 303.276 237.765C303.275 238.104 303.203 238.439 303.067 238.75L298.287 249.6C298.006 250.228 297.672 250.83 297.287 251.4L293.197 257.77C291.832 259.885 290.032 261.685 287.917 263.05L278.917 268.85C277.675 269.654 276.495 270.549 275.387 271.53L269.707 276.59" stroke="#3A4A67" stroke-width="2" stroke-linecap="round" stroke-linejoin="round"/>
<path d="M258.207 268.11L260.677 264.18C262.625 261.082 265.366 258.561 268.617 256.88L273.847 254.17C275.674 253.224 277.191 251.773 278.217 249.99L279.527 247.71C280.351 246.275 280.821 244.663 280.897 243.01L280.977 241.4C281.008 240.794 281.274 240.225 281.719 239.812C282.163 239.399 282.751 239.176 283.357 239.19V239.19C283.943 239.205 284.502 239.441 284.922 239.851C285.341 240.261 285.589 240.814 285.617 241.4L285.717 243.5C285.782 244.819 285.514 246.132 284.937 247.32L282.577 252.21L288.577 245.35C289.044 244.824 289.457 244.251 289.807 243.64L292.957 238.21C293.252 237.7 293.702 237.296 294.241 237.057C294.78 236.818 295.381 236.756 295.957 236.88V236.88C296.24 236.944 296.505 237.072 296.731 237.253C296.958 237.433 297.141 237.663 297.267 237.924C297.393 238.186 297.459 238.472 297.459 238.762C297.458 239.052 297.393 239.339 297.267 239.6L295.347 243.54" stroke="#3A4A67" stroke-width="2" stroke-linecap="round" stroke-linejoin="round"/>
<path d="M231.957 341.7C236.747 340.7 242.747 338.21 245.027 333.88L270.937 280.65C271.242 280.054 271.323 279.369 271.167 278.718C271.011 278.067 270.629 277.494 270.087 277.1L257.167 267.65C256.99 267.52 256.788 267.427 256.573 267.377C256.359 267.327 256.137 267.321 255.92 267.359C255.703 267.398 255.496 267.48 255.312 267.6C255.128 267.72 254.97 267.877 254.847 268.06L220.297 320C219.096 321.804 218.289 323.84 217.929 325.977C217.569 328.114 217.664 330.302 218.207 332.4L218.817 334.77C219.473 337.258 221.061 339.397 223.253 340.744C225.445 342.09 228.072 342.54 230.587 342L231.957 341.7Z" fill="white" stroke="#3A4A67" stroke-width="2" stroke-linecap="round" stroke-linejoin="round"/>
<path d="M56.4369 254.07L52.5469 249.35C51.6992 248.319 50.9712 247.195 50.3769 246L45.4969 236.33C45.227 235.877 44.8094 235.53 44.3142 235.348C43.8189 235.166 43.2762 235.159 42.7769 235.33C42.4575 235.444 42.165 235.623 41.9175 235.855C41.6699 236.087 41.4726 236.367 41.3376 236.678C41.2026 236.989 41.1329 237.325 41.1328 237.664C41.1327 238.003 41.2021 238.339 41.3369 238.65L46.1269 249.5C46.4077 250.128 46.7423 250.73 47.1269 251.3L51.2169 257.67C52.5591 259.803 54.3465 261.622 56.4569 263L65.4569 268.8C66.7192 269.605 67.9162 270.507 69.0369 271.5L74.7069 276.56L86.2369 268.05L83.7669 264.11C81.8198 261.015 79.0824 258.495 75.8369 256.81L70.6069 254.11C68.7769 253.164 67.2593 251.709 66.2369 249.92L64.9269 247.64C64.0958 246.208 63.6256 244.595 63.5569 242.94L63.4769 241.34C63.4458 240.724 63.1714 240.145 62.714 239.73C62.2565 239.316 61.6534 239.1 61.0369 239.13C60.4506 239.144 59.8916 239.38 59.4723 239.791C59.053 240.201 58.8045 240.754 58.7769 241.34L58.6769 243.44C58.6128 244.759 58.881 246.072 59.4569 247.26L61.8169 252.15L55.8169 245.29C55.3493 244.76 54.9372 244.184 54.5869 243.57L51.4369 238.14C51.1389 237.633 50.6887 237.232 50.1502 236.995C49.6117 236.758 49.0122 236.697 48.4369 236.82C48.154 236.884 47.8893 237.012 47.6624 237.193C47.4356 237.373 47.2524 237.603 47.1265 237.864C47.0006 238.126 46.9353 238.412 46.9354 238.702C46.9354 238.992 47.0009 239.279 47.1269 239.54L49.0469 243.48" fill="white"/>
<path d="M56.3075 254.13L52.4075 249.41C51.5689 248.389 50.8446 247.279 50.2475 246.1L45.3675 236.43C45.095 235.979 44.6772 235.635 44.1828 235.453C43.6885 235.271 43.1471 235.263 42.6475 235.43V235.43C42.3273 235.543 42.0338 235.721 41.7854 235.953C41.537 236.184 41.3391 236.465 41.204 236.776C41.0688 237.088 40.9994 237.424 41 237.763C41.0006 238.103 41.0712 238.439 41.2075 238.75L46.0375 249.63C46.3227 250.255 46.6571 250.857 47.0375 251.43L51.0375 257.8C52.3969 259.92 54.1979 261.721 56.3175 263.08L65.3175 268.88C66.5646 269.681 67.7481 270.577 68.8575 271.56L74.5275 276.62" stroke="#3A4A67" stroke-width="2" stroke-linecap="round" stroke-linejoin="round"/>
<path d="M86.0865 268.11L83.6165 264.18C81.675 261.08 78.9362 258.559 75.6865 256.88L70.4465 254.17C68.6097 253.228 67.0798 251.781 66.0365 250L64.7365 247.72C63.9095 246.285 63.4364 244.674 63.3565 243.02L63.2865 241.41C63.2554 240.804 62.9894 240.235 62.545 239.822C62.1006 239.409 61.5128 239.186 60.9065 239.2V239.2C60.3202 239.215 59.7611 239.451 59.3418 239.861C58.9225 240.271 58.6741 240.824 58.6465 241.41L58.5464 243.51C58.4767 244.829 58.7452 246.144 59.3265 247.33L61.6865 252.22L55.6865 245.36C55.2254 244.831 54.8168 244.258 54.4665 243.65L51.3165 238.22C51.0211 237.71 50.5716 237.306 50.0327 237.067C49.4937 236.828 48.8929 236.766 48.3165 236.89V236.89C48.0366 236.957 47.7752 237.086 47.5518 237.267C47.3284 237.448 47.1486 237.677 47.0257 237.938C46.9028 238.198 46.84 238.482 46.8418 238.77C46.8437 239.058 46.9102 239.341 47.0365 239.6L48.9564 243.54" stroke="#3A4A67" stroke-width="2" stroke-linecap="round" stroke-linejoin="round"/>
<path d="M112.337 341.7C107.557 340.7 101.557 338.21 99.2665 333.88L73.3665 280.65C73.0613 280.055 72.9782 279.371 73.1322 278.72C73.2861 278.07 73.6671 277.495 74.2065 277.1L87.1365 267.65C87.3141 267.52 87.5162 267.427 87.7306 267.377C87.945 267.327 88.1673 267.321 88.3841 267.359C88.601 267.398 88.8077 267.48 88.9921 267.6C89.1764 267.72 89.3344 267.877 89.4565 268.06L124.037 320C125.238 321.804 126.045 323.84 126.405 325.977C126.765 328.114 126.67 330.302 126.127 332.4L125.507 334.77C124.851 337.262 123.259 339.405 121.063 340.752C118.866 342.099 116.235 342.546 113.717 342L112.337 341.7Z" fill="white" stroke="#3A4A67" stroke-width="2" stroke-linecap="round" stroke-linejoin="round"/>
<path d="M232.627 188.69L241.357 185.44" stroke="#3A4A67" stroke-width="2" stroke-linecap="round" stroke-linejoin="round"/>
<path d="M233.918 197.6L243.818 199.22" stroke="#3A4A67" stroke-width="2" stroke-linecap="round" stroke-linejoin="round"/>
<path d="M229.668 205.22L236.568 210.57" stroke="#3A4A67" stroke-width="2" stroke-linecap="round" stroke-linejoin="round"/>
<path d="M109.327 188.69L100.607 185.44" stroke="#3A4A67" stroke-width="2" stroke-linecap="round" stroke-linejoin="round"/>
<path d="M108.036 197.6L98.1465 199.22" stroke="#3A4A67" stroke-width="2" stroke-linecap="round" stroke-linejoin="round"/>
<path d="M112.296 205.22L105.396 210.57" stroke="#3A4A67" stroke-width="2" stroke-linecap="round" stroke-linejoin="round"/>
</g>
<defs>
<clipPath id="clip0_1354_4062">
<rect width="343" height="292" fill="white"/>
</clipPath>
</defs>
</svg>
