<svg width="343" height="242" viewBox="0 0 343 242" fill="none" xmlns="http://www.w3.org/2000/svg">
<g clip-path="url(#clip0_1353_4400)">
<path d="M375.549 45.0899C355.635 12.7892 341.077 -22.5202 332.439 -59.4701C322.042 -104.211 320.483 -150.552 327.849 -195.89C328.789 -148.89 339.009 -114.57 348.489 -91.5701C357.489 -69.7101 366.349 -56.8301 375.549 -28.7501C383.26 -5.11871 388.033 19.3722 389.759 44.1699" fill="#F9F9F9"/>
<path d="M375.549 45.0899C355.635 12.7892 341.077 -22.5202 332.439 -59.4701C322.042 -104.211 320.483 -150.552 327.849 -195.89C328.789 -148.89 339.009 -114.57 348.489 -91.5701C357.489 -69.7101 366.349 -56.8301 375.549 -28.7501C383.26 -5.11871 388.033 19.3722 389.759 44.1699" stroke="#3A4A67" stroke-width="3" stroke-linecap="round" stroke-linejoin="round"/>
<path d="M386.788 31.7599C359.788 -11.8201 355.078 -46.4401 355.788 -70.0501C356.318 -88.0501 359.938 -96.3301 360.618 -115.58C362.018 -155.34 349.248 -188.21 337.488 -210.58C378.198 -167.42 387.728 -131.8 388.868 -107.19C389.708 -89.0501 385.968 -77.3201 386.798 -48.7201C387.594 -22.2211 391.83 4.06223 399.398 29.4699" fill="#F9F9F9"/>
<path d="M386.788 31.7599C359.788 -11.8201 355.078 -46.4401 355.788 -70.0501C356.318 -88.0501 359.938 -96.3301 360.618 -115.58C362.018 -155.34 349.248 -188.21 337.488 -210.58C378.198 -167.42 387.728 -131.8 388.868 -107.19C389.708 -89.0501 385.968 -77.3201 386.798 -48.7201C387.594 -22.2211 391.83 4.06222 399.398 29.4699" stroke="#3A4A67" stroke-width="3" stroke-linecap="round" stroke-linejoin="round"/>
<path d="M343 0H0V242H343V0Z" fill="#F9F9F9"/>
<path d="M242.54 215.49C235.215 221.214 226.048 224.059 216.77 223.49L216.33 242H126.53L126.08 223.53C121.784 223.793 117.475 223.316 113.34 222.12C108.621 220.765 104.207 218.514 100.34 215.49L100.82 212.08L102.01 203.51C103.049 196.063 106.581 189.187 112.029 184.004C117.477 178.821 124.52 175.637 132.01 174.97L144.5 173.87C145.112 173.812 145.717 173.702 146.31 173.54C149.74 180.19 159 185 169.85 185C181.38 185 191.07 179.63 193.85 172.35C195.228 173.223 196.795 173.755 198.42 173.9L210.89 175C218.394 175.644 225.458 178.814 230.928 183.993C236.397 189.171 239.948 196.052 241 203.51L242.19 212.08L242.54 215.49Z" fill="#DAF1ED"/>
<path d="M205.12 111.94C205.12 137.82 186.6 158.81 171.22 158.81C156.22 158.81 137.32 137.81 137.32 111.94C137.32 99.78 136.68 88.3 142.17 79.94C148.37 70.53 161.28 65.03 171.22 65.03C181.51 65.03 190.74 71.38 196.95 81.39C202 89.62 205.12 100.28 205.12 111.94Z" stroke="#3A4A67" stroke-width="2" stroke-linecap="round" stroke-linejoin="round"/>
<path d="M136.7 106.38C136.7 106.38 131.34 106.6 131.34 112.77C131.34 118.94 134.23 122.53 137.34 122.53" stroke="#3A4A67" stroke-width="2" stroke-linecap="round" stroke-linejoin="round"/>
<path d="M205.74 106.38C205.74 106.38 211.09 106.6 211.09 112.77C211.09 118.94 208.2 122.53 205.09 122.53" stroke="#3A4A67" stroke-width="2" stroke-linecap="round" stroke-linejoin="round"/>
<path d="M100.359 215.49L100.839 212.08L102.029 203.51C103.069 196.063 106.6 189.187 112.048 184.004C117.496 178.821 124.539 175.637 132.029 174.97L144.519 173.87C145.131 173.812 145.737 173.702 146.329 173.54C148.181 173.034 149.852 172.014 151.149 170.598C152.446 169.183 153.316 167.429 153.659 165.54L154.449 161.14L155.999 152.6" stroke="#3A4A67" stroke-width="2" stroke-linecap="round" stroke-linejoin="round"/>
<path d="M242.541 215.49L242.161 212.08L241.001 203.51C239.949 196.055 236.402 189.176 230.936 183.998C225.471 178.82 218.412 175.648 210.911 175L198.441 173.9C196.816 173.755 195.249 173.223 193.871 172.35V172.35C192.679 171.598 191.657 170.606 190.87 169.436C190.083 168.267 189.549 166.947 189.301 165.56L188.301 160.16L186.891 152.38" stroke="#3A4A67" stroke-width="2" stroke-linecap="round" stroke-linejoin="round"/>
<path d="M156.149 119.32C157.872 119.32 159.269 117.923 159.269 116.2C159.269 114.477 157.872 113.08 156.149 113.08C154.426 113.08 153.029 114.477 153.029 116.2C153.029 117.923 154.426 119.32 156.149 119.32Z" fill="#3A4A67"/>
<path d="M187.03 119.32C188.753 119.32 190.15 117.923 190.15 116.2C190.15 114.477 188.753 113.08 187.03 113.08C185.307 113.08 183.91 114.477 183.91 116.2C183.91 117.923 185.307 119.32 187.03 119.32Z" fill="#3A4A67"/>
<path d="M150.369 108.4C152.039 107.551 153.897 107.138 155.769 107.2C157.379 107.255 158.956 107.664 160.389 108.4" stroke="#3A4A67" stroke-width="2" stroke-linecap="round" stroke-linejoin="round"/>
<path d="M182 108.4C183.667 107.552 185.521 107.139 187.39 107.2C189.003 107.255 190.583 107.665 192.02 108.4" stroke="#3A4A67" stroke-width="2" stroke-linecap="round" stroke-linejoin="round"/>
<path d="M171.21 125.06L169.85 130.72L172.07 133.11" stroke="#3A4A67" stroke-width="2" stroke-linecap="round" stroke-linejoin="round"/>
<path d="M146.369 173.53C149.739 180.19 158.999 185 169.849 185C181.379 185 191.069 179.63 193.849 172.35" stroke="#3A4A67" stroke-width="2" stroke-linecap="round" stroke-linejoin="round"/>
<path d="M217.21 205.17L216.77 223.53L216.33 242L216.26 245.02" stroke="#3A4A67" stroke-width="2" stroke-linecap="round" stroke-linejoin="round"/>
<path d="M125.641 205.17L126.081 223.53L126.531 242L126.561 243.45" stroke="#3A4A67" stroke-width="2" stroke-linecap="round" stroke-linejoin="round"/>
<path d="M204.76 23.69C204.757 26.0197 204.296 28.326 203.402 30.4773C202.508 32.6286 201.199 34.5828 199.55 36.2282C197.901 37.8737 195.944 39.1782 193.79 40.0673C191.637 40.9564 189.33 41.4126 187 41.41H178.18L169.82 49.78L161.45 41.41H152.64C147.94 41.41 143.433 39.5431 140.11 36.2199C136.787 32.8968 134.92 28.3897 134.92 23.69C134.92 18.9904 136.787 14.4832 140.11 11.1601C143.433 7.83694 147.94 5.97002 152.64 5.97002H187C189.33 5.96476 191.639 6.41922 193.793 7.30737C195.948 8.19553 197.906 9.49994 199.556 11.1459C201.205 12.7919 202.514 14.7471 203.407 16.8996C204.3 19.0521 204.76 21.3596 204.76 23.69Z" fill="#5ABEAE" stroke="#3A4A67" stroke-width="2" stroke-linecap="round" stroke-linejoin="round"/>
<path d="M131.739 98.57C131.462 98.8394 131.269 99.1834 131.183 99.5604C131.097 99.9374 131.122 100.331 131.255 100.694C131.389 101.057 131.624 101.374 131.934 101.605C132.243 101.837 132.613 101.974 132.999 102C145.694 103.349 158.453 104.016 171.219 104C183.46 104.008 195.693 103.38 207.869 102.12C208.403 102.062 208.907 101.847 209.32 101.503C209.732 101.16 210.034 100.702 210.188 100.188C210.342 99.6732 210.34 99.1249 210.184 98.6113C210.028 98.0977 209.723 97.6416 209.309 97.3H209.259C207.472 95.8333 205.719 94.4533 203.999 93.16C203.989 85.0452 201 77.2167 195.599 71.16C186.749 61.49 175.029 60.92 171.599 60.81C167.419 60.67 154.599 61 145.029 71.32C139.541 77.4037 136.425 85.2586 136.249 93.45C134.836 95.15 133.332 96.8567 131.739 98.57Z" fill="#3A4A67"/>
<path d="M134.289 99.45C146.918 100.974 159.629 101.716 172.349 101.67C184.302 101.625 196.242 100.884 208.109 99.45" stroke="white" stroke-miterlimit="10" stroke-linecap="round"/>
<path d="M166.401 62.6101C159.393 65.7484 153.558 71.0235 149.731 77.6801C147.083 82.3777 145.54 87.6171 145.221 93.0001" stroke="white" stroke-miterlimit="10" stroke-linecap="round"/>
<path d="M189.869 78.5601C192.194 83.0907 193.508 88.0721 193.719 93.1601" stroke="white" stroke-miterlimit="10" stroke-linecap="round"/>
<path d="M172.811 63C178.02 65.124 182.619 68.5128 186.191 72.86" stroke="white" stroke-miterlimit="10" stroke-linecap="round"/>
<path d="M169.471 62.2799C171.315 62.2799 172.811 61.7024 172.811 60.99C172.811 60.2775 171.315 59.7 169.471 59.7C167.626 59.7 166.131 60.2775 166.131 60.99C166.131 61.7024 167.626 62.2799 169.471 62.2799Z" fill="#3A4A67"/>
<path d="M176.91 139.53H166.09C166.09 139.53 167.04 145.15 171.65 145.15C176.26 145.15 176.91 139.53 176.91 139.53Z" stroke="#3A4A67" stroke-width="2" stroke-linecap="round" stroke-linejoin="round"/>
<path d="M126.16 223.53H126.08C121.784 223.792 117.475 223.315 113.34 222.12C108.621 220.765 104.207 218.514 100.34 215.49" stroke="#3A4A67" stroke-width="2" stroke-linecap="round" stroke-linejoin="round"/>
<path d="M216.73 223.53C226.009 224.099 235.175 221.254 242.5 215.53" stroke="#3A4A67" stroke-width="2" stroke-linecap="round" stroke-linejoin="round"/>
<path d="M103.33 217.59V243.45" stroke="#3A4A67" stroke-width="2" stroke-linecap="round" stroke-linejoin="round"/>
<path d="M240.07 217.59V243.45" stroke="#3A4A67" stroke-width="2" stroke-linecap="round" stroke-linejoin="round"/>
<path d="M224.461 214.42H118.551V248.73H224.461V214.42Z" fill="#5ABEAE" stroke="#3A4A67" stroke-width="2" stroke-linecap="round" stroke-linejoin="round"/>
<path d="M224.451 214.73H118.551L138.661 205.17H204.341L224.451 214.73Z" fill="#5ABEAE" stroke="#3A4A67" stroke-width="2" stroke-linecap="round" stroke-linejoin="round"/>
<path d="M129.33 209.86H213.49" stroke="#3A4A67" stroke-width="2" stroke-linecap="round" stroke-linejoin="round"/>
<path d="M177.471 13.1599H161.471C160.946 13.1774 160.447 13.3937 160.076 13.7651C159.704 14.1364 159.488 14.635 159.471 15.1599V18.1599C159.478 18.5038 159.574 18.84 159.749 19.1361C159.924 19.4321 160.173 19.678 160.471 19.8499V31.1499C160.506 31.6688 160.728 32.1574 161.096 32.5251C161.463 32.8928 161.952 33.1148 162.471 33.1499H176.471C176.99 33.1148 177.478 32.8928 177.846 32.5251C178.214 32.1574 178.436 31.6688 178.471 31.1499V19.8599C178.769 19.688 179.017 19.4421 179.192 19.1461C179.368 18.85 179.463 18.5138 179.471 18.1699V15.1699C179.456 14.6433 179.241 14.1422 178.869 13.7687C178.497 13.3952 177.997 13.1775 177.471 13.1599ZM172.471 25.1599H166.471V23.1599H172.471V25.1599ZM177.471 18.1599H161.471V15.1599H177.471V18.1599Z" fill="white"/>
<path d="M135.721 222.36C135.595 222.095 135.383 221.88 135.121 221.75C134.825 221.612 134.502 221.54 134.176 221.54C133.849 221.54 133.526 221.612 133.231 221.75C132.968 221.88 132.757 222.095 132.631 222.36C132.475 222.669 132.403 223.014 132.421 223.36V227C132.406 227.346 132.478 227.69 132.631 228C132.757 228.265 132.968 228.479 133.231 228.61C133.526 228.748 133.849 228.82 134.176 228.82C134.502 228.82 134.825 228.748 135.121 228.61C135.383 228.479 135.595 228.265 135.721 228C135.873 227.69 135.946 227.346 135.931 227V223.34C135.945 223.001 135.873 222.663 135.721 222.36ZM133.241 222.71C133.323 222.557 133.448 222.432 133.601 222.35C133.78 222.265 133.977 222.22 134.176 222.22C134.375 222.22 134.571 222.265 134.751 222.35C134.903 222.432 135.028 222.557 135.111 222.71C135.195 222.888 135.236 223.083 135.231 223.28V224.85H133.121V223.28C133.116 223.083 133.157 222.888 133.241 222.71ZM135.111 227.58C135.025 227.733 134.901 227.86 134.751 227.95C134.569 228.035 134.371 228.076 134.171 228.07C133.974 228.075 133.779 228.034 133.601 227.95C133.45 227.86 133.326 227.733 133.241 227.58C133.156 227.402 133.114 227.207 133.121 227.01V225.53H135.231V227C135.238 227.2 135.197 227.399 135.111 227.58Z" fill="#F9F9F9"/>
<path d="M127.94 221.68C127.245 221.678 126.566 221.882 125.987 222.267C125.409 222.651 124.957 223.199 124.69 223.84C124.423 224.481 124.352 225.187 124.486 225.869C124.62 226.55 124.954 227.176 125.444 227.668C125.935 228.16 126.56 228.496 127.241 228.632C127.923 228.768 128.629 228.699 129.271 228.434C129.913 228.168 130.462 227.718 130.848 227.141C131.234 226.564 131.44 225.885 131.44 225.19C131.44 224.261 131.071 223.369 130.415 222.712C129.759 222.054 128.869 221.683 127.94 221.68ZM127.94 222.36C128.57 222.361 129.183 222.572 129.68 222.96L125.68 226.96C125.351 226.544 125.145 226.043 125.088 225.516C125.03 224.988 125.123 224.455 125.355 223.978C125.587 223.5 125.948 223.098 126.399 222.817C126.849 222.536 127.369 222.388 127.9 222.39L127.94 222.36ZM127.94 228.01C127.309 228.013 126.695 227.802 126.2 227.41L130.2 223.41C130.529 223.826 130.734 224.327 130.792 224.854C130.85 225.382 130.757 225.915 130.525 226.392C130.293 226.869 129.931 227.272 129.481 227.553C129.031 227.833 128.511 227.982 127.98 227.98L127.94 228.01Z" fill="#F9F9F9"/>
<path d="M210.859 139.09L219.579 135.84" stroke="#3A4A67" stroke-width="2" stroke-linecap="round" stroke-linejoin="round"/>
<path d="M212.15 148L222.04 149.62" stroke="#3A4A67" stroke-width="2" stroke-linecap="round" stroke-linejoin="round"/>
<path d="M207.891 155.62L214.801 160.98" stroke="#3A4A67" stroke-width="2" stroke-linecap="round" stroke-linejoin="round"/>
</g>
<defs>
<clipPath id="clip0_1353_4400">
<rect width="343" height="242" fill="white"/>
</clipPath>
</defs>
</svg>
