<svg width="375" height="400" viewBox="0 0 375 400" fill="none" xmlns="http://www.w3.org/2000/svg">
<g clip-path="url(#clip0_1353_4130)">
<path d="M37.2584 342.19V416.43H30.9584V348.5H-59.4316V342.19H37.2584Z" fill="#F9F9F9"/>
<path d="M37.2592 417.55H30.9992C30.7039 417.547 30.4216 417.428 30.2137 417.219C30.0058 417.009 29.8892 416.725 29.8892 416.43V349.61H-59.4308C-59.7261 349.61 -60.0095 349.493 -60.2192 349.286C-60.429 349.078 -60.5481 348.795 -60.5508 348.5V342.19C-60.5481 341.895 -60.429 341.612 -60.2192 341.405C-60.0095 341.197 -59.7261 341.08 -59.4308 341.08H37.2592C37.5545 341.08 37.8379 341.197 38.0477 341.405C38.2574 341.612 38.3766 341.895 38.3792 342.19V416.43C38.3792 416.727 38.2612 417.012 38.0512 417.222C37.8411 417.432 37.5563 417.55 37.2592 417.55ZM32.0792 415.32H36.1492V343.32H-58.3208V347.39H30.9992C31.2963 347.39 31.5811 347.508 31.7912 347.718C32.0012 347.928 32.1192 348.213 32.1192 348.51L32.0792 415.32Z" fill="#3A4A67"/>
<path d="M12.9592 367.41H-6.80078V401.03H12.9592V367.41Z" fill="#F9F9F9"/>
<path d="M12.9985 402.15H-6.80147C-6.95111 402.15 -7.09925 402.12 -7.23712 402.062C-7.375 402.004 -7.49983 401.919 -7.60423 401.811C-7.70863 401.704 -7.7905 401.577 -7.84499 401.438C-7.89947 401.299 -7.92548 401.15 -7.92147 401V367.41C-7.91884 367.115 -7.79967 366.832 -7.58992 366.625C-7.38016 366.417 -7.09679 366.3 -6.80147 366.3H12.9985C13.2929 366.3 13.5752 366.417 13.7834 366.625C13.9916 366.833 14.1085 367.116 14.1085 367.41V401C14.1139 401.149 14.0892 401.298 14.0358 401.437C13.9824 401.576 13.9015 401.704 13.7979 401.811C13.6943 401.918 13.5701 402.004 13.4328 402.062C13.2954 402.12 13.1477 402.15 12.9985 402.15ZM-5.65147 399.92H11.8485V368.53H-5.69147L-5.65147 399.92Z" fill="#3A4A67"/>
<path d="M30.9992 417.55H-59.4308C-59.7278 417.55 -60.0127 417.432 -60.2227 417.222C-60.4328 417.012 -60.5508 416.727 -60.5508 416.43V348.5C-60.5508 348.203 -60.4328 347.918 -60.2227 347.708C-60.0127 347.498 -59.7278 347.38 -59.4308 347.38H30.9992C31.2963 347.38 31.5811 347.498 31.7912 347.708C32.0012 347.918 32.1192 348.203 32.1192 348.5V416.43C32.1192 416.727 32.0012 417.012 31.7912 417.222C31.5811 417.432 31.2963 417.55 30.9992 417.55ZM-58.2808 415.32H29.8492V349.61H-58.3208L-58.2808 415.32Z" fill="#3A4A67"/>
<path d="M-14.2305 304.46H22.3295L14.8995 342.06H-6.80047L-14.2305 304.46Z" fill="#F9F9F9"/>
<path d="M14.8997 343.17H-6.80025C-7.05802 343.171 -7.3082 343.083 -7.50859 342.921C-7.70898 342.759 -7.84732 342.532 -7.90025 342.28L-15.3302 304.67C-15.3588 304.509 -15.3522 304.343 -15.3107 304.184C-15.2693 304.025 -15.1941 303.877 -15.0902 303.75C-14.9868 303.622 -14.8558 303.518 -14.7069 303.447C-14.5581 303.376 -14.3952 303.34 -14.2302 303.34H22.3298C22.4947 303.34 22.6576 303.376 22.8064 303.447C22.9553 303.518 23.0863 303.622 23.1898 303.75C23.2936 303.877 23.3688 304.025 23.4102 304.184C23.4517 304.343 23.4583 304.509 23.4298 304.67L15.9998 342.28C15.9468 342.532 15.8085 342.759 15.6081 342.921C15.4077 343.083 15.1575 343.171 14.8997 343.17ZM-5.89025 341H13.9998L20.9998 305.62H-12.8802L-5.89025 341Z" fill="#3A4A67"/>
<path d="M4.37891 303.58C4.97984 289.377 10.1021 275.738 18.9989 264.65L4.37891 303.58Z" fill="#F9F9F9"/>
<path d="M4.37935 304.69C4.08401 304.677 3.80578 304.548 3.60534 304.331C3.4049 304.113 3.2985 303.826 3.30935 303.53C3.90981 289.107 9.11009 275.255 18.1493 264C18.2398 263.885 18.3523 263.79 18.4801 263.719C18.6079 263.648 18.7485 263.604 18.8937 263.588C19.0389 263.572 19.1858 263.585 19.3259 263.627C19.4659 263.669 19.5963 263.738 19.7093 263.83C19.8243 263.922 19.9201 264.035 19.9909 264.163C20.0618 264.292 20.1065 264.434 20.1223 264.58C20.1381 264.726 20.1248 264.873 20.0831 265.014C20.0414 265.155 19.9721 265.286 19.8793 265.4C11.1364 276.283 6.0951 289.673 5.48935 303.62C5.47898 303.908 5.35748 304.18 5.15043 304.379C4.94337 304.579 4.66694 304.69 4.37935 304.69Z" fill="#3A4A67"/>
<path d="M5.65067 290.121C6.93034 287.904 9.03808 286.287 11.5102 285.625C13.9823 284.962 16.6164 285.309 18.8328 286.589C17.5531 288.805 15.4454 290.422 12.9733 291.085C10.5011 291.747 7.86712 291.4 5.65067 290.121Z" fill="#F9F9F9"/>
<path d="M10.4597 292.53C8.57452 292.528 6.72282 292.032 5.0897 291.09C4.83413 290.94 4.64851 290.694 4.57353 290.408C4.49855 290.121 4.54033 289.816 4.6897 289.56C6.12012 287.089 8.47223 285.287 11.23 284.548C13.9877 283.81 16.9258 284.195 19.3997 285.62C19.5256 285.694 19.6355 285.792 19.723 285.909C19.8106 286.026 19.874 286.159 19.9097 286.3C19.9495 286.44 19.9603 286.587 19.9414 286.731C19.9225 286.876 19.8742 287.015 19.7997 287.14C18.8532 288.779 17.4917 290.141 15.8521 291.087C14.2125 292.033 12.3527 292.531 10.4597 292.53ZM7.2897 289.68C9.00878 290.368 10.9049 290.479 12.6923 289.995C14.4798 289.512 16.0617 288.461 17.1997 287C15.4822 286.313 13.5885 286.201 11.802 286.681C10.0155 287.16 8.43237 288.205 7.2897 289.66V289.68Z" fill="#3A4A67"/>
<path d="M-2.76953 279.451C-0.215968 279.623 2.16474 280.802 3.84887 282.729C5.533 284.657 6.38259 287.174 6.21074 289.727C3.65718 289.556 1.27647 288.376 -0.407657 286.449C-2.09179 284.522 -2.94138 282.005 -2.76953 279.451Z" fill="#F9F9F9"/>
<path d="M6.22884 290.86H6.14884C3.30457 290.663 0.65468 289.345 -1.21987 287.197C-3.09443 285.049 -4.04067 282.245 -3.85116 279.4C-3.84269 279.253 -3.80468 279.109 -3.7394 278.977C-3.67412 278.844 -3.58289 278.726 -3.47116 278.63C-3.2474 278.437 -2.95622 278.34 -2.66116 278.36C0.183969 278.56 2.83386 279.88 4.70817 282.029C6.58248 284.179 7.52842 286.984 7.33884 289.83C7.30721 290.103 7.17703 290.356 6.97268 290.54C6.76834 290.724 6.50386 290.827 6.22884 290.83V290.86ZM-1.64116 280.74C-1.50407 282.585 -0.771994 284.337 0.445139 285.73C1.66227 287.124 3.29876 288.086 5.10884 288.47C4.96858 286.626 4.23539 284.876 3.01878 283.483C1.80217 282.09 0.167459 281.128 -1.64116 280.74Z" fill="#3A4A67"/>
<path d="M19.0098 262.652C17.2 260.843 16.1833 258.388 16.1833 255.829C16.1833 253.269 17.2 250.815 19.0098 249.005C20.8195 250.815 21.8362 253.269 21.8362 255.829C21.8362 258.388 20.8195 260.843 19.0098 262.652Z" fill="#F9F9F9"/>
<path d="M18.9988 263.77C18.8517 263.771 18.7059 263.743 18.5701 263.686C18.4343 263.629 18.3114 263.546 18.2088 263.44C17.2077 262.441 16.4135 261.254 15.8716 259.947C15.3297 258.64 15.0508 257.24 15.0508 255.825C15.0508 254.41 15.3297 253.01 15.8716 251.703C16.4135 250.396 17.2077 249.209 18.2088 248.21C18.4183 248.004 18.7002 247.889 18.9938 247.889C19.2875 247.889 19.5694 248.004 19.7788 248.21C21.7958 250.231 22.9286 252.97 22.9286 255.825C22.9286 258.68 21.7958 261.419 19.7788 263.44C19.6778 263.545 19.5566 263.628 19.4225 263.685C19.2885 263.741 19.1444 263.77 18.9988 263.77ZM18.9988 250.69C17.8739 252.173 17.2649 253.984 17.2649 255.845C17.2649 257.707 17.8739 259.517 18.9988 261C20.1081 259.518 20.7076 257.716 20.7076 255.865C20.7076 254.014 20.1081 252.212 18.9988 250.73V250.69Z" fill="#3A4A67"/>
<path d="M19.0078 281.093C17.1981 279.284 16.1814 276.829 16.1814 274.27C16.1814 271.71 17.1981 269.256 19.0078 267.446C20.8175 269.256 21.8342 271.71 21.8342 274.27C21.8342 276.829 20.8175 279.284 19.0078 281.093Z" fill="#F9F9F9"/>
<path d="M19.0001 282.21C18.7067 282.207 18.4263 282.089 18.2201 281.88C16.2031 279.859 15.0703 277.12 15.0703 274.265C15.0703 271.41 16.2031 268.671 18.2201 266.65C18.4295 266.444 18.7114 266.329 19.0051 266.329C19.2987 266.329 19.5806 266.444 19.7901 266.65C20.7912 267.649 21.5854 268.836 22.1273 270.143C22.6692 271.45 22.9482 272.85 22.9482 274.265C22.9482 275.68 22.6692 277.08 22.1273 278.387C21.5854 279.694 20.7912 280.881 19.7901 281.88C19.6868 281.985 19.5638 282.068 19.4282 282.124C19.2926 282.181 19.1471 282.21 19.0001 282.21ZM19.0001 269.14C17.8901 270.62 17.2901 272.42 17.2901 274.27C17.2901 276.12 17.8901 277.92 19.0001 279.4C20.1101 277.92 20.7101 276.12 20.7101 274.27C20.7101 272.42 20.1101 270.62 19.0001 269.14Z" fill="#3A4A67"/>
<path d="M21.4062 265.05C23.216 263.24 25.6705 262.224 28.2298 262.224C30.7892 262.224 33.2437 263.24 35.0534 265.05C33.2437 266.86 30.7892 267.876 28.2298 267.876C25.6705 267.876 23.216 266.86 21.4062 265.05Z" fill="#F9F9F9"/>
<path d="M28.2391 269C25.3832 269.005 22.6423 267.876 20.6191 265.86C20.4097 265.65 20.2912 265.367 20.2891 265.07C20.289 264.923 20.3182 264.778 20.3748 264.642C20.4315 264.506 20.5145 264.383 20.6191 264.28C22.6401 262.263 25.3788 261.13 28.2341 261.13C31.0894 261.13 33.828 262.263 35.8491 264.28C36.0555 264.491 36.1711 264.775 36.1711 265.07C36.1711 265.365 36.0555 265.649 35.8491 265.86C33.8283 267.873 31.0914 269.003 28.2391 269ZM23.0991 265.07C24.5812 266.179 26.3828 266.779 28.2341 266.779C30.0854 266.779 31.8869 266.179 33.3691 265.07C31.889 263.958 30.0887 263.355 28.2374 263.351C26.3861 263.348 24.5834 263.944 23.0991 265.05V265.07Z" fill="#3A4A67"/>
<path d="M2.98828 265.028C4.79801 263.218 7.25252 262.201 9.81186 262.201C12.3712 262.201 14.8257 263.218 16.6354 265.028C14.8257 266.838 12.3712 267.854 9.81186 267.854C7.25252 267.854 4.79801 266.838 2.98828 265.028Z" fill="#F9F9F9"/>
<path d="M9.78987 269C6.93748 269.003 4.20064 267.873 2.17987 265.86C2.07525 265.757 1.99219 265.634 1.9355 265.498C1.8788 265.363 1.84961 265.217 1.84961 265.07C1.84961 264.923 1.8788 264.778 1.9355 264.642C1.99219 264.506 2.07525 264.383 2.17987 264.28C4.20089 262.263 6.93956 261.13 9.79487 261.13C12.6502 261.13 15.3888 262.263 17.4099 264.28C17.5144 264.383 17.5974 264.506 17.6541 264.642C17.7107 264.778 17.7399 264.923 17.7399 265.07C17.7377 265.367 17.6192 265.65 17.4099 265.86C15.3866 267.876 12.6457 269.005 9.78987 269ZM4.65987 265.07C6.14204 266.179 7.94357 266.779 9.79487 266.779C11.6462 266.779 13.4477 266.179 14.9299 265.07C13.4499 263.958 11.6495 263.355 9.79819 263.351C7.94689 263.348 6.1442 263.944 4.65987 265.05V265.07Z" fill="#3A4A67"/>
<path d="M20.709 263.35C20.709 260.791 21.7257 258.336 23.5354 256.527C25.3451 254.717 27.7997 253.7 30.359 253.7C30.359 256.259 29.3423 258.714 27.5326 260.524C25.7229 262.333 23.2683 263.35 20.709 263.35Z" fill="#F9F9F9"/>
<path d="M20.7098 264.47C20.4128 264.47 20.1279 264.352 19.9179 264.142C19.7078 263.932 19.5898 263.647 19.5898 263.35C19.5951 260.496 20.7318 257.761 22.7508 255.744C24.7697 253.727 27.506 252.593 30.3598 252.59C30.5065 252.589 30.6519 252.617 30.7877 252.672C30.9235 252.727 31.0471 252.808 31.1512 252.912C31.2553 253.015 31.338 253.138 31.3944 253.273C31.4508 253.408 31.4798 253.554 31.4798 253.7C31.4772 256.556 30.3417 259.294 28.3225 261.313C26.3033 263.332 23.5654 264.467 20.7098 264.47ZM29.1598 254.9C27.3286 255.163 25.6321 256.013 24.3248 257.322C23.0176 258.631 22.1702 260.329 21.9098 262.16C23.7404 261.896 25.4361 261.045 26.7431 259.737C28.0501 258.428 28.8979 256.731 29.1598 254.9Z" fill="#3A4A67"/>
<path d="M7.66992 276.39C7.66992 275.123 7.91952 273.868 8.40448 272.697C8.88944 271.526 9.60025 270.463 10.4963 269.567C11.3924 268.67 12.4563 267.96 13.627 267.475C14.7978 266.99 16.0527 266.74 17.3199 266.74C17.3199 269.299 16.3032 271.754 14.4935 273.564C12.6838 275.373 10.2293 276.39 7.66992 276.39Z" fill="#F9F9F9"/>
<path d="M7.66883 277.51C7.52175 277.51 7.37611 277.481 7.24022 277.425C7.10434 277.369 6.98087 277.286 6.87687 277.182C6.77287 277.078 6.69037 276.955 6.63408 276.819C6.5778 276.683 6.54883 276.537 6.54883 276.39C6.55412 273.536 7.69083 270.801 9.70974 268.784C11.7286 266.767 14.465 265.633 17.3188 265.63C17.4654 265.629 17.6109 265.657 17.7467 265.712C17.8825 265.767 18.0061 265.849 18.1102 265.952C18.2143 266.055 18.297 266.178 18.3534 266.313C18.4098 266.448 18.4388 266.594 18.4388 266.74C18.4362 269.596 17.3006 272.334 15.2814 274.353C13.2623 276.372 10.5244 277.508 7.66883 277.51ZM16.1188 267.94C14.2876 268.203 12.591 269.053 11.2838 270.362C9.97657 271.671 9.12918 273.369 8.86883 275.2C10.6994 274.936 12.3951 274.086 13.7021 272.777C15.009 271.468 15.8569 269.771 16.1188 267.94Z" fill="#3A4A67"/>
<path d="M17.3184 263.35C16.0511 263.35 14.7963 263.1 13.6255 262.616C12.4547 262.131 11.3909 261.42 10.4948 260.524C9.59869 259.628 8.88788 258.564 8.40292 257.393C7.91796 256.222 7.66836 254.967 7.66836 253.7C10.2277 253.7 12.6822 254.717 14.4919 256.527C16.3017 258.336 17.3184 260.791 17.3184 263.35Z" fill="#F9F9F9"/>
<path d="M17.3188 264.47C14.4633 264.467 11.7254 263.332 9.70621 261.313C7.68702 259.294 6.55148 256.556 6.54883 253.7C6.54882 253.554 6.57786 253.408 6.63427 253.273C6.69067 253.138 6.77333 253.015 6.87747 252.912C6.9816 252.808 7.10515 252.727 7.24098 252.672C7.37681 252.617 7.52222 252.589 7.66883 252.59C10.5227 252.593 13.259 253.727 15.2779 255.744C17.2968 257.761 18.4335 260.496 18.4388 263.35C18.4388 263.497 18.4099 263.643 18.3536 263.779C18.2973 263.915 18.2148 264.038 18.1108 264.142C18.0068 264.246 17.8833 264.329 17.7474 264.385C17.6115 264.441 17.4659 264.47 17.3188 264.47ZM8.86883 254.9C9.13072 256.731 9.97862 258.428 11.2856 259.737C12.5925 261.045 14.2882 261.896 16.1188 262.16C15.8585 260.329 15.0111 258.631 13.7038 257.322C12.3966 256.013 10.7 255.163 8.86883 254.9Z" fill="#3A4A67"/>
<path d="M30.3594 276.39C27.8 276.39 25.3455 275.373 23.5358 273.564C21.7261 271.754 20.7094 269.299 20.7094 266.74C23.2687 266.74 25.7232 267.757 27.533 269.567C29.3427 271.376 30.3594 273.831 30.3594 276.39Z" fill="#F9F9F9"/>
<path d="M30.3598 277.51C27.5043 277.508 24.7664 276.372 22.7472 274.353C20.728 272.334 19.5925 269.596 19.5898 266.74C19.5898 266.594 19.6189 266.448 19.6753 266.313C19.7317 266.178 19.8143 266.055 19.9185 265.952C20.0226 265.849 20.1462 265.767 20.282 265.712C20.4178 265.657 20.5632 265.629 20.7098 265.63C23.5637 265.633 26.3 266.767 28.3189 268.784C30.3378 270.801 31.4745 273.536 31.4798 276.39C31.4798 276.687 31.3618 276.972 31.1518 277.182C30.9418 277.392 30.6569 277.51 30.3598 277.51ZM21.9098 267.94C22.1717 269.771 23.0196 271.468 24.3266 272.777C25.6335 274.086 27.3293 274.936 29.1598 275.2C28.8995 273.369 28.0521 271.671 26.7449 270.362C25.4376 269.053 23.7411 268.203 21.9098 267.94Z" fill="#3A4A67"/>
<path d="M19.009 267.25C20.2792 267.25 21.309 266.22 21.309 264.95C21.309 263.68 20.2792 262.65 19.009 262.65C17.7387 262.65 16.709 263.68 16.709 264.95C16.709 266.22 17.7387 267.25 19.009 267.25Z" fill="#F9F9F9"/>
<path d="M18.9995 268.37C18.3214 268.368 17.6592 268.164 17.0971 267.785C16.535 267.406 16.0983 266.868 15.8425 266.24C15.5867 265.612 15.5234 264.922 15.6606 264.258C15.7978 263.594 16.1293 262.986 16.613 262.51C17.0967 262.035 17.7107 261.715 18.3771 261.589C19.0435 261.464 19.7322 261.539 20.3556 261.806C20.979 262.073 21.509 262.519 21.8782 263.088C22.2475 263.656 22.4394 264.322 22.4295 265C22.4163 265.9 22.0488 266.759 21.4067 267.39C20.7646 268.02 19.8997 268.373 18.9995 268.37ZM18.9995 263.77C18.7663 263.772 18.5389 263.843 18.3454 263.973C18.152 264.103 18.0011 264.287 17.9115 264.503C17.8219 264.718 17.7975 264.955 17.8414 265.184C17.8853 265.413 17.9955 265.624 18.1584 265.791C18.3212 265.958 18.5295 266.073 18.7574 266.123C18.9853 266.172 19.2227 266.154 19.4401 266.07C19.6576 265.985 19.8455 265.839 19.9805 265.649C20.1155 265.459 20.1916 265.233 20.1995 265C20.2063 264.839 20.1802 264.679 20.1227 264.528C20.0652 264.378 19.9776 264.241 19.8652 264.126C19.7528 264.011 19.618 263.92 19.4691 263.858C19.3202 263.797 19.1604 263.767 18.9995 263.77Z" fill="#3A4A67"/>
<path d="M20.8796 310H-12.7804C-13.0757 310 -13.3591 309.884 -13.5688 309.676C-13.7786 309.468 -13.8978 309.185 -13.9004 308.89C-13.9004 308.593 -13.7824 308.308 -13.5724 308.098C-13.3623 307.888 -13.0774 307.77 -12.7804 307.77H20.8796C21.0349 307.755 21.1916 307.773 21.3396 307.823C21.4875 307.872 21.6236 307.952 21.739 308.057C21.8544 308.162 21.9466 308.29 22.0097 308.432C22.0727 308.575 22.1053 308.729 22.1053 308.885C22.1053 309.041 22.0727 309.195 22.0097 309.338C21.9466 309.481 21.8544 309.609 21.739 309.714C21.6236 309.819 21.4875 309.898 21.3396 309.948C21.1916 309.997 21.0349 310.015 20.8796 310Z" fill="#3A4A67"/>
<path d="M122.329 219.73C123.412 219.73 124.289 218.853 124.289 217.77C124.289 216.688 123.412 215.81 122.329 215.81C121.247 215.81 120.369 216.688 120.369 217.77C120.369 218.853 121.247 219.73 122.329 219.73Z" fill="white"/>
<path d="M229.88 219.73C230.962 219.73 231.84 218.853 231.84 217.77C231.84 216.688 230.962 215.81 229.88 215.81C228.797 215.81 227.92 216.688 227.92 217.77C227.92 218.853 228.797 219.73 229.88 219.73Z" fill="white"/>
<path d="M221.738 294.09C221.308 301.81 219.738 330.09 218.368 343.75C216.998 357.41 211.888 394.52 210.548 404.15L146.698 403.46C144.908 393.23 138.698 357.39 136.828 343.83C134.948 330.04 132.298 301.36 131.648 294.06L134.748 293.79C136.395 293.646 138.009 293.241 139.528 292.59C144.412 297.74 149.879 302.304 155.818 306.19C162.142 310.261 168.961 313.504 176.108 315.84C183.765 313.497 191.022 310.004 197.628 305.48C203.215 301.583 208.317 297.034 212.828 291.93C214.865 293.017 217.099 293.68 219.398 293.88L221.738 294.09Z" fill="#DAF1ED"/>
<path d="M176.119 271.7C146.399 271.7 122.229 238.49 122.229 197.7C122.229 195.92 122.229 194.15 122.229 192.4C122.139 175.4 122.069 159.4 129.989 147.4C140.249 131.83 160.989 123.68 176.139 123.68C191.949 123.68 206.909 133.16 217.139 149.68C225.439 163.04 230.009 180.1 230.009 197.68C229.999 238.49 205.829 271.7 176.119 271.7ZM176.119 126.2C161.979 126.2 141.759 134.11 132.119 148.77C124.619 160.15 124.689 175.77 124.779 192.36C124.779 194.12 124.779 195.89 124.779 197.68C124.779 237.09 147.779 269.15 176.129 269.15C204.479 269.15 227.469 237.09 227.469 197.68C227.459 180.54 222.999 164 214.999 151C205.199 135.24 190.999 126.2 176.119 126.2Z" fill="#3A4A67"/>
<path d="M123.499 215.39C118.259 215.39 112.949 209.75 112.949 198.96C112.949 188.17 122.389 187.78 122.489 187.78C122.826 187.765 123.155 187.885 123.403 188.113C123.652 188.341 123.8 188.658 123.814 188.995C123.829 189.332 123.709 189.661 123.481 189.909C123.253 190.158 122.936 190.305 122.599 190.32C122.309 190.32 115.499 190.78 115.499 198.96C115.499 207.96 119.619 212.84 123.499 212.84C123.818 212.868 124.114 213.015 124.33 213.251C124.546 213.487 124.666 213.795 124.666 214.115C124.666 214.435 124.546 214.743 124.33 214.979C124.114 215.215 123.818 215.362 123.499 215.39Z" fill="#3A4A67"/>
<path d="M228.729 215.39C228.411 215.362 228.114 215.215 227.898 214.979C227.682 214.743 227.562 214.435 227.562 214.115C227.562 213.795 227.682 213.487 227.898 213.251C228.114 213.015 228.411 212.868 228.729 212.84C232.609 212.84 236.729 207.98 236.729 198.96C236.729 190.78 229.919 190.34 229.629 190.32C229.293 190.304 228.976 190.155 228.749 189.906C228.522 189.656 228.404 189.327 228.419 188.99C228.435 188.653 228.584 188.336 228.834 188.11C229.083 187.883 229.413 187.764 229.749 187.78C229.839 187.78 239.279 188.3 239.279 198.96C239.279 209.62 233.999 215.39 228.729 215.39Z" fill="#3A4A67"/>
<path d="M233.369 189.05C233.369 189.05 227.939 208.53 227.139 201.58C226.599 196.91 225.209 192.46 218.439 188.45C194.099 174 200.559 146 200.559 146L195.059 180.14C194.892 181.209 194.357 182.185 193.546 182.901C192.736 183.616 191.7 184.026 190.619 184.06C178.749 184.45 142.779 185.67 132.159 186.57C126.789 187.02 125.889 165.57 125.889 165.57L125.159 187.12L117.919 189.05C117.919 189.05 105.319 113.85 178.559 113.85C188.939 113.85 195.659 117.92 202.509 121.47C234.489 127.94 233.369 189.05 233.369 189.05Z" fill="#3A4A67"/>
<path d="M60.1588 402.42H59.9988C59.8333 402.399 59.6736 402.346 59.5288 402.263C59.3839 402.18 59.2568 402.07 59.1547 401.938C59.0525 401.806 58.9774 401.655 58.9335 401.494C58.8896 401.334 58.8778 401.166 58.8988 401L67.4788 339.66C69.0938 327.789 74.7059 316.823 83.3899 308.57C92.0739 300.317 103.311 295.269 115.249 294.26L134.629 292.55C136.142 292.422 137.624 292.051 139.019 291.45H139.119C140.492 290.859 141.765 290.056 142.889 289.07C145.395 286.895 147.082 283.927 147.669 280.66L150.969 262.35C151.053 262.041 151.249 261.775 151.52 261.604C151.79 261.433 152.115 261.37 152.43 261.426C152.745 261.483 153.027 261.655 153.221 261.909C153.415 262.164 153.507 262.481 153.479 262.8L150.179 281.11C149.49 284.952 147.507 288.442 144.559 291C143.209 292.178 141.679 293.133 140.029 293.83H139.949C138.324 294.512 136.604 294.937 134.849 295.09L115.479 296.79C104.116 297.751 93.4194 302.555 85.1521 310.41C76.8849 318.264 71.5402 328.701 69.9988 340L61.4188 401.34C61.3732 401.641 61.2209 401.916 60.9896 402.114C60.7583 402.313 60.4634 402.421 60.1588 402.42Z" fill="#3A4A67"/>
<path d="M274.45 317.12C274.255 317.117 274.064 317.069 273.891 316.981C273.718 316.892 273.567 316.765 273.45 316.61C269.2 310.985 263.818 306.312 257.652 302.893C251.486 299.475 244.672 297.385 237.65 296.76L219.32 295.15C216.849 294.935 214.447 294.221 212.26 293.05C211.167 292.477 210.138 291.79 209.19 291C205.808 288.213 203.529 284.314 202.76 280L199.64 262.73C199.611 262.411 199.703 262.094 199.897 261.839C200.092 261.585 200.374 261.413 200.689 261.356C201.004 261.3 201.328 261.363 201.599 261.534C201.869 261.705 202.066 261.971 202.15 262.28L205.26 279.55C205.928 283.265 207.895 286.622 210.81 289.02C213.292 291.073 216.341 292.321 219.55 292.6L237.87 294.22C245.249 294.877 252.408 297.071 258.887 300.662C265.367 304.253 271.022 309.161 275.49 315.07C275.59 315.203 275.664 315.355 275.706 315.517C275.748 315.678 275.757 315.847 275.734 316.012C275.711 316.177 275.655 316.336 275.57 316.48C275.486 316.624 275.373 316.75 275.24 316.85C275.013 317.024 274.736 317.119 274.45 317.12Z" fill="#3A4A67"/>
<path d="M210.229 407.74H209.999C209.834 407.717 209.674 407.661 209.53 407.576C209.386 407.491 209.261 407.378 209.16 407.245C209.06 407.111 208.987 406.958 208.946 406.796C208.904 406.634 208.895 406.466 208.919 406.3C208.919 406.3 209.039 405.47 209.239 403.99C209.889 399.36 215.579 358.37 217.059 343.63C218.349 330.76 219.839 304.63 220.429 294.03C220.499 292.76 220.529 292.03 220.529 292.03C220.533 291.862 220.571 291.696 220.64 291.543C220.71 291.39 220.81 291.253 220.935 291.14C221.059 291.026 221.205 290.94 221.364 290.885C221.523 290.83 221.692 290.808 221.859 290.82C222.026 290.828 222.19 290.868 222.341 290.939C222.492 291.01 222.628 291.111 222.74 291.234C222.853 291.358 222.94 291.502 222.996 291.659C223.053 291.817 223.077 291.983 223.069 292.15C223.069 292.15 223.069 292.87 222.969 294.15C222.389 304.8 220.889 330.95 219.589 343.87C218.109 358.67 212.409 399.7 211.769 404.33C211.559 405.82 211.439 406.65 211.439 406.65C211.399 406.946 211.256 407.217 211.034 407.417C210.813 407.617 210.527 407.731 210.229 407.74Z" fill="#3A4A67"/>
<path d="M147.188 407.5C146.889 407.5 146.598 407.395 146.368 407.203C146.138 407.011 145.982 406.745 145.928 406.45C145.928 406.45 145.748 405.45 145.448 403.68C144.138 396.22 137.518 358.24 135.568 344.01C133.478 328.66 130.498 295.58 130.378 294.17C130.268 293.07 130.218 292.45 130.218 292.45C130.202 292.121 130.314 291.798 130.531 291.549C130.748 291.301 131.053 291.147 131.382 291.12C131.71 291.093 132.037 291.194 132.292 291.403C132.547 291.612 132.711 291.912 132.748 292.24C132.748 292.24 132.808 292.85 132.908 293.93C133.038 295.35 136.008 328.38 138.098 343.66C140.028 357.85 146.648 395.78 147.958 403.24C148.258 405 148.438 406 148.438 406C148.498 406.328 148.426 406.667 148.239 406.943C148.052 407.22 147.765 407.412 147.438 407.48L147.188 407.5Z" fill="#3A4A67"/>
<path d="M105.059 297.47C105.059 297.47 117.329 257.89 119.139 212.47L125.139 215.53L134.139 241.53L145.429 256.8L151.429 261.62L147.969 283.82L142.659 292.53L124.589 293.87L105.059 297.47Z" fill="#3A4A67"/>
<path d="M247.069 296.82C239.14 269.434 234.465 241.21 233.139 212.73L227.229 215L219.589 238.64L206.189 257.37L200.879 262.5L204.609 280.33C204.609 280.33 206.939 292.09 216.769 293.64C220.649 294.26 247.069 296.82 247.069 296.82Z" fill="#3A4A67"/>
<path d="M178.559 113.85C187.159 113.713 195.569 116.388 202.509 121.47C234.509 127.94 233.369 189.05 233.369 189.05" fill="#3A4A67"/>
<path d="M152.739 209.15C155.417 209.15 157.589 206.979 157.589 204.3C157.589 201.622 155.417 199.45 152.739 199.45C150.06 199.45 147.889 201.622 147.889 204.3C147.889 206.979 150.06 209.15 152.739 209.15Z" fill="#3A4A67"/>
<path d="M200.659 209.15C203.337 209.15 205.509 206.979 205.509 204.3C205.509 201.622 203.337 199.45 200.659 199.45C197.98 199.45 195.809 201.622 195.809 204.3C195.809 206.979 197.98 209.15 200.659 209.15Z" fill="#3A4A67"/>
<path d="M159.31 193.82C159.109 193.817 158.911 193.769 158.73 193.68C156.669 192.627 154.403 192.036 152.09 191.95C149.403 191.874 146.739 192.469 144.34 193.68C144.039 193.83 143.69 193.856 143.37 193.751C143.05 193.646 142.784 193.42 142.63 193.12C142.553 192.971 142.506 192.809 142.492 192.642C142.479 192.475 142.499 192.307 142.551 192.147C142.603 191.988 142.686 191.841 142.796 191.714C142.906 191.588 143.04 191.484 143.19 191.41C145.775 190.088 148.637 189.399 151.54 189.399C154.443 189.399 157.305 190.088 159.89 191.41C160.039 191.485 160.172 191.589 160.281 191.716C160.39 191.843 160.473 191.99 160.525 192.149C160.577 192.308 160.597 192.475 160.584 192.642C160.571 192.809 160.526 192.971 160.45 193.12C160.342 193.33 160.179 193.506 159.978 193.629C159.777 193.753 159.546 193.819 159.31 193.82Z" fill="#3A4A67"/>
<path d="M208.429 193.82C208.228 193.818 208.029 193.77 207.849 193.68C205.788 192.627 203.522 192.036 201.209 191.95C198.522 191.87 195.857 192.465 193.459 193.68C193.158 193.83 192.809 193.856 192.489 193.751C192.169 193.646 191.903 193.42 191.749 193.12C191.672 192.971 191.625 192.809 191.612 192.642C191.598 192.475 191.618 192.307 191.67 192.147C191.722 191.988 191.806 191.841 191.915 191.714C192.025 191.588 192.159 191.484 192.309 191.41C194.894 190.088 197.756 189.399 200.659 189.399C203.562 189.399 206.424 190.088 209.009 191.41C209.268 191.537 209.476 191.749 209.599 192.01C209.722 192.271 209.752 192.567 209.684 192.847C209.617 193.128 209.456 193.377 209.228 193.554C208.999 193.731 208.718 193.825 208.429 193.82Z" fill="#3A4A67"/>
<path d="M177.45 231.82C177.273 231.821 177.098 231.785 176.936 231.714C176.775 231.644 176.629 231.54 176.51 231.41L173.06 227.69C172.915 227.536 172.812 227.348 172.758 227.144C172.703 226.94 172.701 226.726 172.75 226.52L174.86 217.76C174.938 217.431 175.143 217.147 175.431 216.97C175.719 216.792 176.066 216.737 176.395 216.815C176.723 216.893 177.008 217.099 177.185 217.387C177.362 217.675 177.418 218.021 177.34 218.35L175.34 226.46L178.34 229.68C178.505 229.863 178.614 230.089 178.655 230.332C178.695 230.575 178.664 230.824 178.566 231.05C178.467 231.276 178.306 231.469 178.101 231.606C177.896 231.742 177.656 231.817 177.41 231.82H177.45Z" fill="#3A4A67"/>
<path d="M177.449 248.2C172.179 248.2 169.919 243.05 169.449 240.32C169.421 240.143 169.431 239.962 169.48 239.789C169.528 239.617 169.613 239.457 169.729 239.32C169.851 239.175 170.005 239.059 170.178 238.981C170.351 238.903 170.539 238.865 170.729 238.87H183.839C184.019 238.869 184.198 238.906 184.363 238.979C184.527 239.052 184.675 239.159 184.795 239.293C184.915 239.428 185.005 239.586 185.059 239.758C185.113 239.93 185.131 240.111 185.109 240.29C184.769 243 182.759 248.2 177.449 248.2ZM172.379 241.38C172.999 243.09 174.429 245.66 177.449 245.66C180.469 245.66 181.739 243.07 182.249 241.38H172.379Z" fill="#3A4A67"/>
<path d="M175.72 355.58C175.507 355.58 175.298 355.527 175.111 355.426C174.925 355.324 174.766 355.178 174.65 355L135.27 294.31C135.088 294.024 135.026 293.678 135.097 293.347C135.168 293.016 135.367 292.726 135.65 292.54C135.79 292.449 135.947 292.387 136.112 292.357C136.276 292.326 136.445 292.329 136.609 292.364C136.772 292.4 136.927 292.467 137.065 292.562C137.202 292.658 137.319 292.779 137.41 292.92L175.71 351.92L213.94 292.51C214.123 292.226 214.411 292.027 214.741 291.956C214.904 291.92 215.073 291.918 215.238 291.948C215.402 291.978 215.559 292.04 215.7 292.13C215.84 292.221 215.962 292.338 216.057 292.476C216.152 292.613 216.219 292.768 216.254 292.931C216.29 293.095 216.292 293.264 216.262 293.428C216.232 293.593 216.17 293.75 216.08 293.89L176.79 355C176.676 355.181 176.518 355.33 176.331 355.434C176.144 355.537 175.933 355.591 175.72 355.59V355.58Z" fill="#3A4A67"/>
<path d="M187.27 354.3H164.92V388H187.27V354.3Z" fill="#5ABEAE"/>
<path d="M187.278 389.28H164.918C164.751 389.28 164.585 389.247 164.43 389.182C164.275 389.118 164.135 389.024 164.017 388.905C163.899 388.786 163.806 388.644 163.742 388.489C163.679 388.334 163.647 388.168 163.648 388V354.3C163.648 353.963 163.782 353.64 164.02 353.402C164.259 353.164 164.582 353.03 164.918 353.03H187.278C187.615 353.03 187.938 353.164 188.177 353.402C188.415 353.64 188.548 353.963 188.548 354.3V388C188.55 388.168 188.518 388.334 188.455 388.489C188.391 388.644 188.298 388.786 188.18 388.905C188.062 389.024 187.922 389.118 187.767 389.182C187.612 389.247 187.446 389.28 187.278 389.28ZM166.198 386.73H185.998V355.58H166.198V386.73Z" fill="#3A4A67"/>
<path d="M279.149 307.74H278.949C278.784 307.715 278.626 307.657 278.483 307.57C278.341 307.483 278.217 307.369 278.118 307.235C278.02 307.1 277.949 306.947 277.91 306.785C277.87 306.623 277.863 306.455 277.889 306.29L279.149 298.11L276.149 275.28C275.208 270.321 275.856 265.191 277.999 260.62C278.63 259.236 279.71 258.105 281.064 257.412C282.418 256.719 283.967 256.503 285.459 256.8C285.549 256.812 285.637 256.839 285.719 256.88L292.999 260C294.21 260.524 295.199 261.456 295.795 262.634C296.391 263.811 296.556 265.16 296.261 266.446C295.967 267.733 295.231 268.875 294.182 269.676C293.133 270.477 291.837 270.885 290.519 270.83L285.519 270.63C285.352 270.622 285.188 270.582 285.037 270.511C284.886 270.44 284.75 270.34 284.638 270.216C284.525 270.093 284.438 269.948 284.382 269.791C284.326 269.634 284.301 269.467 284.309 269.3C284.312 269.132 284.35 268.967 284.419 268.814C284.488 268.661 284.587 268.524 284.71 268.41C284.833 268.296 284.978 268.208 285.136 268.152C285.294 268.095 285.461 268.071 285.629 268.08L290.569 268.29C291.322 268.368 292.078 268.168 292.693 267.727C293.309 267.286 293.742 266.635 293.91 265.897C294.079 265.158 293.971 264.384 293.608 263.72C293.245 263.055 292.651 262.547 291.939 262.29L284.849 259.22C283.934 259.072 282.996 259.227 282.178 259.662C281.36 260.097 280.707 260.789 280.319 261.63C278.412 265.746 277.845 270.356 278.699 274.81L281.699 297.89C281.714 298.01 281.714 298.131 281.699 298.25L280.409 306.61C280.372 306.92 280.224 307.205 279.992 307.413C279.76 307.621 279.46 307.737 279.149 307.74Z" fill="#3A4A67"/>
<path d="M303.799 312.44C303.689 312.45 303.579 312.45 303.469 312.44C303.307 312.397 303.155 312.323 303.022 312.221C302.89 312.119 302.778 311.992 302.694 311.847C302.611 311.702 302.557 311.542 302.535 311.376C302.514 311.21 302.525 311.042 302.569 310.88C303.418 307.673 304.958 304.691 307.079 302.14L321.839 284.4C323.091 282.879 323.701 280.93 323.541 278.966C323.38 277.002 322.461 275.178 320.979 273.88L307.589 262.3L294.839 264.62C294.667 264.667 294.488 264.677 294.313 264.651C294.137 264.624 293.969 264.562 293.819 264.467C293.668 264.372 293.54 264.247 293.441 264.099C293.341 263.952 293.274 263.786 293.243 263.611C293.211 263.436 293.217 263.257 293.259 263.084C293.3 262.911 293.378 262.749 293.485 262.608C293.593 262.467 293.729 262.35 293.885 262.264C294.04 262.178 294.212 262.126 294.389 262.11L307.729 259.69C307.916 259.653 308.109 259.66 308.293 259.71C308.477 259.76 308.647 259.853 308.789 259.98L322.649 271.98C324.619 273.713 325.84 276.143 326.054 278.758C326.269 281.373 325.46 283.969 323.799 286L308.999 303.73C307.121 305.998 305.757 308.645 304.999 311.49C304.929 311.757 304.775 311.995 304.558 312.166C304.341 312.338 304.075 312.434 303.799 312.44Z" fill="#3A4A67"/>
<path d="M294.609 262.17C294.441 262.171 294.274 262.137 294.119 262.07C293.965 262.007 293.824 261.913 293.706 261.795C293.589 261.677 293.495 261.537 293.432 261.382C293.369 261.228 293.337 261.062 293.338 260.896C293.339 260.729 293.373 260.564 293.439 260.41L304.309 234.41C304.859 233.079 305.907 232.014 307.229 231.444C308.552 230.873 310.045 230.841 311.391 231.354C312.737 231.868 313.829 232.886 314.436 234.192C315.043 235.499 315.115 236.991 314.639 238.35L306.499 260.52C306.382 260.838 306.143 261.097 305.836 261.239C305.529 261.382 305.177 261.396 304.859 261.28C304.702 261.222 304.557 261.134 304.434 261.02C304.311 260.906 304.212 260.769 304.142 260.616C304.073 260.464 304.034 260.299 304.028 260.132C304.022 259.964 304.05 259.797 304.109 259.64L312.249 237.47C312.435 236.754 312.35 235.994 312.01 235.337C311.67 234.679 311.099 234.171 310.407 233.909C309.714 233.647 308.95 233.651 308.26 233.919C307.57 234.186 307.003 234.7 306.669 235.36L295.789 261.36C295.695 261.597 295.533 261.801 295.323 261.946C295.113 262.09 294.864 262.168 294.609 262.17Z" fill="#3A4A67"/>
<path d="M303.93 285.16C303.736 285.16 303.544 285.116 303.37 285.03L297 281.87C295.749 281.243 294.777 280.172 294.274 278.866C293.771 277.561 293.773 276.114 294.28 274.81L294.91 273.2C295.585 271.475 296.642 269.926 298.001 268.668C299.361 267.411 300.988 266.478 302.76 265.94L311.7 263.2C311.86 263.151 312.027 263.134 312.194 263.149C312.36 263.165 312.521 263.213 312.669 263.291C312.817 263.369 312.948 263.475 313.054 263.604C313.161 263.732 313.241 263.881 313.29 264.04C313.339 264.2 313.357 264.367 313.341 264.534C313.326 264.7 313.277 264.861 313.199 265.009C313.121 265.157 313.015 265.288 312.887 265.394C312.758 265.501 312.61 265.581 312.45 265.63L303.51 268.38C302.103 268.805 300.811 269.545 299.732 270.543C298.653 271.541 297.814 272.771 297.28 274.14L296.65 275.75C296.364 276.457 296.357 277.246 296.632 277.958C296.907 278.669 297.443 279.249 298.13 279.58L304.55 282.74C304.805 282.87 305.009 283.082 305.13 283.342C305.25 283.602 305.28 283.895 305.214 284.174C305.148 284.452 304.991 284.701 304.767 284.88C304.544 285.059 304.267 285.157 303.98 285.16H303.93Z" fill="#3A4A67"/>
<path d="M306.479 286C305.547 285.999 304.631 285.757 303.82 285.297C303.01 284.838 302.332 284.176 301.853 283.377C301.373 282.577 301.109 281.668 301.086 280.736C301.062 279.804 301.28 278.883 301.719 278.06L302.799 276.06C303.837 274.111 305.595 272.643 307.699 271.97L317.849 268.74C318.008 268.69 318.176 268.671 318.343 268.685C318.51 268.7 318.672 268.747 318.821 268.824C318.969 268.901 319.101 269.006 319.209 269.135C319.317 269.263 319.398 269.411 319.449 269.57C319.499 269.73 319.518 269.898 319.504 270.064C319.489 270.231 319.442 270.394 319.365 270.542C319.288 270.691 319.182 270.823 319.054 270.93C318.926 271.038 318.778 271.12 318.619 271.17L308.479 274.4C307.007 274.866 305.776 275.889 305.049 277.25L303.969 279.25C303.635 279.857 303.535 280.566 303.688 281.241C303.84 281.917 304.234 282.514 304.795 282.92C305.357 283.325 306.048 283.511 306.737 283.443C307.426 283.375 308.067 283.058 308.539 282.55L310.129 280.88C310.783 280.195 311.592 279.677 312.489 279.371C313.385 279.065 314.342 278.979 315.279 279.12L317.859 279.52C318.169 279.597 318.44 279.787 318.617 280.053C318.795 280.32 318.866 280.643 318.817 280.959C318.768 281.275 318.602 281.561 318.353 281.761C318.103 281.962 317.788 282.061 317.469 282.04L314.899 281.64C314.367 281.558 313.824 281.606 313.315 281.78C312.807 281.954 312.348 282.25 311.979 282.64L310.389 284.31C309.886 284.843 309.28 285.267 308.608 285.558C307.935 285.848 307.211 285.999 306.479 286Z" fill="#3A4A67"/>
<path d="M297.519 282C297.382 282.002 297.246 281.978 297.119 281.93L292.699 280.48C290.812 279.87 289.225 278.57 288.255 276.84C287.285 275.11 287.004 273.078 287.469 271.15L287.919 269.21C287.957 269.047 288.026 268.893 288.124 268.758C288.221 268.622 288.345 268.506 288.487 268.418C288.629 268.33 288.787 268.271 288.952 268.243C289.117 268.216 289.286 268.222 289.449 268.26C289.611 268.298 289.765 268.368 289.901 268.465C290.037 268.563 290.152 268.686 290.24 268.828C290.329 268.97 290.388 269.128 290.415 269.293C290.442 269.458 290.437 269.627 290.399 269.79L289.949 271.73C289.631 273.037 289.819 274.416 290.476 275.59C291.132 276.764 292.209 277.646 293.489 278.06L297.919 279.51C298.203 279.608 298.445 279.804 298.599 280.062C298.754 280.321 298.813 280.626 298.765 280.923C298.717 281.221 298.566 281.492 298.338 281.689C298.11 281.886 297.82 281.996 297.519 282Z" fill="#3A4A67"/>
<path d="M261.609 404.66H261.409C261.244 404.635 261.086 404.577 260.944 404.49C260.801 404.403 260.677 404.289 260.579 404.155C260.48 404.02 260.409 403.867 260.37 403.705C260.331 403.543 260.323 403.375 260.349 403.21L274.859 309C274.933 308.488 275.112 307.997 275.383 307.556C275.655 307.116 276.014 306.736 276.439 306.44C276.863 306.141 277.342 305.931 277.849 305.821C278.356 305.711 278.88 305.704 279.389 305.8L304.109 310.58C305.444 310.835 306.643 311.558 307.49 312.62C308.338 313.682 308.777 315.012 308.729 316.37L305.889 403.44C305.888 403.609 305.853 403.776 305.785 403.931C305.717 404.085 305.618 404.225 305.494 404.34C305.371 404.455 305.225 404.544 305.066 404.601C304.907 404.657 304.738 404.681 304.569 404.67C304.402 404.665 304.238 404.627 304.086 404.558C303.934 404.49 303.797 404.392 303.683 404.27C303.568 404.148 303.479 404.005 303.42 403.849C303.361 403.693 303.334 403.527 303.339 403.36L306.179 316.29C306.209 315.54 305.968 314.803 305.499 314.216C305.031 313.628 304.367 313.229 303.629 313.09L278.899 308.3C278.727 308.263 278.549 308.262 278.377 308.298C278.204 308.334 278.042 308.407 277.899 308.51C277.756 308.61 277.634 308.737 277.542 308.885C277.449 309.033 277.387 309.198 277.359 309.37L262.849 403.58C262.804 403.878 262.655 404.15 262.427 404.348C262.2 404.546 261.91 404.656 261.609 404.66Z" fill="#3A4A67"/>
<path d="M176.119 317.12C175.983 317.121 175.847 317.098 175.719 317.05C168.469 314.679 161.553 311.389 155.139 307.26C149.109 303.325 143.561 298.697 138.609 293.47L138.529 293.38C138.298 293.135 138.17 292.812 138.17 292.475C138.17 292.139 138.298 291.815 138.529 291.57C138.761 291.339 139.076 291.209 139.404 291.209C139.732 291.209 140.047 291.339 140.279 291.57L140.379 291.69C145.203 296.783 150.606 301.294 156.479 305.13C162.6 309.063 169.188 312.217 176.089 314.52C183.482 312.213 190.489 308.816 196.879 304.44C202.392 300.606 207.428 296.128 211.879 291.1L211.999 291C212.1 290.869 212.225 290.76 212.369 290.678C212.513 290.597 212.671 290.545 212.835 290.525C212.999 290.506 213.165 290.519 213.324 290.564C213.482 290.61 213.63 290.687 213.759 290.79C214.024 291.004 214.195 291.313 214.236 291.651C214.277 291.988 214.185 292.329 213.979 292.6C213.918 292.678 213.851 292.752 213.779 292.82C209.212 297.979 204.05 302.578 198.399 306.52C191.688 311.124 184.313 314.675 176.529 317.05C176.397 317.097 176.259 317.121 176.119 317.12Z" fill="#3A4A67"/>
<path d="M143.559 426.88C143.318 426.882 143.081 426.813 142.877 426.684C142.673 426.555 142.511 426.369 142.409 426.15L111.769 360.63C111.666 360.41 111.628 360.165 111.66 359.924C111.692 359.683 111.792 359.456 111.949 359.27L123.579 345.39L104.579 336.94C104.417 336.867 104.272 336.761 104.153 336.628C104.034 336.495 103.944 336.339 103.889 336.17C103.834 336.006 103.814 335.833 103.829 335.661C103.845 335.489 103.896 335.322 103.979 335.17L127.119 294C127.285 293.706 127.561 293.489 127.886 293.398C128.211 293.307 128.56 293.349 128.854 293.515C129.148 293.681 129.365 293.957 129.456 294.282C129.547 294.608 129.505 294.956 129.339 295.25L106.849 335.25L126.159 343.82C126.341 343.897 126.502 344.016 126.629 344.167C126.755 344.319 126.845 344.498 126.889 344.69C126.933 344.883 126.932 345.084 126.885 345.277C126.838 345.47 126.747 345.649 126.619 345.8L114.419 360.36L144.709 425.14C144.78 425.291 144.821 425.455 144.828 425.621C144.836 425.788 144.811 425.955 144.754 426.112C144.698 426.269 144.611 426.413 144.498 426.536C144.386 426.659 144.25 426.759 144.099 426.83C143.925 426.885 143.741 426.902 143.559 426.88Z" fill="#3A4A67"/>
<path d="M209.48 426.88C209.293 426.88 209.109 426.839 208.94 426.76C208.789 426.689 208.653 426.589 208.541 426.466C208.428 426.343 208.341 426.198 208.284 426.042C208.228 425.885 208.203 425.718 208.21 425.551C208.218 425.385 208.259 425.221 208.33 425.07L238.62 360.29L226.42 345.73C226.292 345.579 226.201 345.4 226.154 345.207C226.107 345.014 226.106 344.813 226.15 344.62C226.194 344.428 226.283 344.249 226.41 344.097C226.537 343.946 226.698 343.827 226.88 343.75L246.19 335.18L223.7 295.18C223.618 295.034 223.565 294.874 223.545 294.708C223.525 294.542 223.538 294.373 223.583 294.212C223.628 294.051 223.704 293.9 223.807 293.769C223.911 293.637 224.039 293.527 224.185 293.445C224.33 293.363 224.491 293.31 224.657 293.29C224.823 293.27 224.991 293.283 225.153 293.328C225.314 293.373 225.464 293.45 225.596 293.553C225.728 293.656 225.838 293.784 225.92 293.93L249.1 335.13C249.182 335.282 249.233 335.448 249.25 335.62C249.267 335.792 249.25 335.965 249.2 336.13C249.141 336.299 249.048 336.454 248.928 336.586C248.808 336.719 248.662 336.825 248.5 336.9L229.5 345.35L241.13 359.23C241.287 359.416 241.387 359.643 241.419 359.884C241.451 360.125 241.413 360.37 241.31 360.59L210.67 426.11C210.571 426.343 210.405 426.541 210.193 426.678C209.981 426.816 209.732 426.886 209.48 426.88Z" fill="#3A4A67"/>
<path d="M412.38 385.89H361.27V407.84H412.38V385.89Z" fill="#F9F9F9"/>
<path d="M412.38 409H361.27C360.976 409 360.693 408.883 360.485 408.675C360.277 408.467 360.16 408.184 360.16 407.89V385.89C360.16 385.596 360.277 385.313 360.485 385.105C360.693 384.897 360.976 384.78 361.27 384.78H412.38C412.675 384.78 412.959 384.897 413.169 385.105C413.378 385.312 413.498 385.595 413.5 385.89V407.84C413.506 407.99 413.481 408.14 413.427 408.281C413.373 408.421 413.291 408.55 413.187 408.658C413.082 408.766 412.957 408.852 412.818 408.911C412.68 408.97 412.531 409 412.38 409ZM362.38 406.77H411.26V387H362.39L362.38 406.77Z" fill="#3A4A67"/>
<path d="M604.499 413.16H342.809C342.515 413.16 342.232 413.043 342.024 412.835C341.816 412.627 341.699 412.345 341.699 412.05V118.34C341.699 118.045 341.816 117.762 342.024 117.552C342.232 117.342 342.514 117.223 342.809 117.22H604.499C604.795 117.223 605.077 117.342 605.285 117.552C605.493 117.762 605.609 118.045 605.609 118.34V412.05C605.609 412.345 605.492 412.627 605.284 412.835C605.076 413.043 604.794 413.16 604.499 413.16ZM343.929 410.93H603.379V119.45H343.929V410.93Z" fill="#3A4A67"/>
<path d="M412.38 139.1H361.27V161.05H412.38V139.1Z" fill="#F9F9F9"/>
<path d="M412.38 162.16H361.27C360.975 162.157 360.693 162.038 360.485 161.828C360.277 161.619 360.16 161.335 360.16 161.04V139.1C360.16 138.805 360.277 138.521 360.485 138.312C360.693 138.102 360.975 137.983 361.27 137.98H412.38C412.677 137.98 412.962 138.098 413.172 138.308C413.382 138.518 413.5 138.803 413.5 139.1V161C413.506 161.15 413.481 161.3 413.427 161.441C413.373 161.581 413.291 161.71 413.187 161.818C413.082 161.926 412.957 162.012 412.818 162.071C412.68 162.13 412.531 162.16 412.38 162.16ZM362.38 159.93H411.26V140.21H362.39L362.38 159.93Z" fill="#3A4A67"/>
<path d="M380.069 187.05H360.309V210.22H380.069V187.05Z" fill="#F9F9F9"/>
<path d="M380.069 211.33H360.309C360.163 211.332 360.017 211.304 359.882 211.249C359.746 211.193 359.622 211.112 359.518 211.009C359.414 210.905 359.331 210.783 359.275 210.647C359.218 210.512 359.189 210.367 359.189 210.22V187.05C359.192 186.755 359.311 186.473 359.521 186.265C359.731 186.057 360.014 185.94 360.309 185.94H380.069C380.215 185.94 380.36 185.969 380.494 186.025C380.629 186.08 380.751 186.162 380.854 186.265C380.957 186.368 381.039 186.491 381.095 186.625C381.151 186.76 381.179 186.904 381.179 187.05V210.22C381.179 210.515 381.063 210.797 380.854 211.005C380.646 211.213 380.364 211.33 380.069 211.33ZM361.419 209.11H378.999V188.17H361.419V209.11Z" fill="#3A4A67"/>
<path d="M412.38 237.1H361.27V259.05H412.38V237.1Z" fill="#F9F9F9"/>
<path d="M412.38 260.16H361.27C360.975 260.157 360.693 260.038 360.485 259.828C360.277 259.619 360.16 259.335 360.16 259.04V237.1C360.16 236.805 360.277 236.521 360.485 236.312C360.693 236.102 360.975 235.983 361.27 235.98H412.38C412.677 235.98 412.962 236.098 413.172 236.308C413.382 236.518 413.5 236.803 413.5 237.1V259C413.506 259.15 413.481 259.3 413.427 259.441C413.373 259.581 413.291 259.71 413.187 259.818C413.082 259.926 412.957 260.012 412.818 260.071C412.68 260.13 412.531 260.16 412.38 260.16ZM362.38 257.93H411.26V238.21H362.39L362.38 257.93Z" fill="#3A4A67"/>
<path d="M412.38 338.87H361.27V360.82H412.38V338.87Z" fill="#5ABEAE"/>
<path d="M412.38 361.93H361.27C361.124 361.93 360.98 361.901 360.845 361.846C360.711 361.79 360.588 361.708 360.485 361.605C360.382 361.502 360.3 361.379 360.245 361.245C360.189 361.11 360.16 360.966 360.16 360.82V338.87C360.16 338.576 360.277 338.293 360.485 338.085C360.693 337.877 360.976 337.76 361.27 337.76H412.38C412.675 337.76 412.959 337.877 413.169 338.085C413.378 338.292 413.498 338.575 413.5 338.87V360.82C413.498 361.115 413.378 361.398 413.169 361.605C412.959 361.813 412.675 361.93 412.38 361.93ZM362.38 359.7H411.26V340H362.39L362.38 359.7Z" fill="#3A4A67"/>
<path d="M380.069 278.48H360.309V312.1H380.069V278.48Z" fill="#F9F9F9"/>
<path d="M380.069 313.21H360.309C360.014 313.21 359.731 313.094 359.521 312.886C359.311 312.678 359.192 312.395 359.189 312.1V278.48C359.189 278.334 359.218 278.188 359.275 278.053C359.331 277.918 359.414 277.795 359.518 277.692C359.622 277.589 359.746 277.507 359.882 277.452C360.017 277.397 360.163 277.369 360.309 277.37H380.069C380.364 277.37 380.646 277.487 380.854 277.695C381.063 277.903 381.179 278.186 381.179 278.48V312.1C381.179 312.395 381.063 312.677 380.854 312.885C380.646 313.093 380.364 313.21 380.069 313.21ZM361.419 311H378.999V279.59H361.419V311Z" fill="#3A4A67"/>
<path d="M349.119 167.46V210.29H642.829V216.59H349.119V259.41H642.829V265.71H349.119V308.54H642.829V314.85H349.119V357.67H642.829V363.97H349.119V412.04H342.809V118.34H334.299V107.21H622.549V118.34H349.119V161.16H642.829V167.46H349.119Z" fill="#F9F9F9"/>
<path d="M349.109 413.16H342.809C342.66 413.159 342.512 413.128 342.375 413.068C342.237 413.009 342.113 412.923 342.01 412.814C341.906 412.706 341.825 412.579 341.772 412.439C341.719 412.299 341.694 412.15 341.7 412V119.45H334.299C334.005 119.45 333.723 119.333 333.515 119.125C333.306 118.917 333.189 118.634 333.189 118.34V107.21C333.188 107.063 333.216 106.918 333.271 106.782C333.326 106.646 333.408 106.523 333.511 106.419C333.614 106.315 333.737 106.232 333.872 106.176C334.008 106.119 334.153 106.09 334.299 106.09H622.549C622.846 106.09 623.131 106.208 623.341 106.418C623.552 106.628 623.669 106.913 623.669 107.21V118.34C623.667 118.635 623.548 118.918 623.338 119.126C623.128 119.333 622.845 119.45 622.549 119.45H350.23V160.05H642.829C643.124 160.05 643.406 160.167 643.614 160.375C643.823 160.583 643.939 160.866 643.939 161.16V167.46C643.939 167.755 643.823 168.039 643.615 168.249C643.407 168.458 643.125 168.577 642.829 168.58H350.23V209.17H642.829C643.125 209.173 643.407 209.292 643.615 209.502C643.823 209.711 643.939 209.995 643.939 210.29V216.59C643.939 216.884 643.823 217.167 643.614 217.375C643.406 217.583 643.124 217.7 642.829 217.7H350.23V258.3H642.829C643.124 258.3 643.406 258.417 643.614 258.625C643.823 258.833 643.939 259.116 643.939 259.41V265.71C643.939 266.005 643.823 266.289 643.615 266.499C643.407 266.708 643.125 266.827 642.829 266.83H350.23V307.42H642.829C643.125 307.423 643.407 307.542 643.615 307.752C643.823 307.961 643.939 308.245 643.939 308.54V314.85C643.939 315.144 643.823 315.427 643.614 315.635C643.406 315.843 643.124 315.96 642.829 315.96H350.23V356.55H642.829C643.124 356.55 643.406 356.667 643.614 356.875C643.823 357.083 643.939 357.366 643.939 357.66V364C643.939 364.295 643.823 364.579 643.615 364.789C643.407 364.998 643.125 365.117 642.829 365.12H350.23V412.12C350.209 412.403 350.082 412.668 349.874 412.861C349.667 413.054 349.393 413.161 349.109 413.16ZM343.929 410.93H347.999V364C347.999 363.706 348.116 363.423 348.325 363.215C348.533 363.007 348.815 362.89 349.109 362.89H641.719V358.81H349.109C348.814 358.807 348.532 358.688 348.324 358.479C348.116 358.269 347.999 357.985 347.999 357.69V314.85C347.999 314.555 348.116 314.271 348.324 314.062C348.532 313.852 348.814 313.733 349.109 313.73H641.719V309.65H349.109C348.815 309.65 348.533 309.533 348.325 309.325C348.116 309.117 347.999 308.834 347.999 308.54V265.71C347.999 265.416 348.116 265.133 348.325 264.925C348.533 264.717 348.815 264.6 349.109 264.6H641.719V260.53H349.109C348.814 260.527 348.532 260.408 348.324 260.199C348.116 259.989 347.999 259.705 347.999 259.41V216.59C347.999 216.295 348.116 216.011 348.324 215.802C348.532 215.592 348.814 215.473 349.109 215.47H641.719V211.4H349.109C348.815 211.4 348.533 211.283 348.325 211.075C348.116 210.867 347.999 210.584 347.999 210.29V167.46C347.999 167.166 348.116 166.883 348.325 166.675C348.533 166.467 348.815 166.35 349.109 166.35H641.719V162.28H349.109C348.814 162.277 348.532 162.158 348.324 161.949C348.116 161.739 347.999 161.455 347.999 161.16V118.34C347.999 118.045 348.116 117.761 348.324 117.552C348.532 117.342 348.814 117.223 349.109 117.22H621.439V108.32H335.439V117.22H342.839C343.137 117.22 343.421 117.338 343.631 117.548C343.841 117.758 343.959 118.043 343.959 118.34L343.929 410.93Z" fill="#3A4A67"/>
<path d="M251.641 215.65L259.271 198.11" stroke="#3A4A67" stroke-width="3" stroke-linecap="round" stroke-linejoin="round"/>
<path d="M261.48 226.53L278.12 217.1" stroke="#3A4A67" stroke-width="3" stroke-linecap="round" stroke-linejoin="round"/>
<path d="M264.02 240.64L283.09 242.18" stroke="#3A4A67" stroke-width="3" stroke-linecap="round" stroke-linejoin="round"/>
</g>
<defs>
<clipPath id="clip0_1353_4130">
<rect width="375" height="400" fill="white"/>
</clipPath>
</defs>
</svg>
