<svg width="494" height="340" viewBox="0 0 494 340" fill="none" xmlns="http://www.w3.org/2000/svg">
<g clip-path="url(#clip0_1385_4062)">
<path d="M253.63 125.09C254.906 125.09 255.94 124.056 255.94 122.78C255.94 121.504 254.906 120.47 253.63 120.47C252.355 120.47 251.32 121.504 251.32 122.78C251.32 124.056 252.355 125.09 253.63 125.09Z" fill="white"/>
<path d="M380.271 125.09C381.547 125.09 382.581 124.056 382.581 122.78C382.581 121.504 381.547 120.47 380.271 120.47C378.995 120.47 377.961 121.504 377.961 122.78C377.961 124.056 378.995 125.09 380.271 125.09Z" fill="white"/>
<path d="M370.69 212.65C370.19 221.75 368.33 255.02 366.69 271.13C365.06 287.4 359.06 330.92 357.48 342.26L282.3 341.45C280.19 329.4 272.86 287.19 270.68 271.23C268.46 254.99 265.34 221.23 264.57 212.62L268.22 212.3C270.16 212.133 272.061 211.657 273.85 210.89V210.89C279.607 216.947 286.047 222.316 293.04 226.89C300.507 231.694 308.559 235.518 317 238.27C326.017 235.511 334.561 231.398 342.34 226.07C348.922 221.467 354.931 216.096 360.24 210.07C362.639 211.35 365.272 212.133 367.98 212.37L370.69 212.65Z" fill="#DAF1ED"/>
<path d="M378.93 99.1199C378.93 146.43 351.19 184.79 316.93 184.79C282.67 184.79 254.93 146.43 254.93 99.1199C254.93 76.9099 253.77 55.92 263.8 40.7C275.13 23.5 298.73 13.45 316.89 13.45C335.7 13.45 352.56 25.0499 363.89 43.3599C373.31 58.3399 378.93 77.8199 378.93 99.1199Z" stroke="#3A4A67" stroke-width="3" stroke-linecap="round" stroke-linejoin="round"/>
<path d="M253.88 89C253.88 89 244.09 89.41 244.09 100.68C244.09 111.95 249.37 118.52 255.01 118.52" stroke="#3A4A67" stroke-width="3" stroke-linecap="round" stroke-linejoin="round"/>
<path d="M380.06 89C380.06 89 389.84 89.41 389.84 100.68C389.84 111.95 384.56 118.52 378.93 118.52" stroke="#3A4A67" stroke-width="3" stroke-linecap="round" stroke-linejoin="round"/>
<path d="M384.38 88.9999C384.38 88.9999 377.99 111.94 377.05 103.76C376.42 98.2599 374.78 93.0199 366.81 88.2999C338.14 71.2999 345.76 38.2999 345.76 38.2999L339.28 78.5099C339.073 79.7705 338.432 80.9191 337.467 81.7572C336.503 82.5953 335.277 83.0702 334 83.0999C320 83.5599 277.67 84.9899 265.16 86.0499C258.84 86.5899 257.78 61.3099 257.78 61.3099L257 86.7L248.44 88.9999C248.44 88.9999 233.6 0.449951 319.84 0.449951C332.06 0.449951 339.98 5.23995 348.05 9.44995C385.71 17 384.38 88.9999 384.38 88.9999Z" fill="#3A4A67"/>
<path d="M180.42 338.72L190.52 266.49C192.423 252.865 198.889 240.287 208.862 230.81C218.835 221.333 231.725 215.517 245.43 214.31L255.71 213.4L264.6 212.62L268.25 212.3C270.19 212.133 272.09 211.657 273.88 210.89V210.89C275.677 210.132 277.341 209.092 278.81 207.81C282.058 205.028 284.245 201.209 285 197L288.88 175.44" stroke="#3A4A67" stroke-width="3" stroke-linecap="round" stroke-linejoin="round"/>
<path d="M432.761 238.27C427.638 231.465 421.143 225.812 413.695 221.677C406.248 217.543 398.015 215.019 389.531 214.27L376.711 213.14L370.711 212.61L367.971 212.37C365.262 212.133 362.629 211.35 360.231 210.07C359.036 209.439 357.91 208.685 356.871 207.82C353.157 204.773 350.653 200.5 349.811 195.77L346.141 175.43" stroke="#3A4A67" stroke-width="3" stroke-linecap="round" stroke-linejoin="round"/>
<path d="M357.131 345C357.131 345 357.271 344 357.511 342.27C359.091 330.93 365.091 287.41 366.721 271.14C368.331 255.03 370.191 221.76 370.721 212.66C370.801 211.16 370.841 210.32 370.841 210.32" stroke="#3A4A67" stroke-width="3" stroke-linecap="round" stroke-linejoin="round"/>
<path d="M282.9 344.7C282.9 344.7 282.69 343.52 282.33 341.45C280.22 329.4 272.89 287.19 270.71 271.23C268.49 254.99 265.37 221.23 264.6 212.62C264.47 211.32 264.41 210.62 264.41 210.62" stroke="#3A4A67" stroke-width="3" stroke-linecap="round" stroke-linejoin="round"/>
<path d="M233.291 216.64C233.291 216.64 247.751 170 249.871 116.52L256.871 120.12L267.471 150.68L280.771 168.68L287.851 174.36L283.781 200.5L277.531 210.75L256.251 212.33L233.291 216.64Z" fill="#3A4A67"/>
<path d="M400.52 215.87C391.18 183.629 385.672 150.4 384.11 116.87L377.11 119.56L368.11 147.39L352.33 169.44L346.07 175.49L350.47 196.49C350.47 196.49 353.22 210.34 364.78 212.16C369.41 212.85 400.52 215.87 400.52 215.87Z" fill="#3A4A67"/>
<path d="M319.84 0.410156C332.06 0.410156 341.84 4.59016 348.05 9.41016C385.71 17.0002 384.38 89.0002 384.38 89.0002" fill="#3A4A67"/>
<path d="M289.431 112.63C292.584 112.63 295.141 110.074 295.141 106.92C295.141 103.766 292.584 101.21 289.431 101.21C286.277 101.21 283.721 103.766 283.721 106.92C283.721 110.074 286.277 112.63 289.431 112.63Z" fill="#3A4A67"/>
<path d="M345.86 112.63C349.014 112.63 351.57 110.074 351.57 106.92C351.57 103.766 349.014 101.21 345.86 101.21C342.707 101.21 340.15 103.766 340.15 106.92C340.15 110.074 342.707 112.63 345.86 112.63Z" fill="#3A4A67"/>
<path d="M278.871 93.0802C281.703 91.6223 284.841 90.8618 288.026 90.8618C291.211 90.8618 294.35 91.6223 297.181 93.0802" stroke="#3A4A67" stroke-width="3" stroke-linecap="round" stroke-linejoin="round"/>
<path d="M336.711 93.0802C339.542 91.6223 342.681 90.8618 345.866 90.8618C349.051 90.8618 352.189 91.6223 355.021 93.0802" stroke="#3A4A67" stroke-width="3" stroke-linecap="round" stroke-linejoin="round"/>
<path d="M316.951 123.12L314.461 133.44L318.531 137.82" stroke="#3A4A67" stroke-width="3" stroke-linecap="round" stroke-linejoin="round"/>
<path d="M326 149.09H310.6C310.6 149.09 311.96 157.09 318.53 157.09C325.1 157.09 326 149.09 326 149.09Z" stroke="#3A4A67" stroke-width="3" stroke-linecap="round" stroke-linejoin="round"/>
<path d="M270.131 212.09L316.501 283.56L362.771 211.66" stroke="#3A4A67" stroke-width="3" stroke-linecap="round" stroke-linejoin="round"/>
<path d="M330.099 283.56H303.779V323.24H330.099V283.56Z" fill="#5ABEAE" stroke="#3A4A67" stroke-width="3" stroke-linecap="round" stroke-linejoin="round"/>
<path d="M438.291 227.22L439.801 217.39L436.301 190.29C435.233 184.742 435.933 178.999 438.301 173.87V173.87C438.91 172.549 439.944 171.471 441.239 170.807C442.533 170.143 444.013 169.933 445.441 170.21L453.941 173.89C455.164 174.418 456.134 175.4 456.647 176.63C457.16 177.859 457.176 179.239 456.691 180.48V180.48C456.305 181.482 455.616 182.338 454.719 182.928C453.823 183.518 452.764 183.812 451.691 183.77L445.861 183.53" stroke="#3A4A67" stroke-width="3" stroke-linecap="round" stroke-linejoin="round"/>
<path d="M456.5 176.43L472.22 173.57L488.54 187.68C490.594 189.456 491.868 191.968 492.089 194.674C492.309 197.38 491.459 200.065 489.72 202.15L472.34 223C469.987 225.838 468.28 229.155 467.34 232.72" stroke="#3A4A67" stroke-width="3" stroke-linecap="round" stroke-linejoin="round"/>
<path d="M456.5 173.57L469.3 143C469.773 141.774 470.71 140.783 471.907 140.242C473.105 139.702 474.467 139.654 475.7 140.11V140.11C476.321 140.333 476.891 140.677 477.378 141.122C477.865 141.566 478.259 142.103 478.538 142.701C478.817 143.298 478.975 143.945 479.003 144.604C479.03 145.263 478.928 145.921 478.7 146.54L469.11 172.65" stroke="#3A4A67" stroke-width="3" stroke-linecap="round" stroke-linejoin="round"/>
<path d="M477 177.71L466.47 180.94C464.6 181.513 462.884 182.5 461.448 183.828C460.013 185.156 458.896 186.79 458.18 188.61L457.43 190.5C456.962 191.685 456.958 193.002 457.418 194.189C457.877 195.377 458.767 196.348 459.91 196.91L467.47 200.64" stroke="#3A4A67" stroke-width="3" stroke-linecap="round" stroke-linejoin="round"/>
<path d="M484.319 184.24L472.369 188.05C470.266 188.723 468.508 190.191 467.469 192.14L466.189 194.53C465.654 195.538 465.49 196.702 465.726 197.819C465.962 198.936 466.582 199.934 467.479 200.64V200.64C468.432 201.383 469.627 201.745 470.832 201.657C472.037 201.568 473.166 201.035 473.999 200.16L475.859 198.16C476.464 197.528 477.213 197.05 478.041 196.768C478.87 196.486 479.754 196.408 480.619 196.54L483.619 197.01" stroke="#3A4A67" stroke-width="3" stroke-linecap="round" stroke-linejoin="round"/>
<path d="M450.08 183.7L449.55 185.98C449.099 187.885 449.38 189.89 450.338 191.598C451.295 193.305 452.859 194.591 454.72 195.2L459.92 196.91" stroke="#3A4A67" stroke-width="3" stroke-linecap="round" stroke-linejoin="round"/>
<path d="M417.631 341.36L434.721 230.42C434.779 230.015 434.92 229.627 435.134 229.279C435.347 228.931 435.63 228.63 435.965 228.395C436.299 228.16 436.678 227.996 437.078 227.912C437.478 227.829 437.891 227.828 438.291 227.91L467.401 233.54C468.62 233.775 469.715 234.436 470.49 235.406C471.266 236.375 471.67 237.589 471.631 238.83L468.281 341.36" stroke="#3A4A67" stroke-width="3" stroke-linecap="round" stroke-linejoin="round"/>
<path d="M360.309 210L360.209 210.11C354.9 216.136 348.891 221.507 342.309 226.11C334.537 231.421 326.003 235.521 316.999 238.27C308.583 235.516 300.554 231.695 293.109 226.9C286.116 222.326 279.676 216.957 273.919 210.9L273.779 210.75" stroke="#3A4A67" stroke-width="3" stroke-linecap="round" stroke-linejoin="round"/>
<path d="M260.581 213.23L233.291 261.74L257.541 272.5L242.551 290.38L278.631 367.52" stroke="#3A4A67" stroke-width="3" stroke-linecap="round" stroke-linejoin="round"/>
<path d="M374.31 213.23L401.6 261.74L377.35 272.5L392.33 290.38L356.25 367.52" stroke="#3A4A67" stroke-width="3" stroke-linecap="round" stroke-linejoin="round"/>
<path d="M113.06 264.02V363.94H104.58V272.5H-17.0898V264.02H113.06Z" fill="#F9F9F9" stroke="#3A4A67" stroke-width="3" stroke-linecap="round" stroke-linejoin="round"/>
<path d="M14.1605 297.96H-12.4395V343.21H14.1605V297.96Z" fill="#5ABEAE" stroke="#3A4A67" stroke-width="3" stroke-linecap="round" stroke-linejoin="round"/>
<path d="M47.3305 297.96H20.7305V343.21H47.3305V297.96Z" fill="#F9F9F9" stroke="#3A4A67" stroke-width="3" stroke-linecap="round" stroke-linejoin="round"/>
<path d="M80.35 297.96H53.75V343.21H80.35V297.96Z" fill="#F9F9F9" stroke="#3A4A67" stroke-width="3" stroke-linecap="round" stroke-linejoin="round"/>
<path d="M104.58 272.5H-17.0898V363.94H104.58V272.5Z" stroke="#3A4A67" stroke-width="3" stroke-linecap="round" stroke-linejoin="round"/>
<path d="M43.75 213.23H92.96L82.96 263.84H53.75L43.75 213.23Z" fill="#F9F9F9" stroke="#3A4A67" stroke-width="3" stroke-linecap="round" stroke-linejoin="round"/>
<path d="M68.8008 212C69.6017 192.881 76.5057 174.52 88.5008 159.61Z" fill="#F9F9F9"/>
<path d="M68.8008 212C69.6017 192.881 76.5057 174.52 88.5008 159.61" stroke="#3A4A67" stroke-width="3" stroke-linecap="round" stroke-linejoin="round"/>
<path d="M70.5151 193.934C72.239 190.948 75.0785 188.769 78.4088 187.877C81.7391 186.985 85.2875 187.452 88.2734 189.176V189.176C86.5495 192.162 83.7101 194.34 80.3798 195.233C77.0494 196.125 73.501 195.658 70.5151 193.934V193.934Z" fill="#F9F9F9" stroke="#3A4A67" stroke-width="3" stroke-linecap="round" stroke-linejoin="round"/>
<path d="M59.166 179.579C62.606 179.81 65.8132 181.399 68.082 183.995C70.3508 186.591 71.4953 189.982 71.2638 193.422V193.422C67.8238 193.191 64.6166 191.602 62.3478 189.006C60.079 186.41 58.9345 183.019 59.166 179.579V179.579V179.579Z" fill="#F9F9F9" stroke="#3A4A67" stroke-width="3" stroke-linecap="round" stroke-linejoin="round"/>
<path d="M88.502 156.962C86.064 154.524 84.6943 151.218 84.6943 147.77C84.6943 144.322 86.064 141.015 88.502 138.577V138.577C90.9399 141.015 92.3096 144.322 92.3096 147.77C92.3096 151.218 90.9399 154.524 88.502 156.962V156.962Z" fill="#F9F9F9" stroke="#3A4A67" stroke-width="3" stroke-linecap="round" stroke-linejoin="round"/>
<path d="M88.5039 181.782C86.0659 179.344 84.6963 176.037 84.6963 172.589C84.6963 169.142 86.0659 165.835 88.5039 163.397V163.397C90.9419 165.835 92.3115 169.142 92.3115 172.589C92.3115 176.037 90.9419 179.344 88.5039 181.782Z" fill="#F9F9F9" stroke="#3A4A67" stroke-width="3" stroke-linecap="round" stroke-linejoin="round"/>
<path d="M91.7188 160.183C94.1567 157.745 97.4633 156.375 100.911 156.375C104.359 156.375 107.666 157.745 110.104 160.183V160.183C107.666 162.621 104.359 163.99 100.911 163.99C97.4633 163.99 94.1567 162.621 91.7188 160.183V160.183Z" fill="#F9F9F9" stroke="#3A4A67" stroke-width="3" stroke-linecap="round" stroke-linejoin="round"/>
<path d="M66.8984 160.183C69.3364 157.745 72.643 156.375 76.0908 156.375C79.5386 156.375 82.8452 157.745 85.2832 160.183V160.183C82.8452 162.621 79.5386 163.99 76.0908 163.99C72.643 163.99 69.3364 162.621 66.8984 160.183V160.183Z" fill="#F9F9F9" stroke="#3A4A67" stroke-width="3" stroke-linecap="round" stroke-linejoin="round"/>
<path d="M90.7695 157.9C90.7695 154.452 92.1392 151.146 94.5771 148.708C97.0151 146.27 100.322 144.9 103.77 144.9V144.9C103.77 148.348 102.4 151.655 99.9619 154.093C97.5239 156.531 94.2173 157.9 90.7695 157.9V157.9Z" fill="#F9F9F9" stroke="#3A4A67" stroke-width="3" stroke-linecap="round" stroke-linejoin="round"/>
<path d="M73.2207 175.45C73.2207 172.002 74.5903 168.696 77.0283 166.258C79.4663 163.82 82.7729 162.45 86.2207 162.45V162.45C86.2207 165.898 84.8511 169.204 82.4131 171.642C79.9751 174.08 76.6685 175.45 73.2207 175.45V175.45Z" fill="#F9F9F9" stroke="#3A4A67" stroke-width="3" stroke-linecap="round" stroke-linejoin="round"/>
<path d="M86.2109 157.91C82.7631 157.91 79.4565 156.541 77.0186 154.103C74.5806 151.665 73.2109 148.358 73.2109 144.91V144.91C76.6588 144.91 79.9654 146.28 82.4033 148.718C84.8413 151.156 86.2109 154.462 86.2109 157.91V157.91Z" fill="#F9F9F9" stroke="#3A4A67" stroke-width="3" stroke-linecap="round" stroke-linejoin="round"/>
<path d="M103.77 175.46C100.322 175.46 97.0151 174.09 94.5771 171.652C92.1392 169.214 90.7695 165.908 90.7695 162.46C94.2173 162.46 97.5239 163.83 99.9619 166.268C102.4 168.706 103.77 172.012 103.77 175.46Z" fill="#F9F9F9" stroke="#3A4A67" stroke-width="3" stroke-linecap="round" stroke-linejoin="round"/>
<path d="M88.5004 163.16C90.2125 163.16 91.6004 161.772 91.6004 160.06C91.6004 158.348 90.2125 156.96 88.5004 156.96C86.7883 156.96 85.4004 158.348 85.4004 160.06C85.4004 161.772 86.7883 163.16 88.5004 163.16Z" fill="#F9F9F9" stroke="#3A4A67" stroke-width="3" stroke-linecap="round" stroke-linejoin="round"/>
<path d="M45.6992 219.2H91.0092" stroke="#3A4A67" stroke-width="3" stroke-linecap="round" stroke-linejoin="round"/>
<path d="M409.869 124.33L417.489 106.79" stroke="#3A4A67" stroke-width="3" stroke-linecap="round" stroke-linejoin="round"/>
<path d="M419.699 135.21L436.349 125.78" stroke="#3A4A67" stroke-width="3" stroke-linecap="round" stroke-linejoin="round"/>
<path d="M422.24 149.31L441.31 150.86" stroke="#3A4A67" stroke-width="3" stroke-linecap="round" stroke-linejoin="round"/>
</g>
<defs>
<clipPath id="clip0_1385_4062">
<rect width="494" height="340" fill="white"/>
</clipPath>
</defs>
</svg>
