<svg width="375" height="631" viewBox="0 0 375 631" fill="none" xmlns="http://www.w3.org/2000/svg">
<g clip-path="url(#clip0_1485_5410)">
<path d="M37.2584 573.19V647.43H30.9584V579.5H-59.4316V573.19H37.2584Z" fill="#F9F9F9"/>
<path d="M37.2592 648.55H30.9992C30.7039 648.547 30.4216 648.428 30.2137 648.219C30.0058 648.009 29.8892 647.725 29.8892 647.43V580.61H-59.4308C-59.7261 580.61 -60.0095 580.493 -60.2192 580.286C-60.429 580.078 -60.5481 579.795 -60.5508 579.5V573.19C-60.5481 572.895 -60.429 572.612 -60.2192 572.405C-60.0095 572.197 -59.7261 572.08 -59.4308 572.08H37.2592C37.5545 572.08 37.8379 572.197 38.0477 572.405C38.2574 572.612 38.3766 572.895 38.3792 573.19V647.43C38.3792 647.727 38.2612 648.012 38.0512 648.222C37.8411 648.432 37.5563 648.55 37.2592 648.55V648.55ZM32.0792 646.32H36.1492V574.32H-58.3208V578.39H30.9992C31.2963 578.39 31.5811 578.508 31.7912 578.718C32.0012 578.928 32.1192 579.213 32.1192 579.51L32.0792 646.32Z" fill="#3A4A67"/>
<path d="M12.9592 598.41H-6.80078V632.03H12.9592V598.41Z" fill="#F9F9F9"/>
<path d="M12.9985 633.15H-6.80147C-6.95111 633.15 -7.09925 633.12 -7.23712 633.062C-7.375 633.004 -7.49983 632.918 -7.60423 632.811C-7.70863 632.704 -7.7905 632.577 -7.84499 632.438C-7.89947 632.298 -7.92548 632.149 -7.92147 632V598.41C-7.91884 598.115 -7.79967 597.832 -7.58992 597.624C-7.38016 597.416 -7.09679 597.3 -6.80147 597.3H12.9985C13.2929 597.3 13.5752 597.417 13.7834 597.625C13.9916 597.833 14.1085 598.115 14.1085 598.41V632C14.1139 632.149 14.0892 632.298 14.0358 632.437C13.9824 632.576 13.9015 632.703 13.7979 632.811C13.6943 632.918 13.5701 633.003 13.4328 633.062C13.2954 633.12 13.1477 633.15 12.9985 633.15V633.15ZM-5.65147 630.92H11.8485V599.53H-5.69147L-5.65147 630.92Z" fill="#3A4A67"/>
<path d="M30.9992 648.55H-59.4308C-59.7278 648.55 -60.0127 648.432 -60.2227 648.222C-60.4328 648.012 -60.5508 647.727 -60.5508 647.43V579.5C-60.5508 579.203 -60.4328 578.918 -60.2227 578.708C-60.0127 578.498 -59.7278 578.38 -59.4308 578.38H30.9992C31.2963 578.38 31.5811 578.498 31.7912 578.708C32.0012 578.918 32.1192 579.203 32.1192 579.5V647.43C32.1192 647.727 32.0012 648.012 31.7912 648.222C31.5811 648.432 31.2963 648.55 30.9992 648.55V648.55ZM-58.2808 646.32H29.8492V580.61H-58.3208L-58.2808 646.32Z" fill="#3A4A67"/>
<path d="M-14.2305 535.46H22.3295L14.8995 573.06H-6.80047L-14.2305 535.46Z" fill="#F9F9F9"/>
<path d="M14.8997 574.17H-6.80025C-7.05802 574.171 -7.3082 574.083 -7.50859 573.921C-7.70898 573.758 -7.84732 573.532 -7.90025 573.28L-15.3302 535.67C-15.3588 535.508 -15.3522 535.342 -15.3107 535.184C-15.2693 535.025 -15.1941 534.877 -15.0902 534.75C-14.9868 534.621 -14.8558 534.518 -14.7069 534.447C-14.5581 534.376 -14.3952 534.339 -14.2302 534.34H22.3298C22.4947 534.339 22.6576 534.376 22.8064 534.447C22.9553 534.518 23.0863 534.621 23.1898 534.75C23.2936 534.877 23.3688 535.025 23.4102 535.184C23.4517 535.342 23.4583 535.508 23.4298 535.67L15.9998 573.28C15.9468 573.532 15.8085 573.758 15.6081 573.921C15.4077 574.083 15.1575 574.171 14.8997 574.17V574.17ZM-5.89025 572H13.9998L20.9998 536.62H-12.8802L-5.89025 572Z" fill="#3A4A67"/>
<path d="M4.37891 534.58C4.97984 520.377 10.1021 506.737 18.9989 495.65Z" fill="#F9F9F9"/>
<path d="M4.37935 535.69C4.08401 535.677 3.80578 535.547 3.60534 535.33C3.4049 535.113 3.2985 534.825 3.30935 534.53C3.90981 520.107 9.11009 506.255 18.1493 495C18.2398 494.885 18.3523 494.789 18.4801 494.719C18.6079 494.648 18.7485 494.603 18.8937 494.588C19.0389 494.572 19.1858 494.585 19.3259 494.627C19.4659 494.668 19.5963 494.737 19.7093 494.83C19.8243 494.921 19.9201 495.034 19.9909 495.163C20.0618 495.292 20.1065 495.433 20.1223 495.579C20.1381 495.725 20.1248 495.873 20.0831 496.014C20.0414 496.155 19.9721 496.286 19.8793 496.4C11.1364 507.283 6.0951 520.673 5.48935 534.62C5.47898 534.907 5.35748 535.179 5.15043 535.379C4.94337 535.578 4.66694 535.69 4.37935 535.69V535.69Z" fill="#3A4A67"/>
<path d="M5.65067 521.121C6.93034 518.904 9.03808 517.287 11.5102 516.625C13.9823 515.962 16.6164 516.309 18.8328 517.589V517.589C17.5531 519.805 15.4454 521.422 12.9733 522.085C10.5011 522.747 7.86712 522.4 5.65067 521.121V521.121Z" fill="#F9F9F9"/>
<path d="M10.4597 523.53C8.57452 523.528 6.72282 523.032 5.0897 522.09C4.83413 521.94 4.64851 521.694 4.57353 521.408C4.49855 521.121 4.54033 520.816 4.6897 520.56C6.12012 518.089 8.47223 516.287 11.23 515.548C13.9877 514.81 16.9258 515.195 19.3997 516.62C19.5256 516.694 19.6355 516.792 19.723 516.909C19.8106 517.026 19.874 517.159 19.9097 517.3C19.9495 517.44 19.9603 517.587 19.9414 517.731C19.9225 517.876 19.8742 518.015 19.7997 518.14C18.8532 519.779 17.4917 521.141 15.8521 522.087C14.2125 523.033 12.3527 523.531 10.4597 523.53V523.53ZM7.2897 520.68C9.00878 521.368 10.9049 521.479 12.6923 520.995C14.4798 520.512 16.0617 519.461 17.1997 518C15.4822 517.313 13.5885 517.201 11.802 517.681C10.0155 518.16 8.43237 519.205 7.2897 520.66V520.68Z" fill="#3A4A67"/>
<path d="M-2.76953 510.451C-0.215968 510.623 2.16474 511.802 3.84887 513.729C5.533 515.657 6.38259 518.174 6.21074 520.727C3.65718 520.556 1.27647 519.376 -0.407657 517.449C-2.09179 515.522 -2.94138 513.005 -2.76953 510.451V510.451Z" fill="#F9F9F9"/>
<path d="M6.22884 521.86H6.14884C3.30457 521.662 0.65468 520.345 -1.21987 518.197C-3.09443 516.048 -4.04067 513.244 -3.85116 510.4C-3.84269 510.252 -3.80468 510.108 -3.7394 509.976C-3.67412 509.844 -3.58289 509.726 -3.47116 509.63C-3.2474 509.436 -2.95622 509.339 -2.66116 509.36C0.183969 509.56 2.83386 510.879 4.70817 513.029C6.58248 515.179 7.52842 517.984 7.33884 520.83C7.30721 521.103 7.17703 521.355 6.97268 521.539C6.76834 521.723 6.50386 521.827 6.22884 521.83V521.86ZM-1.64116 511.74C-1.50407 513.585 -0.771994 515.336 0.445139 516.73C1.66227 518.124 3.29876 519.085 5.10884 519.47C4.96858 517.625 4.23539 515.876 3.01878 514.483C1.80217 513.089 0.167458 512.127 -1.64116 511.74V511.74Z" fill="#3A4A67"/>
<path d="M19.0098 493.652C17.2 491.843 16.1833 489.388 16.1833 486.829C16.1833 484.269 17.2 481.815 19.0098 480.005V480.005C20.8195 481.815 21.8362 484.269 21.8362 486.829C21.8362 489.388 20.8195 491.843 19.0098 493.652V493.652Z" fill="#F9F9F9"/>
<path d="M18.9988 494.77C18.8517 494.771 18.7059 494.742 18.5701 494.686C18.4343 494.629 18.3114 494.545 18.2088 494.44C17.2077 493.44 16.4135 492.253 15.8716 490.947C15.3297 489.64 15.0508 488.239 15.0508 486.825C15.0508 485.41 15.3297 484.01 15.8716 482.703C16.4135 481.396 17.2077 480.209 18.2088 479.21C18.4183 479.004 18.7002 478.889 18.9938 478.889C19.2875 478.889 19.5694 479.004 19.7788 479.21C21.7958 481.231 22.9286 483.97 22.9286 486.825C22.9286 489.68 21.7958 492.419 19.7788 494.44C19.6778 494.545 19.5566 494.628 19.4225 494.684C19.2885 494.741 19.1444 494.77 18.9988 494.77ZM18.9988 481.69C17.8739 483.173 17.2649 484.983 17.2649 486.845C17.2649 488.706 17.8739 490.517 18.9988 492C20.1081 490.518 20.7076 488.716 20.7076 486.865C20.7076 485.014 20.1081 483.212 18.9988 481.73V481.69Z" fill="#3A4A67"/>
<path d="M19.0078 512.093C17.1981 510.284 16.1814 507.829 16.1814 505.27C16.1814 502.71 17.1981 500.256 19.0078 498.446V498.446C20.8175 500.256 21.8342 502.71 21.8342 505.27C21.8342 507.829 20.8175 510.284 19.0078 512.093V512.093Z" fill="#F9F9F9"/>
<path d="M19.0001 513.21C18.7067 513.207 18.4263 513.089 18.2201 512.88C16.2031 510.859 15.0703 508.12 15.0703 505.265C15.0703 502.409 16.2031 499.671 18.2201 497.65C18.4295 497.444 18.7114 497.329 19.0051 497.329C19.2987 497.329 19.5806 497.444 19.7901 497.65C20.7912 498.649 21.5854 499.836 22.1273 501.143C22.6692 502.449 22.9482 503.85 22.9482 505.265C22.9482 506.679 22.6692 508.08 22.1273 509.387C21.5854 510.693 20.7912 511.88 19.7901 512.88C19.6868 512.984 19.5638 513.067 19.4282 513.124C19.2926 513.181 19.1471 513.21 19.0001 513.21V513.21ZM19.0001 500.14C17.8901 501.62 17.2901 503.42 17.2901 505.27C17.2901 507.12 17.8901 508.92 19.0001 510.4C20.1101 508.92 20.7101 507.12 20.7101 505.27C20.7101 503.42 20.1101 501.62 19.0001 500.14V500.14Z" fill="#3A4A67"/>
<path d="M21.4062 496.05C23.216 494.24 25.6705 493.223 28.2298 493.223C30.7892 493.223 33.2437 494.24 35.0534 496.05C33.2437 497.86 30.7892 498.876 28.2298 498.876C25.6705 498.876 23.216 497.86 21.4062 496.05V496.05V496.05Z" fill="#F9F9F9"/>
<path d="M28.2391 500C25.3832 500.005 22.6423 498.875 20.6191 496.86C20.4097 496.65 20.2912 496.366 20.2891 496.07C20.289 495.923 20.3182 495.777 20.3748 495.642C20.4315 495.506 20.5145 495.383 20.6191 495.28C22.6401 493.263 25.3788 492.13 28.2341 492.13C31.0894 492.13 33.828 493.263 35.8491 495.28C36.0555 495.491 36.1711 495.774 36.1711 496.07C36.1711 496.365 36.0555 496.649 35.8491 496.86C33.8283 498.873 31.0915 500.002 28.2391 500V500ZM23.0991 496.07C24.5812 497.179 26.3828 497.778 28.2341 497.778C30.0854 497.778 31.8869 497.179 33.3691 496.07C31.889 494.958 30.0887 494.354 28.2374 494.351C26.3861 494.347 24.5834 494.943 23.0991 496.05V496.07Z" fill="#3A4A67"/>
<path d="M2.98828 496.028C4.79801 494.218 7.25252 493.201 9.81186 493.201C12.3712 493.201 14.8257 494.218 16.6354 496.028V496.028C14.8257 497.838 12.3712 498.854 9.81186 498.854C7.25252 498.854 4.79801 497.838 2.98828 496.028V496.028Z" fill="#F9F9F9"/>
<path d="M9.78987 500C6.93748 500.002 4.20064 498.873 2.17987 496.86C2.07525 496.756 1.99219 496.633 1.9355 496.498C1.8788 496.362 1.84961 496.217 1.84961 496.07C1.84961 495.923 1.8788 495.777 1.9355 495.642C1.99219 495.506 2.07525 495.383 2.17987 495.28C4.20089 493.263 6.93956 492.13 9.79487 492.13C12.6502 492.13 15.3888 493.263 17.4099 495.28C17.5144 495.383 17.5974 495.506 17.6541 495.642C17.7107 495.777 17.7399 495.923 17.7399 496.07C17.7377 496.366 17.6192 496.65 17.4099 496.86C15.3866 498.875 12.6457 500.005 9.78987 500V500ZM4.65987 496.07C6.14204 497.179 7.94357 497.778 9.79487 497.778C11.6462 497.778 13.4477 497.179 14.9299 496.07C13.4499 494.958 11.6495 494.354 9.79819 494.351C7.94689 494.347 6.1442 494.943 4.65987 496.05V496.07Z" fill="#3A4A67"/>
<path d="M20.709 494.35C20.709 491.79 21.7257 489.336 23.5354 487.526C25.3451 485.716 27.7997 484.7 30.359 484.7V484.7C30.359 487.259 29.3423 489.713 27.5326 491.523C25.7229 493.333 23.2683 494.35 20.709 494.35V494.35V494.35Z" fill="#F9F9F9"/>
<path d="M20.7098 495.47C20.4128 495.47 20.1279 495.352 19.9179 495.142C19.7078 494.932 19.5898 494.647 19.5898 494.35C19.5951 491.496 20.7318 488.761 22.7508 486.744C24.7697 484.727 27.506 483.593 30.3598 483.59C30.5065 483.589 30.6519 483.616 30.7877 483.671C30.9235 483.727 31.0471 483.808 31.1512 483.911C31.2553 484.015 31.338 484.137 31.3944 484.273C31.4508 484.408 31.4798 484.553 31.4798 484.7C31.4772 487.555 30.3417 490.293 28.3225 492.313C26.3033 494.332 23.5654 495.467 20.7098 495.47V495.47ZM29.1598 485.9C27.3286 486.163 25.6321 487.013 24.3248 488.322C23.0176 489.631 22.1702 491.328 21.9098 493.16C23.7404 492.895 25.4361 492.045 26.7431 490.736C28.0501 489.428 28.8979 487.731 29.1598 485.9V485.9Z" fill="#3A4A67"/>
<path d="M7.66992 507.39C7.66992 506.122 7.91952 504.868 8.40448 503.697C8.88944 502.526 9.60025 501.462 10.4963 500.566C11.3924 499.67 12.4563 498.959 13.627 498.474C14.7978 497.989 16.0527 497.74 17.3199 497.74C17.3199 500.299 16.3032 502.754 14.4935 504.563C12.6838 506.373 10.2293 507.39 7.66992 507.39Z" fill="#F9F9F9"/>
<path d="M7.66883 508.51C7.52175 508.51 7.37611 508.481 7.24022 508.425C7.10434 508.368 6.98087 508.286 6.87687 508.182C6.77287 508.078 6.69037 507.954 6.63408 507.819C6.5778 507.683 6.54883 507.537 6.54883 507.39C6.55412 504.536 7.69083 501.801 9.70974 499.784C11.7286 497.767 14.465 496.633 17.3188 496.63C17.4654 496.629 17.6109 496.656 17.7467 496.712C17.8825 496.767 18.0061 496.848 18.1102 496.951C18.2143 497.055 18.297 497.177 18.3534 497.313C18.4098 497.448 18.4388 497.593 18.4388 497.74C18.4362 500.595 17.3006 503.333 15.2814 505.353C13.2623 507.372 10.5244 508.507 7.66883 508.51V508.51ZM16.1188 498.94C14.2876 499.203 12.591 500.053 11.2838 501.362C9.97657 502.671 9.12918 504.368 8.86883 506.2C10.6994 505.936 12.3951 505.085 13.7021 503.777C15.009 502.468 15.8569 500.771 16.1188 498.94V498.94Z" fill="#3A4A67"/>
<path d="M17.3184 494.35C16.0511 494.35 14.7963 494.1 13.6255 493.615C12.4547 493.13 11.3909 492.419 10.4948 491.523C9.59869 490.627 8.88788 489.563 8.40292 488.393C7.91796 487.222 7.66836 485.967 7.66836 484.7C10.2277 484.7 12.6822 485.716 14.4919 487.526C16.3017 489.336 17.3184 491.79 17.3184 494.35V494.35Z" fill="#F9F9F9"/>
<path d="M17.3188 495.47C14.4633 495.467 11.7254 494.332 9.70621 492.313C7.68702 490.293 6.55148 487.555 6.54883 484.7C6.54882 484.553 6.57786 484.408 6.63427 484.273C6.69067 484.137 6.77333 484.015 6.87747 483.911C6.9816 483.808 7.10515 483.727 7.24098 483.671C7.37681 483.616 7.52222 483.589 7.66883 483.59C10.5227 483.593 13.259 484.727 15.2779 486.744C17.2968 488.761 18.4335 491.496 18.4388 494.35C18.4388 494.497 18.4099 494.643 18.3536 494.778C18.2973 494.914 18.2148 495.038 18.1108 495.142C18.0068 495.246 17.8833 495.328 17.7474 495.385C17.6115 495.441 17.4659 495.47 17.3188 495.47ZM8.86883 485.9C9.13072 487.731 9.97862 489.428 11.2856 490.736C12.5925 492.045 14.2882 492.895 16.1188 493.16C15.8585 491.328 15.0111 489.631 13.7038 488.322C12.3966 487.013 10.7 486.163 8.86883 485.9V485.9Z" fill="#3A4A67"/>
<path d="M30.3594 507.39C27.8 507.39 25.3455 506.373 23.5358 504.563C21.7261 502.754 20.7094 500.299 20.7094 497.74V497.74C23.2687 497.74 25.7232 498.756 27.533 500.566C29.3427 502.376 30.3594 504.83 30.3594 507.39V507.39Z" fill="#F9F9F9"/>
<path d="M30.3598 508.51C27.5043 508.507 24.7664 507.372 22.7472 505.353C20.728 503.333 19.5925 500.595 19.5898 497.74C19.5898 497.593 19.6189 497.448 19.6753 497.313C19.7317 497.177 19.8143 497.055 19.9185 496.951C20.0226 496.848 20.1462 496.767 20.282 496.712C20.4178 496.656 20.5632 496.629 20.7098 496.63C23.5637 496.633 26.3 497.767 28.3189 499.784C30.3378 501.801 31.4745 504.536 31.4798 507.39C31.4798 507.687 31.3618 507.972 31.1518 508.182C30.9418 508.392 30.6569 508.51 30.3598 508.51ZM21.9098 498.94C22.1717 500.771 23.0196 502.468 24.3266 503.777C25.6335 505.085 27.3293 505.936 29.1598 506.2C28.8995 504.368 28.0521 502.671 26.7449 501.362C25.4376 500.053 23.7411 499.203 21.9098 498.94Z" fill="#3A4A67"/>
<path d="M19.009 498.25C20.2792 498.25 21.309 497.22 21.309 495.95C21.309 494.68 20.2792 493.65 19.009 493.65C17.7387 493.65 16.709 494.68 16.709 495.95C16.709 497.22 17.7387 498.25 19.009 498.25Z" fill="#F9F9F9"/>
<path d="M18.9995 499.37C18.3214 499.368 17.6592 499.164 17.0971 498.785C16.535 498.406 16.0983 497.868 15.8425 497.24C15.5867 496.612 15.5234 495.922 15.6606 495.258C15.7978 494.594 16.1293 493.985 16.613 493.51C17.0967 493.035 17.7107 492.714 18.3771 492.589C19.0435 492.463 19.7322 492.539 20.3556 492.806C20.979 493.073 21.509 493.519 21.8782 494.087C22.2475 494.656 22.4394 495.322 22.4295 496C22.4163 496.9 22.0488 497.758 21.4067 498.389C20.7646 499.02 19.8997 499.372 18.9995 499.37V499.37ZM18.9995 494.77C18.7663 494.772 18.5389 494.842 18.3454 494.973C18.152 495.103 18.0011 495.287 17.9115 495.502C17.8219 495.718 17.7975 495.955 17.8414 496.184C17.8853 496.413 17.9955 496.624 18.1584 496.791C18.3212 496.958 18.5295 497.073 18.7574 497.123C18.9853 497.172 19.2227 497.154 19.4401 497.069C19.6576 496.985 19.8455 496.839 19.9805 496.649C20.1155 496.458 20.1916 496.233 20.1995 496C20.2063 495.839 20.1802 495.678 20.1227 495.528C20.0652 495.378 19.9776 495.241 19.8652 495.126C19.7528 495.01 19.618 494.919 19.4691 494.858C19.3202 494.797 19.1604 494.767 18.9995 494.77V494.77Z" fill="#3A4A67"/>
<path d="M20.8796 541H-12.7804C-13.0757 541 -13.3591 540.883 -13.5688 540.675C-13.7786 540.467 -13.8978 540.185 -13.9004 539.89C-13.9004 539.593 -13.7824 539.308 -13.5724 539.098C-13.3623 538.888 -13.0774 538.77 -12.7804 538.77H20.8796C21.0349 538.755 21.1916 538.773 21.3396 538.822C21.4875 538.871 21.6236 538.951 21.739 539.056C21.8544 539.161 21.9466 539.289 22.0097 539.432C22.0727 539.574 22.1053 539.729 22.1053 539.885C22.1053 540.041 22.0727 540.195 22.0097 540.338C21.9466 540.48 21.8544 540.608 21.739 540.713C21.6236 540.818 21.4875 540.898 21.3396 540.947C21.1916 540.997 21.0349 541.014 20.8796 541V541Z" fill="#3A4A67"/>
<path d="M122.329 450.73C123.412 450.73 124.289 449.853 124.289 448.77C124.289 447.688 123.412 446.81 122.329 446.81C121.247 446.81 120.369 447.688 120.369 448.77C120.369 449.853 121.247 450.73 122.329 450.73Z" fill="white"/>
<path d="M229.88 450.73C230.962 450.73 231.84 449.853 231.84 448.77C231.84 447.688 230.962 446.81 229.88 446.81C228.797 446.81 227.92 447.688 227.92 448.77C227.92 449.853 228.797 450.73 229.88 450.73Z" fill="white"/>
<path d="M221.738 525.09C221.308 532.81 219.738 561.09 218.368 574.75C216.998 588.41 211.888 625.52 210.548 635.15L146.698 634.46C144.908 624.23 138.698 588.39 136.828 574.83C134.948 561.04 132.298 532.36 131.648 525.06L134.748 524.79C136.395 524.645 138.009 524.24 139.528 523.59V523.59C144.412 528.74 149.879 533.304 155.818 537.19C162.142 541.26 168.961 544.503 176.108 546.84C183.765 544.497 191.022 541.004 197.628 536.48C203.215 532.582 208.317 528.034 212.828 522.93C214.865 524.016 217.099 524.679 219.398 524.88L221.738 525.09Z" fill="#DAF1ED"/>
<path d="M176.119 502.7C146.399 502.7 122.229 469.49 122.229 428.7C122.229 426.92 122.229 425.15 122.229 423.4C122.139 406.4 122.069 390.4 129.989 378.4C140.249 362.83 160.989 354.68 176.139 354.68C191.949 354.68 206.909 364.16 217.139 380.68C225.439 394.04 230.009 411.1 230.009 428.68C229.999 469.49 205.829 502.7 176.119 502.7ZM176.119 357.2C161.979 357.2 141.759 365.11 132.119 379.77C124.619 391.15 124.689 406.77 124.779 423.36C124.779 425.12 124.779 426.89 124.779 428.68C124.779 468.09 147.779 500.15 176.129 500.15C204.479 500.15 227.469 468.09 227.469 428.68C227.459 411.54 222.999 395 214.999 382C205.199 366.24 190.999 357.2 176.119 357.2V357.2Z" fill="#3A4A67"/>
<path d="M123.499 446.39C118.259 446.39 112.949 440.75 112.949 429.96C112.949 419.17 122.389 418.78 122.489 418.78C122.826 418.765 123.155 418.885 123.403 419.113C123.652 419.341 123.8 419.658 123.814 419.995C123.829 420.332 123.709 420.661 123.481 420.909C123.253 421.158 122.936 421.305 122.599 421.32C122.309 421.32 115.499 421.78 115.499 429.96C115.499 438.96 119.619 443.84 123.499 443.84C123.818 443.868 124.114 444.015 124.33 444.251C124.546 444.487 124.666 444.795 124.666 445.115C124.666 445.435 124.546 445.743 124.33 445.979C124.114 446.215 123.818 446.362 123.499 446.39V446.39Z" fill="#3A4A67"/>
<path d="M228.729 446.39C228.411 446.361 228.114 446.215 227.898 445.979C227.682 445.743 227.562 445.435 227.562 445.115C227.562 444.795 227.682 444.487 227.898 444.251C228.114 444.015 228.411 443.868 228.729 443.84C232.609 443.84 236.729 438.98 236.729 429.96C236.729 421.78 229.919 421.34 229.629 421.32C229.293 421.304 228.976 421.155 228.749 420.905C228.522 420.656 228.404 420.327 228.419 419.99C228.435 419.653 228.584 419.336 228.834 419.109C229.083 418.882 229.413 418.764 229.749 418.78C229.839 418.78 239.279 419.3 239.279 429.96C239.279 440.62 233.999 446.39 228.729 446.39Z" fill="#3A4A67"/>
<path d="M233.369 420.05C233.369 420.05 227.939 439.53 227.139 432.58C226.599 427.91 225.209 423.46 218.439 419.45C194.099 405 200.559 377 200.559 377L195.059 411.14C194.892 412.208 194.357 413.184 193.546 413.9C192.736 414.616 191.7 415.026 190.619 415.06C178.749 415.45 142.779 416.67 132.159 417.57C126.789 418.02 125.889 396.57 125.889 396.57L125.159 418.12L117.919 420.05C117.919 420.05 105.319 344.85 178.559 344.85C188.939 344.85 195.659 348.92 202.509 352.47C234.489 358.94 233.369 420.05 233.369 420.05Z" fill="#3A4A67"/>
<path d="M60.1588 633.42H59.9988C59.8333 633.399 59.6736 633.346 59.5288 633.263C59.3839 633.18 59.2568 633.07 59.1547 632.938C59.0525 632.806 58.9774 632.655 58.9335 632.494C58.8896 632.334 58.8778 632.166 58.8988 632L67.4788 570.66C69.0938 558.789 74.7059 547.823 83.3899 539.57C92.0739 531.317 103.311 526.269 115.249 525.26L134.629 523.55C136.142 523.422 137.624 523.051 139.019 522.45H139.119C140.492 521.859 141.765 521.056 142.889 520.07C145.395 517.895 147.082 514.927 147.669 511.66L150.969 493.35C151.053 493.041 151.249 492.775 151.52 492.604C151.79 492.433 152.115 492.37 152.43 492.426C152.745 492.483 153.027 492.655 153.221 492.909C153.415 493.164 153.507 493.481 153.479 493.8L150.179 512.11C149.49 515.952 147.507 519.442 144.559 522C143.209 523.178 141.679 524.133 140.029 524.83H139.949C138.324 525.512 136.604 525.937 134.849 526.09L115.479 527.79C104.116 528.751 93.4194 533.555 85.1521 541.41C76.8849 549.264 71.5402 559.701 69.9988 571L61.4188 632.34C61.3732 632.641 61.2209 632.916 60.9896 633.114C60.7583 633.313 60.4634 633.421 60.1588 633.42V633.42Z" fill="#3A4A67"/>
<path d="M274.45 548.12C274.255 548.116 274.064 548.069 273.891 547.98C273.718 547.892 273.567 547.765 273.45 547.61C269.2 541.985 263.818 537.312 257.652 533.893C251.486 530.474 244.672 528.385 237.65 527.76L219.32 526.15C216.849 525.935 214.447 525.221 212.26 524.05C211.167 523.477 210.138 522.79 209.19 522C205.808 519.213 203.529 515.314 202.76 511L199.64 493.73C199.611 493.411 199.703 493.093 199.897 492.839C200.092 492.585 200.374 492.412 200.689 492.356C201.004 492.3 201.328 492.363 201.599 492.534C201.869 492.705 202.066 492.971 202.15 493.28L205.26 510.55C205.928 514.265 207.895 517.621 210.81 520.02C213.292 522.072 216.341 523.321 219.55 523.6L237.87 525.22C245.249 525.876 252.408 528.071 258.887 531.662C265.367 535.253 271.022 540.161 275.49 546.07C275.59 546.203 275.664 546.355 275.706 546.516C275.748 546.678 275.757 546.846 275.734 547.012C275.711 547.177 275.655 547.336 275.57 547.48C275.486 547.624 275.373 547.749 275.24 547.85C275.013 548.024 274.736 548.119 274.45 548.12V548.12Z" fill="#3A4A67"/>
<path d="M210.229 638.74H209.999C209.834 638.716 209.674 638.661 209.53 638.576C209.386 638.491 209.261 638.378 209.16 638.244C209.06 638.11 208.987 637.958 208.946 637.796C208.904 637.634 208.895 637.465 208.919 637.3C208.919 637.3 209.039 636.47 209.239 634.99C209.889 630.36 215.579 589.37 217.059 574.63C218.349 561.76 219.839 535.63 220.429 525.03C220.499 523.76 220.529 523.03 220.529 523.03C220.533 522.862 220.571 522.696 220.64 522.543C220.71 522.39 220.81 522.252 220.935 522.139C221.059 522.026 221.205 521.939 221.364 521.884C221.523 521.829 221.692 521.807 221.859 521.82C222.026 521.827 222.19 521.868 222.341 521.939C222.492 522.01 222.628 522.11 222.74 522.234C222.853 522.357 222.94 522.502 222.996 522.659C223.053 522.816 223.077 522.983 223.069 523.15C223.069 523.15 223.069 523.87 222.969 525.15C222.389 535.8 220.889 561.95 219.589 574.87C218.109 589.67 212.409 630.7 211.769 635.33C211.559 636.82 211.439 637.65 211.439 637.65C211.399 637.945 211.256 638.217 211.034 638.416C210.813 638.616 210.527 638.731 210.229 638.74V638.74Z" fill="#3A4A67"/>
<path d="M147.188 638.5C146.889 638.5 146.598 638.395 146.368 638.203C146.138 638.011 145.982 637.745 145.928 637.45C145.928 637.45 145.748 636.45 145.448 634.68C144.138 627.22 137.518 589.24 135.568 575.01C133.478 559.66 130.498 526.58 130.378 525.17C130.268 524.07 130.218 523.45 130.218 523.45C130.202 523.12 130.314 522.797 130.531 522.549C130.748 522.301 131.053 522.147 131.382 522.12C131.71 522.092 132.037 522.194 132.292 522.403C132.547 522.612 132.711 522.912 132.748 523.24C132.748 523.24 132.808 523.85 132.908 524.93C133.038 526.35 136.008 559.38 138.098 574.66C140.028 588.85 146.648 626.78 147.958 634.24C148.258 636 148.438 637 148.438 637C148.498 637.328 148.426 637.667 148.239 637.943C148.052 638.219 147.765 638.412 147.438 638.48L147.188 638.5Z" fill="#3A4A67"/>
<path d="M105.059 528.47C105.059 528.47 117.329 488.89 119.139 443.47L125.139 446.53L134.139 472.53L145.429 487.8L151.429 492.62L147.969 514.82L142.659 523.53L124.589 524.87L105.059 528.47Z" fill="#3A4A67"/>
<path d="M247.069 527.82C239.14 500.434 234.465 472.21 233.139 443.73L227.229 446L219.589 469.64L206.189 488.37L200.879 493.5L204.609 511.33C204.609 511.33 206.939 523.09 216.769 524.64C220.649 525.26 247.069 527.82 247.069 527.82Z" fill="#3A4A67"/>
<path d="M178.559 344.85C187.159 344.712 195.569 347.388 202.509 352.47C234.509 358.94 233.369 420.05 233.369 420.05" fill="#3A4A67"/>
<path d="M152.739 440.15C155.417 440.15 157.589 437.978 157.589 435.3C157.589 432.621 155.417 430.45 152.739 430.45C150.06 430.45 147.889 432.621 147.889 435.3C147.889 437.978 150.06 440.15 152.739 440.15Z" fill="#3A4A67"/>
<path d="M200.659 440.15C203.337 440.15 205.509 437.978 205.509 435.3C205.509 432.621 203.337 430.45 200.659 430.45C197.98 430.45 195.809 432.621 195.809 435.3C195.809 437.978 197.98 440.15 200.659 440.15Z" fill="#3A4A67"/>
<path d="M159.31 424.82C159.109 424.817 158.911 424.769 158.73 424.68C156.669 423.627 154.403 423.036 152.09 422.95C149.403 422.874 146.739 423.469 144.34 424.68C144.039 424.83 143.69 424.856 143.37 424.751C143.05 424.646 142.784 424.42 142.63 424.12C142.553 423.971 142.506 423.809 142.492 423.642C142.479 423.475 142.499 423.307 142.551 423.147C142.603 422.988 142.686 422.841 142.796 422.714C142.906 422.588 143.04 422.484 143.19 422.41C145.775 421.088 148.637 420.399 151.54 420.399C154.443 420.399 157.305 421.088 159.89 422.41C160.039 422.485 160.172 422.589 160.281 422.716C160.39 422.843 160.473 422.99 160.525 423.149C160.577 423.308 160.597 423.475 160.584 423.642C160.571 423.809 160.526 423.971 160.45 424.12C160.342 424.33 160.179 424.506 159.978 424.629C159.777 424.753 159.546 424.819 159.31 424.82V424.82Z" fill="#3A4A67"/>
<path d="M208.429 424.82C208.228 424.818 208.029 424.77 207.849 424.68C205.788 423.627 203.522 423.036 201.209 422.95C198.522 422.87 195.857 423.465 193.459 424.68C193.158 424.83 192.809 424.856 192.489 424.751C192.169 424.646 191.903 424.42 191.749 424.12C191.672 423.971 191.625 423.809 191.612 423.642C191.598 423.475 191.618 423.307 191.67 423.147C191.722 422.988 191.806 422.841 191.915 422.714C192.025 422.588 192.159 422.484 192.309 422.41C194.894 421.088 197.756 420.399 200.659 420.399C203.562 420.399 206.424 421.088 209.009 422.41C209.268 422.537 209.476 422.749 209.599 423.01C209.722 423.271 209.752 423.567 209.684 423.847C209.617 424.128 209.456 424.377 209.228 424.554C208.999 424.731 208.718 424.825 208.429 424.82V424.82Z" fill="#3A4A67"/>
<path d="M177.45 462.82C177.273 462.821 177.098 462.785 176.936 462.714C176.775 462.643 176.629 462.54 176.51 462.41L173.06 458.69C172.915 458.536 172.812 458.348 172.758 458.144C172.703 457.94 172.701 457.725 172.75 457.52L174.86 448.76C174.938 448.431 175.143 448.147 175.431 447.969C175.719 447.792 176.066 447.737 176.395 447.815C176.723 447.893 177.008 448.099 177.185 448.387C177.362 448.675 177.418 449.021 177.34 449.35L175.34 457.46L178.34 460.68C178.505 460.862 178.614 461.089 178.655 461.332C178.695 461.575 178.664 461.824 178.566 462.05C178.467 462.276 178.306 462.469 178.101 462.605C177.896 462.742 177.656 462.816 177.41 462.82H177.45Z" fill="#3A4A67"/>
<path d="M177.449 479.2C172.179 479.2 169.919 474.05 169.449 471.32C169.421 471.143 169.431 470.962 169.48 470.789C169.528 470.616 169.613 470.456 169.729 470.32C169.851 470.174 170.005 470.058 170.178 469.98C170.351 469.902 170.539 469.864 170.729 469.87H183.839C184.019 469.868 184.198 469.905 184.363 469.978C184.527 470.051 184.675 470.159 184.795 470.293C184.915 470.427 185.005 470.586 185.059 470.757C185.113 470.929 185.131 471.111 185.109 471.29C184.769 474 182.759 479.2 177.449 479.2ZM172.379 472.38C172.999 474.09 174.429 476.66 177.449 476.66C180.469 476.66 181.739 474.07 182.249 472.38H172.379Z" fill="#3A4A67"/>
<path d="M175.72 586.58C175.507 586.58 175.298 586.527 175.111 586.425C174.925 586.324 174.766 586.178 174.65 586L135.27 525.31C135.088 525.024 135.026 524.678 135.097 524.347C135.168 524.016 135.367 523.726 135.65 523.54C135.79 523.449 135.947 523.387 136.112 523.356C136.276 523.326 136.445 523.329 136.609 523.364C136.772 523.399 136.927 523.467 137.065 523.562C137.202 523.657 137.319 523.779 137.41 523.92L175.71 582.92L213.94 523.51C214.123 523.226 214.411 523.027 214.741 522.955C214.904 522.92 215.073 522.917 215.238 522.947C215.402 522.977 215.559 523.039 215.7 523.13C215.84 523.221 215.962 523.338 216.057 523.475C216.152 523.613 216.219 523.768 216.254 523.931C216.29 524.095 216.292 524.263 216.262 524.428C216.232 524.592 216.17 524.749 216.08 524.89L176.79 586C176.676 586.181 176.518 586.33 176.331 586.433C176.144 586.537 175.933 586.59 175.72 586.59V586.58Z" fill="#3A4A67"/>
<path d="M187.27 585.3H164.92V619H187.27V585.3Z" fill="#5ABEAE"/>
<path d="M187.278 620.28H164.918C164.751 620.28 164.585 620.247 164.43 620.182C164.275 620.118 164.135 620.023 164.017 619.904C163.899 619.785 163.806 619.644 163.742 619.489C163.679 619.334 163.647 619.167 163.648 619V585.3C163.648 584.963 163.782 584.64 164.02 584.402C164.259 584.164 164.582 584.03 164.918 584.03H187.278C187.615 584.03 187.938 584.164 188.177 584.402C188.415 584.64 188.548 584.963 188.548 585.3V619C188.55 619.167 188.518 619.334 188.455 619.489C188.391 619.644 188.298 619.785 188.18 619.904C188.062 620.023 187.922 620.118 187.767 620.182C187.612 620.247 187.446 620.28 187.278 620.28V620.28ZM166.198 617.73H185.998V586.58H166.198V617.73Z" fill="#3A4A67"/>
<path d="M279.149 538.74H278.949C278.784 538.714 278.626 538.656 278.483 538.57C278.341 538.483 278.217 538.369 278.118 538.234C278.02 538.1 277.949 537.947 277.91 537.785C277.87 537.623 277.863 537.455 277.889 537.29L279.149 529.11L276.149 506.28C275.208 501.32 275.856 496.19 277.999 491.62C278.63 490.236 279.71 489.105 281.064 488.412C282.418 487.718 283.967 487.503 285.459 487.8C285.549 487.811 285.637 487.838 285.719 487.88L292.999 491C294.21 491.524 295.199 492.456 295.795 493.633C296.391 494.811 296.556 496.16 296.261 497.446C295.967 498.732 295.231 499.875 294.182 500.676C293.133 501.476 291.837 501.885 290.519 501.83L285.519 501.63C285.352 501.622 285.188 501.582 285.037 501.511C284.886 501.44 284.75 501.339 284.638 501.216C284.525 501.092 284.438 500.948 284.382 500.791C284.326 500.633 284.301 500.467 284.309 500.3C284.312 500.132 284.35 499.967 284.419 499.814C284.488 499.661 284.587 499.524 284.71 499.41C284.833 499.296 284.978 499.208 285.136 499.152C285.294 499.095 285.461 499.07 285.629 499.08L290.569 499.29C291.322 499.368 292.078 499.167 292.693 498.727C293.309 498.286 293.742 497.635 293.91 496.896C294.079 496.158 293.971 495.384 293.608 494.719C293.245 494.055 292.651 493.547 291.939 493.29L284.849 490.22C283.934 490.071 282.996 490.227 282.178 490.662C281.36 491.097 280.707 491.788 280.319 492.63C278.412 496.745 277.845 501.355 278.699 505.81L281.699 528.89C281.714 529.009 281.714 529.13 281.699 529.25L280.409 537.61C280.372 537.919 280.224 538.205 279.992 538.413C279.76 538.621 279.46 538.737 279.149 538.74Z" fill="#3A4A67"/>
<path d="M303.799 543.44C303.689 543.45 303.579 543.45 303.469 543.44C303.307 543.397 303.155 543.323 303.022 543.221C302.89 543.119 302.778 542.992 302.694 542.847C302.611 542.702 302.557 542.542 302.535 542.376C302.514 542.21 302.525 542.042 302.569 541.88C303.418 538.673 304.958 535.691 307.079 533.14L321.839 515.4C323.091 513.879 323.701 511.93 323.541 509.966C323.38 508.002 322.461 506.178 320.979 504.88L307.589 493.3L294.839 495.62C294.667 495.667 294.488 495.677 294.313 495.651C294.137 495.624 293.969 495.562 293.819 495.467C293.668 495.372 293.54 495.247 293.441 495.099C293.341 494.952 293.274 494.786 293.243 494.611C293.211 494.436 293.217 494.257 293.259 494.084C293.3 493.911 293.378 493.749 293.485 493.608C293.593 493.467 293.729 493.35 293.885 493.264C294.04 493.178 294.212 493.126 294.389 493.11L307.729 490.69C307.916 490.653 308.109 490.66 308.293 490.71C308.477 490.76 308.647 490.853 308.789 490.98L322.649 502.98C324.619 504.713 325.84 507.143 326.054 509.758C326.269 512.373 325.46 514.969 323.799 517L308.999 534.73C307.121 536.998 305.757 539.645 304.999 542.49C304.929 542.757 304.775 542.995 304.558 543.166C304.341 543.338 304.075 543.434 303.799 543.44V543.44Z" fill="#3A4A67"/>
<path d="M294.609 493.17C294.441 493.17 294.274 493.136 294.119 493.07C293.965 493.006 293.824 492.913 293.706 492.795C293.589 492.677 293.495 492.536 293.432 492.382C293.369 492.227 293.337 492.062 293.338 491.895C293.339 491.728 293.373 491.563 293.439 491.41L304.309 465.41C304.859 464.078 305.907 463.014 307.229 462.443C308.552 461.873 310.045 461.84 311.391 462.354C312.737 462.867 313.829 463.885 314.436 465.192C315.043 466.499 315.115 467.99 314.639 469.35L306.499 491.52C306.382 491.838 306.143 492.096 305.836 492.239C305.529 492.381 305.177 492.396 304.859 492.28C304.702 492.222 304.557 492.133 304.434 492.019C304.311 491.906 304.212 491.768 304.142 491.616C304.073 491.463 304.034 491.299 304.028 491.131C304.022 490.964 304.05 490.797 304.109 490.64L312.249 468.47C312.435 467.753 312.35 466.994 312.01 466.336C311.67 465.679 311.099 465.17 310.407 464.909C309.714 464.647 308.95 464.65 308.26 464.918C307.57 465.186 307.003 465.699 306.669 466.36L295.789 492.36C295.695 492.597 295.533 492.801 295.323 492.945C295.113 493.089 294.864 493.168 294.609 493.17Z" fill="#3A4A67"/>
<path d="M303.93 516.16C303.736 516.16 303.544 516.116 303.37 516.03L297 512.87C295.749 512.243 294.777 511.172 294.274 509.866C293.771 508.561 293.773 507.114 294.28 505.81L294.91 504.2C295.585 502.475 296.642 500.926 298.001 499.668C299.361 498.411 300.988 497.478 302.76 496.94L311.7 494.2C311.86 494.151 312.027 494.134 312.194 494.149C312.36 494.165 312.521 494.213 312.669 494.291C312.817 494.369 312.948 494.475 313.054 494.604C313.161 494.732 313.241 494.881 313.29 495.04C313.339 495.2 313.357 495.367 313.341 495.534C313.326 495.7 313.277 495.861 313.199 496.009C313.121 496.157 313.015 496.288 312.887 496.394C312.758 496.501 312.61 496.581 312.45 496.63L303.51 499.38C302.103 499.805 300.811 500.545 299.732 501.543C298.653 502.541 297.814 503.771 297.28 505.14L296.65 506.75C296.364 507.457 296.357 508.246 296.632 508.958C296.907 509.669 297.443 510.249 298.13 510.58L304.55 513.74C304.805 513.87 305.009 514.082 305.13 514.342C305.25 514.602 305.28 514.895 305.214 515.174C305.148 515.452 304.991 515.701 304.767 515.88C304.544 516.059 304.267 516.157 303.98 516.16H303.93Z" fill="#3A4A67"/>
<path d="M306.479 517C305.547 516.999 304.631 516.757 303.82 516.297C303.01 515.837 302.332 515.176 301.853 514.376C301.373 513.577 301.109 512.667 301.086 511.736C301.062 510.804 301.28 509.882 301.719 509.06L302.799 507.06C303.837 505.11 305.595 503.643 307.699 502.97L317.849 499.74C318.008 499.689 318.176 499.671 318.343 499.685C318.51 499.699 318.672 499.746 318.821 499.823C318.969 499.9 319.101 500.006 319.209 500.134C319.317 500.262 319.398 500.41 319.449 500.57C319.499 500.729 319.518 500.897 319.504 501.064C319.489 501.231 319.442 501.393 319.365 501.542C319.288 501.69 319.182 501.822 319.054 501.93C318.926 502.038 318.778 502.119 318.619 502.17L308.479 505.4C307.007 505.865 305.776 506.888 305.049 508.25L303.969 510.25C303.635 510.857 303.535 511.565 303.688 512.241C303.84 512.917 304.234 513.514 304.795 513.919C305.357 514.325 306.048 514.511 306.737 514.443C307.426 514.375 308.067 514.057 308.539 513.55L310.129 511.88C310.783 511.194 311.592 510.677 312.489 510.37C313.385 510.064 314.342 509.978 315.279 510.12L317.859 510.52C318.169 510.596 318.44 510.787 318.617 511.053C318.795 511.319 318.866 511.642 318.817 511.958C318.768 512.274 318.602 512.561 318.353 512.761C318.103 512.961 317.788 513.061 317.469 513.04L314.899 512.64C314.367 512.558 313.824 512.606 313.315 512.78C312.807 512.954 312.348 513.249 311.979 513.64L310.389 515.31C309.886 515.842 309.28 516.267 308.608 516.557C307.935 516.848 307.211 516.998 306.479 517V517Z" fill="#3A4A67"/>
<path d="M297.519 513C297.382 513.002 297.246 512.978 297.119 512.93L292.699 511.48C290.812 510.87 289.225 509.57 288.255 507.84C287.285 506.11 287.004 504.078 287.469 502.15L287.919 500.21C287.957 500.047 288.026 499.893 288.124 499.758C288.221 499.622 288.345 499.506 288.487 499.418C288.629 499.33 288.787 499.271 288.952 499.243C289.117 499.216 289.286 499.222 289.449 499.26C289.611 499.298 289.765 499.368 289.901 499.465C290.037 499.563 290.152 499.686 290.24 499.828C290.329 499.97 290.388 500.128 290.415 500.293C290.442 500.458 290.437 500.627 290.399 500.79L289.949 502.73C289.631 504.037 289.819 505.416 290.476 506.59C291.132 507.764 292.209 508.646 293.489 509.06L297.919 510.51C298.203 510.608 298.445 510.804 298.599 511.062C298.754 511.321 298.813 511.626 298.765 511.923C298.717 512.221 298.566 512.492 298.338 512.689C298.11 512.886 297.82 512.996 297.519 513V513Z" fill="#3A4A67"/>
<path d="M261.609 635.66H261.409C261.244 635.634 261.086 635.576 260.944 635.49C260.801 635.403 260.677 635.289 260.579 635.154C260.48 635.02 260.409 634.867 260.37 634.705C260.331 634.543 260.323 634.375 260.349 634.21L274.859 540C274.933 539.488 275.112 538.996 275.383 538.556C275.655 538.116 276.014 537.736 276.439 537.44C276.863 537.141 277.342 536.93 277.849 536.82C278.356 536.71 278.88 536.703 279.389 536.8L304.109 541.58C305.444 541.835 306.643 542.558 307.49 543.62C308.338 544.682 308.777 546.012 308.729 547.37L305.889 634.44C305.888 634.609 305.853 634.776 305.785 634.931C305.717 635.085 305.618 635.224 305.494 635.34C305.371 635.455 305.225 635.544 305.066 635.6C304.907 635.657 304.738 635.681 304.569 635.67C304.402 635.665 304.238 635.627 304.086 635.558C303.934 635.489 303.797 635.391 303.683 635.27C303.568 635.148 303.479 635.005 303.42 634.849C303.361 634.693 303.334 634.527 303.339 634.36L306.179 547.29C306.209 546.539 305.968 545.803 305.499 545.216C305.031 544.628 304.367 544.228 303.629 544.09L278.899 539.3C278.727 539.262 278.549 539.262 278.377 539.298C278.204 539.334 278.042 539.406 277.899 539.51C277.756 539.61 277.634 539.737 277.542 539.885C277.449 540.033 277.387 540.198 277.359 540.37L262.849 634.58C262.804 634.878 262.655 635.15 262.427 635.348C262.2 635.545 261.91 635.656 261.609 635.66Z" fill="#3A4A67"/>
<path d="M176.119 548.12C175.983 548.121 175.847 548.097 175.719 548.05C168.469 545.679 161.553 542.388 155.139 538.26C149.109 534.325 143.561 529.696 138.609 524.47L138.529 524.38C138.298 524.135 138.17 523.811 138.17 523.475C138.17 523.139 138.298 522.815 138.529 522.57C138.761 522.339 139.076 522.209 139.404 522.209C139.732 522.209 140.047 522.339 140.279 522.57L140.379 522.69C145.203 527.783 150.606 532.294 156.479 536.13C162.6 540.063 169.188 543.217 176.089 545.52C183.482 543.213 190.489 539.815 196.879 535.44C202.392 531.606 207.428 527.128 211.879 522.1L211.999 522C212.1 521.869 212.225 521.76 212.369 521.678C212.513 521.597 212.671 521.544 212.835 521.525C212.999 521.505 213.165 521.519 213.324 521.564C213.482 521.61 213.63 521.686 213.759 521.79C214.024 522.004 214.195 522.313 214.236 522.65C214.277 522.988 214.185 523.329 213.979 523.6C213.918 523.678 213.851 523.752 213.779 523.82C209.212 528.979 204.05 533.578 198.399 537.52C191.688 542.124 184.313 545.675 176.529 548.05C176.397 548.097 176.259 548.121 176.119 548.12V548.12Z" fill="#3A4A67"/>
<path d="M143.559 657.88C143.318 657.881 143.081 657.813 142.877 657.684C142.673 657.554 142.511 657.369 142.409 657.15L111.769 591.63C111.666 591.41 111.628 591.165 111.66 590.924C111.692 590.682 111.792 590.456 111.949 590.27L123.579 576.39L104.579 567.94C104.417 567.867 104.272 567.76 104.153 567.628C104.034 567.495 103.944 567.339 103.889 567.17C103.834 567.006 103.814 566.833 103.829 566.66C103.845 566.488 103.896 566.321 103.979 566.17L127.119 525C127.285 524.706 127.561 524.489 127.886 524.398C128.211 524.307 128.56 524.349 128.854 524.515C129.148 524.681 129.365 524.957 129.456 525.282C129.547 525.607 129.505 525.956 129.339 526.25L106.849 566.25L126.159 574.82C126.341 574.897 126.502 575.016 126.629 575.167C126.755 575.318 126.845 575.498 126.889 575.69C126.933 575.883 126.932 576.084 126.885 576.277C126.838 576.469 126.747 576.648 126.619 576.8L114.419 591.36L144.709 656.14C144.78 656.291 144.821 656.454 144.828 656.621C144.836 656.788 144.811 656.954 144.754 657.111C144.698 657.268 144.611 657.413 144.498 657.536C144.386 657.659 144.25 657.759 144.099 657.83C143.925 657.885 143.741 657.902 143.559 657.88V657.88Z" fill="#3A4A67"/>
<path d="M209.48 657.88C209.293 657.879 209.109 657.838 208.94 657.76C208.789 657.689 208.653 657.589 208.541 657.466C208.428 657.342 208.341 657.198 208.284 657.041C208.228 656.884 208.203 656.718 208.21 656.551C208.218 656.384 208.259 656.221 208.33 656.07L238.62 591.29L226.42 576.73C226.292 576.578 226.201 576.399 226.154 576.206C226.107 576.014 226.106 575.813 226.15 575.62C226.194 575.427 226.283 575.248 226.41 575.097C226.537 574.946 226.698 574.827 226.88 574.75L246.19 566.18L223.7 526.18C223.618 526.034 223.565 525.873 223.545 525.707C223.525 525.541 223.538 525.373 223.583 525.212C223.628 525.051 223.704 524.9 223.807 524.768C223.911 524.637 224.039 524.527 224.185 524.445C224.33 524.363 224.491 524.31 224.657 524.29C224.823 524.27 224.991 524.283 225.153 524.328C225.314 524.373 225.464 524.449 225.596 524.552C225.728 524.656 225.838 524.784 225.92 524.93L249.1 566.13C249.182 566.281 249.233 566.448 249.25 566.62C249.267 566.791 249.25 566.965 249.2 567.13C249.141 567.298 249.048 567.454 248.928 567.586C248.808 567.718 248.662 567.825 248.5 567.9L229.5 576.35L241.13 590.23C241.287 590.415 241.387 590.642 241.419 590.883C241.451 591.124 241.413 591.369 241.31 591.59L210.67 657.11C210.571 657.343 210.405 657.541 210.193 657.678C209.981 657.815 209.732 657.885 209.48 657.88V657.88Z" fill="#3A4A67"/>
<path d="M412.38 616.89H361.27V638.84H412.38V616.89Z" fill="#F9F9F9"/>
<path d="M412.38 640H361.27C360.976 640 360.693 639.883 360.485 639.675C360.277 639.467 360.16 639.184 360.16 638.89V616.89C360.16 616.595 360.277 616.313 360.485 616.105C360.693 615.897 360.976 615.78 361.27 615.78H412.38C412.675 615.78 412.959 615.896 413.169 616.104C413.378 616.312 413.498 616.594 413.5 616.89V638.84C413.506 638.99 413.481 639.14 413.427 639.281C413.373 639.421 413.291 639.549 413.187 639.658C413.082 639.766 412.957 639.852 412.818 639.911C412.68 639.97 412.531 640 412.38 640V640ZM362.38 637.77H411.26V618H362.39L362.38 637.77Z" fill="#3A4A67"/>
<path d="M604.499 644.16H342.809C342.515 644.16 342.232 644.043 342.024 643.835C341.816 643.626 341.699 643.344 341.699 643.05V349.34C341.699 349.044 341.816 348.761 342.024 348.551C342.232 348.342 342.514 348.222 342.809 348.22H604.499C604.795 348.222 605.077 348.342 605.285 348.551C605.493 348.761 605.609 349.044 605.609 349.34V643.05C605.609 643.344 605.492 643.626 605.284 643.835C605.076 644.043 604.794 644.16 604.499 644.16V644.16ZM343.929 641.93H603.379V350.45H343.929V641.93Z" fill="#3A4A67"/>
<path d="M412.38 370.1H361.27V392.05H412.38V370.1Z" fill="#F9F9F9"/>
<path d="M412.38 393.16H361.27C360.975 393.157 360.693 393.038 360.485 392.828C360.277 392.619 360.16 392.335 360.16 392.04V370.1C360.16 369.805 360.277 369.521 360.485 369.312C360.693 369.102 360.975 368.983 361.27 368.98H412.38C412.677 368.98 412.962 369.098 413.172 369.308C413.382 369.518 413.5 369.803 413.5 370.1V392C413.506 392.15 413.481 392.3 413.427 392.441C413.373 392.581 413.291 392.71 413.187 392.818C413.082 392.926 412.957 393.012 412.818 393.071C412.68 393.13 412.531 393.16 412.38 393.16V393.16ZM362.38 390.93H411.26V371.21H362.39L362.38 390.93Z" fill="#3A4A67"/>
<path d="M380.069 418.05H360.309V441.22H380.069V418.05Z" fill="#F9F9F9"/>
<path d="M380.069 442.33H360.309C360.163 442.331 360.017 442.304 359.882 442.248C359.746 442.193 359.622 442.112 359.518 442.008C359.414 441.905 359.331 441.782 359.275 441.647C359.218 441.512 359.189 441.367 359.189 441.22V418.05C359.192 417.755 359.311 417.472 359.521 417.264C359.731 417.057 360.014 416.94 360.309 416.94H380.069C380.215 416.94 380.36 416.969 380.494 417.024C380.629 417.08 380.751 417.162 380.854 417.265C380.957 417.368 381.039 417.49 381.095 417.625C381.151 417.76 381.179 417.904 381.179 418.05V441.22C381.179 441.514 381.063 441.797 380.854 442.005C380.646 442.213 380.364 442.33 380.069 442.33ZM361.419 440.11H378.999V419.17H361.419V440.11Z" fill="#3A4A67"/>
<path d="M412.38 468.1H361.27V490.05H412.38V468.1Z" fill="#F9F9F9"/>
<path d="M412.38 491.16H361.27C360.975 491.157 360.693 491.038 360.485 490.828C360.277 490.619 360.16 490.335 360.16 490.04V468.1C360.16 467.805 360.277 467.521 360.485 467.312C360.693 467.102 360.975 466.983 361.27 466.98H412.38C412.677 466.98 412.962 467.098 413.172 467.308C413.382 467.518 413.5 467.803 413.5 468.1V490C413.506 490.15 413.481 490.3 413.427 490.441C413.373 490.581 413.291 490.71 413.187 490.818C413.082 490.926 412.957 491.012 412.818 491.071C412.68 491.13 412.531 491.16 412.38 491.16V491.16ZM362.38 488.93H411.26V469.21H362.39L362.38 488.93Z" fill="#3A4A67"/>
<path d="M412.38 569.87H361.27V591.82H412.38V569.87Z" fill="#5ABEAE"/>
<path d="M412.38 592.93H361.27C361.124 592.93 360.98 592.901 360.845 592.845C360.711 592.789 360.588 592.708 360.485 592.605C360.382 592.502 360.3 592.379 360.245 592.245C360.189 592.11 360.16 591.966 360.16 591.82V569.87C360.16 569.575 360.277 569.293 360.485 569.085C360.693 568.877 360.976 568.76 361.27 568.76H412.38C412.675 568.76 412.959 568.876 413.169 569.084C413.378 569.292 413.498 569.574 413.5 569.87V591.82C413.498 592.115 413.378 592.397 413.169 592.605C412.959 592.813 412.675 592.93 412.38 592.93V592.93ZM362.38 590.7H411.26V571H362.39L362.38 590.7Z" fill="#3A4A67"/>
<path d="M380.069 509.48H360.309V543.1H380.069V509.48Z" fill="#F9F9F9"/>
<path d="M380.069 544.21H360.309C360.014 544.21 359.731 544.093 359.521 543.885C359.311 543.677 359.192 543.395 359.189 543.1V509.48C359.189 509.333 359.218 509.188 359.275 509.053C359.331 508.917 359.414 508.794 359.518 508.691C359.622 508.588 359.746 508.506 359.882 508.451C360.017 508.396 360.163 508.368 360.309 508.37H380.069C380.364 508.37 380.646 508.487 380.854 508.695C381.063 508.903 381.179 509.185 381.179 509.48V543.1C381.179 543.394 381.063 543.676 380.854 543.885C380.646 544.093 380.364 544.21 380.069 544.21ZM361.419 542H378.999V510.59H361.419V542Z" fill="#3A4A67"/>
<path d="M349.119 398.46V441.29H642.829V447.59H349.119V490.41H642.829V496.71H349.119V539.54H642.829V545.85H349.119V588.67H642.829V594.97H349.119V643.04H342.809V349.34H334.299V338.21H622.549V349.34H349.119V392.16H642.829V398.46H349.119Z" fill="#F9F9F9"/>
<path d="M349.109 644.16H342.809C342.66 644.159 342.512 644.127 342.375 644.068C342.237 644.009 342.113 643.922 342.01 643.814C341.906 643.706 341.825 643.578 341.772 643.438C341.719 643.299 341.694 643.149 341.7 643V350.45H334.299C334.005 350.45 333.723 350.333 333.515 350.125C333.306 349.917 333.189 349.634 333.189 349.34V338.21C333.188 338.063 333.216 337.918 333.271 337.782C333.326 337.646 333.408 337.523 333.511 337.418C333.614 337.314 333.737 337.232 333.872 337.175C334.008 337.119 334.153 337.09 334.299 337.09H622.549C622.847 337.09 623.131 337.208 623.341 337.418C623.552 337.628 623.669 337.913 623.669 338.21V349.34C623.667 349.635 623.548 349.917 623.338 350.125C623.128 350.333 622.845 350.45 622.549 350.45H350.23V391.05H642.829C643.124 391.05 643.406 391.167 643.614 391.375C643.823 391.583 643.939 391.865 643.939 392.16V398.46C643.939 398.755 643.823 399.039 643.615 399.248C643.407 399.458 643.125 399.577 642.829 399.58H350.23V440.17H642.829C643.125 440.172 643.407 440.292 643.615 440.501C643.823 440.711 643.939 440.995 643.939 441.29V447.59C643.939 447.884 643.823 448.167 643.614 448.375C643.406 448.583 643.124 448.7 642.829 448.7H350.23V489.3H642.829C643.124 489.3 643.406 489.417 643.614 489.625C643.823 489.833 643.939 490.115 643.939 490.41V496.71C643.939 497.005 643.823 497.289 643.615 497.498C643.407 497.708 643.125 497.827 642.829 497.83H350.23V538.42H642.829C643.125 538.422 643.407 538.542 643.615 538.751C643.823 538.961 643.939 539.245 643.939 539.54V545.85C643.939 546.144 643.823 546.427 643.614 546.635C643.406 546.843 643.124 546.96 642.829 546.96H350.23V587.55H642.829C643.124 587.55 643.406 587.667 643.614 587.875C643.823 588.083 643.939 588.365 643.939 588.66V595C643.939 595.295 643.823 595.579 643.615 595.788C643.407 595.998 643.125 596.117 642.829 596.12H350.23V643.12C350.209 643.403 350.082 643.668 349.874 643.861C349.667 644.054 349.393 644.161 349.109 644.16V644.16ZM343.929 641.93H347.999V595C347.999 594.705 348.116 594.423 348.325 594.215C348.533 594.007 348.815 593.89 349.109 593.89H641.719V589.81H349.109C348.814 589.807 348.532 589.688 348.324 589.478C348.116 589.269 347.999 588.985 347.999 588.69V545.85C347.999 545.555 348.116 545.271 348.324 545.061C348.532 544.852 348.814 544.732 349.109 544.73H641.719V540.65H349.109C348.815 540.65 348.533 540.533 348.325 540.325C348.116 540.117 347.999 539.834 347.999 539.54V496.71C347.999 496.415 348.116 496.133 348.325 495.925C348.533 495.717 348.815 495.6 349.109 495.6H641.719V491.53H349.109C348.814 491.527 348.532 491.408 348.324 491.198C348.116 490.989 347.999 490.705 347.999 490.41V447.59C347.999 447.295 348.116 447.011 348.324 446.801C348.532 446.592 348.814 446.472 349.109 446.47H641.719V442.4H349.109C348.815 442.4 348.533 442.283 348.325 442.075C348.116 441.867 347.999 441.584 347.999 441.29V398.46C347.999 398.165 348.116 397.883 348.325 397.675C348.533 397.467 348.815 397.35 349.109 397.35H641.719V393.28H349.109C348.814 393.277 348.532 393.158 348.324 392.948C348.116 392.739 347.999 392.455 347.999 392.16V349.34C347.999 349.045 348.116 348.761 348.324 348.551C348.532 348.342 348.814 348.222 349.109 348.22H621.439V339.32H335.439V348.22H342.839C343.137 348.22 343.421 348.338 343.631 348.548C343.841 348.758 343.959 349.043 343.959 349.34L343.929 641.93Z" fill="#3A4A67"/>
<path d="M251.641 446.65L259.271 429.11" stroke="#3A4A67" stroke-width="3" stroke-linecap="round" stroke-linejoin="round"/>
<path d="M261.48 457.53L278.12 448.1" stroke="#3A4A67" stroke-width="3" stroke-linecap="round" stroke-linejoin="round"/>
<path d="M264.02 471.64L283.09 473.18" stroke="#3A4A67" stroke-width="3" stroke-linecap="round" stroke-linejoin="round"/>
</g>
<g clip-path="url(#clip1_1485_5410)">
<path d="M197.37 17.2898C197.357 21.8065 195.552 26.1335 192.352 29.3207C189.151 32.508 184.817 34.2951 180.3 34.2898H170.54L162.54 42.2898L154.54 34.2898H146C143.726 34.3449 141.463 33.9445 139.346 33.1121C137.229 32.2798 135.299 31.0323 133.671 29.4432C132.043 27.854 130.749 25.9553 129.866 23.8587C128.982 21.762 128.527 19.5099 128.527 17.2348C128.527 14.9597 128.982 12.7076 129.866 10.6109C130.749 8.51432 132.043 6.61557 133.671 5.02642C135.299 3.43726 137.229 2.18981 139.346 1.35747C141.463 0.525137 143.726 0.124727 146 0.179805H180.3C182.546 0.178479 184.769 0.620431 186.844 1.48031C188.918 2.34019 190.802 3.60109 192.388 5.19068C193.974 6.78028 195.23 8.66731 196.085 10.7436C196.94 12.8198 197.377 15.0444 197.37 17.2898Z" fill="#DAF1ED"/>
<path d="M278.33 119.379C278.325 123.901 276.526 128.237 273.327 131.433C270.129 134.63 265.792 136.427 261.27 136.429H251.5L243.5 144.429L235.45 136.429H227C224.726 136.485 222.464 136.084 220.346 135.252C218.229 134.419 216.299 133.172 214.671 131.583C213.043 129.994 211.749 128.095 210.866 125.998C209.982 123.902 209.527 121.65 209.527 119.374C209.527 117.099 209.982 114.847 210.866 112.751C211.749 110.654 213.043 108.755 214.671 107.166C216.299 105.577 218.229 104.329 220.346 103.497C222.464 102.665 224.726 102.264 227 102.319H261.3C265.82 102.327 270.151 104.128 273.344 107.327C276.537 110.525 278.33 114.86 278.33 119.379Z" fill="#DAF1ED"/>
</g>
<defs>
<clipPath id="clip0_1485_5410">
<rect width="375" height="400" fill="white" transform="translate(0 231)"/>
</clipPath>
<clipPath id="clip1_1485_5410">
<rect width="150" height="144" fill="white" transform="translate(128)"/>
</clipPath>
</defs>
</svg>
