<svg width="150" height="144" viewBox="0 0 150 144" fill="none" xmlns="http://www.w3.org/2000/svg">
<g clip-path="url(#clip0_1389_4377)">
<path d="M69.3704 17.2898C69.3571 21.8065 67.5522 26.1335 64.3518 29.3207C61.1514 32.508 56.8171 34.2951 52.3004 34.2898H42.5403L34.5403 42.2898L26.5403 34.2898H18.0004C15.7259 34.3449 13.4635 33.9445 11.3461 33.1121C9.22868 32.2798 7.29912 31.0323 5.67102 29.4432C4.04292 27.854 2.74914 25.9553 1.86578 23.8587C0.98243 21.762 0.527344 19.5099 0.527344 17.2348C0.527344 14.9597 0.98243 12.7076 1.86578 10.6109C2.74914 8.51432 4.04292 6.61557 5.67102 5.02642C7.29912 3.43726 9.22868 2.18981 11.3461 1.35747C13.4635 0.525137 15.7259 0.124727 18.0004 0.179805H52.3004C54.5458 0.178479 56.7693 0.620431 58.8436 1.48031C60.9178 2.34019 62.8019 3.60109 64.3878 5.19068C65.9737 6.78028 67.2302 8.66731 68.0852 10.7436C68.9402 12.8198 69.3769 15.0444 69.3704 17.2898V17.2898Z" fill="#DAF1ED"/>
<path d="M150.33 119.379C150.325 123.901 148.526 128.237 145.327 131.433C142.129 134.63 137.792 136.427 133.27 136.429H123.5L115.5 144.429L107.45 136.429H99.0004C96.7259 136.485 94.4635 136.084 92.3461 135.252C90.2287 134.419 88.2991 133.172 86.671 131.583C85.0429 129.994 83.7491 128.095 82.8658 125.998C81.9824 123.902 81.5273 121.65 81.5273 119.374C81.5273 117.099 81.9824 114.847 82.8658 112.751C83.7491 110.654 85.0429 108.755 86.671 107.166C88.2991 105.577 90.2287 104.329 92.3461 103.497C94.4635 102.665 96.7259 102.264 99.0004 102.319H133.3C137.82 102.327 142.151 104.128 145.344 107.327C148.537 110.525 150.33 114.86 150.33 119.379V119.379Z" fill="#DAF1ED"/>
</g>
<defs>
<clipPath id="clip0_1389_4377">
<rect width="150" height="144" fill="white"/>
</clipPath>
</defs>
</svg>
