<svg width="484" height="144" viewBox="0 0 484 144" fill="none" xmlns="http://www.w3.org/2000/svg">
<g clip-path="url(#clip0_1385_4272)">
<path d="M85.63 55.75C85.6287 58.5747 85.071 61.3715 83.9888 63.9807C82.9066 66.59 81.3211 68.9605 79.3228 70.9569C77.3245 72.9534 74.9525 74.5367 72.3423 75.6165C69.732 76.6962 66.9347 77.2513 64.11 77.25H53.4099L43.26 87.4L33.11 77.25H22.41C19.5314 77.3378 16.6645 76.8467 13.9792 75.8057C11.294 74.7647 8.84519 73.1951 6.77795 71.19C4.71072 69.1848 3.06718 66.785 1.94482 64.1328C0.822469 61.4805 0.244141 58.6299 0.244141 55.75C0.244141 52.8701 0.822469 50.0194 1.94482 47.3672C3.06718 44.715 4.71072 42.3151 6.77795 40.31C8.84519 38.3049 11.294 36.7353 13.9792 35.6943C16.6645 34.6533 19.5314 34.1622 22.41 34.25H64.11C66.9347 34.2487 69.732 34.8037 72.3423 35.8835C74.9525 36.9633 77.3245 38.5466 79.3228 40.5431C81.3211 42.5395 82.9066 44.91 83.9888 47.5192C85.071 50.1284 85.6287 52.9253 85.63 55.75V55.75Z" fill="#DAF1ED"/>
<path d="M403.37 17.2901C403.357 21.8068 401.552 26.1337 398.352 29.321C395.151 32.5082 390.817 34.2954 386.3 34.2901H376.54L368.54 42.2901L360.54 34.2901H352C349.726 34.3451 347.463 33.9447 345.346 33.1124C343.229 32.28 341.299 31.0326 339.671 29.4434C338.043 27.8543 336.749 25.9555 335.866 23.8589C334.982 21.7623 334.527 19.5102 334.527 17.2351C334.527 14.9599 334.982 12.7078 335.866 10.6112C336.749 8.51457 338.043 6.61581 339.671 5.02666C341.299 3.43751 343.229 2.19006 345.346 1.35772C347.463 0.525381 349.726 0.124971 352 0.180049H386.3C388.546 0.178723 390.769 0.620675 392.844 1.48056C394.918 2.34044 396.802 3.60133 398.388 5.19093C399.974 6.78053 401.23 8.66756 402.085 10.7438C402.94 12.82 403.377 15.0447 403.37 17.2901V17.2901Z" fill="#DAF1ED"/>
<path d="M484.33 119.38C484.325 123.902 482.526 128.237 479.327 131.434C476.129 134.63 471.792 136.427 467.27 136.43H457.5L449.5 144.43L441.45 136.43H433C430.726 136.485 428.463 136.085 426.346 135.252C424.229 134.42 422.299 133.172 420.671 131.583C419.043 129.994 417.749 128.095 416.866 125.999C415.982 123.902 415.527 121.65 415.527 119.375C415.527 117.1 415.982 114.848 416.866 112.751C417.749 110.654 419.043 108.756 420.671 107.167C422.299 105.577 424.229 104.33 426.346 103.498C428.463 102.665 430.726 102.265 433 102.32H467.3C471.82 102.328 476.151 104.129 479.344 107.327C482.537 110.526 484.33 114.861 484.33 119.38V119.38Z" fill="#DAF1ED"/>
</g>
<defs>
<clipPath id="clip0_1385_4272">
<rect width="484" height="144" fill="white"/>
</clipPath>
</defs>
</svg>
