<svg width="394" height="396" viewBox="0 0 394 396" fill="none" xmlns="http://www.w3.org/2000/svg">
<g clip-path="url(#clip0_1385_4167)">
<path d="M238.261 378.23H169.471V407.77H238.261V378.23Z" fill="#F9F9F9" stroke="#3A4A67" stroke-width="3" stroke-linecap="round" stroke-linejoin="round"/>
<path d="M361.55 378.23H292.76V407.77H361.55V378.23Z" fill="#5ABEAE" stroke="#3A4A67" stroke-width="3" stroke-linecap="round" stroke-linejoin="round"/>
<path d="M436.761 378.23H367.971V407.77H436.761V378.23Z" fill="#5ABEAE" stroke="#3A4A67" stroke-width="3" stroke-linecap="round" stroke-linejoin="round"/>
<path d="M496.831 18.1201H144.631V413.43H496.831V18.1201Z" stroke="#3A4A67" stroke-width="3" stroke-linecap="round" stroke-linejoin="round"/>
<path d="M238.261 46.0601H169.471V75.6001H238.261V46.0601Z" fill="#F9F9F9" stroke="#3A4A67" stroke-width="3" stroke-linecap="round" stroke-linejoin="round"/>
<path d="M374.85 46.0601H306.061V75.6001H374.85V46.0601Z" fill="#5ABEAE" stroke="#3A4A67" stroke-width="3" stroke-linecap="round" stroke-linejoin="round"/>
<path d="M274.26 30.3501H247.66V75.6001H274.26V30.3501Z" fill="#F9F9F9" stroke="#3A4A67" stroke-width="3" stroke-linecap="round" stroke-linejoin="round"/>
<path d="M264.17 96.54H237.57V141.79H264.17V96.54Z" fill="#5ABEAE" stroke="#3A4A67" stroke-width="3" stroke-linecap="round" stroke-linejoin="round"/>
<path d="M221.37 96.54H194.77V141.79H221.37V96.54Z" fill="#F9F9F9" stroke="#3A4A67" stroke-width="3" stroke-linecap="round" stroke-linejoin="round"/>
<path d="M297.35 96.54H270.75V141.79H297.35V96.54Z" fill="#5ABEAE" stroke="#3A4A67" stroke-width="3" stroke-linecap="round" stroke-linejoin="round"/>
<path d="M330.36 96.54H303.76V141.79H330.36V96.54Z" fill="#F9F9F9" stroke="#3A4A67" stroke-width="3" stroke-linecap="round" stroke-linejoin="round"/>
<path d="M373.17 110.61H346.57V141.79H373.17V110.61Z" fill="#F9F9F9" stroke="#3A4A67" stroke-width="3" stroke-linecap="round" stroke-linejoin="round"/>
<path d="M194.77 110.61H168.17V141.79H194.77V110.61Z" fill="#F9F9F9" stroke="#3A4A67" stroke-width="3" stroke-linecap="round" stroke-linejoin="round"/>
<path d="M407.1 101.43H380.5V141.79H407.1V101.43Z" fill="#F9F9F9" stroke="#3A4A67" stroke-width="3" stroke-linecap="round" stroke-linejoin="round"/>
<path d="M238.261 177.96H169.471V207.5H238.261V177.96Z" fill="#F9F9F9" stroke="#3A4A67" stroke-width="3" stroke-linecap="round" stroke-linejoin="round"/>
<path d="M409.239 177.96H340.449V207.5H409.239V177.96Z" fill="#F9F9F9" stroke="#3A4A67" stroke-width="3" stroke-linecap="round" stroke-linejoin="round"/>
<path d="M285.69 176.32H259.09V207.5H285.69V176.32Z" fill="#5ABEAE" stroke="#3A4A67" stroke-width="3" stroke-linecap="round" stroke-linejoin="round"/>
<path d="M319.629 167.14H293.029V207.5H319.629V167.14Z" fill="#F9F9F9" stroke="#3A4A67" stroke-width="3" stroke-linecap="round" stroke-linejoin="round"/>
<path d="M300.94 247.18H274.34V278.36H300.94V247.18Z" fill="#F9F9F9" stroke="#3A4A67" stroke-width="3" stroke-linecap="round" stroke-linejoin="round"/>
<path d="M374.85 247.18H348.25V278.36H374.85V247.18Z" fill="#5ABEAE" stroke="#3A4A67" stroke-width="3" stroke-linecap="round" stroke-linejoin="round"/>
<path d="M409.241 247.18H382.641V278.36H409.241V247.18Z" fill="#F9F9F9" stroke="#3A4A67" stroke-width="3" stroke-linecap="round" stroke-linejoin="round"/>
<path d="M334.87 233.66H308.27V274.02H334.87V233.66Z" fill="#F9F9F9" stroke="#3A4A67" stroke-width="3" stroke-linecap="round" stroke-linejoin="round"/>
<path d="M238.261 314.95H169.471V344.49H238.261V314.95Z" fill="#5ABEAE" stroke="#3A4A67" stroke-width="3" stroke-linecap="round" stroke-linejoin="round"/>
<path d="M272.62 299.24H246.02V344.49H272.62V299.24Z" fill="#F9F9F9" stroke="#3A4A67" stroke-width="3" stroke-linecap="round" stroke-linejoin="round"/>
<path d="M305.79 299.24H279.189V344.49H305.79V299.24Z" fill="#F9F9F9" stroke="#3A4A67" stroke-width="3" stroke-linecap="round" stroke-linejoin="round"/>
<path d="M338.811 299.24H312.211V344.49H338.811V299.24Z" fill="#F9F9F9" stroke="#3A4A67" stroke-width="3" stroke-linecap="round" stroke-linejoin="round"/>
<path d="M194.77 233.66H168.17V278.91H194.77V233.66Z" fill="#F9F9F9" stroke="#3A4A67" stroke-width="3" stroke-linecap="round" stroke-linejoin="round"/>
<path d="M227.94 233.66H201.34V278.91H227.94V233.66Z" fill="#F9F9F9" stroke="#3A4A67" stroke-width="3" stroke-linecap="round" stroke-linejoin="round"/>
<path d="M260.959 233.66H234.359V278.91H260.959V233.66Z" fill="#5ABEAE" stroke="#3A4A67" stroke-width="3" stroke-linecap="round" stroke-linejoin="round"/>
<path d="M373.17 313.3H346.57V344.48H373.17V313.3Z" fill="#F9F9F9" stroke="#3A4A67" stroke-width="3" stroke-linecap="round" stroke-linejoin="round"/>
<path d="M407.1 304.13H380.5V344.49H407.1V304.13Z" fill="#F9F9F9" stroke="#3A4A67" stroke-width="3" stroke-linecap="round" stroke-linejoin="round"/>
<path d="M264.86 368.94H238.26V400.12H264.86V368.94Z" fill="#F9F9F9" stroke="#3A4A67" stroke-width="3" stroke-linecap="round" stroke-linejoin="round"/>
<path d="M55.5494 484.73C11.1419 412.764 -5.79607 327.186 7.84937 243.73C8.78937 290.73 19.0094 325.04 28.4894 348.04C37.4894 369.9 46.3494 382.78 55.5494 410.87C63.2615 434.501 68.034 458.992 69.7594 483.79" fill="#F9F9F9"/>
<path d="M55.5494 484.73C11.1419 412.764 -5.79607 327.186 7.84937 243.73C8.78937 290.73 19.0094 325.04 28.4894 348.04C37.4894 369.9 46.3494 382.78 55.5494 410.87C63.2615 434.501 68.034 458.992 69.7594 483.79" stroke="#3A4A67" stroke-width="3" stroke-linecap="round" stroke-linejoin="round"/>
<path d="M88.0598 479.26C119.198 400.648 120.92 313.44 92.9097 233.66C100.21 280.14 96.1397 315.66 90.8197 339.98C85.7597 363.08 79.2997 377.3 75.1597 406.56C71.6894 431.174 71.2662 456.122 73.8997 480.84" fill="#F9F9F9"/>
<path d="M88.0598 479.26C119.198 400.648 120.92 313.44 92.9097 233.66C100.21 280.14 96.1397 315.66 90.8197 339.98C85.7597 363.08 79.2997 377.3 75.1597 406.56C71.6894 431.174 71.2662 456.122 73.8997 480.84" stroke="#3A4A67" stroke-width="3" stroke-linecap="round" stroke-linejoin="round"/>
<path d="M76.2901 460.75C83.7829 435.719 87.6258 409.738 87.7 383.61C87.7 343.99 78.5401 324.72 77.3801 278.36C76.8545 257.222 78.1123 236.077 81.1401 215.15C59.8901 258.89 56.2001 293.82 56.7401 317.57C57.2501 339.86 61.4901 353.05 63.3901 388.05C64.7337 412.808 64.3126 437.631 62.1301 462.33" fill="#F9F9F9"/>
<path d="M76.2901 460.75C83.7829 435.719 87.6258 409.738 87.7 383.61C87.7 343.99 78.5401 324.72 77.3801 278.36C76.8545 257.222 78.1123 236.077 81.1401 215.15C59.8901 258.89 56.2001 293.82 56.7401 317.57C57.2501 339.86 61.4901 353.05 63.3901 388.05C64.7337 412.808 64.3126 437.631 62.1301 462.33" stroke="#3A4A67" stroke-width="3" stroke-linecap="round" stroke-linejoin="round"/>
<path d="M66.7903 471.4C39.7903 427.82 35.0803 393.2 35.7903 369.59C36.3203 351.59 39.9402 343.31 40.6202 324.07C42.0202 284.3 29.2502 251.44 17.4902 229.07C58.2002 272.23 67.7302 307.85 68.8702 332.47C69.7102 350.6 65.9703 362.33 66.8003 390.94C67.5974 417.439 71.8328 443.722 79.4003 469.13" fill="#F9F9F9"/>
<path d="M66.7903 471.4C39.7903 427.82 35.0803 393.2 35.7903 369.59C36.3203 351.59 39.9402 343.31 40.6202 324.07C42.0202 284.3 29.2502 251.44 17.4902 229.07C58.2002 272.23 67.7302 307.85 68.8702 332.47C69.7102 350.6 65.9703 362.33 66.8003 390.94C67.5974 417.439 71.8328 443.722 79.4003 469.13" stroke="#3A4A67" stroke-width="3" stroke-linecap="round" stroke-linejoin="round"/>
<path d="M340.449 46.0601V75.6001" stroke="#3A4A67" stroke-width="3" stroke-linecap="round" stroke-linejoin="round"/>
<path d="M153.11 84.2401V141.88H548.43V150.36H153.11V208H548.43V216.48H153.11V274.12H548.43V282.61H153.11V340.24H548.43V348.73H153.11V413.43H144.63V18.1201H133.17V3.14014H521.14V18.1201H153.11V75.7601H548.43V84.2401H153.11Z" fill="#F9F9F9" stroke="#3A4A67" stroke-width="3" stroke-linecap="round" stroke-linejoin="round"/>
<path d="M451.26 222.19V296.43H444.96V228.5H354.57V222.19H451.26Z" fill="#F9F9F9"/>
<path d="M451.26 297.55H445C444.705 297.547 444.423 297.428 444.215 297.219C444.007 297.009 443.89 296.725 443.89 296.43V229.61H354.61C354.315 229.61 354.032 229.493 353.822 229.286C353.612 229.078 353.493 228.795 353.49 228.5V222.19C353.493 221.895 353.612 221.612 353.822 221.405C354.032 221.197 354.315 221.08 354.61 221.08H451.3C451.596 221.08 451.879 221.197 452.089 221.405C452.299 221.612 452.418 221.895 452.42 222.19V296.43C452.42 296.581 452.39 296.73 452.331 296.868C452.273 297.007 452.187 297.132 452.078 297.237C451.97 297.341 451.842 297.423 451.701 297.477C451.561 297.53 451.411 297.555 451.26 297.55ZM446.08 295.32H450.15V223.32H355.68V227.39H445C445.297 227.39 445.582 227.508 445.792 227.718C446.002 227.928 446.12 228.213 446.12 228.51L446.08 295.32Z" fill="#3A4A67"/>
<path d="M377.78 247.41H358.02V281.03H377.78V247.41Z" fill="#5ABEAE"/>
<path d="M377.781 282.15H358.001C357.704 282.15 357.419 282.032 357.209 281.822C356.999 281.612 356.881 281.327 356.881 281.03V247.41C356.883 247.115 357.003 246.833 357.212 246.625C357.422 246.417 357.706 246.3 358.001 246.3H377.761C378.056 246.3 378.34 246.417 378.549 246.625C378.759 246.833 378.878 247.115 378.881 247.41V281C378.885 281.148 378.86 281.295 378.806 281.434C378.753 281.572 378.673 281.698 378.571 281.805C378.468 281.912 378.346 281.997 378.21 282.057C378.075 282.116 377.929 282.148 377.781 282.15V282.15ZM359.131 279.92H376.671V248.53H359.131V279.92Z" fill="#3A4A67"/>
<path d="M402.43 247.41H382.67V281.03H402.43V247.41Z" fill="#F9F9F9"/>
<path d="M402.431 282.15H382.671C382.374 282.15 382.089 282.032 381.879 281.822C381.669 281.612 381.551 281.327 381.551 281.03V247.41C381.553 247.115 381.673 246.833 381.882 246.625C382.092 246.417 382.375 246.3 382.671 246.3H402.431C402.725 246.3 403.007 246.417 403.216 246.625C403.424 246.834 403.541 247.116 403.541 247.41V281C403.545 281.149 403.519 281.297 403.465 281.436C403.411 281.574 403.33 281.701 403.227 281.808C403.124 281.915 403 282.001 402.863 282.059C402.727 282.118 402.58 282.149 402.431 282.15ZM383.781 279.92H401.311V248.53H383.781V279.92Z" fill="#3A4A67"/>
<path d="M445 297.55H354.61C354.313 297.55 354.028 297.432 353.818 297.222C353.608 297.012 353.49 296.727 353.49 296.43V228.5C353.49 228.203 353.608 227.918 353.818 227.708C354.028 227.498 354.313 227.38 354.61 227.38H445C445.297 227.38 445.582 227.498 445.792 227.708C446.002 227.918 446.12 228.203 446.12 228.5V296.43C446.12 296.727 446.002 297.012 445.792 297.222C445.582 297.432 445.297 297.55 445 297.55V297.55ZM355.72 295.32H443.89V229.61H355.72V295.32Z" fill="#3A4A67"/>
</g>
<defs>
<clipPath id="clip0_1385_4167">
<rect width="394" height="396" fill="white"/>
</clipPath>
</defs>
</svg>
