<svg width="391" height="393" viewBox="0 0 391 393" fill="none" xmlns="http://www.w3.org/2000/svg">
<g clip-path="url(#clip0_1385_4167)">
<path d="M235.261 375.23H166.471V404.77H235.261V375.23Z" fill="#F9F9F9" stroke="#3A4A67" stroke-width="3" stroke-linecap="round" stroke-linejoin="round"/>
<path d="M358.55 375.23H289.76V404.77H358.55V375.23Z" fill="#5ABEAE" stroke="#3A4A67" stroke-width="3" stroke-linecap="round" stroke-linejoin="round"/>
<path d="M433.761 375.23H364.971V404.77H433.761V375.23Z" fill="#5ABEAE" stroke="#3A4A67" stroke-width="3" stroke-linecap="round" stroke-linejoin="round"/>
<path d="M493.831 15.1201H141.631V410.43H493.831V15.1201Z" stroke="#3A4A67" stroke-width="3" stroke-linecap="round" stroke-linejoin="round"/>
<path d="M235.261 43.0601H166.471V72.6001H235.261V43.0601Z" fill="#F9F9F9" stroke="#3A4A67" stroke-width="3" stroke-linecap="round" stroke-linejoin="round"/>
<path d="M371.85 43.0601H303.061V72.6001H371.85V43.0601Z" fill="#5ABEAE" stroke="#3A4A67" stroke-width="3" stroke-linecap="round" stroke-linejoin="round"/>
<path d="M271.26 27.3501H244.66V72.6001H271.26V27.3501Z" fill="#F9F9F9" stroke="#3A4A67" stroke-width="3" stroke-linecap="round" stroke-linejoin="round"/>
<path d="M261.17 93.54H234.57V138.79H261.17V93.54Z" fill="#5ABEAE" stroke="#3A4A67" stroke-width="3" stroke-linecap="round" stroke-linejoin="round"/>
<path d="M218.37 93.54H191.77V138.79H218.37V93.54Z" fill="#F9F9F9" stroke="#3A4A67" stroke-width="3" stroke-linecap="round" stroke-linejoin="round"/>
<path d="M294.35 93.54H267.75V138.79H294.35V93.54Z" fill="#5ABEAE" stroke="#3A4A67" stroke-width="3" stroke-linecap="round" stroke-linejoin="round"/>
<path d="M327.36 93.54H300.76V138.79H327.36V93.54Z" fill="#F9F9F9" stroke="#3A4A67" stroke-width="3" stroke-linecap="round" stroke-linejoin="round"/>
<path d="M370.17 107.61H343.57V138.79H370.17V107.61Z" fill="#F9F9F9" stroke="#3A4A67" stroke-width="3" stroke-linecap="round" stroke-linejoin="round"/>
<path d="M191.77 107.61H165.17V138.79H191.77V107.61Z" fill="#F9F9F9" stroke="#3A4A67" stroke-width="3" stroke-linecap="round" stroke-linejoin="round"/>
<path d="M404.1 98.4302H377.5V138.79H404.1V98.4302Z" fill="#F9F9F9" stroke="#3A4A67" stroke-width="3" stroke-linecap="round" stroke-linejoin="round"/>
<path d="M235.261 174.96H166.471V204.5H235.261V174.96Z" fill="#F9F9F9" stroke="#3A4A67" stroke-width="3" stroke-linecap="round" stroke-linejoin="round"/>
<path d="M406.239 174.96H337.449V204.5H406.239V174.96Z" fill="#F9F9F9" stroke="#3A4A67" stroke-width="3" stroke-linecap="round" stroke-linejoin="round"/>
<path d="M282.69 173.32H256.09V204.5H282.69V173.32Z" fill="#5ABEAE" stroke="#3A4A67" stroke-width="3" stroke-linecap="round" stroke-linejoin="round"/>
<path d="M316.629 164.14H290.029V204.5H316.629V164.14Z" fill="#F9F9F9" stroke="#3A4A67" stroke-width="3" stroke-linecap="round" stroke-linejoin="round"/>
<path d="M297.94 244.18H271.34V275.36H297.94V244.18Z" fill="#F9F9F9" stroke="#3A4A67" stroke-width="3" stroke-linecap="round" stroke-linejoin="round"/>
<path d="M371.85 244.18H345.25V275.36H371.85V244.18Z" fill="#5ABEAE" stroke="#3A4A67" stroke-width="3" stroke-linecap="round" stroke-linejoin="round"/>
<path d="M406.241 244.18H379.641V275.36H406.241V244.18Z" fill="#F9F9F9" stroke="#3A4A67" stroke-width="3" stroke-linecap="round" stroke-linejoin="round"/>
<path d="M331.87 230.66H305.27V271.02H331.87V230.66Z" fill="#F9F9F9" stroke="#3A4A67" stroke-width="3" stroke-linecap="round" stroke-linejoin="round"/>
<path d="M235.261 311.95H166.471V341.49H235.261V311.95Z" fill="#5ABEAE" stroke="#3A4A67" stroke-width="3" stroke-linecap="round" stroke-linejoin="round"/>
<path d="M269.62 296.24H243.02V341.49H269.62V296.24Z" fill="#F9F9F9" stroke="#3A4A67" stroke-width="3" stroke-linecap="round" stroke-linejoin="round"/>
<path d="M302.79 296.24H276.189V341.49H302.79V296.24Z" fill="#F9F9F9" stroke="#3A4A67" stroke-width="3" stroke-linecap="round" stroke-linejoin="round"/>
<path d="M335.811 296.24H309.211V341.49H335.811V296.24Z" fill="#F9F9F9" stroke="#3A4A67" stroke-width="3" stroke-linecap="round" stroke-linejoin="round"/>
<path d="M191.77 230.66H165.17V275.91H191.77V230.66Z" fill="#F9F9F9" stroke="#3A4A67" stroke-width="3" stroke-linecap="round" stroke-linejoin="round"/>
<path d="M224.94 230.66H198.34V275.91H224.94V230.66Z" fill="#F9F9F9" stroke="#3A4A67" stroke-width="3" stroke-linecap="round" stroke-linejoin="round"/>
<path d="M257.959 230.66H231.359V275.91H257.959V230.66Z" fill="#5ABEAE" stroke="#3A4A67" stroke-width="3" stroke-linecap="round" stroke-linejoin="round"/>
<path d="M370.17 310.3H343.57V341.48H370.17V310.3Z" fill="#F9F9F9" stroke="#3A4A67" stroke-width="3" stroke-linecap="round" stroke-linejoin="round"/>
<path d="M404.1 301.13H377.5V341.49H404.1V301.13Z" fill="#F9F9F9" stroke="#3A4A67" stroke-width="3" stroke-linecap="round" stroke-linejoin="round"/>
<path d="M261.86 365.94H235.26V397.12H261.86V365.94Z" fill="#F9F9F9" stroke="#3A4A67" stroke-width="3" stroke-linecap="round" stroke-linejoin="round"/>
<path d="M52.5494 481.73C8.14193 409.764 -8.79607 324.186 4.84937 240.73C5.78937 287.73 16.0094 322.04 25.4894 345.04C34.4894 366.9 43.3494 379.78 52.5494 407.87C60.2615 431.501 65.034 455.992 66.7594 480.79" fill="#F9F9F9"/>
<path d="M52.5494 481.73C8.14193 409.764 -8.79607 324.186 4.84937 240.73C5.78937 287.73 16.0094 322.04 25.4894 345.04C34.4894 366.9 43.3494 379.78 52.5494 407.87C60.2615 431.501 65.034 455.992 66.7594 480.79" stroke="#3A4A67" stroke-width="3" stroke-linecap="round" stroke-linejoin="round"/>
<path d="M85.0598 476.26C116.198 397.648 117.92 310.44 89.9097 230.66C97.2097 277.14 93.1397 312.66 87.8197 336.98C82.7597 360.08 76.2997 374.3 72.1597 403.56C68.6894 428.174 68.2662 453.122 70.8997 477.84" fill="#F9F9F9"/>
<path d="M85.0598 476.26C116.198 397.648 117.92 310.44 89.9097 230.66C97.2097 277.14 93.1397 312.66 87.8197 336.98C82.7597 360.08 76.2997 374.3 72.1597 403.56C68.6894 428.174 68.2662 453.122 70.8997 477.84" stroke="#3A4A67" stroke-width="3" stroke-linecap="round" stroke-linejoin="round"/>
<path d="M73.2901 457.75C80.7829 432.719 84.6258 406.738 84.7 380.61C84.7 340.99 75.5401 321.72 74.3801 275.36C73.8545 254.222 75.1123 233.077 78.1401 212.15C56.8901 255.89 53.2001 290.82 53.7401 314.57C54.2501 336.86 58.4901 350.05 60.3901 385.05C61.7337 409.808 61.3126 434.631 59.1301 459.33" fill="#F9F9F9"/>
<path d="M73.2901 457.75C80.7829 432.719 84.6258 406.738 84.7 380.61C84.7 340.99 75.5401 321.72 74.3801 275.36C73.8545 254.222 75.1123 233.077 78.1401 212.15C56.8901 255.89 53.2001 290.82 53.7401 314.57C54.2501 336.86 58.4901 350.05 60.3901 385.05C61.7337 409.808 61.3126 434.631 59.1301 459.33" stroke="#3A4A67" stroke-width="3" stroke-linecap="round" stroke-linejoin="round"/>
<path d="M63.7903 468.4C36.7903 424.82 32.0803 390.2 32.7903 366.59C33.3203 348.59 36.9402 340.31 37.6202 321.07C39.0202 281.3 26.2502 248.44 14.4902 226.07C55.2002 269.23 64.7302 304.85 65.8702 329.47C66.7102 347.6 62.9703 359.33 63.8003 387.94C64.5974 414.439 68.8328 440.722 76.4003 466.13" fill="#F9F9F9"/>
<path d="M63.7903 468.4C36.7903 424.82 32.0803 390.2 32.7903 366.59C33.3203 348.59 36.9402 340.31 37.6202 321.07C39.0202 281.3 26.2502 248.44 14.4902 226.07C55.2002 269.23 64.7302 304.85 65.8702 329.47C66.7102 347.6 62.9703 359.33 63.8003 387.94C64.5974 414.439 68.8328 440.722 76.4003 466.13" stroke="#3A4A67" stroke-width="3" stroke-linecap="round" stroke-linejoin="round"/>
<path d="M337.449 43.0601V72.6001" stroke="#3A4A67" stroke-width="3" stroke-linecap="round" stroke-linejoin="round"/>
<path d="M150.11 81.2401V138.88H545.43V147.36H150.11V205H545.43V213.48H150.11V271.12H545.43V279.61H150.11V337.24H545.43V345.73H150.11V410.43H141.63V15.1201H130.17V0.140137H518.14V15.1201H150.11V72.7601H545.43V81.2401H150.11Z" fill="#F9F9F9" stroke="#3A4A67" stroke-width="3" stroke-linecap="round" stroke-linejoin="round"/>
<path d="M448.26 219.19V293.43H441.96V225.5H351.57V219.19H448.26Z" fill="#F9F9F9"/>
<path d="M448.26 294.55H442C441.705 294.547 441.423 294.428 441.215 294.219C441.007 294.009 440.89 293.725 440.89 293.43V226.61H351.61C351.315 226.61 351.032 226.493 350.822 226.286C350.612 226.078 350.493 225.795 350.49 225.5V219.19C350.493 218.895 350.612 218.612 350.822 218.405C351.032 218.197 351.315 218.08 351.61 218.08H448.3C448.596 218.08 448.879 218.197 449.089 218.405C449.299 218.612 449.418 218.895 449.42 219.19V293.43C449.42 293.581 449.39 293.73 449.331 293.868C449.273 294.007 449.187 294.132 449.078 294.237C448.97 294.341 448.842 294.423 448.701 294.477C448.561 294.53 448.411 294.555 448.26 294.55ZM443.08 292.32H447.15V220.32H352.68V224.39H442C442.297 224.39 442.582 224.508 442.792 224.718C443.002 224.928 443.12 225.213 443.12 225.51L443.08 292.32Z" fill="#3A4A67"/>
<path d="M374.78 244.41H355.02V278.03H374.78V244.41Z" fill="#5ABEAE"/>
<path d="M374.781 279.15H355.001C354.704 279.15 354.419 279.032 354.209 278.822C353.999 278.612 353.881 278.327 353.881 278.03V244.41C353.883 244.115 354.003 243.833 354.212 243.625C354.422 243.417 354.706 243.3 355.001 243.3H374.761C375.056 243.3 375.34 243.417 375.549 243.625C375.759 243.833 375.878 244.115 375.881 244.41V278C375.885 278.148 375.86 278.295 375.806 278.434C375.753 278.572 375.673 278.698 375.571 278.805C375.468 278.912 375.346 278.997 375.21 279.057C375.075 279.116 374.929 279.148 374.781 279.15V279.15ZM356.131 276.92H373.671V245.53H356.131V276.92Z" fill="#3A4A67"/>
<path d="M399.43 244.41H379.67V278.03H399.43V244.41Z" fill="#F9F9F9"/>
<path d="M399.431 279.15H379.671C379.374 279.15 379.089 279.032 378.879 278.822C378.669 278.612 378.551 278.327 378.551 278.03V244.41C378.553 244.115 378.673 243.833 378.882 243.625C379.092 243.417 379.375 243.3 379.671 243.3H399.431C399.725 243.3 400.007 243.417 400.216 243.625C400.424 243.834 400.541 244.116 400.541 244.41V278C400.545 278.149 400.519 278.297 400.465 278.436C400.411 278.574 400.33 278.701 400.227 278.808C400.124 278.915 400 279.001 399.863 279.059C399.727 279.118 399.58 279.149 399.431 279.15ZM380.781 276.92H398.311V245.53H380.781V276.92Z" fill="#3A4A67"/>
<path d="M442 294.55H351.61C351.313 294.55 351.028 294.432 350.818 294.222C350.608 294.012 350.49 293.727 350.49 293.43V225.5C350.49 225.203 350.608 224.918 350.818 224.708C351.028 224.498 351.313 224.38 351.61 224.38H442C442.297 224.38 442.582 224.498 442.792 224.708C443.002 224.918 443.12 225.203 443.12 225.5V293.43C443.12 293.727 443.002 294.012 442.792 294.222C442.582 294.432 442.297 294.55 442 294.55V294.55ZM352.72 292.32H440.89V226.61H352.72V292.32Z" fill="#3A4A67"/>
</g>
<defs>
<clipPath id="clip0_1385_4167">
<rect width="391" height="393" fill="white"/>
</clipPath>
</defs>
</svg>
