<svg width="343" height="242" viewBox="0 0 343 242" fill="none" xmlns="http://www.w3.org/2000/svg">
<g clip-path="url(#clip0_1353_4359)">
<path d="M343 0H0V242H343V0Z" fill="#F9F9F9"/>
<path d="M206.41 23.69C206.41 26.0178 205.951 28.3229 205.06 30.4734C204.169 32.624 202.863 34.5779 201.216 36.2234C199.569 37.869 197.615 39.1741 195.464 40.064C193.313 40.9539 191.007 41.4113 188.68 41.41H179.86L171.5 49.78L163.14 41.41H154.32C149.62 41.41 145.113 39.543 141.79 36.2199C138.467 32.8968 136.6 28.3896 136.6 23.69C136.6 18.9903 138.467 14.4832 141.79 11.16C145.113 7.8369 149.62 5.96997 154.32 5.96997H188.68C191.007 5.96866 193.313 6.42603 195.464 7.31596C197.615 8.20588 199.569 9.51092 201.216 11.1565C202.863 12.8021 204.169 14.756 205.06 16.9065C205.951 19.0571 206.41 21.3621 206.41 23.69Z" fill="#5ABEAE" stroke="#3A4A67" stroke-width="2" stroke-linecap="round" stroke-linejoin="round"/>
<path d="M210.069 69.0701H133.859V204.94H210.069V69.0701Z" fill="#5ABEAE" stroke="#3A4A67" stroke-width="2" stroke-linecap="round" stroke-linejoin="round"/>
<path d="M124.869 132.18H124.149C123.182 132.183 122.248 132.531 121.514 133.162C120.781 133.792 120.297 134.664 120.149 135.62L113.509 178.62C112.611 184.454 112.848 190.406 114.209 196.15L119.379 217.95C120.989 224.719 121.05 231.764 119.559 238.56L108.109 290.89L181.669 304.28L205.099 204.98H133.859V141.17C133.857 138.786 132.909 136.501 131.223 134.816C129.538 133.131 127.253 132.183 124.869 132.18V132.18Z" stroke="#3A4A67" stroke-width="2" stroke-linecap="round" stroke-linejoin="round"/>
<path d="M200.015 184.666L214.589 180.714C216.225 180.271 217.97 180.495 219.44 181.338C220.91 182.181 221.985 183.574 222.429 185.209L223.112 187.728C223.656 189.735 223.38 191.876 222.346 193.68C221.312 195.484 219.603 196.803 217.596 197.347L204.422 200.919C202.267 201.503 199.968 201.207 198.03 200.097C196.093 198.986 194.676 197.151 194.092 194.995C193.508 192.84 193.803 190.541 194.914 188.604C196.025 186.667 197.86 185.25 200.015 184.666Z" fill="white" stroke="#3A4A67" stroke-width="2" stroke-linecap="round" stroke-linejoin="round"/>
<path d="M198.736 168.02L213.599 163.99C214.371 163.781 215.177 163.726 215.97 163.828C216.763 163.93 217.529 164.187 218.222 164.585C218.916 164.983 219.525 165.513 220.013 166.146C220.502 166.779 220.861 167.503 221.071 168.274L222.162 172.299C222.618 173.981 222.387 175.775 221.52 177.287C220.654 178.798 219.222 179.903 217.54 180.359L203.14 184.264C200.985 184.848 198.686 184.552 196.748 183.442C194.811 182.331 193.395 180.496 192.81 178.341C192.229 176.186 192.526 173.889 193.637 171.954C194.749 170.019 196.582 168.604 198.736 168.02Z" fill="white" stroke="#3A4A67" stroke-width="2" stroke-linecap="round" stroke-linejoin="round"/>
<path d="M197.69 151.201L212.776 147.111C213.519 146.91 214.294 146.857 215.057 146.955C215.82 147.053 216.557 147.3 217.224 147.683C217.892 148.066 218.477 148.577 218.948 149.186C219.418 149.795 219.764 150.491 219.965 151.233L221.229 155.895C221.65 157.469 221.43 159.146 220.616 160.557C219.802 161.969 218.461 163 216.888 163.423L202.092 167.435C199.937 168.019 197.637 167.724 195.7 166.613C193.763 165.502 192.346 163.667 191.762 161.512C191.178 159.357 191.473 157.057 192.584 155.12C193.695 153.183 195.53 151.766 197.685 151.182L197.69 151.201Z" fill="white" stroke="#3A4A67" stroke-width="2" stroke-linecap="round" stroke-linejoin="round"/>
<path d="M196.362 134.366L211.293 130.318C212.828 129.901 214.467 130.112 215.847 130.903C217.228 131.695 218.237 133.002 218.654 134.538L219.91 139.171C220.326 140.707 220.115 142.345 219.324 143.726C218.532 145.106 217.225 146.116 215.689 146.532L200.758 150.58C198.603 151.165 196.303 150.869 194.366 149.758C192.429 148.647 191.012 146.812 190.428 144.657C189.844 142.502 190.139 140.203 191.25 138.265C192.361 136.328 194.196 134.912 196.351 134.327L196.362 134.366Z" fill="white" stroke="#3A4A67" stroke-width="2" stroke-linecap="round" stroke-linejoin="round"/>
<path d="M142.68 78.8799H195.1" stroke="white" stroke-width="2" stroke-miterlimit="10" stroke-linecap="round"/>
<path d="M142.68 86.55H192.04" stroke="white" stroke-width="2" stroke-miterlimit="10" stroke-linecap="round"/>
<path d="M142.68 94.21H197.86" stroke="white" stroke-width="2" stroke-miterlimit="10" stroke-linecap="round"/>
<path d="M142.68 101.87H190.81" stroke="white" stroke-width="2" stroke-miterlimit="10" stroke-linecap="round"/>
<path d="M142.68 109.54H195.1" stroke="white" stroke-width="2" stroke-miterlimit="10" stroke-linecap="round"/>
<path d="M142.68 117.2H183.14" stroke="white" stroke-width="2" stroke-miterlimit="10" stroke-linecap="round"/>
<path d="M169.811 187.41H148.961C146.338 187.41 144.211 189.537 144.211 192.16C144.211 194.783 146.338 196.91 148.961 196.91H169.811C172.434 196.91 174.561 194.783 174.561 192.16C174.561 189.537 172.434 187.41 169.811 187.41Z" fill="white"/>
<path d="M170.5 30.1699H172.5V28.1699H170.5V30.1699ZM171.5 14.1699C169.522 14.1699 167.589 14.7564 165.944 15.8552C164.3 16.954 163.018 18.5158 162.261 20.3431C161.504 22.1703 161.306 24.181 161.692 26.1208C162.078 28.0606 163.03 29.8425 164.429 31.241C165.827 32.6395 167.609 33.5919 169.549 33.9778C171.489 34.3636 173.5 34.1656 175.327 33.4087C177.154 32.6518 178.716 31.3701 179.815 29.7256C180.914 28.0811 181.5 26.1477 181.5 24.1699C181.5 21.5178 180.446 18.9742 178.571 17.0989C176.696 15.2235 174.152 14.1699 171.5 14.1699ZM171.5 32.1699C169.918 32.1699 168.371 31.7007 167.055 30.8217C165.74 29.9426 164.714 28.6932 164.109 27.2314C163.503 25.7696 163.345 24.161 163.654 22.6092C163.962 21.0574 164.724 19.6319 165.843 18.5131C166.962 17.3942 168.387 16.6323 169.939 16.3236C171.491 16.015 173.1 16.1734 174.561 16.7789C176.023 17.3844 177.273 18.4098 178.152 19.7254C179.031 21.041 179.5 22.5877 179.5 24.1699C179.5 26.2917 178.657 28.3265 177.157 29.8268C175.657 31.3271 173.622 32.1699 171.5 32.1699ZM171.5 18.1699C170.439 18.1699 169.422 18.5914 168.672 19.3415C167.921 20.0916 167.5 21.1091 167.5 22.1699H169.5C169.5 21.6395 169.711 21.1308 170.086 20.7557C170.461 20.3806 170.97 20.1699 171.5 20.1699C172.03 20.1699 172.539 20.3806 172.914 20.7557C173.289 21.1308 173.5 21.6395 173.5 22.1699C173.5 24.1699 170.5 23.9199 170.5 27.1699H172.5C172.5 24.9199 175.5 24.6699 175.5 22.1699C175.5 21.1091 175.079 20.0916 174.328 19.3415C173.578 18.5914 172.561 18.1699 171.5 18.1699Z" fill="white"/>
<path d="M343 0H0V242H343V0Z" fill="#F9F9F9"/>
<path d="M232.251 89.8001C232.05 88.1822 231.315 86.6775 230.164 85.5238C229.012 84.3701 227.508 83.6334 225.891 83.4301C227.495 83.1969 228.98 82.4518 230.126 81.3057C231.272 80.1597 232.017 78.674 232.251 77.0701C232.467 78.4354 233.047 79.7171 233.931 80.7801C235.13 82.1862 236.788 83.1245 238.611 83.4301C236.987 83.7163 235.494 84.503 234.341 85.6801C233.245 86.8116 232.516 88.2476 232.251 89.8001V89.8001Z" stroke="#3A4A67" stroke-width="2" stroke-linecap="round" stroke-linejoin="round"/>
<path d="M104.081 104.19C103.88 102.575 103.148 101.073 102.001 99.92C100.84 98.7749 99.3372 98.041 97.7207 97.83C99.3246 97.5968 100.81 96.8517 101.956 95.7056C103.102 94.5596 103.848 93.0739 104.081 91.47C104.335 93.0653 105.087 94.5395 106.229 95.6817C107.371 96.824 108.845 97.5759 110.441 97.83C108.853 98.1024 107.389 98.8604 106.25 99.9993C105.111 101.138 104.353 102.602 104.081 104.19V104.19Z" stroke="#3A4A67" stroke-width="2" stroke-linecap="round" stroke-linejoin="round"/>
<path d="M219.44 57.38C219.292 56.1898 218.754 55.0822 217.91 54.23C217.056 53.3862 215.95 52.8452 214.76 52.69C215.955 52.5105 217.06 51.9493 217.91 51.09C218.735 50.249 219.271 49.1665 219.44 48C219.604 49.0087 220.035 49.955 220.69 50.74C221.571 51.7749 222.789 52.4655 224.13 52.69C222.959 52.8903 221.879 53.449 221.039 54.289C220.199 55.1291 219.64 56.209 219.44 57.38V57.38Z" stroke="#3A4A67" stroke-width="2" stroke-linecap="round" stroke-linejoin="round"/>
<path d="M113.26 74.7301C113.12 73.5308 112.582 72.4132 111.731 71.5558C110.881 70.6984 109.768 70.1506 108.57 70.0001C109.75 69.8249 110.843 69.2757 111.687 68.4332C112.531 67.5907 113.083 66.4995 113.26 65.3201C113.422 66.3247 113.85 67.2676 114.5 68.0501C115.375 69.1015 116.594 69.8099 117.94 70.0501C116.746 70.2633 115.649 70.8436 114.8 71.7101C113.993 72.5376 113.456 73.5907 113.26 74.7301V74.7301Z" stroke="#3A4A67" stroke-width="2" stroke-linecap="round" stroke-linejoin="round"/>
<path d="M206.41 23.69C206.41 26.0178 205.951 28.3229 205.06 30.4734C204.169 32.624 202.863 34.5779 201.216 36.2234C199.569 37.869 197.615 39.1741 195.464 40.064C193.313 40.9539 191.007 41.4113 188.68 41.41H179.86L171.5 49.78L163.14 41.41H154.32C149.62 41.41 145.113 39.543 141.79 36.2199C138.467 32.8968 136.6 28.3896 136.6 23.69C136.6 18.9903 138.467 14.4832 141.79 11.16C145.113 7.8369 149.62 5.96997 154.32 5.96997H188.68C191.007 5.96866 193.313 6.42603 195.464 7.31596C197.615 8.20588 199.569 9.51092 201.216 11.1565C202.863 12.8021 204.169 14.756 205.06 16.9065C205.951 19.0571 206.41 21.3621 206.41 23.69Z" fill="#5ABEAE" stroke="#3A4A67" stroke-width="2" stroke-linecap="round" stroke-linejoin="round"/>
<path d="M210.069 69.0701H133.859V204.94H210.069V69.0701Z" fill="#5ABEAE" stroke="#3A4A67" stroke-width="2" stroke-linecap="round" stroke-linejoin="round"/>
<path d="M124.869 132.18H124.149C123.182 132.183 122.248 132.531 121.514 133.162C120.781 133.792 120.297 134.664 120.149 135.62L113.509 178.62C112.611 184.454 112.848 190.406 114.209 196.15L119.379 217.95C120.989 224.719 121.05 231.764 119.559 238.56L108.109 290.89L181.669 304.28L205.099 204.98H133.859V141.17C133.857 138.786 132.909 136.501 131.223 134.816C129.538 133.131 127.253 132.183 124.869 132.18V132.18Z" stroke="#3A4A67" stroke-width="2" stroke-linecap="round" stroke-linejoin="round"/>
<path d="M200.015 184.666L214.589 180.714C216.225 180.271 217.97 180.495 219.44 181.338C220.91 182.181 221.985 183.574 222.429 185.209L223.112 187.728C223.656 189.735 223.38 191.876 222.346 193.68C221.312 195.484 219.603 196.803 217.596 197.347L204.422 200.919C202.267 201.503 199.968 201.207 198.03 200.097C196.093 198.986 194.676 197.151 194.092 194.995C193.508 192.84 193.803 190.541 194.914 188.604C196.025 186.667 197.86 185.25 200.015 184.666Z" fill="white" stroke="#3A4A67" stroke-width="2" stroke-linecap="round" stroke-linejoin="round"/>
<path d="M198.736 168.02L213.599 163.99C214.371 163.781 215.177 163.726 215.97 163.828C216.763 163.93 217.529 164.187 218.222 164.585C218.916 164.983 219.525 165.513 220.013 166.146C220.502 166.779 220.861 167.503 221.071 168.274L222.162 172.299C222.618 173.981 222.387 175.775 221.52 177.287C220.654 178.798 219.222 179.903 217.54 180.359L203.14 184.264C200.985 184.848 198.686 184.552 196.748 183.442C194.811 182.331 193.395 180.496 192.81 178.341C192.229 176.186 192.526 173.889 193.637 171.954C194.749 170.019 196.582 168.604 198.736 168.02Z" fill="white" stroke="#3A4A67" stroke-width="2" stroke-linecap="round" stroke-linejoin="round"/>
<path d="M197.69 151.201L212.776 147.111C213.519 146.91 214.294 146.857 215.057 146.955C215.82 147.053 216.557 147.3 217.224 147.683C217.892 148.066 218.477 148.577 218.948 149.186C219.418 149.795 219.764 150.491 219.965 151.233L221.229 155.895C221.65 157.469 221.43 159.146 220.616 160.557C219.802 161.969 218.461 163 216.888 163.423L202.092 167.435C199.937 168.019 197.637 167.724 195.7 166.613C193.763 165.502 192.346 163.667 191.762 161.512C191.178 159.357 191.473 157.057 192.584 155.12C193.695 153.183 195.53 151.766 197.685 151.182L197.69 151.201Z" fill="white" stroke="#3A4A67" stroke-width="2" stroke-linecap="round" stroke-linejoin="round"/>
<path d="M196.362 134.366L211.293 130.318C212.828 129.901 214.467 130.112 215.847 130.903C217.228 131.695 218.237 133.002 218.654 134.538L219.91 139.171C220.326 140.707 220.115 142.345 219.324 143.726C218.532 145.106 217.225 146.116 215.689 146.532L200.758 150.58C198.603 151.165 196.303 150.869 194.366 149.758C192.429 148.647 191.012 146.812 190.428 144.657C189.844 142.502 190.139 140.203 191.25 138.265C192.361 136.328 194.196 134.912 196.351 134.327L196.362 134.366Z" fill="white" stroke="#3A4A67" stroke-width="2" stroke-linecap="round" stroke-linejoin="round"/>
<path d="M142.68 78.8799H195.1" stroke="white" stroke-width="2" stroke-miterlimit="10" stroke-linecap="round"/>
<path d="M142.68 86.55H192.04" stroke="white" stroke-width="2" stroke-miterlimit="10" stroke-linecap="round"/>
<path d="M142.68 94.21H197.86" stroke="white" stroke-width="2" stroke-miterlimit="10" stroke-linecap="round"/>
<path d="M142.68 101.87H190.81" stroke="white" stroke-width="2" stroke-miterlimit="10" stroke-linecap="round"/>
<path d="M142.68 109.54H195.1" stroke="white" stroke-width="2" stroke-miterlimit="10" stroke-linecap="round"/>
<path d="M142.68 117.2H183.14" stroke="white" stroke-width="2" stroke-miterlimit="10" stroke-linecap="round"/>
<path d="M169.811 187.41H148.961C146.338 187.41 144.211 189.537 144.211 192.16C144.211 194.783 146.338 196.91 148.961 196.91H169.811C172.434 196.91 174.561 194.783 174.561 192.16C174.561 189.537 172.434 187.41 169.811 187.41Z" fill="white"/>
<path d="M170.5 30.1699H172.5V28.1699H170.5V30.1699ZM171.5 14.1699C169.522 14.1699 167.589 14.7564 165.944 15.8552C164.3 16.954 163.018 18.5158 162.261 20.3431C161.504 22.1703 161.306 24.181 161.692 26.1208C162.078 28.0606 163.03 29.8425 164.429 31.241C165.827 32.6395 167.609 33.5919 169.549 33.9778C171.489 34.3636 173.5 34.1656 175.327 33.4087C177.154 32.6518 178.716 31.3701 179.815 29.7256C180.914 28.0811 181.5 26.1477 181.5 24.1699C181.5 21.5178 180.446 18.9742 178.571 17.0989C176.696 15.2235 174.152 14.1699 171.5 14.1699ZM171.5 32.1699C169.918 32.1699 168.371 31.7007 167.055 30.8217C165.74 29.9426 164.714 28.6932 164.109 27.2314C163.503 25.7696 163.345 24.161 163.654 22.6092C163.962 21.0574 164.724 19.6319 165.843 18.5131C166.962 17.3942 168.387 16.6323 169.939 16.3236C171.491 16.015 173.1 16.1734 174.561 16.7789C176.023 17.3844 177.273 18.4098 178.152 19.7254C179.031 21.041 179.5 22.5877 179.5 24.1699C179.5 26.2917 178.657 28.3265 177.157 29.8268C175.657 31.3271 173.622 32.1699 171.5 32.1699ZM171.5 18.1699C170.439 18.1699 169.422 18.5914 168.672 19.3415C167.921 20.0916 167.5 21.1091 167.5 22.1699H169.5C169.5 21.6395 169.711 21.1308 170.086 20.7557C170.461 20.3806 170.97 20.1699 171.5 20.1699C172.03 20.1699 172.539 20.3806 172.914 20.7557C173.289 21.1308 173.5 21.6395 173.5 22.1699C173.5 24.1699 170.5 23.9199 170.5 27.1699H172.5C172.5 24.9199 175.5 24.6699 175.5 22.1699C175.5 21.1091 175.079 20.0916 174.328 19.3415C173.578 18.5914 172.561 18.1699 171.5 18.1699Z" fill="white"/>
</g>
<defs>
<clipPath id="clip0_1353_4359">
<rect width="343" height="242" fill="white"/>
</clipPath>
</defs>
</svg>
