<svg width="343" height="242" viewBox="0 0 343 242" fill="none" xmlns="http://www.w3.org/2000/svg">
<g clip-path="url(#clip0_1353_4323)">
<path d="M343 0H0V242H343V0Z" fill="#F9F9F9"/>
<path d="M243.311 220.31L246.311 241.89H155.881L160.601 236.94L158.691 235.11L167.551 230.06C169.225 228.781 170.493 227.044 171.201 225.06L171.361 224.65C171.935 223.059 173.059 221.725 174.531 220.89L175.421 220.31H243.311Z" fill="#DAF1ED"/>
<path d="M143.31 220.31L120.37 241.89H96.6699L99.6799 220.31H143.31Z" fill="#DAF1ED"/>
<path d="M205.119 111.94C205.119 137.82 186.699 158.81 171.209 158.81C156.149 158.81 137.309 137.81 137.309 111.94C137.309 99.78 136.679 88.3 142.169 79.94C148.369 70.53 161.279 65.03 171.169 65.03C181.469 65.03 190.689 71.38 196.909 81.39C201.999 89.62 205.119 100.28 205.119 111.94Z" stroke="#3A4A67" stroke-width="2" stroke-linecap="round" stroke-linejoin="round"/>
<path d="M136.69 106.38C136.69 106.38 131.34 106.6 131.34 112.77C131.34 118.94 134.23 122.53 137.34 122.53" stroke="#3A4A67" stroke-width="2" stroke-linecap="round" stroke-linejoin="round"/>
<path d="M205.73 106.38C205.73 106.38 211.09 106.6 211.09 112.77C211.09 118.94 208.2 122.53 205.09 122.53" stroke="#3A4A67" stroke-width="2" stroke-linecap="round" stroke-linejoin="round"/>
<path d="M96.5098 243L96.6698 241.85L100.83 212.04L102.03 203.47C103.071 196.022 106.602 189.146 112.05 183.962C117.497 178.778 124.54 175.591 132.03 174.92L144.52 173.83C146.748 173.628 148.848 172.7 150.499 171.19C152.15 169.681 153.26 167.671 153.66 165.47L156 152.64" stroke="#3A4A67" stroke-width="2" stroke-linecap="round" stroke-linejoin="round"/>
<path d="M246.49 243L246.33 241.85L242.16 212.04L241 203.51C239.944 196.057 236.394 189.182 230.93 184.004C225.466 178.827 218.409 175.653 210.91 175L198.44 173.91C196.21 173.713 194.107 172.787 192.456 171.276C190.804 169.766 189.695 167.753 189.3 165.55L187 152.29" stroke="#3A4A67" stroke-width="2" stroke-linecap="round" stroke-linejoin="round"/>
<path d="M208.101 106.38L204.471 115.38C204.321 110.006 203.719 104.653 202.671 99.3801C201.97 95.9399 201.079 92.5413 200.001 89.2001C198.111 92.0701 195.141 95.5801 191.261 95.7701C188.181 95.9201 187.471 93.8301 183.541 93.3101C178.121 92.6001 176.901 96.2501 170.741 96.2501C165.551 96.2501 165.271 93.6601 160.561 94.0001C155.091 94.3801 153.801 98.0001 149.481 98.0801C146.961 98.0801 143.321 96.9801 138.811 91.2501L138.351 105.14L133.681 106.38C132.681 102.68 129.581 89.1301 137.091 76.9701C147.091 60.8101 169.461 57.3701 184.531 62.7901C188.49 64.2274 192.176 66.3273 195.431 69.0001C198.49 70.1103 201.269 71.8786 203.571 74.1801C214.891 85.5601 208.431 105.43 208.101 106.38Z" fill="#3A4A67"/>
<path d="M156.149 119.32C157.872 119.32 159.269 117.923 159.269 116.2C159.269 114.477 157.872 113.08 156.149 113.08C154.426 113.08 153.029 114.477 153.029 116.2C153.029 117.923 154.426 119.32 156.149 119.32Z" fill="#3A4A67"/>
<path d="M187.03 119.32C188.753 119.32 190.15 117.923 190.15 116.2C190.15 114.477 188.753 113.08 187.03 113.08C185.307 113.08 183.91 114.477 183.91 116.2C183.91 117.923 185.307 119.32 187.03 119.32Z" fill="#3A4A67"/>
<path d="M150.369 105.4C152.036 104.552 153.89 104.139 155.759 104.2C157.372 104.255 158.953 104.665 160.389 105.4" stroke="#3A4A67" stroke-width="2" stroke-linecap="round" stroke-linejoin="round"/>
<path d="M182 105.4C183.667 104.552 185.521 104.139 187.39 104.2C189 104.253 190.578 104.663 192.01 105.4" stroke="#3A4A67" stroke-width="2" stroke-linecap="round" stroke-linejoin="round"/>
<path d="M171.2 125.06L169.84 130.72L172.07 133.11" stroke="#3A4A67" stroke-width="2" stroke-linecap="round" stroke-linejoin="round"/>
<path d="M145.109 221.36L146.639 220.1L150.279 208.88C151.491 205.134 153.264 201.593 155.539 198.38L159.649 192.57C159.919 192.275 160.274 192.071 160.665 191.986C161.056 191.901 161.463 191.94 161.831 192.097C162.199 192.254 162.509 192.522 162.718 192.863C162.928 193.203 163.026 193.601 162.999 194C162.978 194.817 162.901 195.633 162.769 196.44C162.331 198.801 161.386 201.039 159.999 203L182.549 194.54C183.143 194.305 183.801 194.288 184.405 194.493C185.01 194.698 185.522 195.112 185.849 195.66C186.019 195.967 186.125 196.306 186.16 196.655C186.195 197.005 186.158 197.357 186.052 197.692C185.947 198.027 185.774 198.337 185.545 198.603C185.316 198.869 185.035 199.086 184.719 199.24L167.649 207.54" stroke="#3A4A67" stroke-width="2" stroke-linecap="round" stroke-linejoin="round"/>
<path d="M184.001 199.68C184.487 200.679 184.578 201.824 184.258 202.888C183.937 203.952 183.228 204.856 182.271 205.42L168.551 213.51" stroke="#3A4A67" stroke-width="2" stroke-linecap="round" stroke-linejoin="round"/>
<path d="M182.64 205.17C183.173 206.382 183.244 207.748 182.841 209.009C182.438 210.271 181.587 211.342 180.45 212.02L169.77 218.41" stroke="#3A4A67" stroke-width="2" stroke-linecap="round" stroke-linejoin="round"/>
<path d="M158.689 235.11L167.549 230.06C169.224 228.781 170.492 227.044 171.199 225.06L171.359 224.65C171.934 223.059 173.058 221.725 174.529 220.89L175.419 220.31L178.659 218.26C179.658 217.624 180.385 216.639 180.699 215.497C181.013 214.355 180.892 213.138 180.359 212.08" stroke="#3A4A67" stroke-width="2" stroke-linecap="round" stroke-linejoin="round"/>
<path d="M116.939 245.12L120.369 241.89L143.309 220.31L158.689 235.1L160.599 236.94L155.879 241.89L152.809 245.12H116.939Z" fill="white" stroke="#3A4A67" stroke-width="2" stroke-linecap="round" stroke-linejoin="round"/>
<path d="M146.369 173.53C149.729 180.18 158.999 185 169.849 185C181.379 185 191.069 179.63 193.849 172.34" stroke="#3A4A67" stroke-width="2" stroke-linecap="round" stroke-linejoin="round"/>
<path d="M139.82 223.59L157.32 240.39" stroke="#3A4A67" stroke-width="2" stroke-linecap="round" stroke-linejoin="round"/>
<path d="M215.85 241.89L216.73 205.17" stroke="#3A4A67" stroke-width="2" stroke-linecap="round" stroke-linejoin="round"/>
<path d="M127.089 235.57L126.359 205.17" stroke="#3A4A67" stroke-width="2" stroke-linecap="round" stroke-linejoin="round"/>
<path d="M180.87 195.23L161 202.68C161 202.68 161.46 201.11 162.3 198.32C164.2 191.96 161.37 191.96 161.37 191.96V178.65H180.87V195.23Z" fill="#5ABEAE" stroke="#3A4A67" stroke-width="2" stroke-linecap="round" stroke-linejoin="round"/>
<path d="M171.96 148.01C173.689 148.01 175.09 145.91 175.09 143.32C175.09 140.73 173.689 138.63 171.96 138.63C170.231 138.63 168.83 140.73 168.83 143.32C168.83 145.91 170.231 148.01 171.96 148.01Z" stroke="#3A4A67" stroke-width="2" stroke-linecap="round" stroke-linejoin="round"/>
<path d="M176.449 184.49C177.184 184.49 177.779 183.895 177.779 183.16C177.779 182.426 177.184 181.83 176.449 181.83C175.715 181.83 175.119 182.426 175.119 183.16C175.119 183.895 175.715 184.49 176.449 184.49Z" fill="#3A4A67"/>
<path d="M206.41 23.69C206.404 28.3897 204.534 32.8953 201.21 36.2176C197.886 39.5399 193.379 41.4073 188.68 41.41H179.86L171.5 49.78L163.13 41.41H154.32C149.62 41.41 145.113 39.5431 141.79 36.2199C138.467 32.8968 136.6 28.3896 136.6 23.69C136.6 18.9903 138.467 14.4832 141.79 11.16C145.113 7.8369 149.62 5.96997 154.32 5.96997H188.68C191.007 5.96866 193.313 6.42603 195.464 7.31596C197.615 8.20588 199.569 9.51092 201.216 11.1565C202.863 12.8021 204.169 14.756 205.06 16.9065C205.951 19.0571 206.41 21.3621 206.41 23.69V23.69Z" fill="#5ABEAE" stroke="#3A4A67" stroke-width="2" stroke-linecap="round" stroke-linejoin="round"/>
<path d="M175.539 27.13H174.689L174.389 26.84C175.429 25.6286 176.024 24.0979 176.075 22.502C176.125 20.9061 175.629 19.3408 174.667 18.0659C173.706 16.7909 172.338 15.8829 170.79 15.4925C169.241 15.1021 167.606 15.2527 166.155 15.9194C164.704 16.5861 163.525 17.7288 162.813 19.1579C162.101 20.587 161.899 22.2166 162.24 23.7765C162.581 25.3363 163.446 26.7325 164.69 27.7335C165.934 28.7346 167.482 29.2803 169.079 29.28C170.75 29.2845 172.366 28.6842 173.629 27.59L173.919 27.89V28.74L179.309 34.11L180.909 32.51L175.539 27.13ZM169.079 27.13C168.119 27.132 167.181 26.8492 166.382 26.3175C165.583 25.7858 164.96 25.029 164.591 24.143C164.223 23.2569 164.125 22.2815 164.311 21.34C164.497 20.3985 164.958 19.5334 165.636 18.8541C166.314 18.1748 167.178 17.7119 168.119 17.524C169.06 17.336 170.036 17.4315 170.923 17.7983C171.81 18.1651 172.568 18.7867 173.101 19.5845C173.634 20.3823 173.919 21.3204 173.919 22.28C173.92 22.9165 173.796 23.5469 173.554 24.1353C173.311 24.7237 172.955 25.2584 172.505 25.7089C172.055 26.1594 171.521 26.5168 170.934 26.7607C170.346 27.0045 169.716 27.13 169.079 27.13V27.13Z" fill="#F9F9F9"/>
<path d="M103.87 112.74C103.658 111.127 102.924 109.627 101.78 108.47C100.624 107.319 99.1187 106.584 97.5 106.38C99.1039 106.144 100.589 105.399 101.736 104.253C102.884 103.108 103.632 101.624 103.87 100.02C104.085 101.386 104.665 102.668 105.55 103.73C106.757 105.127 108.411 106.063 110.23 106.38C108.641 106.648 107.174 107.405 106.035 108.545C104.895 109.684 104.138 111.151 103.87 112.74V112.74Z" stroke="#3A4A67" stroke-width="2" stroke-linecap="round" stroke-linejoin="round"/>
<path d="M110.229 139.67C110.07 138.484 109.53 137.382 108.689 136.53C107.839 135.682 106.731 135.14 105.539 134.99C106.721 134.816 107.815 134.266 108.66 133.421C109.505 132.576 110.055 131.482 110.229 130.3C110.387 131.306 110.816 132.249 111.469 133.03C112.349 134.076 113.565 134.783 114.909 135.03C113.738 135.225 112.658 135.78 111.819 136.62C110.979 137.459 110.424 138.539 110.229 139.71V139.67Z" stroke="#3A4A67" stroke-width="2" stroke-linecap="round" stroke-linejoin="round"/>
<path d="M226.51 149.68C226.313 148.062 225.579 146.557 224.426 145.404C223.274 144.251 221.768 143.518 220.15 143.32C221.772 143.072 223.272 142.311 224.43 141.15C225.547 140.007 226.275 138.541 226.51 136.96C226.735 138.325 227.318 139.605 228.2 140.67C229.402 142.074 231.058 143.012 232.88 143.32C231.252 143.6 229.754 144.388 228.6 145.57C227.512 146.702 226.784 148.133 226.51 149.68V149.68Z" stroke="#3A4A67" stroke-width="2" stroke-linecap="round" stroke-linejoin="round"/>
<path d="M236.479 116.62C236.324 115.43 235.783 114.323 234.939 113.47C234.087 112.626 232.979 112.088 231.789 111.94C232.971 111.766 234.065 111.216 234.91 110.371C235.755 109.526 236.305 108.432 236.479 107.25C236.642 108.254 237.07 109.197 237.719 109.98C238.603 111.026 239.822 111.733 241.169 111.98C239.998 112.177 238.918 112.733 238.077 113.572C237.237 114.41 236.678 115.49 236.479 116.66V116.62Z" stroke="#3A4A67" stroke-width="2" stroke-linecap="round" stroke-linejoin="round"/>
<path d="M221.831 70.7401C221.682 69.5481 221.14 68.4396 220.291 67.5902C219.441 66.7408 218.333 66.1988 217.141 66.0501C218.322 65.8796 219.417 65.3318 220.262 64.4885C221.107 63.6452 221.658 62.5514 221.831 61.3701C222.017 62.5444 222.57 63.6297 223.41 64.4704C224.251 65.3112 225.336 65.8641 226.511 66.0501C225.317 66.2634 224.219 66.8437 223.371 67.7101C222.562 68.5404 222.024 69.5972 221.831 70.7401V70.7401Z" stroke="#3A4A67" stroke-width="2" stroke-linecap="round" stroke-linejoin="round"/>
</g>
<defs>
<clipPath id="clip0_1353_4323">
<rect width="343" height="242" fill="white"/>
</clipPath>
</defs>
</svg>
