<svg width="1440" height="632" viewBox="0 0 1440 632" fill="none" xmlns="http://www.w3.org/2000/svg">
<g clip-path="url(#clip0_781_3369)">
<path d="M1284.26 614.23H1215.47V643.77H1284.26V614.23Z" fill="#F9F9F9" stroke="#3A4A67" stroke-width="3" stroke-linecap="round" stroke-linejoin="round"/>
<path d="M1407.55 614.23H1338.76V643.77H1407.55V614.23Z" fill="#5ABEAE" stroke="#3A4A67" stroke-width="3" stroke-linecap="round" stroke-linejoin="round"/>
<path d="M1482.76 614.23H1413.97V643.77H1482.76V614.23Z" fill="#5ABEAE" stroke="#3A4A67" stroke-width="3" stroke-linecap="round" stroke-linejoin="round"/>
<path d="M253.63 417.09C254.906 417.09 255.94 416.056 255.94 414.78C255.94 413.504 254.906 412.47 253.63 412.47C252.354 412.47 251.32 413.504 251.32 414.78C251.32 416.056 252.354 417.09 253.63 417.09Z" fill="white"/>
<path d="M380.27 417.09C381.546 417.09 382.58 416.056 382.58 414.78C382.58 413.504 381.546 412.47 380.27 412.47C378.994 412.47 377.96 413.504 377.96 414.78C377.96 416.056 378.994 417.09 380.27 417.09Z" fill="white"/>
<path d="M370.69 504.65C370.19 513.75 368.33 547.02 366.69 563.13C365.06 579.4 359.06 622.92 357.48 634.26L282.3 633.45C280.19 621.4 272.86 579.19 270.68 563.23C268.46 546.99 265.34 513.23 264.57 504.62L268.22 504.3C270.16 504.133 272.06 503.657 273.85 502.89V502.89C279.607 508.947 286.046 514.316 293.04 518.89C300.506 523.693 308.559 527.518 317 530.27C326.016 527.511 334.56 523.398 342.34 518.07C348.921 513.467 354.931 508.096 360.24 502.07C362.639 503.35 365.271 504.133 367.98 504.37L370.69 504.65Z" fill="#DAF1ED"/>
<path d="M378.93 391.12C378.93 438.43 351.19 476.79 316.93 476.79C282.67 476.79 254.93 438.43 254.93 391.12C254.93 368.91 253.77 347.92 263.8 332.7C275.13 315.5 298.73 305.45 316.89 305.45C335.7 305.45 352.56 317.05 363.89 335.36C373.31 350.34 378.93 369.82 378.93 391.12Z" stroke="#3A4A67" stroke-width="3" stroke-linecap="round" stroke-linejoin="round"/>
<path d="M253.88 381C253.88 381 244.09 381.41 244.09 392.68C244.09 403.95 249.37 410.52 255.01 410.52" stroke="#3A4A67" stroke-width="3" stroke-linecap="round" stroke-linejoin="round"/>
<path d="M380.06 381C380.06 381 389.84 381.41 389.84 392.68C389.84 403.95 384.56 410.52 378.93 410.52" stroke="#3A4A67" stroke-width="3" stroke-linecap="round" stroke-linejoin="round"/>
<path d="M384.38 381C384.38 381 377.99 403.94 377.05 395.76C376.42 390.26 374.78 385.02 366.81 380.3C338.14 363.3 345.76 330.3 345.76 330.3L339.28 370.51C339.073 371.771 338.432 372.919 337.468 373.757C336.504 374.595 335.277 375.07 334 375.1C320 375.56 277.67 376.99 265.16 378.05C258.84 378.59 257.78 353.31 257.78 353.31L257 378.7L248.44 381C248.44 381 233.6 292.45 319.84 292.45C332.06 292.45 339.98 297.24 348.05 301.45C385.71 309 384.38 381 384.38 381Z" fill="#3A4A67"/>
<path d="M180.42 630.72L190.52 558.49C192.423 544.865 198.889 532.287 208.862 522.81C218.835 513.333 231.725 507.517 245.43 506.31L255.71 505.4L264.6 504.62L268.25 504.3C270.19 504.133 272.09 503.657 273.88 502.89V502.89C275.677 502.132 277.341 501.092 278.81 499.81C282.058 497.028 284.245 493.209 285 489L288.88 467.44" stroke="#3A4A67" stroke-width="3" stroke-linecap="round" stroke-linejoin="round"/>
<path d="M432.76 530.27C427.638 523.465 421.142 517.811 413.695 513.677C406.248 509.543 398.015 507.019 389.53 506.27L376.71 505.14L370.71 504.61L367.97 504.37C365.262 504.133 362.629 503.35 360.23 502.07C359.035 501.438 357.909 500.684 356.87 499.82C353.156 496.773 350.653 492.5 349.81 487.77L346.14 467.43" stroke="#3A4A67" stroke-width="3" stroke-linecap="round" stroke-linejoin="round"/>
<path d="M357.13 637C357.13 637 357.27 636 357.51 634.27C359.09 622.93 365.09 579.41 366.72 563.14C368.33 547.03 370.19 513.76 370.72 504.66C370.8 503.16 370.84 502.32 370.84 502.32" stroke="#3A4A67" stroke-width="3" stroke-linecap="round" stroke-linejoin="round"/>
<path d="M282.9 636.7C282.9 636.7 282.69 635.52 282.33 633.45C280.22 621.4 272.89 579.19 270.71 563.23C268.49 546.99 265.37 513.23 264.6 504.62C264.47 503.32 264.41 502.62 264.41 502.62" stroke="#3A4A67" stroke-width="3" stroke-linecap="round" stroke-linejoin="round"/>
<path d="M233.29 508.64C233.29 508.64 247.75 462 249.87 408.52L256.87 412.12L267.47 442.68L280.77 460.68L287.85 466.36L283.78 492.5L277.53 502.75L256.25 504.33L233.29 508.64Z" fill="#3A4A67"/>
<path d="M400.52 507.87C391.18 475.629 385.672 442.4 384.11 408.87L377.11 411.56L368.11 439.39L352.33 461.44L346.07 467.49L350.47 488.49C350.47 488.49 353.22 502.34 364.78 504.16C369.41 504.85 400.52 507.87 400.52 507.87Z" fill="#3A4A67"/>
<path d="M319.84 292.41C332.06 292.41 341.84 296.59 348.05 301.41C385.71 309 384.38 381 384.38 381" fill="#3A4A67"/>
<path d="M289.43 404.63C292.583 404.63 295.14 402.074 295.14 398.92C295.14 395.766 292.583 393.21 289.43 393.21C286.276 393.21 283.72 395.766 283.72 398.92C283.72 402.074 286.276 404.63 289.43 404.63Z" fill="#3A4A67"/>
<path d="M345.86 404.63C349.013 404.63 351.57 402.074 351.57 398.92C351.57 395.766 349.013 393.21 345.86 393.21C342.706 393.21 340.15 395.766 340.15 398.92C340.15 402.074 342.706 404.63 345.86 404.63Z" fill="#3A4A67"/>
<path d="M278.87 385.08C281.702 383.622 284.84 382.862 288.025 382.862C291.21 382.862 294.349 383.622 297.18 385.08" stroke="#3A4A67" stroke-width="3" stroke-linecap="round" stroke-linejoin="round"/>
<path d="M336.71 385.08C339.541 383.622 342.68 382.862 345.865 382.862C349.05 382.862 352.188 383.622 355.02 385.08" stroke="#3A4A67" stroke-width="3" stroke-linecap="round" stroke-linejoin="round"/>
<path d="M316.95 415.12L314.46 425.44L318.53 429.82" stroke="#3A4A67" stroke-width="3" stroke-linecap="round" stroke-linejoin="round"/>
<path d="M326 441.09H310.6C310.6 441.09 311.96 449.09 318.53 449.09C325.1 449.09 326 441.09 326 441.09Z" stroke="#3A4A67" stroke-width="3" stroke-linecap="round" stroke-linejoin="round"/>
<path d="M270.13 504.09L316.5 575.56L362.77 503.66" stroke="#3A4A67" stroke-width="3" stroke-linecap="round" stroke-linejoin="round"/>
<path d="M330.1 575.56H303.78V615.24H330.1V575.56Z" fill="#5ABEAE" stroke="#3A4A67" stroke-width="3" stroke-linecap="round" stroke-linejoin="round"/>
<path d="M438.29 519.22L439.8 509.39L436.3 482.29C435.232 476.742 435.932 470.999 438.3 465.87V465.87C438.909 464.549 439.943 463.47 441.238 462.807C442.532 462.143 444.012 461.933 445.44 462.21L453.94 465.89C455.163 466.418 456.133 467.4 456.646 468.629C457.159 469.859 457.175 471.239 456.69 472.48V472.48C456.304 473.482 455.615 474.338 454.718 474.928C453.822 475.518 452.763 475.812 451.69 475.77L445.86 475.53" stroke="#3A4A67" stroke-width="3" stroke-linecap="round" stroke-linejoin="round"/>
<path d="M456.5 468.43L472.22 465.57L488.54 479.68C490.594 481.456 491.868 483.968 492.089 486.674C492.309 489.38 491.459 492.065 489.72 494.15L472.34 515C469.987 517.838 468.28 521.155 467.34 524.72" stroke="#3A4A67" stroke-width="3" stroke-linecap="round" stroke-linejoin="round"/>
<path d="M456.5 465.57L469.3 435C469.773 433.774 470.71 432.783 471.907 432.242C473.105 431.702 474.467 431.654 475.7 432.11V432.11C476.321 432.333 476.891 432.677 477.378 433.122C477.865 433.566 478.259 434.103 478.538 434.701C478.817 435.298 478.975 435.945 479.003 436.604C479.03 437.263 478.928 437.921 478.7 438.54L469.11 464.65" stroke="#3A4A67" stroke-width="3" stroke-linecap="round" stroke-linejoin="round"/>
<path d="M477 469.71L466.47 472.94C464.6 473.513 462.884 474.5 461.448 475.828C460.013 477.156 458.896 478.79 458.18 480.61L457.43 482.5C456.962 483.685 456.958 485.002 457.418 486.189C457.877 487.377 458.767 488.348 459.91 488.91L467.47 492.64" stroke="#3A4A67" stroke-width="3" stroke-linecap="round" stroke-linejoin="round"/>
<path d="M484.32 476.24L472.37 480.05C470.266 480.723 468.508 482.191 467.47 484.14L466.19 486.53C465.655 487.538 465.491 488.702 465.727 489.819C465.962 490.936 466.583 491.934 467.48 492.64V492.64C468.433 493.383 469.627 493.745 470.832 493.657C472.037 493.568 473.166 493.035 474 492.16L475.86 490.16C476.465 489.528 477.213 489.05 478.042 488.768C478.87 488.486 479.755 488.408 480.62 488.54L483.62 489.01" stroke="#3A4A67" stroke-width="3" stroke-linecap="round" stroke-linejoin="round"/>
<path d="M450.08 475.7L449.55 477.98C449.099 479.885 449.381 481.89 450.338 483.598C451.296 485.305 452.86 486.591 454.72 487.2L459.92 488.91" stroke="#3A4A67" stroke-width="3" stroke-linecap="round" stroke-linejoin="round"/>
<path d="M417.63 633.36L434.72 522.42C434.778 522.016 434.919 521.627 435.133 521.279C435.347 520.931 435.629 520.63 435.964 520.395C436.298 520.16 436.677 519.996 437.077 519.912C437.477 519.829 437.89 519.828 438.29 519.91L467.4 525.54C468.619 525.775 469.714 526.436 470.489 527.406C471.265 528.375 471.669 529.589 471.63 530.83L468.28 633.36" stroke="#3A4A67" stroke-width="3" stroke-linecap="round" stroke-linejoin="round"/>
<path d="M360.31 502L360.21 502.11C354.9 508.136 348.891 513.507 342.31 518.11C334.537 523.421 326.003 527.521 317 530.27C308.584 527.516 300.555 523.695 293.11 518.9C286.116 514.326 279.677 508.957 273.92 502.9L273.78 502.75" stroke="#3A4A67" stroke-width="3" stroke-linecap="round" stroke-linejoin="round"/>
<path d="M260.58 505.23L233.29 553.74L257.54 564.5L242.55 582.38L278.63 659.52" stroke="#3A4A67" stroke-width="3" stroke-linecap="round" stroke-linejoin="round"/>
<path d="M374.31 505.23L401.6 553.74L377.35 564.5L392.33 582.38L356.25 659.52" stroke="#3A4A67" stroke-width="3" stroke-linecap="round" stroke-linejoin="round"/>
<path d="M1542.83 254.12H1190.63V649.43H1542.83V254.12Z" stroke="#3A4A67" stroke-width="3" stroke-linecap="round" stroke-linejoin="round"/>
<path d="M1284.26 282.06H1215.47V311.6H1284.26V282.06Z" fill="#F9F9F9" stroke="#3A4A67" stroke-width="3" stroke-linecap="round" stroke-linejoin="round"/>
<path d="M1420.85 282.06H1352.06V311.6H1420.85V282.06Z" fill="#5ABEAE" stroke="#3A4A67" stroke-width="3" stroke-linecap="round" stroke-linejoin="round"/>
<path d="M1320.26 266.35H1293.66V311.6H1320.26V266.35Z" fill="#F9F9F9" stroke="#3A4A67" stroke-width="3" stroke-linecap="round" stroke-linejoin="round"/>
<path d="M1310.17 332.54H1283.57V377.79H1310.17V332.54Z" fill="#5ABEAE" stroke="#3A4A67" stroke-width="3" stroke-linecap="round" stroke-linejoin="round"/>
<path d="M1267.37 332.54H1240.77V377.79H1267.37V332.54Z" fill="#F9F9F9" stroke="#3A4A67" stroke-width="3" stroke-linecap="round" stroke-linejoin="round"/>
<path d="M1343.35 332.54H1316.75V377.79H1343.35V332.54Z" fill="#5ABEAE" stroke="#3A4A67" stroke-width="3" stroke-linecap="round" stroke-linejoin="round"/>
<path d="M1376.36 332.54H1349.76V377.79H1376.36V332.54Z" fill="#F9F9F9" stroke="#3A4A67" stroke-width="3" stroke-linecap="round" stroke-linejoin="round"/>
<path d="M1419.17 346.61H1392.57V377.79H1419.17V346.61Z" fill="#F9F9F9" stroke="#3A4A67" stroke-width="3" stroke-linecap="round" stroke-linejoin="round"/>
<path d="M1240.77 346.61H1214.17V377.79H1240.77V346.61Z" fill="#F9F9F9" stroke="#3A4A67" stroke-width="3" stroke-linecap="round" stroke-linejoin="round"/>
<path d="M1453.1 337.43H1426.5V377.79H1453.1V337.43Z" fill="#F9F9F9" stroke="#3A4A67" stroke-width="3" stroke-linecap="round" stroke-linejoin="round"/>
<path d="M1284.26 413.96H1215.47V443.5H1284.26V413.96Z" fill="#F9F9F9" stroke="#3A4A67" stroke-width="3" stroke-linecap="round" stroke-linejoin="round"/>
<path d="M1455.24 413.96H1386.45V443.5H1455.24V413.96Z" fill="#F9F9F9" stroke="#3A4A67" stroke-width="3" stroke-linecap="round" stroke-linejoin="round"/>
<path d="M1331.69 412.32H1305.09V443.5H1331.69V412.32Z" fill="#5ABEAE" stroke="#3A4A67" stroke-width="3" stroke-linecap="round" stroke-linejoin="round"/>
<path d="M1365.63 403.14H1339.03V443.5H1365.63V403.14Z" fill="#F9F9F9" stroke="#3A4A67" stroke-width="3" stroke-linecap="round" stroke-linejoin="round"/>
<path d="M1346.94 483.18H1320.34V514.36H1346.94V483.18Z" fill="#F9F9F9" stroke="#3A4A67" stroke-width="3" stroke-linecap="round" stroke-linejoin="round"/>
<path d="M1420.85 483.18H1394.25V514.36H1420.85V483.18Z" fill="#5ABEAE" stroke="#3A4A67" stroke-width="3" stroke-linecap="round" stroke-linejoin="round"/>
<path d="M1455.24 483.18H1428.64V514.36H1455.24V483.18Z" fill="#F9F9F9" stroke="#3A4A67" stroke-width="3" stroke-linecap="round" stroke-linejoin="round"/>
<path d="M1380.87 469.66H1354.27V510.02H1380.87V469.66Z" fill="#F9F9F9" stroke="#3A4A67" stroke-width="3" stroke-linecap="round" stroke-linejoin="round"/>
<path d="M1284.26 550.95H1215.47V580.49H1284.26V550.95Z" fill="#5ABEAE" stroke="#3A4A67" stroke-width="3" stroke-linecap="round" stroke-linejoin="round"/>
<path d="M1318.62 535.24H1292.02V580.49H1318.62V535.24Z" fill="#F9F9F9" stroke="#3A4A67" stroke-width="3" stroke-linecap="round" stroke-linejoin="round"/>
<path d="M1351.79 535.24H1325.19V580.49H1351.79V535.24Z" fill="#F9F9F9" stroke="#3A4A67" stroke-width="3" stroke-linecap="round" stroke-linejoin="round"/>
<path d="M1384.81 535.24H1358.21V580.49H1384.81V535.24Z" fill="#F9F9F9" stroke="#3A4A67" stroke-width="3" stroke-linecap="round" stroke-linejoin="round"/>
<path d="M1240.77 469.66H1214.17V514.91H1240.77V469.66Z" fill="#F9F9F9" stroke="#3A4A67" stroke-width="3" stroke-linecap="round" stroke-linejoin="round"/>
<path d="M1273.94 469.66H1247.34V514.91H1273.94V469.66Z" fill="#F9F9F9" stroke="#3A4A67" stroke-width="3" stroke-linecap="round" stroke-linejoin="round"/>
<path d="M1306.96 469.66H1280.36V514.91H1306.96V469.66Z" fill="#5ABEAE" stroke="#3A4A67" stroke-width="3" stroke-linecap="round" stroke-linejoin="round"/>
<path d="M1419.17 549.3H1392.57V580.48H1419.17V549.3Z" fill="#F9F9F9" stroke="#3A4A67" stroke-width="3" stroke-linecap="round" stroke-linejoin="round"/>
<path d="M1453.1 540.13H1426.5V580.49H1453.1V540.13Z" fill="#F9F9F9" stroke="#3A4A67" stroke-width="3" stroke-linecap="round" stroke-linejoin="round"/>
<path d="M1310.86 604.94H1284.26V636.12H1310.86V604.94Z" fill="#F9F9F9" stroke="#3A4A67" stroke-width="3" stroke-linecap="round" stroke-linejoin="round"/>
<path d="M113.06 556.02V655.94H104.58V564.5H-17.0901V556.02H113.06Z" fill="#F9F9F9" stroke="#3A4A67" stroke-width="3" stroke-linecap="round" stroke-linejoin="round"/>
<path d="M14.1598 589.96H-12.4402V635.21H14.1598V589.96Z" fill="#5ABEAE" stroke="#3A4A67" stroke-width="3" stroke-linecap="round" stroke-linejoin="round"/>
<path d="M47.33 589.96H20.73V635.21H47.33V589.96Z" fill="#F9F9F9" stroke="#3A4A67" stroke-width="3" stroke-linecap="round" stroke-linejoin="round"/>
<path d="M80.35 589.96H53.75V635.21H80.35V589.96Z" fill="#F9F9F9" stroke="#3A4A67" stroke-width="3" stroke-linecap="round" stroke-linejoin="round"/>
<path d="M104.58 564.5H-17.0901V655.94H104.58V564.5Z" stroke="#3A4A67" stroke-width="3" stroke-linecap="round" stroke-linejoin="round"/>
<path d="M43.75 505.23H92.96L82.96 555.84H53.75L43.75 505.23Z" fill="#F9F9F9" stroke="#3A4A67" stroke-width="3" stroke-linecap="round" stroke-linejoin="round"/>
<path d="M68.7998 504C69.6008 484.881 76.5047 466.52 88.4998 451.61Z" fill="#F9F9F9"/>
<path d="M68.7998 504C69.6008 484.881 76.5047 466.52 88.4998 451.61" stroke="#3A4A67" stroke-width="3" stroke-linecap="round" stroke-linejoin="round"/>
<path d="M70.5156 485.934C72.2395 482.948 75.0789 480.769 78.4093 479.877C81.7396 478.985 85.288 479.452 88.2739 481.176V481.176C86.55 484.162 83.7106 486.34 80.3802 487.233C77.0499 488.125 73.5015 487.658 70.5156 485.934V485.934Z" fill="#F9F9F9" stroke="#3A4A67" stroke-width="3" stroke-linecap="round" stroke-linejoin="round"/>
<path d="M59.165 471.579C62.6051 471.81 65.8122 473.399 68.081 475.995C70.3498 478.591 71.4943 481.982 71.2628 485.422V485.422C67.8228 485.191 64.6156 483.602 62.3468 481.006C60.0781 478.41 58.9335 475.019 59.165 471.579V471.579V471.579Z" fill="#F9F9F9" stroke="#3A4A67" stroke-width="3" stroke-linecap="round" stroke-linejoin="round"/>
<path d="M88.5024 448.962C86.0645 446.524 84.6948 443.217 84.6948 439.77C84.6948 436.322 86.0645 433.015 88.5024 430.577V430.577C90.9404 433.015 92.3101 436.322 92.3101 439.77C92.3101 443.217 90.9404 446.524 88.5024 448.962V448.962Z" fill="#F9F9F9" stroke="#3A4A67" stroke-width="3" stroke-linecap="round" stroke-linejoin="round"/>
<path d="M88.5029 473.782C86.065 471.344 84.6953 468.037 84.6953 464.589C84.6953 461.141 86.065 457.835 88.5029 455.397V455.397C90.9409 457.835 92.3105 461.141 92.3105 464.589C92.3105 468.037 90.9409 471.344 88.5029 473.782Z" fill="#F9F9F9" stroke="#3A4A67" stroke-width="3" stroke-linecap="round" stroke-linejoin="round"/>
<path d="M91.7183 452.182C94.1562 449.745 97.4628 448.375 100.911 448.375C104.358 448.375 107.665 449.745 110.103 452.182V452.182C107.665 454.62 104.358 455.99 100.911 455.99C97.4628 455.99 94.1562 454.62 91.7183 452.182V452.182Z" fill="#F9F9F9" stroke="#3A4A67" stroke-width="3" stroke-linecap="round" stroke-linejoin="round"/>
<path d="M66.8979 452.183C69.3359 449.745 72.6425 448.375 76.0903 448.375C79.5382 448.375 82.8448 449.745 85.2827 452.183V452.183C82.8448 454.621 79.5382 455.99 76.0903 455.99C72.6425 455.99 69.3359 454.621 66.8979 452.183V452.183Z" fill="#F9F9F9" stroke="#3A4A67" stroke-width="3" stroke-linecap="round" stroke-linejoin="round"/>
<path d="M90.77 449.9C90.77 446.452 92.1397 443.146 94.5776 440.708C97.0156 438.27 100.322 436.9 103.77 436.9V436.9C103.77 440.348 102.4 443.654 99.9624 446.092C97.5244 448.53 94.2178 449.9 90.77 449.9V449.9Z" fill="#F9F9F9" stroke="#3A4A67" stroke-width="3" stroke-linecap="round" stroke-linejoin="round"/>
<path d="M73.2197 467.45C73.2197 464.002 74.5894 460.696 77.0273 458.258C79.4653 455.82 82.7719 454.45 86.2197 454.45V454.45C86.2197 457.898 84.8501 461.204 82.4121 463.642C79.9741 466.08 76.6675 467.45 73.2197 467.45V467.45Z" fill="#F9F9F9" stroke="#3A4A67" stroke-width="3" stroke-linecap="round" stroke-linejoin="round"/>
<path d="M86.21 449.91C82.7621 449.91 79.4556 448.54 77.0176 446.102C74.5796 443.664 73.21 440.358 73.21 436.91V436.91C76.6578 436.91 79.9644 438.28 82.4024 440.718C84.8403 443.156 86.21 446.462 86.21 449.91V449.91Z" fill="#F9F9F9" stroke="#3A4A67" stroke-width="3" stroke-linecap="round" stroke-linejoin="round"/>
<path d="M103.77 467.46C100.322 467.46 97.0156 466.09 94.5776 463.652C92.1397 461.214 90.77 457.908 90.77 454.46C94.2178 454.46 97.5244 455.83 99.9624 458.268C102.4 460.706 103.77 464.012 103.77 467.46Z" fill="#F9F9F9" stroke="#3A4A67" stroke-width="3" stroke-linecap="round" stroke-linejoin="round"/>
<path d="M88.4999 455.16C90.212 455.16 91.5999 453.772 91.5999 452.06C91.5999 450.348 90.212 448.96 88.4999 448.96C86.7878 448.96 85.3999 450.348 85.3999 452.06C85.3999 453.772 86.7878 455.16 88.4999 455.16Z" fill="#F9F9F9" stroke="#3A4A67" stroke-width="3" stroke-linecap="round" stroke-linejoin="round"/>
<path d="M45.7 511.2H91.01" stroke="#3A4A67" stroke-width="3" stroke-linecap="round" stroke-linejoin="round"/>
<path d="M1101.55 720.73C1057.14 648.764 1040.2 563.186 1053.85 479.73C1054.79 526.73 1065.01 561.04 1074.49 584.04C1083.49 605.9 1092.35 618.78 1101.55 646.87C1109.26 670.501 1114.03 694.992 1115.76 719.79" fill="#F9F9F9"/>
<path d="M1101.55 720.73C1057.14 648.764 1040.2 563.186 1053.85 479.73C1054.79 526.73 1065.01 561.04 1074.49 584.04C1083.49 605.9 1092.35 618.78 1101.55 646.87C1109.26 670.501 1114.03 694.992 1115.76 719.79" stroke="#3A4A67" stroke-width="3" stroke-linecap="round" stroke-linejoin="round"/>
<path d="M1134.06 715.26C1165.2 636.648 1166.92 549.44 1138.91 469.66C1146.21 516.14 1142.14 551.66 1136.82 575.98C1131.76 599.08 1125.3 613.3 1121.16 642.56C1117.69 667.174 1117.27 692.122 1119.9 716.84" fill="#F9F9F9"/>
<path d="M1134.06 715.26C1165.2 636.648 1166.92 549.44 1138.91 469.66C1146.21 516.14 1142.14 551.66 1136.82 575.98C1131.76 599.08 1125.3 613.3 1121.16 642.56C1117.69 667.174 1117.27 692.122 1119.9 716.84" stroke="#3A4A67" stroke-width="3" stroke-linecap="round" stroke-linejoin="round"/>
<path d="M1122.29 696.75C1129.78 671.719 1133.63 645.738 1133.7 619.61C1133.7 579.99 1124.54 560.72 1123.38 514.36C1122.85 493.222 1124.11 472.077 1127.14 451.15C1105.89 494.89 1102.2 529.82 1102.74 553.57C1103.25 575.86 1107.49 589.05 1109.39 624.05C1110.73 648.809 1110.31 673.631 1108.13 698.33" fill="#F9F9F9"/>
<path d="M1122.29 696.75C1129.78 671.719 1133.63 645.738 1133.7 619.61C1133.7 579.99 1124.54 560.72 1123.38 514.36C1122.85 493.222 1124.11 472.077 1127.14 451.15C1105.89 494.89 1102.2 529.82 1102.74 553.57C1103.25 575.86 1107.49 589.05 1109.39 624.05C1110.73 648.809 1110.31 673.631 1108.13 698.33" stroke="#3A4A67" stroke-width="3" stroke-linecap="round" stroke-linejoin="round"/>
<path d="M1112.79 707.4C1085.79 663.82 1081.08 629.2 1081.79 605.59C1082.32 587.59 1085.94 579.31 1086.62 560.07C1088.02 520.3 1075.25 487.44 1063.49 465.07C1104.2 508.23 1113.73 543.85 1114.87 568.47C1115.71 586.6 1111.97 598.33 1112.8 626.94C1113.6 653.439 1117.83 679.722 1125.4 705.13" fill="#F9F9F9"/>
<path d="M1112.79 707.4C1085.79 663.82 1081.08 629.2 1081.79 605.59C1082.32 587.59 1085.94 579.31 1086.62 560.07C1088.02 520.3 1075.25 487.44 1063.49 465.07C1104.2 508.23 1113.73 543.85 1114.87 568.47C1115.71 586.6 1111.97 598.33 1112.8 626.94C1113.6 653.439 1117.83 679.722 1125.4 705.13" stroke="#3A4A67" stroke-width="3" stroke-linecap="round" stroke-linejoin="round"/>
<path d="M1386.45 282.06V311.6" stroke="#3A4A67" stroke-width="3" stroke-linecap="round" stroke-linejoin="round"/>
<path d="M1199.11 320.24V377.88H1594.43V386.36H1199.11V444H1594.43V452.48H1199.11V510.12H1594.43V518.61H1199.11V576.24H1594.43V584.73H1199.11V649.43H1190.63V254.12H1179.17V239.14H1567.14V254.12H1199.11V311.76H1594.43V320.24H1199.11Z" fill="#F9F9F9" stroke="#3A4A67" stroke-width="3" stroke-linecap="round" stroke-linejoin="round"/>
</g>
<defs>
<clipPath id="clip0_781_3369">
<rect width="1440" height="632" fill="white"/>
</clipPath>
</defs>
</svg>
