<svg width="1288" height="1521" viewBox="0 0 1288 1521" fill="none" xmlns="http://www.w3.org/2000/svg">
<path d="M326.222 198.477C326.222 201.645 325.167 204.812 323.055 206.923C319.888 210.09 316.721 211.146 313.553 211.146C311.442 211.146 310.386 211.146 308.275 210.09L309.331 206.923C310.386 207.979 311.442 207.979 313.553 207.979C315.665 207.979 317.776 206.923 319.888 205.867C321.999 203.756 321.999 201.645 321.999 199.533V190.031C321.999 187.92 320.944 185.808 319.888 183.697C317.776 181.586 316.721 181.586 313.553 181.586C311.442 181.586 309.331 182.641 308.275 184.753C306.163 186.864 305.108 188.976 305.108 191.087V199.533C305.108 202.7 304.052 205.867 301.94 207.979C299.829 210.09 296.662 212.202 293.494 212.202C290.327 212.202 287.16 211.146 285.049 207.979C282.937 205.867 281.881 202.7 281.881 199.533H285.049C285.049 201.645 286.104 203.756 287.16 205.867C289.272 207.979 290.327 207.979 293.494 207.979C296.662 207.979 297.717 206.923 299.829 205.867C301.94 203.756 301.94 201.645 301.94 199.533V190.031C301.94 187.92 300.885 185.808 299.829 183.697C297.717 181.586 296.662 181.586 293.494 181.586C290.327 181.586 289.272 182.641 287.16 183.697C286.104 184.753 285.049 186.864 285.049 190.031H281.881C281.881 186.864 282.937 183.697 285.049 181.586C287.16 179.474 290.327 177.363 293.494 177.363C295.606 177.363 296.662 178.418 298.773 179.474C300.885 180.53 301.94 181.586 302.996 183.697C304.052 181.586 305.108 180.53 307.219 179.474C309.331 178.418 311.442 177.363 313.553 177.363C316.721 177.363 319.888 178.418 321.999 180.53C324.111 182.641 325.167 185.808 325.167 188.976V198.477H326.222Z" fill="#3A4A67"/>
<path d="M322 236.485H319.888C318.832 236.485 317.777 236.485 315.665 235.43C313.554 234.374 312.498 232.262 312.498 228.04V211.148H316.721V228.04C316.721 230.151 316.721 231.207 317.777 231.207C318.832 231.207 319.888 232.262 320.944 232.262H323.055V236.485H322Z" fill="#3A4A67"/>
<path d="M354.728 236.484C352.616 235.428 351.561 235.428 350.505 233.317C349.449 232.261 349.449 230.149 349.449 228.038V190.031C349.449 187.92 348.393 185.808 347.338 183.697C345.226 181.586 344.17 181.586 341.003 181.586C338.892 181.586 336.78 182.641 334.669 183.697C332.557 185.808 332.557 187.92 332.557 190.031V192.143C334.669 192.143 336.78 193.199 338.892 195.31C341.003 197.422 342.059 200.589 342.059 204.812V207.979C342.059 209.035 342.059 210.09 341.003 210.09C341.003 211.146 339.947 211.146 339.947 211.146C336.78 211.146 333.613 210.09 331.502 206.923C329.39 204.812 328.334 201.645 328.334 198.477V190.031C328.334 186.864 329.39 183.697 331.502 181.586C333.613 179.474 336.78 177.363 339.947 177.363C343.115 177.363 346.282 178.418 348.393 181.586C350.505 183.697 351.561 186.864 351.561 190.031V228.038C351.561 230.149 351.561 231.205 352.616 231.205C353.672 231.205 354.728 232.261 355.784 232.261L354.728 236.484ZM338.892 203.756C338.892 200.589 337.836 198.477 336.78 197.422C335.725 196.366 333.613 195.31 332.557 195.31V198.477C332.557 200.589 333.613 202.7 334.669 203.756C335.725 205.867 337.836 206.923 339.947 206.923C339.947 206.923 339.947 206.923 339.947 205.867C338.892 205.867 338.892 204.812 338.892 203.756C338.892 204.812 338.892 204.812 338.892 203.756Z" fill="#3A4A67"/>
<path d="M349.449 190.031C349.449 186.864 350.505 183.697 352.616 181.586C354.728 179.474 357.895 177.363 361.062 177.363C364.229 177.363 366.341 178.418 369.508 180.53C371.619 182.641 373.731 185.808 373.731 190.031V198.477C373.731 201.645 372.675 204.812 370.564 206.923C368.452 209.035 365.285 211.146 362.118 211.146C360.006 211.146 358.951 211.146 356.839 210.09L357.895 206.923C358.951 207.979 360.006 207.979 362.118 207.979C364.229 207.979 366.341 206.923 368.452 205.867C370.564 203.756 370.564 201.645 370.564 199.533V190.031C370.564 187.92 369.508 185.808 368.452 183.697C366.341 181.586 365.285 181.586 362.118 181.586C358.951 181.586 357.895 182.641 355.783 183.697C353.672 185.808 353.672 187.92 353.672 190.031H349.449Z" fill="#3A4A67"/>
<path d="M384.288 191.09C383.232 192.146 382.177 192.146 381.121 192.146C380.065 192.146 379.009 192.146 377.954 191.09C376.898 190.035 376.898 188.979 376.898 187.923V184.756C376.898 183.7 376.898 182.644 377.954 181.589C379.009 180.533 380.065 180.533 381.121 180.533C382.177 180.533 383.232 180.533 384.288 181.589C385.344 182.644 385.344 183.7 385.344 184.756V187.923C385.344 188.979 385.344 190.035 384.288 191.09ZM384.288 206.926C383.232 207.982 382.177 207.982 381.121 207.982C380.065 207.982 379.009 207.982 377.954 206.926C376.898 205.871 376.898 204.815 376.898 203.759V200.592C376.898 199.536 376.898 198.481 377.954 197.425C379.009 196.369 380.065 196.369 381.121 196.369C382.177 196.369 383.232 196.369 384.288 197.425C385.344 198.481 385.344 199.536 385.344 200.592V203.759C385.344 204.815 385.344 205.871 384.288 206.926ZM381.121 190.035C382.177 190.035 382.177 190.035 382.177 188.979V187.923V184.756C382.177 183.7 382.177 183.7 382.177 183.7L381.121 182.644C380.065 182.644 380.065 182.644 380.065 183.7V184.756V187.923C380.065 188.979 380.065 188.979 380.065 188.979C380.065 190.035 380.065 190.035 381.121 190.035ZM381.121 205.871C382.177 205.871 382.177 205.871 382.177 204.815V203.759V200.592C382.177 199.536 382.177 199.536 382.177 199.536L381.121 198.48C380.065 198.48 380.065 198.48 380.065 199.536V200.592V203.759C380.065 204.815 380.065 204.815 380.065 204.815C380.065 204.815 380.065 205.871 381.121 205.871Z" fill="#3A4A67"/>
<path d="M408.57 198.477V190.031C408.57 187.92 407.514 185.808 406.458 183.697C404.347 181.586 403.291 181.586 400.124 181.586C398.012 181.586 395.901 182.641 393.789 183.697C391.678 185.808 391.678 187.92 391.678 190.031V198.477C391.678 200.589 392.733 202.7 393.789 204.812C395.901 206.923 396.956 206.923 400.124 206.923C401.179 206.923 402.235 206.923 404.347 205.867L405.402 209.035C403.291 210.09 402.235 210.09 400.124 210.09C396.956 210.09 393.789 209.035 391.678 205.867C389.566 203.756 388.51 200.589 388.51 197.422V190.031C388.51 185.808 389.566 183.697 392.733 180.53C395.901 177.363 398.012 177.363 401.179 177.363C404.347 177.363 407.514 178.418 409.625 180.53C411.737 182.641 412.792 185.808 412.792 188.976V197.422C412.792 199.533 413.848 201.645 414.904 203.756C417.015 205.867 418.071 205.867 421.238 205.867C424.406 205.867 425.461 204.812 427.573 203.756C429.684 201.645 429.684 199.533 429.684 197.422V190.031C429.684 187.92 428.629 185.808 427.573 183.697C425.461 181.586 424.406 181.586 421.238 181.586C420.183 181.586 419.127 181.585 417.015 182.641L415.96 179.474C418.071 178.418 419.127 178.418 421.238 178.418C424.406 178.418 427.573 179.474 429.684 182.641C431.796 184.753 432.851 187.92 432.851 191.087V199.533C432.851 203.756 431.796 205.867 428.629 209.035C425.461 212.202 423.35 211.146 420.183 211.146C417.015 211.146 413.848 210.09 411.737 207.979C409.625 204.812 408.57 201.645 408.57 198.477Z" fill="#3A4A67"/>
<path d="M459.245 187.92V198.477C459.245 201.645 458.189 204.812 456.078 206.923C453.966 209.035 450.799 211.146 447.632 211.146C444.465 211.146 441.297 210.09 439.186 206.923C437.075 204.812 436.019 201.645 436.019 198.477V187.92C436.019 185.808 436.019 183.697 437.075 181.586C438.13 179.474 439.186 178.418 441.297 177.363L443.409 180.53C442.353 181.586 441.298 182.641 440.242 183.697C439.186 184.753 439.186 186.864 439.186 187.92V198.477C439.186 199.533 439.186 201.645 440.242 202.7C442.353 200.589 444.465 200.589 447.632 200.589C450.799 200.589 452.911 201.645 455.022 203.756C456.078 202.7 456.078 200.589 456.078 199.533V188.976C456.078 186.864 456.078 185.808 455.022 184.753C453.966 183.697 452.911 182.641 451.855 181.586L453.966 178.418C456.078 179.474 457.134 180.53 458.189 182.641C458.189 183.697 459.245 185.808 459.245 187.92ZM447.632 203.756C445.52 203.756 444.465 204.812 442.353 205.867C443.409 206.923 445.52 207.979 447.632 207.979C449.743 207.979 450.799 206.923 452.911 205.867C450.799 203.756 448.688 203.756 447.632 203.756Z" fill="#3A4A67"/>
<path d="M447.632 177.363C444.465 177.363 441.297 176.307 439.186 173.14C437.075 171.028 436.019 167.861 436.019 164.694C436.019 161.527 437.075 158.36 439.186 156.248C441.297 154.137 444.465 152.025 447.632 152.025C450.799 152.025 452.911 153.081 455.022 154.137C457.134 156.248 458.189 158.36 459.245 161.527L456.078 162.583C456.078 160.471 455.022 158.36 452.911 157.304C451.855 156.248 449.743 155.192 447.632 155.192C445.52 155.192 443.409 156.248 441.297 157.304C439.186 159.415 439.186 161.527 439.186 163.638C439.186 165.75 440.242 167.861 441.297 169.973C443.409 172.084 444.465 172.084 447.632 172.084V177.363V177.363Z" fill="#3A4A67"/>
<path d="M469.803 191.09C468.747 192.146 467.691 192.146 466.636 192.146C465.58 192.146 464.524 192.146 463.468 191.09C462.413 190.035 462.413 188.979 462.413 187.923V184.756C462.413 183.7 462.413 182.644 463.468 181.589C464.524 180.533 465.58 180.533 466.636 180.533C467.691 180.533 468.747 180.533 469.803 181.589C470.859 182.644 470.858 183.7 470.858 184.756V187.923C470.858 188.979 470.859 190.035 469.803 191.09ZM469.803 206.926C468.747 207.982 467.691 207.982 466.636 207.982C465.58 207.982 464.524 207.982 463.468 206.926C462.413 205.871 462.413 204.815 462.413 203.759V200.592C462.413 199.536 462.413 198.481 463.468 197.425C464.524 196.369 465.58 196.369 466.636 196.369C467.691 196.369 468.747 196.369 469.803 197.425C470.859 198.481 470.858 199.536 470.858 200.592V203.759C470.858 204.815 470.859 205.871 469.803 206.926ZM466.636 190.035C467.691 190.035 467.691 190.035 467.691 188.979V187.923V184.756C467.691 183.7 467.691 183.7 467.691 183.7L466.636 182.644C465.58 182.644 465.58 182.644 465.58 183.7V184.756V187.923C465.58 188.979 465.58 188.979 465.58 188.979C465.58 190.035 465.58 190.035 466.636 190.035ZM466.636 205.871C467.691 205.871 467.691 205.871 467.691 204.815V203.759V200.592C467.691 199.536 467.691 199.536 467.691 199.536L466.636 198.48C465.58 198.48 465.58 198.48 465.58 199.536V200.592V203.759C465.58 204.815 465.58 204.815 465.58 204.815C465.58 204.815 465.58 205.871 466.636 205.871Z" fill="#3A4A67"/>
<path d="M796.026 190.029C796.026 187.918 794.97 185.806 793.914 183.695C791.803 181.583 790.747 181.583 787.58 181.583C784.413 181.583 783.357 182.639 781.245 183.695C779.134 185.806 779.134 187.918 779.134 190.029V198.475C779.134 201.642 778.078 204.81 775.967 206.921C772.8 210.088 770.688 211.144 766.465 211.144C762.242 211.144 760.131 210.088 758.019 206.921C755.908 204.81 754.852 201.642 754.852 198.475V190.029C754.852 186.862 755.908 183.695 758.019 181.583C760.131 179.472 763.298 177.36 766.465 177.36C768.577 177.36 770.688 177.36 772.799 178.416C774.911 179.472 775.967 180.528 777.022 182.639C778.078 180.528 779.134 179.472 781.245 178.416C783.357 177.36 785.468 176.305 787.58 176.305C790.747 176.305 793.914 177.36 796.026 179.472C798.137 181.583 799.193 184.751 799.193 187.918V196.364C799.193 199.531 798.137 202.698 796.026 204.81C793.914 206.921 790.747 209.033 787.58 209.033C785.468 209.033 784.413 209.033 782.301 207.977L783.357 204.81C784.413 205.865 785.468 205.865 787.58 205.865C789.691 205.865 791.803 204.81 793.914 203.754C796.026 201.642 796.026 199.531 796.026 197.419V190.029V190.029ZM774.911 198.475V190.029C774.911 187.918 773.855 185.806 772.799 183.695C770.688 181.583 769.632 181.583 766.465 181.583C763.298 181.583 762.242 182.639 760.131 183.695C758.019 185.806 758.019 187.918 758.019 190.029V198.475C758.019 200.587 759.075 202.698 760.131 204.81C762.242 206.921 763.298 206.921 766.465 206.921C769.632 206.921 770.688 205.865 772.799 204.81C774.911 202.698 774.911 200.587 774.911 198.475Z" fill="#3A4A67"/>
<path d="M790.746 168.916C789.691 169.972 788.635 169.972 787.579 169.972C786.523 169.972 785.468 169.972 784.412 168.916C783.356 167.86 783.356 166.805 783.356 165.749V162.582C783.356 161.526 783.356 160.47 784.412 159.414C785.468 158.359 786.523 158.359 787.579 158.359C788.635 158.359 789.691 158.359 790.746 159.414C791.802 160.47 791.802 161.526 791.802 162.582V165.749C791.802 166.805 791.802 168.916 790.746 168.916ZM787.579 167.86C788.635 167.86 788.635 167.86 788.635 166.805V165.749V162.582C788.635 161.526 788.635 161.526 788.635 161.526L787.579 160.47C786.523 160.47 786.524 160.47 786.524 161.526V162.582V165.749C786.524 166.805 786.524 166.805 786.524 166.805C786.524 167.86 787.579 167.86 787.579 167.86Z" fill="#3A4A67"/>
<path d="M843.534 190.029C843.534 187.918 842.478 185.806 841.422 183.695C839.311 181.583 838.255 181.583 835.088 181.583C831.921 181.583 830.865 182.639 828.753 183.695C826.642 185.806 826.642 187.918 826.642 190.029V198.475C826.642 201.642 825.586 204.81 823.475 206.921C821.363 209.033 818.196 211.144 815.029 211.144C811.861 211.144 808.694 210.088 806.583 206.921C804.471 204.81 803.416 201.642 803.416 198.475V190.029C803.416 186.862 804.471 183.695 806.583 181.583C808.694 179.472 811.861 177.36 815.029 177.36C817.14 177.36 819.252 177.36 821.363 178.416C823.475 179.472 824.53 180.528 825.586 182.639C826.642 180.528 827.698 179.472 829.809 178.416C831.921 177.36 834.032 176.305 836.143 176.305C839.311 176.305 842.478 177.36 844.589 179.472C846.701 181.583 847.757 184.751 847.757 187.918V196.364C847.757 199.531 846.701 202.698 844.589 204.81C842.478 206.921 839.311 209.033 836.143 209.033C834.032 209.033 832.976 209.033 830.865 207.977L831.921 204.81C832.976 205.865 834.032 205.865 836.143 205.865C838.255 205.865 840.366 204.81 842.478 203.754C844.589 201.642 844.589 199.531 844.589 197.419V190.029H843.534ZM822.419 198.475V190.029C822.419 187.918 821.363 185.806 820.307 183.695C818.196 181.583 817.14 181.583 813.973 181.583C811.861 181.583 809.75 182.639 807.639 183.695C805.527 185.806 805.527 187.918 805.527 190.029V198.475C805.527 200.587 806.583 202.698 807.639 204.81C809.75 206.921 810.806 206.921 813.973 206.921C816.084 206.921 818.196 205.865 820.307 204.81C821.363 202.698 822.419 200.587 822.419 198.475Z" fill="#3A4A67"/>
<path d="M843.534 190.03C843.534 186.862 844.59 183.695 846.701 181.584C848.813 179.472 851.98 177.361 855.147 177.361C858.315 177.361 860.426 178.417 863.593 180.528C865.705 182.64 867.816 185.807 867.816 190.03V198.476C867.816 201.643 866.76 204.81 864.649 206.922C861.482 210.089 858.315 211.144 855.147 211.144C853.036 211.144 851.98 211.144 849.869 210.089L850.924 206.922C851.98 207.977 853.036 207.977 855.147 207.977C857.259 207.977 859.37 206.922 861.482 205.866C863.593 203.754 863.593 201.643 863.593 199.531V190.03C863.593 187.918 862.537 185.807 861.482 183.695C859.37 181.584 858.315 181.584 855.147 181.584C851.98 181.584 850.924 182.64 848.813 183.695C846.701 185.807 846.701 187.918 846.701 190.03H843.534Z" fill="#3A4A67"/>
<path d="M878.373 191.083C877.318 192.139 876.262 192.139 875.206 192.139C874.15 192.139 873.095 192.139 872.039 191.083C870.983 190.027 870.983 188.972 870.983 187.916V184.749C870.983 183.693 870.983 182.637 872.039 181.581C873.095 180.526 874.15 180.526 875.206 180.526C876.262 180.526 877.318 180.526 878.373 181.581C879.429 182.637 879.429 183.693 879.429 184.749V187.916C879.429 188.972 879.429 190.027 878.373 191.083ZM878.373 206.919C877.318 207.975 876.262 207.975 875.206 207.975C874.15 207.975 873.095 207.975 872.039 206.919C870.983 205.863 870.983 204.808 870.983 203.752V200.585C870.983 199.529 870.983 198.473 872.039 197.417C873.095 196.362 874.15 196.362 875.206 196.362C876.262 196.362 877.318 196.362 878.373 197.417C879.429 198.473 879.429 199.529 879.429 200.585V203.752C879.429 204.808 879.429 205.863 878.373 206.919ZM875.206 190.027C876.262 190.027 876.262 190.027 876.262 188.972V187.916V184.749C876.262 183.693 876.262 183.693 876.262 183.693L875.206 182.637C874.15 182.637 874.15 182.637 874.15 183.693V184.749V187.916C874.15 188.972 874.15 188.972 874.15 188.972C874.15 190.027 874.15 190.027 875.206 190.027ZM875.206 205.863C876.262 205.863 876.262 205.863 876.262 204.808V203.752V200.585C876.262 199.529 876.262 199.529 876.262 199.529L875.206 198.473C874.15 198.473 874.15 198.473 874.15 199.529V200.585V203.752C874.15 204.808 874.15 204.808 874.15 204.808C874.15 204.808 874.15 205.863 875.206 205.863Z" fill="#3A4A67"/>
<path d="M934.327 198.475V228.036C934.327 231.203 933.272 233.315 932.216 234.37C930.104 235.426 929.049 235.426 926.937 236.482H889.986C888.931 236.482 887.875 236.482 885.763 235.426C883.652 234.37 882.596 232.259 882.596 228.036V159.413C882.596 156.246 883.652 154.134 884.708 153.079C886.819 152.023 887.875 152.023 889.986 150.967H908.99V155.19H889.986C888.931 155.19 887.875 155.19 886.819 156.246C885.763 156.246 885.763 158.357 885.763 159.413V228.036C885.763 230.147 885.763 231.203 886.819 231.203C887.875 231.203 888.931 232.259 889.986 232.259H926.937C927.993 232.259 929.049 232.259 930.104 231.203C931.16 231.203 931.16 229.092 931.16 228.036V198.475H934.327Z" fill="#3A4A67"/>
<path d="M934.327 190.029V198.475C934.327 201.642 933.271 204.81 931.16 206.921C929.048 210.088 925.881 211.144 922.714 211.144C920.602 211.144 919.547 211.144 917.435 210.088L918.491 206.921C919.547 207.977 920.602 207.977 922.714 207.977C924.825 207.977 926.937 206.921 929.048 205.865C931.16 203.754 931.16 201.642 931.16 199.531V190.029C931.16 187.918 930.104 185.806 929.048 183.695C926.937 181.583 925.881 181.583 922.714 181.583C919.547 181.583 918.491 182.639 916.379 183.695C914.268 185.806 914.268 187.918 914.268 190.029V200.587C914.268 202.698 914.268 204.81 913.212 206.921C912.156 209.033 911.101 210.088 908.989 211.144L906.878 207.977C907.934 206.921 908.989 205.865 910.045 204.81C911.101 203.754 911.101 201.642 911.101 200.587V190.029C911.101 187.918 910.045 185.806 908.989 183.695C906.878 181.583 905.822 181.583 902.655 181.583C899.488 181.583 898.432 182.639 896.32 183.695C894.209 185.806 894.209 187.918 894.209 190.029V200.587C894.209 202.698 894.209 203.754 895.265 204.81C896.32 205.865 897.376 206.921 898.432 207.977L895.265 211.144C893.153 210.088 892.097 209.033 891.042 206.921C889.986 204.81 888.93 202.698 888.93 200.587V190.029C888.93 186.862 889.986 183.695 892.097 181.583C894.209 179.472 897.376 177.36 900.543 177.36C902.655 177.36 904.766 177.36 906.878 178.416C908.989 179.472 910.045 180.528 911.101 182.639C912.156 180.528 913.212 179.472 915.324 178.416C917.435 177.36 918.491 176.305 921.658 176.305C924.825 176.305 927.992 177.36 930.104 180.528C933.271 183.695 934.327 186.862 934.327 190.029Z" fill="#3A4A67"/>
<path d="M922.715 177.361C919.548 177.361 916.38 176.305 914.269 173.138C912.157 171.026 911.102 167.859 911.102 164.692C911.102 161.525 912.157 158.358 914.269 156.246C916.38 154.135 919.548 152.023 922.715 152.023C925.882 152.023 927.993 153.079 931.161 156.246C933.272 158.358 935.384 161.525 935.384 164.692C935.384 167.859 934.328 171.026 931.161 173.138C927.993 176.305 925.882 177.361 922.715 177.361ZM931.161 164.692C931.161 162.581 930.105 160.469 929.049 158.358C926.938 156.246 925.882 156.246 922.715 156.246C920.603 156.246 918.492 157.302 916.38 158.358C914.269 160.469 914.269 162.581 914.269 164.692C914.269 165.748 914.269 166.804 914.269 167.859C916.38 165.748 919.548 164.692 922.715 164.692C925.882 164.692 927.993 165.748 930.105 167.859C931.161 166.804 931.161 165.748 931.161 164.692ZM922.715 167.859C920.603 167.859 918.492 168.915 916.38 171.026C918.492 173.138 919.548 173.138 922.715 173.138C923.771 173.138 924.826 173.138 925.882 172.082C926.938 172.082 927.993 171.026 929.049 169.971C926.938 168.915 924.826 167.859 922.715 167.859Z" fill="#3A4A67"/>
<path d="M944.885 191.083C943.83 192.139 942.774 192.139 941.718 192.139C940.662 192.139 939.607 192.139 938.551 191.083C937.495 190.027 937.495 188.972 937.495 187.916V184.749C937.495 183.693 937.495 182.637 938.551 181.581C939.607 180.526 940.662 180.526 941.718 180.526C942.774 180.526 943.83 180.526 944.885 181.581C945.941 182.637 945.941 183.693 945.941 184.749V187.916C945.941 188.972 945.941 190.027 944.885 191.083ZM944.885 206.919C943.83 207.975 942.774 207.975 941.718 207.975C940.662 207.975 939.607 207.975 938.551 206.919C937.495 205.863 937.495 204.808 937.495 203.752V200.585C937.495 199.529 937.495 198.473 938.551 197.417C939.607 196.362 940.662 196.362 941.718 196.362C942.774 196.362 943.83 196.362 944.885 197.417C945.941 198.473 945.941 199.529 945.941 200.585V203.752C945.941 204.808 945.941 205.863 944.885 206.919ZM941.718 190.027C942.774 190.027 942.774 190.027 942.774 188.972V187.916V184.749C942.774 183.693 942.774 183.693 942.774 183.693L941.718 182.637C940.662 182.637 940.662 182.637 940.662 183.693V184.749V187.916C940.662 188.972 940.662 188.972 940.662 188.972C940.662 190.027 941.718 190.027 941.718 190.027ZM941.718 205.863C942.774 205.863 942.774 205.863 942.774 204.808V203.752V200.585C942.774 199.529 942.774 199.529 942.774 199.529L941.718 198.473C940.662 198.473 940.662 198.473 940.662 199.529V200.585V203.752C940.662 204.808 940.662 204.808 940.662 204.808C940.662 204.808 941.718 205.863 941.718 205.863Z" fill="#3A4A67"/>
<path d="M990.282 190.029C990.282 187.918 989.226 185.806 988.17 183.695C986.059 181.583 985.003 181.583 981.836 181.583C978.669 181.583 977.613 182.639 975.501 183.695C973.39 185.806 973.39 187.918 973.39 190.029V198.475C973.39 201.642 972.334 204.81 970.223 206.921C967.056 210.088 963.888 211.144 960.721 211.144C957.554 211.144 954.387 210.088 952.275 206.921C950.164 204.81 949.108 201.642 949.108 198.475V190.029C949.108 186.862 950.164 183.695 952.275 181.583C954.387 179.472 957.554 177.36 960.721 177.36C962.833 177.36 964.944 177.36 967.055 178.416C969.167 179.472 970.223 180.528 971.278 182.639C972.334 180.528 973.39 179.472 975.501 178.416C977.613 177.36 979.724 176.305 981.836 176.305C985.003 176.305 988.17 177.36 990.282 179.472C992.393 181.583 993.449 184.751 993.449 187.918V196.364C993.449 199.531 992.393 202.698 990.282 204.81C987.115 210.088 985.003 211.144 981.836 211.144C979.724 211.144 978.669 211.144 976.557 210.088L977.613 206.921C978.669 207.977 979.724 207.977 981.836 207.977C983.947 207.977 986.059 206.921 988.17 205.865C990.282 203.754 990.282 201.642 990.282 199.531V190.029ZM969.167 198.475V190.029C969.167 187.918 968.111 185.806 967.055 183.695C964.944 181.583 963.888 181.583 960.721 181.583C958.61 181.583 956.498 182.639 954.387 183.695C952.275 185.806 952.275 187.918 952.275 190.029V198.475C952.275 200.587 953.331 202.698 954.387 204.81C956.498 206.921 957.554 206.921 960.721 206.921C962.833 206.921 964.944 205.865 967.055 204.81C968.111 202.698 969.167 200.587 969.167 198.475Z" fill="#3A4A67"/>
<path d="M1013.51 206.921C1014.56 206.921 1015.62 206.921 1015.62 205.865C1016.68 204.81 1016.68 204.81 1016.68 203.754C1016.68 202.698 1016.68 201.642 1015.62 201.642L1002.95 188.974C1001.9 187.918 1000.84 185.806 1000.84 183.695C1000.84 181.583 1001.9 179.472 1002.95 178.416C1004.01 177.36 1006.12 176.305 1008.23 176.305C1010.34 176.305 1011.4 177.36 1013.51 178.416C1014.56 179.472 1015.62 181.583 1015.62 183.695H1012.45C1012.45 182.639 1012.45 181.583 1011.4 181.583C1010.34 180.528 1010.34 180.528 1009.29 180.528C1008.23 180.528 1007.17 180.528 1007.17 181.583C1006.12 182.639 1006.12 182.639 1006.12 183.695C1006.12 184.751 1006.12 185.806 1007.17 185.806L1019.84 197.419C1020.9 198.475 1021.95 200.587 1021.95 202.698C1021.95 204.81 1020.9 206.921 1019.84 207.977C1016.68 210.088 1014.56 211.144 1013.51 211.144H1010.34V236.482H1007.17V211.144H1002.95C1000.84 211.144 999.784 210.088 997.672 209.033C996.616 207.977 995.561 205.865 995.561 203.754C995.561 201.642 996.616 199.531 997.672 198.475C998.728 197.419 1000.84 196.364 1002.95 196.364C1005.06 196.364 1006.12 197.419 1008.23 198.475C1009.29 199.531 1010.34 201.642 1010.34 203.754V206.921H1013.51ZM1006.12 206.921V203.754C1006.12 202.698 1006.12 201.642 1005.06 201.642C1005.06 200.587 1004.01 200.587 1002.95 200.587C1001.9 200.587 1000.84 200.587 1000.84 201.642C999.784 202.698 999.784 202.698 999.784 203.754C999.784 204.81 999.784 205.865 1000.84 205.865C1001.9 206.921 1001.9 206.921 1002.95 206.921H1006.12Z" fill="#3A4A67"/>
<path d="M1008.23 177.361C1005.06 177.361 1001.89 176.305 999.783 173.138C997.672 171.026 996.616 167.859 996.616 164.692C996.616 161.525 997.672 158.358 999.783 156.246C1001.89 154.135 1005.06 152.023 1008.23 152.023C1011.4 152.023 1013.51 153.079 1015.62 154.135C1017.73 156.246 1018.79 158.358 1019.84 161.525L1016.68 162.581C1016.68 160.469 1015.62 158.358 1013.51 157.302C1012.45 156.246 1010.34 155.19 1008.23 155.19C1006.12 155.19 1004.01 156.246 1001.89 157.302C999.783 159.413 999.783 161.525 999.783 163.636C999.783 165.748 1000.84 167.859 1001.89 169.971C1004.01 172.082 1005.06 172.082 1008.23 172.082V177.361V177.361Z" fill="#3A4A67"/>
<path d="M1030.4 191.083C1029.34 192.139 1028.29 192.139 1027.23 192.139C1026.18 192.139 1025.12 192.139 1024.07 191.083C1023.01 190.027 1023.01 188.972 1023.01 187.916V184.749C1023.01 183.693 1023.01 182.637 1024.07 181.581C1025.12 180.526 1026.18 180.526 1027.23 180.526C1028.29 180.526 1029.34 180.526 1030.4 181.581C1031.46 182.637 1031.46 183.693 1031.46 184.749V187.916C1031.46 188.972 1031.46 190.027 1030.4 191.083ZM1030.4 206.919C1029.34 207.975 1028.29 207.975 1027.23 207.975C1026.18 207.975 1025.12 207.975 1024.07 206.919C1023.01 205.863 1023.01 204.808 1023.01 203.752V200.585C1023.01 199.529 1023.01 198.473 1024.07 197.417C1025.12 196.362 1026.18 196.362 1027.23 196.362C1028.29 196.362 1029.34 196.362 1030.4 197.417C1031.46 198.473 1031.46 199.529 1031.46 200.585V203.752C1031.46 204.808 1031.46 205.863 1030.4 206.919ZM1027.23 190.027C1028.29 190.027 1028.29 190.027 1028.29 188.972V187.916V184.749C1028.29 183.693 1028.29 183.693 1028.29 183.693L1027.23 182.637C1026.18 182.637 1026.18 182.637 1026.18 183.693V184.749V187.916C1026.18 188.972 1026.18 188.972 1026.18 188.972C1026.18 190.027 1027.23 190.027 1027.23 190.027ZM1027.23 205.863C1028.29 205.863 1028.29 205.863 1028.29 204.808V203.752V200.585C1028.29 199.529 1028.29 199.529 1028.29 199.529L1027.23 198.473C1026.18 198.473 1026.18 198.473 1026.18 199.529V200.585V203.752C1026.18 204.808 1026.18 204.808 1026.18 204.808C1026.18 204.808 1027.23 205.863 1027.23 205.863Z" fill="#3A4A67"/>
<path d="M1054.68 198.476V190.03C1054.68 187.918 1053.63 185.807 1052.57 183.695C1050.46 181.584 1049.4 181.584 1046.24 181.584C1043.07 181.584 1042.01 182.64 1039.9 183.695C1037.79 185.807 1037.79 187.918 1037.79 190.03V198.476C1037.79 200.587 1038.85 202.699 1039.9 204.81C1042.01 206.922 1043.07 206.922 1046.24 206.922C1047.29 206.922 1048.35 206.922 1050.46 205.866L1051.51 209.033C1049.4 210.089 1048.35 210.089 1046.24 210.089C1043.07 210.089 1039.9 209.033 1037.79 205.866C1035.68 203.754 1034.62 200.587 1034.62 197.42V190.03C1034.62 185.807 1035.68 183.695 1038.85 180.528C1042.01 177.361 1044.12 177.361 1047.29 177.361C1050.46 177.361 1053.63 178.417 1055.74 180.528C1057.85 182.64 1058.9 185.807 1058.9 188.974V197.42C1058.9 199.531 1059.96 201.643 1061.02 203.754C1063.13 205.866 1064.18 205.866 1067.35 205.866C1070.52 205.866 1071.57 204.81 1073.68 203.754C1075.8 201.643 1075.8 199.531 1075.8 197.42V190.03C1075.8 187.918 1074.74 185.807 1073.68 183.695C1071.57 181.584 1070.52 181.584 1067.35 181.584C1066.29 181.584 1065.24 181.584 1063.13 182.64L1062.07 179.472C1064.18 178.417 1065.24 178.417 1067.35 178.417C1070.52 178.417 1073.68 179.472 1075.8 182.64C1077.91 184.751 1078.96 187.918 1078.96 191.085V199.531C1078.96 203.754 1077.91 205.866 1074.74 209.033C1071.57 212.2 1069.46 212.2 1066.29 212.2C1063.13 212.2 1059.96 211.144 1057.85 209.033C1055.74 204.81 1054.68 201.643 1054.68 198.476Z" fill="#3A4A67"/>
<path d="M1105.36 187.918V198.476C1105.36 201.643 1104.3 204.81 1102.19 206.922C1100.08 209.033 1096.91 211.144 1093.74 211.144C1090.58 211.144 1087.41 210.089 1085.3 206.922C1083.19 204.81 1082.13 201.643 1082.13 198.476V187.918C1082.13 185.807 1082.13 183.695 1083.19 181.584C1084.24 179.472 1085.3 178.417 1087.41 177.361L1089.52 180.528C1088.47 181.584 1087.41 182.64 1086.35 183.695C1085.3 184.751 1085.3 186.862 1085.3 187.918V198.476C1085.3 199.531 1085.3 201.643 1086.35 202.699C1088.47 200.587 1090.58 200.587 1093.74 200.587C1096.91 200.587 1099.02 201.643 1101.13 203.754C1102.19 202.699 1102.19 200.587 1102.19 199.531V188.974C1102.19 186.862 1102.19 185.807 1101.13 184.751C1100.08 183.695 1099.02 182.64 1097.97 181.584L1100.08 178.417C1102.19 179.472 1103.25 180.528 1104.3 182.64C1105.36 183.695 1105.36 185.807 1105.36 187.918ZM1093.74 203.754C1091.63 203.754 1090.58 204.81 1088.47 205.866C1089.52 206.922 1091.63 207.977 1093.74 207.977C1095.86 207.977 1096.91 206.922 1099.02 205.866C1096.91 203.754 1094.8 203.754 1093.74 203.754Z" fill="#3A4A67"/>
<path d="M1093.74 177.361C1090.58 177.361 1087.41 176.305 1085.3 173.138C1083.19 171.026 1082.13 167.859 1082.13 164.692C1082.13 161.525 1083.19 158.358 1085.3 156.246C1087.41 154.135 1090.58 152.023 1093.74 152.023C1096.91 152.023 1099.02 153.079 1101.13 154.135C1103.25 156.246 1104.3 158.358 1105.36 161.525L1102.19 162.581C1102.19 160.469 1101.13 158.358 1099.02 157.302C1097.97 156.246 1095.86 155.19 1093.74 155.19C1091.63 155.19 1089.52 156.246 1087.41 157.302C1085.3 159.413 1085.3 161.525 1085.3 163.636C1085.3 165.748 1086.35 167.859 1087.41 169.971C1089.52 172.082 1090.58 172.082 1093.74 172.082V177.361V177.361Z" fill="#3A4A67"/>
<path d="M1115.91 191.083C1114.86 192.139 1113.8 192.139 1112.75 192.139C1111.69 192.139 1110.64 192.139 1109.58 191.083C1108.52 190.027 1108.52 188.972 1108.52 187.916V184.749C1108.52 183.693 1108.52 182.637 1109.58 181.581C1110.64 180.526 1111.69 180.526 1112.75 180.526C1113.8 180.526 1114.86 180.526 1115.91 181.581C1116.97 182.637 1116.97 183.693 1116.97 184.749V187.916C1118.03 188.972 1116.97 190.027 1115.91 191.083ZM1115.91 206.919C1114.86 207.975 1113.8 207.975 1112.75 207.975C1111.69 207.975 1110.64 207.975 1109.58 206.919C1108.52 205.863 1108.52 204.808 1108.52 203.752V200.585C1108.52 199.529 1108.52 198.473 1109.58 197.417C1110.64 196.362 1111.69 196.362 1112.75 196.362C1113.8 196.362 1114.86 196.362 1115.91 197.417C1116.97 198.473 1116.97 199.529 1116.97 200.585V203.752C1118.03 204.808 1116.97 205.863 1115.91 206.919ZM1112.75 190.027C1113.8 190.027 1113.8 190.027 1113.8 188.972V187.916V184.749C1113.8 183.693 1113.8 183.693 1113.8 183.693L1112.75 182.637C1111.69 182.637 1111.69 182.637 1111.69 183.693V184.749V187.916C1111.69 188.972 1111.69 188.972 1111.69 188.972C1111.69 190.027 1112.75 190.027 1112.75 190.027ZM1112.75 205.863C1113.8 205.863 1113.8 205.863 1113.8 204.808V203.752V200.585C1113.8 199.529 1113.8 199.529 1113.8 199.529L1112.75 198.473C1111.69 198.473 1111.69 198.473 1111.69 199.529V200.585V203.752C1111.69 204.808 1111.69 204.808 1111.69 204.808C1111.69 204.808 1112.75 205.863 1112.75 205.863Z" fill="#3A4A67"/>
<path d="M187.921 1008.23H198.478C201.645 1008.23 204.813 1009.28 206.924 1011.4C209.036 1013.51 211.147 1016.67 211.147 1019.84C211.147 1023.01 210.091 1026.18 206.924 1028.29C204.813 1030.4 201.645 1031.45 198.478 1031.45H187.921C185.809 1031.45 183.698 1031.45 181.586 1030.4C179.475 1029.34 178.419 1028.29 177.363 1026.18L179.475 1024.06C180.531 1025.12 181.586 1026.18 182.642 1027.23C183.698 1028.29 185.809 1028.29 186.865 1028.29H197.422C198.478 1028.29 200.59 1028.29 201.645 1027.23C199.534 1025.12 199.534 1023.01 199.534 1019.84C199.534 1016.67 200.59 1014.56 202.701 1012.45C201.645 1011.4 199.534 1011.4 198.478 1011.4H187.921C185.809 1011.4 184.754 1011.4 183.698 1012.45C182.642 1013.51 181.586 1014.56 180.531 1015.62L176.308 1013.51C177.363 1011.4 178.419 1010.34 180.531 1009.28C182.642 1008.23 184.754 1008.23 187.921 1008.23ZM202.701 1019.84C202.701 1021.95 203.757 1023.01 204.813 1025.12C205.868 1024.06 206.924 1021.95 206.924 1019.84C206.924 1017.73 205.868 1016.67 204.813 1014.56C203.757 1016.67 202.701 1017.73 202.701 1019.84Z" fill="#3A4A67"/>
<path d="M197.422 980.779C200.59 980.779 203.757 981.834 205.868 983.946C207.98 986.057 210.091 989.225 210.091 992.392C210.091 995.559 209.036 998.726 205.868 1000.84C203.757 1002.95 200.59 1004.01 197.422 1004.01H188.977C185.809 1004.01 182.642 1002.95 180.531 1000.84C178.419 998.726 176.308 995.559 176.308 992.392C176.308 989.225 177.363 986.057 180.531 983.946C182.642 981.834 185.809 980.779 188.977 980.779V983.946C186.865 983.946 184.754 985.002 182.642 986.057C180.531 988.169 180.531 989.225 180.531 992.392C180.531 994.503 181.586 996.615 182.642 998.726C184.754 1000.84 186.865 1000.84 188.977 1000.84H197.422C199.534 1000.84 201.645 999.782 203.757 998.726C205.868 996.615 205.868 995.559 205.868 992.392C205.868 990.28 204.813 988.169 203.757 986.057C201.645 983.946 199.534 983.946 197.422 983.946V980.779Z" fill="#3A4A67"/>
<path d="M176.308 993.448C176.308 996.615 175.252 999.783 172.085 1001.89C169.973 1004.01 166.806 1005.06 163.639 1005.06C160.471 1005.06 157.304 1004.01 155.193 1001.89C153.081 999.783 150.97 996.615 150.97 993.448C150.97 990.281 152.026 988.169 153.081 986.058C155.193 983.946 157.304 982.891 160.471 981.835L161.527 985.002C159.416 985.002 157.304 986.058 156.249 988.169C155.193 989.225 154.137 991.337 154.137 993.448C154.137 995.56 155.193 997.671 156.249 999.782C158.36 1001.89 160.471 1001.89 162.583 1001.89C164.694 1001.89 166.806 1000.84 168.917 999.782C171.029 997.671 171.029 996.615 171.029 993.448H176.308V993.448Z" fill="#3A4A67"/>
<path d="M191.089 970.22C192.144 971.276 192.144 972.331 192.144 973.387C192.144 974.443 192.144 975.498 191.089 976.554C190.033 977.61 188.977 977.61 187.921 977.61H184.754C183.698 977.61 182.643 977.61 181.587 976.554C180.531 975.498 179.475 975.498 179.475 974.443C179.475 973.387 179.475 972.331 180.531 971.276C181.587 970.22 182.643 970.22 183.698 970.22H186.866C188.977 969.164 190.033 970.22 191.089 970.22ZM188.977 974.443C188.977 973.387 188.977 973.387 187.921 973.387H186.866H183.698C182.643 973.387 182.643 973.387 182.643 973.387L181.587 974.443C181.587 975.498 181.587 975.498 182.643 975.498H183.698H186.866C187.921 975.498 187.921 975.498 187.921 975.498C188.977 975.498 188.977 974.443 188.977 974.443ZM206.925 970.22C207.98 971.276 207.98 972.331 207.98 973.387C207.98 974.443 207.98 975.498 206.925 976.554C205.869 977.61 204.813 977.61 203.757 977.61H200.59C199.534 977.61 198.479 977.61 197.423 976.554C196.367 975.498 196.367 974.443 196.367 973.387C196.367 972.331 196.367 971.276 197.423 970.22C198.479 969.164 199.534 969.164 200.59 969.164H203.757C204.813 969.164 205.869 970.22 206.925 970.22ZM204.813 974.443C204.813 973.387 204.813 973.387 203.757 973.387H202.702H200.59C199.534 973.387 199.534 973.387 199.534 973.387L198.479 974.443C198.479 975.498 198.479 975.498 199.534 975.498H200.59H203.757C204.813 975.498 204.813 975.498 204.813 975.498C204.813 975.498 204.813 974.443 204.813 974.443Z" fill="#3A4A67"/>
<path d="M197.422 914.27H226.983C230.15 914.27 232.262 915.326 233.317 916.382C234.373 918.493 234.373 919.549 235.429 921.66V958.611C235.429 959.667 235.429 960.722 234.373 962.834C233.317 964.945 231.206 966.001 226.983 966.001H158.36C155.193 966.001 153.081 964.945 152.026 963.89C150.97 961.778 150.97 960.723 149.914 958.611V939.608H154.137V958.611C154.137 959.667 154.137 960.722 155.193 961.778C155.193 962.834 157.304 962.834 158.36 962.834H226.983C229.094 962.834 230.15 962.834 230.15 961.778C230.15 960.722 231.206 959.667 231.206 958.611V921.66C231.206 920.604 231.206 919.549 230.15 918.493C230.15 917.437 228.039 917.437 226.983 917.437H197.422V914.27Z" fill="#3A4A67"/>
<path d="M188.977 914.27H197.423C200.59 914.27 203.757 915.326 205.868 917.437C207.98 919.549 210.091 922.716 210.091 925.883C210.091 927.995 210.091 929.05 209.036 931.162L205.868 930.106C206.924 929.05 206.924 927.995 206.924 925.883C206.924 923.772 205.868 921.66 204.813 919.549C202.701 919.549 200.59 918.493 197.423 918.493H188.977C186.865 918.493 184.754 919.549 182.642 920.604C180.531 922.716 180.531 923.772 180.531 926.939C180.531 929.05 181.586 931.162 182.642 933.273C184.754 935.385 186.865 935.385 188.977 935.385H199.534C201.646 935.385 203.757 935.385 205.868 936.44C207.98 937.496 209.036 938.552 210.091 940.663L206.924 942.775C205.868 941.719 204.813 940.663 203.757 939.608C202.701 938.552 200.59 938.552 199.534 938.552H188.977C186.865 938.552 184.754 939.608 182.642 940.663C180.531 942.775 180.531 943.831 180.531 946.998C180.531 949.109 181.586 951.221 182.642 953.332C184.754 955.444 186.865 955.444 188.977 955.444H199.534C201.646 955.444 202.701 955.444 203.757 954.388C204.813 953.332 205.868 952.277 206.924 951.221L210.091 953.332C209.036 955.444 207.98 956.5 205.868 957.555C203.757 958.611 201.646 959.667 199.534 959.667H188.977C185.809 959.667 182.642 958.611 180.531 956.5C178.419 954.388 176.308 951.221 176.308 948.054C176.308 945.942 176.308 943.831 177.364 941.719C178.419 939.608 179.475 938.552 181.587 937.496C179.475 936.441 178.419 935.385 177.364 933.273C176.308 931.162 175.252 930.106 175.252 926.939C175.252 923.772 176.308 920.604 179.475 918.493C182.642 915.326 185.809 914.27 188.977 914.27Z" fill="#3A4A67"/>
<path d="M176.308 926.939C176.308 930.106 175.252 933.273 172.085 935.385C169.973 937.496 166.806 938.552 163.639 938.552C160.471 938.552 157.304 937.496 155.193 935.385C153.081 933.273 150.97 930.106 150.97 926.939C150.97 923.772 152.026 921.66 155.193 918.493C158.36 915.326 160.471 914.27 163.639 914.27C166.806 914.27 169.973 915.326 172.085 918.493C175.252 920.604 176.308 923.772 176.308 926.939ZM163.639 918.493C161.527 918.493 159.416 919.549 157.304 920.604C155.193 922.716 155.193 923.772 155.193 926.939C155.193 929.05 156.249 931.162 157.304 933.273C159.416 935.385 161.527 935.385 163.639 935.385C164.694 935.385 165.75 935.385 166.806 935.385C164.694 933.273 163.639 930.106 163.639 926.939C163.639 923.772 164.694 921.66 166.806 919.549C166.806 918.493 164.694 918.493 163.639 918.493ZM167.862 926.939C167.862 929.05 168.917 931.162 171.029 933.273C173.14 931.162 173.14 930.106 173.14 926.939C173.14 925.883 173.14 924.827 172.085 923.772C172.085 922.716 171.029 921.66 169.973 920.604C168.917 922.716 167.862 924.827 167.862 926.939Z" fill="#3A4A67"/>
<path d="M191.089 903.711C192.144 904.767 192.144 905.823 192.144 906.879C192.144 907.934 192.144 908.99 191.089 910.046C190.033 911.102 188.977 911.102 187.921 911.102H184.754C183.698 911.102 182.643 911.102 181.587 910.046C180.531 908.99 179.475 908.99 179.475 906.879C179.475 905.823 179.475 904.767 180.531 903.711C181.587 902.656 182.643 902.656 183.698 902.656H186.866C188.977 902.656 190.033 902.656 191.089 903.711ZM188.977 906.879C188.977 905.823 188.977 905.823 187.921 905.823H186.866H183.698C182.643 905.823 182.643 905.823 182.643 905.823L181.587 906.879C181.587 907.934 181.587 907.934 182.643 907.934H183.698H186.866C187.921 907.934 187.921 907.934 187.921 907.934C188.977 907.934 188.977 907.934 188.977 906.879ZM206.925 903.711C207.98 904.767 207.98 905.823 207.98 906.879C207.98 907.934 207.98 908.99 206.925 910.046C205.869 911.102 204.813 911.102 203.757 911.102H200.59C199.534 911.102 198.479 911.102 197.423 910.046C196.367 908.99 196.367 907.934 196.367 906.879C196.367 905.823 196.367 904.767 197.423 903.711C198.479 902.656 199.534 902.656 200.59 902.656H203.757C204.813 902.656 205.869 902.656 206.925 903.711ZM204.813 906.879C204.813 905.823 204.813 905.823 203.757 905.823H202.702H200.59C199.534 905.823 199.534 905.823 199.534 905.823L198.479 906.879C198.479 907.934 198.479 907.934 199.534 907.934H200.59H203.757C204.813 907.934 204.813 907.934 204.813 907.934C204.813 907.934 204.813 907.934 204.813 906.879Z" fill="#3A4A67"/>
<path d="M197.423 879.429H188.977C186.865 879.429 184.754 880.485 182.642 881.541C180.531 883.652 180.531 884.708 180.531 887.875C180.531 889.987 181.586 892.098 182.642 894.21C184.754 896.321 186.865 896.321 188.977 896.321H197.423C199.534 896.321 201.646 895.265 203.757 894.21C205.868 892.098 205.868 891.043 205.868 887.875C205.868 886.82 205.868 885.764 204.813 883.652L207.98 882.597C209.036 884.708 209.036 885.764 209.036 887.875C209.036 891.043 207.98 894.21 204.813 896.321C202.701 898.433 199.534 899.488 196.367 899.488H187.921C183.698 899.488 181.586 898.433 178.419 895.266C175.252 892.098 175.252 889.987 175.252 886.82C175.252 883.652 176.308 880.485 178.419 878.374C180.531 876.262 183.698 875.206 186.865 875.206H195.311C197.423 875.206 199.534 874.151 201.646 873.095C203.757 870.983 203.757 869.928 203.757 866.761C203.757 864.649 202.701 862.538 201.646 860.426C199.534 858.315 197.423 858.315 195.311 858.315H186.865C184.754 858.315 182.642 859.37 180.531 860.426C178.419 862.538 178.419 863.593 178.419 866.761C178.419 867.816 178.419 868.872 179.475 870.984L176.308 872.039C175.252 869.928 175.252 868.872 175.252 866.761C175.252 863.593 176.308 860.426 179.475 858.315C181.586 856.203 184.754 855.147 187.921 855.147H196.367C200.59 855.147 202.701 856.203 205.868 859.37C209.036 862.538 209.036 864.649 209.036 867.816C209.036 870.983 207.98 874.151 205.868 876.262C203.757 878.374 201.646 879.429 197.423 879.429Z" fill="#3A4A67"/>
<path d="M187.92 828.753H198.478C201.645 828.753 204.812 829.809 206.924 831.921C209.035 834.032 211.147 837.199 211.147 840.367C211.147 843.534 210.091 846.701 206.924 848.812C204.812 850.924 201.645 851.98 198.478 851.98H187.92C185.809 851.98 183.697 851.98 181.586 850.924C179.475 849.868 178.419 848.812 177.363 846.701L179.475 844.589C180.53 845.645 181.586 846.701 182.642 847.757C183.697 848.812 185.809 848.812 186.865 848.812H197.422C198.478 848.812 200.589 848.812 201.645 847.757C199.534 845.645 199.534 843.534 199.534 840.367C199.534 837.199 200.589 835.088 202.701 832.976C201.645 831.921 199.534 831.921 198.478 831.921H187.92C185.809 831.921 184.753 831.921 183.697 832.976C182.642 834.032 181.586 835.088 180.53 836.144L177.363 834.032C178.419 831.921 179.475 830.865 181.586 829.809C182.642 829.809 184.753 828.753 187.92 828.753ZM202.701 841.422C202.701 843.534 203.756 844.589 204.812 846.701C205.868 845.645 206.924 843.534 206.924 841.422C206.924 839.311 205.868 838.255 204.812 836.144C203.756 838.255 202.701 839.311 202.701 841.422Z" fill="#3A4A67"/>
<path d="M176.308 841.423C176.308 844.59 175.252 847.757 172.085 849.869C169.973 851.98 166.806 853.036 163.639 853.036C160.471 853.036 157.304 851.98 155.193 849.869C153.081 847.757 150.97 844.59 150.97 841.423C150.97 838.255 152.026 836.144 153.081 834.033C155.193 831.921 157.304 830.865 160.471 829.81L161.527 832.977C159.416 832.977 157.304 834.033 156.249 836.144C155.193 837.2 154.137 839.311 154.137 841.423C154.137 843.534 155.193 845.646 156.249 847.757C158.36 849.869 160.471 849.869 162.583 849.869C164.694 849.869 166.806 848.813 168.917 847.757C171.029 845.646 171.029 844.59 171.029 841.423H176.308V841.423Z" fill="#3A4A67"/>
<path d="M191.089 818.195C192.144 819.251 192.144 820.306 192.144 821.362C192.144 822.418 192.144 823.474 191.089 824.529C190.033 825.585 188.977 825.585 187.921 825.585H184.754C183.698 825.585 182.643 825.585 181.587 824.529C180.531 824.529 179.475 823.474 179.475 821.362C179.475 820.306 179.475 819.251 180.531 818.195C181.587 817.139 182.643 817.139 183.698 817.139H186.866C188.977 817.139 190.033 817.139 191.089 818.195ZM188.977 821.362C188.977 820.306 188.977 820.306 187.921 820.306H186.866H183.698C182.643 820.306 182.643 820.306 182.643 820.306L181.587 821.362C181.587 822.418 181.587 822.418 182.643 822.418H183.698H186.866C187.921 822.418 187.921 822.418 187.921 822.418C188.977 822.418 188.977 822.418 188.977 821.362ZM206.925 818.195C207.98 819.251 207.98 820.306 207.98 821.362C207.98 822.418 207.98 823.474 206.925 824.529C205.869 825.585 204.813 825.585 203.757 825.585H200.59C199.534 825.585 198.479 825.585 197.423 824.529C196.367 823.474 196.367 822.418 196.367 821.362C196.367 820.306 196.367 819.251 197.423 818.195C198.479 817.139 199.534 817.139 200.59 817.139H203.757C204.813 817.139 205.869 817.139 206.925 818.195ZM204.813 821.362C204.813 820.306 204.813 820.306 203.757 820.306H202.702H200.59C199.534 820.306 199.534 820.306 199.534 820.306L198.479 821.362C198.479 822.418 198.479 822.418 199.534 822.418H200.59H203.757C204.813 822.418 204.813 822.418 204.813 822.418C204.813 822.418 204.813 822.418 204.813 821.362Z" fill="#3A4A67"/>
<path d="M187.921 489.86H196.367C199.534 489.86 202.702 490.916 204.813 493.028C206.925 495.139 209.036 498.306 209.036 501.473C209.036 503.585 209.036 504.641 207.98 506.752L204.813 505.696C205.869 504.641 205.869 503.585 205.869 501.473C205.869 499.362 204.813 497.251 203.757 495.139C201.646 493.028 199.534 493.028 197.423 493.028H188.977C186.866 493.028 184.754 494.083 182.643 495.139C180.531 497.251 180.531 498.306 180.531 501.473C180.531 503.585 181.587 505.696 182.643 507.808C184.754 509.919 186.866 509.919 188.977 509.919H199.534C201.646 509.919 203.757 509.919 205.869 510.975C207.98 512.031 209.036 513.087 210.092 515.198L206.925 517.31C205.869 516.254 204.813 515.198 203.757 514.142C202.702 513.087 200.59 513.087 199.534 513.087H188.977C186.866 513.087 184.754 514.142 182.643 515.198C180.531 517.31 179.475 519.421 179.475 522.588C179.475 524.7 180.531 526.811 181.587 528.923C183.698 531.034 185.81 531.034 187.921 531.034H198.479C200.59 531.034 201.646 531.034 202.702 529.978C203.757 528.923 204.813 527.867 205.869 526.811L209.036 528.923C207.98 531.034 206.925 532.09 204.813 533.146C202.702 534.201 200.59 535.257 198.479 535.257H187.921C184.754 535.257 181.587 534.201 179.475 532.09C177.364 529.978 175.253 526.811 175.253 523.644C175.253 521.532 175.253 519.421 176.308 517.31C177.364 515.198 178.42 514.142 180.531 513.087C178.42 512.031 177.364 510.975 176.308 508.864C175.253 506.752 174.197 505.696 174.197 502.529C174.197 499.362 175.253 496.195 178.42 494.083C181.587 490.916 184.754 489.86 187.921 489.86Z" fill="#3A4A67"/>
<path d="M234.373 494.083V496.194C234.373 497.25 234.373 498.306 233.317 500.417C232.262 502.529 230.15 503.584 225.927 503.584H209.035V499.361H225.927C228.039 499.361 229.094 499.361 229.094 498.306C229.094 497.25 230.15 496.194 230.15 495.138V493.027H234.373V494.083Z" fill="#3A4A67"/>
<path d="M205.868 469.801C205.868 468.745 205.868 467.689 204.813 467.689C203.757 466.633 203.757 466.633 202.701 466.633C201.645 466.633 200.59 466.633 200.59 467.689L188.977 479.302C187.921 480.358 185.809 481.414 183.698 481.414C181.586 481.414 179.475 480.358 178.419 479.302C177.363 478.246 176.308 476.135 176.308 474.024C176.308 471.912 177.363 470.856 178.419 468.745C179.475 467.689 181.586 466.633 183.698 466.633V469.801C182.642 469.801 181.586 469.801 181.586 470.856C179.475 472.968 179.475 474.024 179.475 475.079C179.475 476.135 179.475 477.191 180.531 477.191C181.586 478.246 181.586 478.246 182.642 478.246C183.698 478.246 184.754 478.246 184.754 477.191L196.367 464.522C197.422 463.466 199.534 462.41 201.645 462.41C203.757 462.41 205.868 463.466 206.924 464.522C207.98 465.578 209.036 467.689 209.036 469.801V472.968H234.373V476.135H209.036V479.302C209.036 481.414 207.98 482.469 206.924 484.581C205.868 485.637 203.757 486.692 201.645 486.692C199.534 486.692 197.422 485.637 196.367 484.581C195.311 483.525 194.255 481.414 194.255 479.302C194.255 477.191 195.311 476.135 196.367 474.024C197.422 472.968 199.534 471.912 201.645 471.912H204.813V469.801H205.868ZM205.868 476.135H202.701C201.645 476.135 200.59 476.135 200.59 477.191C199.534 478.246 199.534 478.246 199.534 479.302C199.534 480.358 199.534 481.414 200.59 481.414C201.645 482.469 201.645 482.469 202.701 482.469C203.757 482.469 204.813 482.469 204.813 481.414C205.868 480.358 205.868 480.358 205.868 479.302V476.135Z" fill="#3A4A67"/>
<path d="M175.252 475.081C175.252 478.249 174.196 481.416 171.029 483.527C168.917 485.639 165.75 486.694 162.583 486.694C159.416 486.694 156.248 485.639 154.137 483.527C152.026 481.416 149.914 478.249 149.914 475.081C149.914 471.914 150.97 469.803 152.026 467.691C154.137 465.58 156.248 464.524 159.416 463.468L160.471 466.635C158.36 466.635 156.248 467.691 155.193 469.803C154.137 470.858 153.081 472.97 153.081 475.081C153.081 477.193 154.137 479.304 155.193 481.416C157.304 483.527 159.416 483.527 161.527 483.527C163.639 483.527 165.75 482.472 167.862 481.416C169.973 479.304 169.973 478.249 169.973 475.081H175.252V475.081Z" fill="#3A4A67"/>
<path d="M196.367 415.96C199.534 415.96 202.701 417.016 204.813 419.127C206.924 421.239 209.036 424.406 209.036 427.573C209.036 429.685 209.036 431.796 207.98 433.907C206.924 436.019 205.868 437.075 203.757 438.13C205.868 439.186 206.924 440.242 207.98 442.353C209.036 444.465 210.091 446.576 210.091 447.632C210.091 450.799 209.036 453.967 205.868 456.078C203.757 458.189 200.59 459.245 197.423 459.245V456.078C199.534 456.078 201.646 455.022 203.757 453.967C205.868 451.855 205.868 450.799 205.868 447.632C205.868 445.521 204.813 443.409 203.757 441.298C201.646 439.186 199.534 439.186 197.423 439.186H188.977C186.865 439.186 184.754 440.242 182.642 441.298C180.531 443.409 179.475 445.521 179.475 447.632C179.475 449.744 180.531 451.855 181.587 453.967C183.698 456.078 185.809 456.078 187.921 456.078V459.245C184.754 459.245 181.586 458.189 179.475 456.078C177.364 453.967 175.252 450.799 175.252 447.632C175.252 444.465 176.308 441.298 179.475 439.186C181.586 437.075 184.754 436.019 187.921 436.019H196.367C198.478 436.019 199.534 434.963 201.646 433.907C203.757 431.796 204.813 430.74 204.813 427.573C204.813 425.462 203.757 423.35 202.701 421.239C200.59 419.127 198.478 419.127 196.367 419.127H187.921C185.809 419.127 183.698 420.183 181.587 421.239C179.475 423.35 179.475 424.406 179.475 427.573C179.475 428.629 179.475 429.685 180.531 431.796L177.364 432.852C176.308 430.74 176.308 429.685 176.308 427.573C176.308 424.406 177.364 421.239 180.531 419.127C182.642 417.016 185.809 415.96 188.977 415.96H196.367V415.96Z" fill="#3A4A67"/>
<path d="M177.364 385.341C176.308 383.23 176.308 382.174 176.308 380.063C176.308 376.895 177.364 373.728 180.531 371.617C182.642 369.505 185.809 368.45 188.977 368.45H197.423C200.59 368.45 203.757 369.505 205.868 371.617C207.98 373.728 210.091 376.895 210.091 380.063C210.091 382.174 210.091 384.286 209.036 386.397C207.98 388.509 206.924 389.564 204.813 390.62C206.924 391.676 207.98 392.732 209.036 394.843C210.091 396.954 211.147 399.066 211.147 400.122C211.147 403.289 210.091 406.456 207.98 408.568H229.095C231.206 408.568 232.262 408.568 232.262 407.512C232.262 406.456 233.318 405.4 233.318 404.345V374.784C233.318 373.728 233.318 372.673 232.262 371.617C232.262 370.561 230.15 370.561 229.095 370.561H222.76V367.394H229.095C232.262 367.394 234.373 368.45 235.429 369.505C236.485 371.617 236.485 372.672 237.541 374.784V404.345C237.541 405.4 237.541 406.456 236.485 408.568C235.429 410.679 233.318 411.735 229.095 411.735H199.534V408.568C201.646 408.568 203.757 407.512 205.868 406.456C207.98 404.345 207.98 403.289 207.98 400.122C207.98 396.954 206.924 395.899 205.868 393.787C203.757 391.676 201.646 391.676 199.534 391.676H191.088C188.977 391.676 186.865 392.732 184.754 393.787C180.531 396.954 179.475 399.066 179.475 401.177C179.475 403.289 180.531 405.4 181.587 407.512C183.698 409.623 185.809 409.623 187.921 409.623V412.791C184.754 412.791 181.586 411.735 179.475 409.623C177.364 407.512 175.252 404.345 175.252 401.177C175.252 398.01 176.308 394.843 179.475 392.732C181.586 390.62 184.754 389.564 188.977 389.564H197.423C199.534 389.564 200.59 388.509 202.701 387.453C204.813 385.341 205.868 384.286 205.868 381.118C205.868 379.007 204.813 376.895 203.757 374.784C201.646 372.672 199.534 372.672 197.423 372.672H188.977C186.865 372.672 184.754 373.728 182.642 374.784C180.531 375.84 179.475 377.951 179.475 380.063C179.475 381.118 179.475 382.174 180.531 384.286L177.364 385.341Z" fill="#3A4A67"/>
<path d="M175.252 380.065C175.252 383.232 174.196 386.399 171.029 388.511C168.917 390.622 165.75 391.678 162.583 391.678C159.416 391.678 156.248 390.622 154.137 388.511C152.026 386.399 149.914 383.232 149.914 380.065C149.914 376.898 150.97 374.786 152.026 372.675C154.137 370.563 156.248 369.507 159.416 368.452L160.471 371.619C158.36 371.619 156.248 372.675 155.193 374.786C154.137 375.842 153.081 377.953 153.081 380.065C153.081 382.176 154.137 384.288 155.193 386.399C157.304 388.511 159.416 388.511 161.527 388.511C163.639 388.511 165.75 387.455 167.862 386.399C169.973 384.288 169.973 383.232 169.973 380.065H175.252V380.065Z" fill="#3A4A67"/>
<path d="M197.423 345.225H188.977C186.865 345.225 184.754 346.281 182.642 347.337C180.531 349.448 180.531 350.504 180.531 353.671C180.531 355.783 181.586 357.894 182.642 360.006C184.754 362.117 186.865 362.117 188.977 362.117H197.423C199.534 362.117 201.646 361.061 203.757 360.006C205.868 357.894 205.868 356.838 205.868 353.671C205.868 352.615 205.868 351.56 204.813 349.448L207.98 348.393C209.036 350.504 209.036 351.56 209.036 353.671C209.036 356.838 207.98 360.006 204.813 362.117C202.701 364.229 199.534 365.284 196.367 365.284H187.921C183.698 365.284 181.586 364.229 178.419 361.061C175.252 357.894 175.252 355.783 175.252 352.616C175.252 349.448 176.308 346.281 178.419 344.17C180.531 342.058 183.698 341.002 186.865 341.002H195.311C197.423 341.002 199.534 339.947 201.646 338.891C203.757 336.779 203.757 335.724 203.757 332.556C203.757 329.389 202.701 328.334 201.646 326.222C199.534 324.111 197.423 324.111 195.311 324.111H186.865C184.754 324.111 182.642 325.166 180.531 326.222C178.419 328.334 178.419 329.389 178.419 332.556C178.419 333.612 178.419 334.668 179.475 336.779L177.364 337.835C176.308 335.724 176.308 334.668 176.308 332.556C176.308 329.389 177.364 326.222 180.531 324.111C182.642 321.999 185.809 320.943 188.977 320.943H197.423C201.646 320.943 203.757 321.999 206.924 325.166C210.091 328.334 210.091 330.445 210.091 333.612C210.091 336.779 209.036 339.947 206.924 342.058C203.757 344.17 200.59 345.225 197.423 345.225Z" fill="#3A4A67"/>
<path d="M186.865 294.55H197.422C200.59 294.55 203.757 295.606 205.868 297.717C207.98 299.829 210.091 302.996 210.091 306.163C210.091 309.33 209.036 312.497 205.868 314.609C203.757 316.72 200.59 317.776 197.422 317.776H186.865C184.754 317.776 182.642 317.776 180.531 316.72C178.419 315.665 177.363 314.609 176.308 312.497L179.475 310.386C180.531 311.442 181.586 312.497 182.642 313.553C183.698 314.609 185.809 314.609 186.865 314.609H197.422C198.478 314.609 200.59 314.609 201.645 313.553C199.534 311.442 199.534 309.33 199.534 306.163C199.534 302.996 200.59 300.884 202.701 298.773C201.645 297.717 199.534 297.717 198.478 297.717H187.921C185.809 297.717 184.754 297.717 183.698 298.773C182.642 299.828 181.586 300.884 180.531 301.94L177.363 299.828C178.419 297.717 179.475 296.661 181.586 295.606C181.586 295.606 183.698 294.55 186.865 294.55ZM202.701 307.219C202.701 309.33 203.757 310.386 204.813 312.497C205.868 311.442 206.924 309.33 206.924 307.219C206.924 305.107 205.868 304.051 204.813 301.94C202.701 302.996 202.701 305.107 202.701 307.219Z" fill="#3A4A67"/>
<path d="M175.252 306.163C175.252 309.33 174.196 312.497 171.029 314.609C168.917 316.72 165.75 317.776 162.583 317.776C159.416 317.776 156.248 316.72 154.137 314.609C152.026 312.497 149.914 309.33 149.914 306.163C149.914 302.996 150.97 300.884 152.026 298.773C154.137 296.661 156.248 295.606 159.416 294.55L160.471 297.717C158.36 297.717 156.248 298.773 155.193 300.884C154.137 301.94 153.081 304.051 153.081 306.163C153.081 308.274 154.137 310.386 155.193 312.497C157.304 314.609 159.416 314.609 161.527 314.609C163.639 314.609 165.75 313.553 167.862 312.497C169.973 310.386 169.973 309.33 169.973 306.163H175.252V306.163Z" fill="#3A4A67"/>
<path d="M190.033 283.991C191.089 285.047 191.089 286.103 191.089 287.158C191.089 288.214 191.089 289.27 190.033 290.325C188.977 291.381 187.921 291.381 186.866 291.381H183.698C182.643 291.381 181.587 291.381 180.531 290.325C179.475 289.27 179.475 288.214 179.475 287.158C179.475 286.103 179.475 285.047 180.531 283.991C181.587 282.935 182.643 282.935 183.698 282.935H186.866C187.921 282.935 188.977 282.935 190.033 283.991ZM187.921 287.158C187.921 286.103 187.921 286.103 186.866 286.103H185.81H182.643C181.587 286.103 181.587 286.103 181.587 286.103L180.531 287.158C180.531 288.214 180.531 288.214 181.587 288.214H182.643H185.81C186.866 288.214 186.866 288.214 186.866 288.214C187.921 288.214 187.921 288.214 187.921 287.158ZM205.869 283.991C206.925 285.047 206.925 286.103 206.925 287.158C206.925 288.214 206.925 289.27 205.869 290.325C204.813 291.381 203.757 291.381 202.702 291.381H199.534C198.479 291.381 197.423 291.381 196.367 290.325C195.312 289.27 195.312 288.214 195.312 287.158C195.312 286.103 195.312 285.047 196.367 283.991C197.423 282.935 198.479 282.935 199.534 282.935H202.702C203.757 282.935 204.813 282.935 205.869 283.991ZM203.757 287.158C203.757 286.103 203.757 286.103 202.702 286.103H201.646H198.479C197.423 286.103 197.423 286.103 197.423 286.103L196.367 287.158C196.367 288.214 196.367 288.214 197.423 288.214H198.479H201.646C202.702 288.214 202.702 288.214 202.702 288.214C203.757 288.214 203.757 288.214 203.757 287.158Z" fill="#3A4A67"/>
<path d="M955.442 362.115H773.855V570.095L863.592 589.099L977.612 591.21L955.442 362.115Z" fill="#DAE5DD"/>
<path d="M486.694 534.203L414.904 485.639L400.124 906.879H542.648V545.816L486.694 534.203Z" fill="#DAE5DD"/>
<path d="M1006.12 906.879L981.835 616.551L860.425 615.495L859.369 614.439L773.855 596.492V906.879H1006.12Z" fill="#DAE5DD"/>
<path d="M1007.17 617.606L1031.45 906.879H1116.97V619.718L1007.17 617.606Z" fill="#DAE5DD"/>
<path d="M750.628 564.818L496.196 506.752L415.959 449.742L429.684 282.936H948.051L952.274 336.778H635.553V361.06H750.628V564.818Z" fill="#DAE5DD"/>
<path d="M981.836 362.115L1004.01 591.21L1116.97 593.322V362.115H981.836Z" fill="#DAE5DD"/>
<path d="M750.629 906.875V591.21L566.93 551.092V906.875H750.629Z" fill="#DAE5DD"/>
<path d="M978.668 336.778H1116.97V282.936H973.39L978.668 336.778Z" fill="#DAE5DD"/>
<path d="M357.895 408.568L394.846 434.962L406.459 282.936H280.826V391.677L357.895 408.568Z" fill="#DAE5DD"/>
<path d="M1116.97 1368.23H1080.02L1034.62 932.215H1116.97V1368.23Z" fill="#DAE5DD"/>
<path d="M484.583 1368.23H280.826V1313.34H304.052L398.013 1315.45L484.583 1324.95V1368.23Z" fill="#DAE5DD"/>
<path d="M280.826 906.874H376.898L391.678 470.855L349.449 436.015L280.826 419.124V906.874Z" fill="#DAE5DD"/>
<path d="M322 1288V1206.71H365.285L371.619 1047.29H315.665V1018.79H372.675L375.842 932.215H280.826V1288H322Z" fill="#DAE5DD"/>
<path d="M364.228 1286.94L366.34 1223.6H341.002V1285.89L364.228 1286.94Z" fill="white"/>
<path d="M1053.63 1368.23H507.81V1300.67L385.344 1289.05L399.069 932.215H1008.23L1031.46 1151.81L1053.63 1368.23Z" fill="#DAE5DD"/>
<path d="M1031.46 1151.81H565.875V932.215H1008.23L1031.46 1151.81Z" fill="#5ABFAE"/>
<path d="M617.606 1031.45V1042.01C617.606 1045.18 616.55 1048.34 614.438 1050.45C612.327 1052.57 609.16 1054.68 605.992 1054.68C602.825 1054.68 599.658 1053.62 597.546 1050.45C595.435 1048.34 594.379 1045.18 594.379 1042.01V1031.45C594.379 1029.34 594.379 1027.23 595.435 1025.12C596.491 1023.01 597.546 1021.95 599.658 1020.89L601.769 1024.06C600.714 1025.12 599.658 1026.17 598.602 1027.23C597.547 1028.28 597.546 1030.4 597.546 1031.45V1042.01C597.546 1044.12 598.602 1046.23 599.658 1048.34C601.769 1050.45 602.825 1050.45 605.992 1050.45C609.16 1050.45 610.215 1049.4 612.327 1048.34C614.438 1046.23 614.438 1044.12 614.438 1042.01V1031.45C614.438 1029.34 614.438 1028.28 613.383 1027.23C612.327 1026.17 611.271 1025.12 610.215 1024.06L612.327 1020.89C614.438 1021.95 615.494 1023.01 616.55 1025.12C616.55 1026.17 617.606 1028.28 617.606 1031.45Z" fill="white"/>
<path d="M613.383 1078.96H611.272C610.216 1078.96 609.16 1078.96 607.049 1077.9C604.937 1076.85 603.881 1074.74 603.881 1070.51V1053.62H608.104V1070.51C608.104 1072.63 608.104 1073.68 609.16 1073.68C610.216 1073.68 611.272 1074.74 612.327 1074.74H614.439V1078.96H613.383Z" fill="white"/>
<path d="M665.113 1040.95C665.113 1044.12 664.058 1047.29 661.946 1049.4C659.835 1051.51 656.668 1053.62 653.5 1053.62C651.389 1053.62 649.277 1053.62 647.166 1052.57C645.054 1051.51 643.999 1050.45 642.943 1048.34C641.887 1050.45 640.832 1051.51 638.72 1052.57C636.609 1053.62 634.497 1054.68 633.441 1054.68C630.274 1054.68 627.107 1053.62 624.995 1050.45C622.884 1048.34 621.828 1045.18 621.828 1042.01H624.995C624.995 1044.12 626.051 1046.23 627.107 1048.34C629.218 1050.45 630.274 1050.45 633.441 1050.45C636.609 1050.45 637.664 1049.4 639.776 1048.34C641.887 1046.23 641.887 1044.12 641.887 1042.01V1033.56C641.887 1031.45 640.831 1029.34 639.776 1027.23C637.664 1025.12 636.609 1025.12 633.441 1025.12C630.274 1025.12 629.218 1026.17 627.107 1027.23C624.995 1029.34 624.995 1031.45 624.995 1033.56H621.828C621.828 1030.4 622.884 1027.23 624.995 1025.12C627.107 1023.01 630.274 1020.89 633.441 1020.89C636.609 1020.89 639.776 1021.95 641.887 1025.12C643.999 1027.23 645.054 1030.4 645.054 1033.56V1042.01C645.054 1044.12 646.11 1045.18 647.166 1047.29C649.277 1049.4 650.333 1050.45 653.5 1050.45C655.612 1050.45 657.723 1049.4 659.835 1048.34C661.946 1046.23 661.946 1044.12 661.946 1042.01V1033.56C661.946 1031.45 660.891 1029.34 659.835 1027.23C656.668 1025.12 654.556 1024.06 652.445 1024.06C651.389 1024.06 650.333 1024.06 648.222 1025.12L647.166 1021.95C649.277 1020.89 650.333 1020.89 652.445 1020.89C655.612 1020.89 658.779 1021.95 660.891 1025.12C663.002 1027.23 664.058 1030.4 664.058 1033.56V1040.95H665.113Z" fill="white"/>
<path d="M652.445 1019.84C649.278 1019.84 646.111 1018.78 643.999 1015.62C641.888 1013.5 640.832 1010.34 640.832 1007.17C640.832 1004 641.888 1000.83 643.999 998.723C646.111 996.612 649.278 994.5 652.445 994.5C655.612 994.5 657.724 995.556 660.891 998.723C663.002 1000.83 665.114 1004 665.114 1007.17C665.114 1010.34 664.058 1013.5 660.891 1015.62C658.779 1018.78 655.612 1019.84 652.445 1019.84ZM652.445 998.723C650.333 998.723 648.222 999.779 646.111 1000.83C645.055 1002.95 643.999 1005.06 643.999 1007.17C643.999 1009.28 645.055 1011.39 646.111 1013.5C648.222 1015.62 649.278 1015.62 652.445 1015.62C654.556 1015.62 656.668 1014.56 657.724 1013.5C659.835 1011.39 660.891 1009.28 660.891 1007.17C660.891 1005.06 659.835 1002.95 658.779 1000.83C656.668 999.779 655.612 998.723 652.445 998.723Z" fill="white"/>
<path d="M691.507 1031.45V1042.01C691.507 1045.18 690.451 1048.34 688.34 1050.45C686.228 1052.57 683.061 1054.68 679.894 1054.68C676.727 1054.68 673.56 1053.62 671.448 1050.45C669.337 1048.34 668.281 1045.18 668.281 1042.01V1031.45C668.281 1029.34 668.281 1027.23 669.337 1025.12C670.392 1023.01 671.448 1021.95 673.56 1020.89L675.671 1024.06C674.615 1025.12 673.56 1026.17 672.504 1027.23C671.448 1028.28 671.448 1030.4 671.448 1031.45V1042.01C671.448 1043.06 671.448 1045.18 672.504 1046.23C674.615 1044.12 676.727 1044.12 679.894 1044.12C683.061 1044.12 685.173 1045.18 687.284 1047.29C688.34 1046.23 688.34 1044.12 688.34 1043.06V1032.51C688.34 1030.4 688.34 1029.34 687.284 1028.28C686.228 1027.23 685.173 1026.17 684.117 1025.12L686.228 1021.95C688.34 1023.01 689.396 1024.06 690.451 1026.17C691.507 1026.17 691.507 1028.28 691.507 1031.45ZM679.894 1046.23C677.782 1046.23 676.727 1047.29 674.615 1048.34C675.671 1049.4 677.782 1050.45 679.894 1050.45C682.005 1050.45 683.061 1049.4 685.173 1048.34C683.061 1047.29 680.95 1046.23 679.894 1046.23Z" fill="white"/>
<path d="M679.894 1019.84C676.727 1019.84 673.56 1018.78 671.448 1015.62C669.337 1013.5 668.281 1010.34 668.281 1007.17C668.281 1004 669.337 1000.83 671.448 998.723C673.56 996.612 676.727 994.5 679.894 994.5C683.061 994.5 685.173 995.556 687.284 996.612C689.396 998.723 690.451 1000.83 691.507 1004L688.34 1005.06C688.34 1002.95 687.284 1000.83 685.173 999.779C684.117 998.723 682.005 997.668 679.894 997.668C677.782 997.668 675.671 998.723 673.56 999.779C671.448 1001.89 671.448 1004 671.448 1006.11C671.448 1008.23 672.504 1010.34 673.56 1012.45C675.671 1014.56 676.727 1014.56 679.894 1014.56V1019.84V1019.84Z" fill="white"/>
<path d="M724.235 1040.95V1070.51C724.235 1073.68 723.179 1075.79 722.124 1076.85C720.012 1077.9 718.957 1077.9 716.845 1078.96H702.065C701.009 1078.96 699.953 1078.96 697.842 1077.9C695.73 1076.85 694.675 1074.74 694.675 1070.51V1002.95C694.675 999.779 695.73 997.668 696.786 996.612C698.897 995.556 699.953 995.556 702.065 994.5H716.845C717.901 994.5 718.957 994.501 721.068 995.556C723.179 996.612 724.235 998.723 724.235 1002.95V1010.34H721.068V1002.95C721.068 1000.83 721.068 999.779 720.012 999.779C718.956 999.779 717.901 998.723 716.845 998.723H702.065C701.009 998.723 699.953 998.723 698.897 999.779C697.842 999.779 697.842 1001.89 697.842 1002.95V1071.57C697.842 1073.68 697.842 1074.74 698.897 1074.74C699.953 1074.74 701.009 1075.79 702.065 1075.79H716.845C717.901 1075.79 718.956 1075.79 720.012 1074.74C721.068 1074.74 721.068 1072.63 721.068 1071.57V1042.01H724.235V1040.95Z" fill="white"/>
<path d="M724.235 1031.45V1042.01C724.235 1045.18 723.179 1048.34 721.068 1050.45C718.956 1052.57 715.789 1054.68 712.622 1054.68C709.454 1054.68 706.287 1053.62 704.176 1050.45C702.064 1048.34 701.008 1045.18 701.008 1042.01V1031.45C701.008 1029.34 701.008 1027.23 702.064 1025.12C703.12 1023.01 704.176 1021.95 706.287 1020.89L708.399 1024.06C707.343 1025.12 706.287 1026.17 705.231 1027.23C704.176 1028.28 704.176 1030.4 704.176 1031.45V1042.01C704.176 1044.12 705.231 1046.23 706.287 1048.34C708.399 1050.45 709.454 1050.45 712.622 1050.45C715.789 1050.45 716.845 1049.4 718.956 1048.34C721.067 1046.23 721.068 1044.12 721.068 1042.01V1031.45C721.068 1029.34 721.067 1028.28 720.012 1027.23C718.956 1026.17 717.9 1024.06 715.789 1023.01L717.9 1019.84C720.012 1020.89 721.067 1021.95 722.123 1024.06C724.235 1026.17 724.235 1028.28 724.235 1031.45Z" fill="white"/>
<path d="M753.796 1020.89C755.907 1019.84 756.963 1019.84 759.074 1019.84C762.242 1019.84 765.409 1020.89 767.52 1024.06C769.632 1026.17 770.687 1029.34 770.687 1032.51V1040.95C770.687 1044.12 769.632 1047.29 767.52 1049.4C765.409 1051.51 762.242 1053.62 759.074 1053.62C756.963 1053.62 754.851 1053.62 752.74 1052.57C750.628 1051.51 749.573 1050.45 748.517 1048.34C747.461 1050.45 746.405 1051.51 744.294 1052.57C742.183 1053.62 740.071 1054.68 739.015 1054.68C735.848 1054.68 732.681 1053.62 730.569 1051.51V1072.62C730.569 1074.74 730.569 1075.79 731.625 1075.79C732.681 1075.79 733.737 1076.85 734.792 1076.85H764.353C765.409 1076.85 766.464 1076.85 767.52 1075.79C768.576 1075.79 768.576 1073.68 768.576 1072.62V1066.29H771.743V1072.62C771.743 1075.79 770.687 1077.9 769.632 1078.96C767.52 1080.01 766.465 1080.01 764.353 1081.07H734.792C733.737 1081.07 732.681 1081.07 730.569 1080.01C728.458 1078.96 727.402 1076.85 727.402 1072.62V1043.06H730.569C730.569 1045.18 731.625 1047.29 732.681 1049.4C734.792 1051.51 735.848 1051.51 739.015 1051.51C742.183 1051.51 743.238 1050.45 745.35 1049.4C747.461 1047.29 747.461 1045.18 747.461 1043.06V1034.62C747.461 1032.51 746.405 1030.4 745.35 1028.28C743.238 1025.12 741.127 1024.06 739.015 1024.06C736.904 1024.06 734.792 1025.12 732.681 1026.17C730.569 1028.28 730.569 1030.4 730.569 1032.51H727.402C727.402 1029.34 728.458 1026.17 730.569 1024.06C732.681 1021.95 735.848 1019.84 739.015 1019.84C742.183 1019.84 745.35 1020.89 747.461 1024.06C749.573 1026.17 750.628 1029.34 750.628 1033.56V1042.01C750.628 1044.12 751.684 1045.18 752.74 1047.29C754.851 1049.4 755.907 1050.45 759.074 1050.45C761.186 1050.45 763.297 1049.4 765.409 1048.34C767.52 1046.23 767.52 1044.12 767.52 1042.01V1033.56C767.52 1031.45 766.464 1029.34 765.409 1027.23C763.297 1025.12 762.242 1025.12 759.074 1025.12C758.019 1025.12 756.963 1025.12 754.851 1026.17L753.796 1020.89Z" fill="white"/>
<path d="M759.074 1019.84C755.907 1019.84 752.74 1018.78 750.628 1015.62C748.517 1013.5 747.461 1010.34 747.461 1007.17C747.461 1004 748.517 1000.83 750.628 998.723C752.74 996.612 755.907 994.5 759.074 994.5C762.241 994.5 764.353 995.556 766.464 996.612C768.576 998.723 769.632 1000.83 770.687 1004L767.52 1005.06C767.52 1002.95 766.464 1000.83 764.353 999.779C763.297 998.723 761.186 997.668 759.074 997.668C756.963 997.668 754.851 998.723 752.74 999.779C750.628 1001.89 750.628 1004 750.628 1006.11C750.628 1008.23 751.684 1010.34 752.74 1012.45C754.851 1014.56 755.907 1014.56 759.074 1014.56V1019.84V1019.84Z" fill="white"/>
<path d="M818.195 1040.95C818.195 1044.12 817.139 1047.29 815.028 1049.4C812.917 1051.51 809.749 1053.62 806.582 1053.62C804.471 1053.62 802.359 1053.62 800.248 1052.57C798.136 1051.51 797.081 1050.45 796.025 1048.34C794.969 1050.45 793.913 1051.51 791.802 1052.57C789.69 1053.62 787.579 1054.68 786.523 1054.68C783.356 1054.68 780.189 1053.62 778.077 1050.45C775.966 1048.34 774.91 1045.18 774.91 1042.01H778.077C778.077 1044.12 779.133 1046.23 780.189 1048.34C782.3 1050.45 783.356 1050.45 786.523 1050.45C788.635 1050.45 790.746 1049.4 792.858 1048.34C794.969 1046.23 794.969 1044.12 794.969 1042.01V1033.56C794.969 1031.45 793.913 1029.34 792.858 1027.23C790.746 1025.12 789.69 1025.12 786.523 1025.12C784.412 1025.12 782.3 1026.17 780.189 1027.23C778.077 1029.34 778.077 1031.45 778.077 1033.56H774.91C774.91 1030.4 775.966 1027.23 778.077 1025.12C780.189 1023.01 783.356 1020.89 786.523 1020.89C789.69 1020.89 792.858 1021.95 794.969 1025.12C797.081 1027.23 798.136 1030.4 798.136 1033.56V1042.01C798.136 1044.12 799.192 1045.18 800.248 1047.29C802.359 1049.4 803.415 1050.45 806.582 1050.45C808.694 1050.45 810.805 1049.4 812.917 1048.34C815.028 1046.23 815.028 1044.12 815.028 1042.01V1033.56C815.028 1031.45 813.972 1029.34 812.917 1027.23C810.805 1025.12 809.749 1025.12 806.582 1025.12C805.526 1025.12 804.471 1025.12 802.359 1026.17L801.303 1023.01C803.415 1021.95 804.471 1021.95 806.582 1021.95C809.749 1021.95 812.917 1023.01 815.028 1026.17C817.139 1028.28 818.195 1031.45 818.195 1034.62V1040.95V1040.95Z" fill="white"/>
<path d="M802.359 1078.96V1053.62H806.582V1078.96H802.359ZM818.195 1078.96H816.084C815.028 1078.96 813.972 1078.96 811.861 1077.9C809.749 1076.85 808.693 1074.74 808.693 1070.51V1053.62H812.916V1070.51C812.916 1072.63 812.916 1073.68 813.972 1073.68C815.028 1073.68 816.084 1074.74 817.139 1074.74H819.251V1078.96H818.195Z" fill="white"/>
<path d="M828.753 1069.46C827.697 1070.52 826.642 1070.52 825.586 1070.52C824.53 1070.52 823.475 1070.52 822.419 1069.46C821.363 1068.4 821.363 1067.35 821.363 1066.29V1063.13C821.363 1062.07 821.363 1061.01 822.419 1059.96C823.475 1058.9 824.53 1058.9 825.586 1058.9C826.642 1058.9 827.697 1058.9 828.753 1059.96C829.809 1061.01 829.809 1062.07 829.809 1063.13V1066.29C829.809 1067.35 829.809 1068.4 828.753 1069.46ZM825.586 1067.35C826.642 1067.35 826.642 1067.35 826.642 1066.29V1065.24V1062.07C826.642 1061.01 826.642 1061.01 826.642 1061.01L825.586 1059.96C824.53 1059.96 824.53 1059.96 824.53 1061.01V1062.07V1065.24C824.53 1066.29 824.53 1066.29 824.53 1066.29C824.53 1067.35 824.53 1067.35 825.586 1067.35Z" fill="white"/>
<path d="M825.585 1040.95C825.585 1042.01 825.585 1043.06 826.641 1044.12C826.641 1045.17 827.697 1046.23 828.752 1047.28C829.808 1045.17 830.864 1043.06 832.975 1040.95C835.087 1039.89 837.198 1038.84 840.365 1038.84C841.421 1038.84 842.477 1038.84 843.533 1038.84C844.588 1038.84 845.644 1039.89 846.7 1039.89C846.7 1043.06 845.644 1046.23 843.533 1048.34C841.421 1050.45 838.254 1052.56 835.087 1052.56C831.92 1052.56 828.752 1051.51 826.641 1048.34C824.529 1046.23 823.474 1043.06 823.474 1039.89V1031.45C823.474 1028.28 824.529 1025.11 826.641 1023C828.752 1020.89 831.92 1018.78 835.087 1018.78C838.254 1018.78 841.421 1019.84 843.533 1023C845.644 1025.11 846.7 1028.28 846.7 1031.45H843.533C843.533 1029.34 842.477 1027.23 841.421 1025.11C838.254 1025.11 836.142 1024.06 834.031 1024.06C831.92 1024.06 829.808 1025.11 827.697 1026.17C825.585 1028.28 825.585 1030.39 825.585 1032.5V1040.95ZM834.031 1050.45C836.142 1050.45 837.198 1049.4 839.31 1048.34C840.365 1047.28 841.421 1045.17 842.477 1044.12C841.421 1044.12 840.365 1044.12 839.31 1044.12C837.198 1044.12 835.087 1045.17 834.031 1046.23C832.975 1047.28 831.92 1049.4 830.864 1050.45C831.92 1049.4 832.975 1050.45 834.031 1050.45Z" fill="white"/>
<path d="M869.927 1048.34C868.871 1050.45 867.815 1051.51 865.704 1052.57C863.592 1053.62 861.481 1054.68 859.369 1054.68C856.202 1054.68 853.035 1053.62 850.924 1050.45C848.812 1048.34 847.756 1045.18 847.756 1042.01C849.868 1040.95 851.979 1039.9 854.091 1039.9C856.202 1039.9 859.369 1040.95 861.481 1042.01C863.592 1044.12 864.648 1045.18 865.704 1048.34C866.76 1047.29 866.76 1046.23 867.815 1045.18C868.871 1044.12 868.871 1043.06 868.871 1042.01V1033.56C868.871 1031.45 867.815 1029.34 866.76 1027.23C864.648 1025.12 863.592 1025.12 860.425 1025.12C857.258 1025.12 856.202 1026.17 854.091 1027.23C851.979 1029.34 851.979 1031.45 851.979 1033.56H848.812C848.812 1030.4 849.868 1027.23 851.979 1025.12C854.091 1023.01 857.258 1020.89 860.425 1020.89C862.537 1020.89 864.648 1021.95 866.76 1023.01C868.871 1024.06 869.927 1025.12 870.983 1027.23C872.038 1025.12 873.094 1024.06 875.206 1023.01C877.317 1021.95 879.428 1020.89 881.54 1020.89C884.707 1020.89 887.874 1021.95 889.986 1025.12C892.097 1027.23 893.153 1030.4 893.153 1033.56V1042.01C893.153 1045.18 892.097 1048.34 889.986 1050.45C887.874 1052.57 884.707 1054.68 881.54 1054.68C879.428 1054.68 877.317 1053.62 875.206 1052.57C873.094 1051.51 870.983 1049.4 869.927 1048.34ZM860.425 1050.45C861.481 1050.45 862.537 1050.45 862.537 1050.45C861.481 1048.34 860.425 1047.29 859.369 1046.23C858.314 1045.18 856.202 1044.12 854.091 1044.12C853.035 1044.12 851.979 1044.12 850.924 1044.12C851.979 1046.23 853.035 1047.29 854.091 1048.34C856.202 1049.4 858.314 1050.45 860.425 1050.45ZM888.93 1032.51C888.93 1030.4 887.874 1028.28 886.819 1026.17C884.707 1024.06 882.596 1024.06 880.484 1024.06C878.373 1024.06 876.261 1025.12 874.15 1026.17C872.038 1028.28 872.038 1030.4 872.038 1032.51V1040.95C872.038 1043.06 873.094 1045.18 874.15 1047.29C876.261 1049.4 877.317 1049.4 880.484 1049.4C883.651 1049.4 884.707 1048.34 886.819 1047.29C888.93 1045.18 888.93 1043.06 888.93 1040.95V1032.51Z" fill="white"/>
<path d="M902.655 1034.62C901.599 1035.67 900.543 1035.67 899.487 1035.67C898.432 1035.67 897.376 1035.67 896.32 1034.62C895.264 1033.56 895.264 1032.5 895.264 1031.45V1028.28C895.264 1027.23 895.264 1026.17 896.32 1025.11C897.376 1024.06 898.432 1024.06 899.487 1024.06C900.543 1024.06 901.599 1024.06 902.655 1025.11C903.71 1026.17 903.71 1027.23 903.71 1028.28V1031.45C904.766 1032.5 903.71 1033.56 902.655 1034.62ZM902.655 1049.4C901.599 1050.45 900.543 1050.45 899.487 1050.45C898.432 1050.45 897.376 1050.45 896.32 1049.4C895.264 1048.34 895.264 1047.29 895.264 1046.23V1043.06C895.264 1042.01 895.264 1040.95 896.32 1039.9C897.376 1038.84 898.432 1038.84 899.487 1038.84C900.543 1038.84 901.599 1038.84 902.655 1039.9C903.71 1040.95 903.71 1042.01 903.71 1043.06V1046.23C904.766 1047.29 903.71 1049.4 902.655 1049.4ZM899.487 1032.51C900.543 1032.51 900.543 1032.5 900.543 1031.45V1030.39V1027.23C900.543 1026.17 900.543 1026.17 900.543 1026.17L899.487 1025.11C898.432 1025.11 898.432 1025.11 898.432 1026.17V1027.23V1030.39C898.432 1031.45 898.432 1031.45 898.432 1031.45C898.432 1032.5 899.487 1032.51 899.487 1032.51ZM899.487 1048.34C900.543 1048.34 900.543 1048.34 900.543 1047.29V1046.23V1043.06C900.543 1042.01 900.543 1042.01 900.543 1042.01L899.487 1040.95C898.432 1040.95 898.432 1040.95 898.432 1042.01V1043.06V1046.23C898.432 1047.29 898.432 1047.29 898.432 1047.29C898.432 1048.34 899.487 1048.34 899.487 1048.34Z" fill="white"/>
<path d="M926.937 1070.51V1032.51C926.937 1030.4 925.881 1028.28 924.825 1026.17C923.769 1025.12 921.658 1024.06 918.491 1024.06C915.324 1024.06 914.268 1025.12 912.156 1026.17C910.045 1028.28 910.045 1030.4 910.045 1032.51V1034.62C912.156 1034.62 914.268 1035.67 916.379 1037.79C918.491 1039.9 919.547 1043.06 919.547 1047.29V1050.45C919.547 1051.51 919.547 1052.57 918.491 1052.57C918.491 1053.62 917.435 1053.62 917.435 1053.62C914.268 1053.62 911.101 1052.57 908.989 1049.4C906.878 1047.29 905.822 1044.12 905.822 1040.95V1032.51C905.822 1029.34 906.878 1026.17 908.989 1024.06C911.101 1021.95 914.268 1019.84 917.435 1019.84C920.602 1019.84 923.769 1020.89 925.881 1024.06C927.992 1026.17 929.048 1029.34 929.048 1032.51V1070.51H926.937V1070.51ZM917.435 1047.29C917.435 1044.12 916.379 1042.01 915.324 1040.95C914.268 1039.9 912.156 1038.84 911.101 1038.84V1042.01C911.101 1044.12 912.156 1046.23 913.212 1047.29C914.268 1049.4 916.379 1050.45 918.491 1050.45C918.491 1050.45 918.491 1050.45 918.491 1049.4C917.435 1048.34 917.435 1048.34 917.435 1047.29Z" fill="white"/>
<path d="M922.714 1012.45C921.658 1013.51 920.602 1013.51 919.547 1013.51C918.491 1013.51 917.435 1013.51 916.38 1012.45C915.324 1011.39 915.324 1010.34 915.324 1009.28V1006.12C915.324 1005.06 915.324 1004 916.38 1002.95C917.435 1001.89 918.491 1001.89 919.547 1001.89C920.602 1001.89 921.658 1001.89 922.714 1002.95C923.77 1004 923.77 1005.06 923.77 1006.12V1009.28C923.77 1010.34 923.77 1011.39 922.714 1012.45ZM919.547 1010.34C920.602 1010.34 920.602 1010.34 920.602 1009.28V1008.23V1005.06C920.602 1004 920.602 1004 920.602 1004L919.547 1002.95C918.491 1002.95 918.491 1002.95 918.491 1004V1005.06V1008.23C918.491 1009.28 918.491 1009.28 918.491 1009.28C918.491 1010.34 918.491 1010.34 919.547 1010.34Z" fill="white"/>
<path d="M926.936 1078.96H924.825C923.769 1078.96 922.713 1078.96 920.602 1077.9C918.49 1076.85 917.435 1074.74 917.435 1070.51V1053.62H921.658V1070.51C921.658 1072.63 921.658 1073.68 922.713 1073.68C923.769 1073.68 924.825 1074.74 925.881 1074.74H927.992V1078.96H926.936Z" fill="white"/>
<path d="M986.057 1040.95V1070.51C986.057 1073.68 985.002 1075.79 983.946 1076.85C981.834 1077.9 980.779 1077.9 978.667 1078.96H941.716C940.661 1078.96 939.605 1078.96 937.493 1077.9C935.382 1076.85 934.326 1074.74 934.326 1070.51V1002.95C934.326 999.779 935.382 997.668 936.438 996.612C938.549 995.556 939.605 995.556 941.716 994.5H960.72V998.723H941.716C940.661 998.723 939.605 998.723 938.549 999.779C937.493 999.779 937.493 1001.89 937.493 1002.95V1071.57C937.493 1073.68 937.493 1074.74 938.549 1074.74C939.605 1074.74 940.661 1075.79 941.716 1075.79H978.667C979.723 1075.79 980.779 1075.79 981.834 1074.74C982.89 1074.74 982.89 1072.63 982.89 1071.57V1042.01H986.057V1040.95Z" fill="white"/>
<path d="M986.058 1032.51V1040.95C986.058 1044.12 985.003 1047.29 982.891 1049.4C980.78 1051.51 977.612 1053.62 974.445 1053.62C972.334 1053.62 971.278 1053.62 969.167 1052.57L970.222 1049.4C971.278 1050.45 972.334 1050.45 974.445 1050.45C976.557 1050.45 978.668 1049.4 980.78 1048.34C982.891 1046.23 982.891 1044.12 982.891 1042.01V1033.56C982.891 1031.45 981.835 1029.34 980.78 1027.23C978.668 1025.12 977.612 1025.12 974.445 1025.12C971.278 1025.12 970.222 1026.17 968.111 1027.23C965.999 1029.34 965.999 1031.45 965.999 1033.56V1044.12C965.999 1046.23 965.999 1048.34 964.944 1050.45C963.888 1052.57 962.832 1053.62 960.721 1054.68L958.609 1051.51C959.665 1050.45 960.721 1049.4 961.776 1048.34C962.832 1047.29 962.832 1045.18 962.832 1044.12V1033.56C962.832 1031.45 961.776 1029.34 960.721 1027.23C958.609 1025.12 957.553 1025.12 954.386 1025.12C951.219 1025.12 950.163 1026.17 948.052 1027.23C945.94 1029.34 945.94 1031.45 945.94 1033.56V1044.12C945.94 1046.23 945.94 1047.29 946.996 1048.34C948.052 1049.4 949.107 1050.45 950.163 1051.51L948.052 1054.68C945.94 1053.62 944.885 1052.57 943.829 1050.45C942.773 1048.34 941.717 1046.23 941.717 1044.12V1033.56C941.717 1030.4 942.773 1027.23 944.885 1025.12C946.996 1023.01 950.163 1020.89 953.33 1020.89C955.442 1020.89 957.553 1020.89 959.665 1021.95C961.776 1023.01 962.832 1024.06 963.888 1026.17C964.944 1024.06 965.999 1023.01 968.111 1021.95C970.222 1020.89 971.278 1019.84 974.445 1019.84C977.612 1019.84 980.78 1020.89 982.891 1024.06C985.003 1026.17 986.058 1029.34 986.058 1032.51Z" fill="white"/>
<path d="M974.445 1019.84C971.278 1019.84 968.111 1018.78 965.999 1015.62C963.888 1013.5 962.832 1010.34 962.832 1007.17C962.832 1004 963.888 1000.83 965.999 998.723C968.111 996.612 971.278 994.5 974.445 994.5C977.612 994.5 979.724 995.556 982.891 998.723C985.002 1000.83 987.114 1004 987.114 1007.17C987.114 1010.34 986.058 1013.5 982.891 1015.62C979.724 1018.78 977.612 1019.84 974.445 1019.84ZM982.891 1007.17C982.891 1005.06 981.835 1002.95 980.779 1000.83C978.668 998.724 977.612 998.723 974.445 998.723C972.334 998.723 970.222 999.779 968.111 1000.83C965.999 1002.95 965.999 1005.06 965.999 1007.17C965.999 1008.23 965.999 1009.28 965.999 1010.34C968.111 1008.23 971.278 1007.17 974.445 1007.17C977.612 1007.17 979.724 1008.23 981.835 1010.34C982.891 1009.28 982.891 1008.23 982.891 1007.17ZM974.445 1011.39C972.334 1011.39 970.222 1012.45 968.111 1014.56C970.222 1016.67 971.278 1016.67 974.445 1016.67C975.501 1016.67 976.556 1016.67 977.612 1015.62C978.668 1015.62 979.724 1014.56 980.779 1013.5C978.668 1011.39 976.557 1011.39 974.445 1011.39Z" fill="white"/>
<path d="M996.616 1034.62C995.56 1035.67 994.504 1035.67 993.448 1035.67C992.393 1035.67 991.337 1035.67 990.281 1034.62C989.225 1033.56 989.225 1032.5 989.225 1031.45V1028.28C989.225 1027.23 989.225 1026.17 990.281 1025.11C991.337 1024.06 992.393 1024.06 993.448 1024.06C994.504 1024.06 995.56 1024.06 996.616 1025.11C997.671 1026.17 997.671 1027.23 997.671 1028.28V1031.45C997.671 1032.5 997.671 1033.56 996.616 1034.62ZM996.616 1049.4C995.56 1050.45 994.504 1050.45 993.448 1050.45C992.393 1050.45 991.337 1050.45 990.281 1049.4C989.225 1048.34 989.225 1047.29 989.225 1046.23V1043.06C989.225 1042.01 989.225 1040.95 990.281 1039.9C991.337 1038.84 992.393 1038.84 993.448 1038.84C994.504 1038.84 995.56 1038.84 996.616 1039.9C997.671 1040.95 997.671 1042.01 997.671 1043.06V1046.23C997.671 1047.29 997.671 1049.4 996.616 1049.4ZM993.448 1032.51C994.504 1032.51 994.504 1032.5 994.504 1031.45V1030.39V1027.23C994.504 1026.17 994.504 1026.17 994.504 1026.17L993.448 1025.11C992.393 1025.11 992.393 1025.11 992.393 1026.17V1027.23V1030.39C992.393 1031.45 992.393 1031.45 992.393 1031.45C992.393 1032.5 992.393 1032.51 993.448 1032.51ZM993.448 1048.34C994.504 1048.34 994.504 1048.34 994.504 1047.29V1046.23V1043.06C994.504 1042.01 994.504 1042.01 994.504 1042.01L993.448 1040.95C992.393 1040.95 992.393 1040.95 992.393 1042.01V1043.06V1046.23C992.393 1047.29 992.393 1047.29 992.393 1047.29C992.393 1048.34 992.393 1048.34 993.448 1048.34Z" fill="white"/>
<path d="M910.045 816.082H815.029C784.413 816.082 760.131 791.8 760.131 761.184V759.072C760.131 728.456 784.413 704.174 815.029 704.174H910.045C940.662 704.174 964.944 728.456 964.944 759.072V761.184C964.944 791.8 940.662 816.082 910.045 816.082Z" fill="#5ABFAE"/>
<path d="M882.597 790.74C880.485 789.684 878.374 787.573 877.318 785.462C876.262 783.35 875.206 780.183 875.206 777.016V744.288C875.206 741.121 876.262 737.953 877.318 735.842C878.374 733.73 880.485 731.619 882.597 730.563C884.708 729.507 887.875 728.452 891.042 728.452C894.21 728.452 897.377 729.507 899.488 730.563C901.6 731.619 903.711 733.73 904.767 735.842C905.823 737.953 906.879 741.121 906.879 744.288V777.016C906.879 780.183 905.823 783.35 904.767 785.462C903.711 787.573 901.6 789.684 899.488 790.74C897.377 791.796 894.21 792.852 891.042 792.852C887.875 792.852 884.708 791.796 882.597 790.74ZM896.321 785.462C897.377 784.406 898.433 783.35 899.488 782.294C900.544 781.239 900.544 779.127 900.544 777.016V743.232C900.544 741.121 900.544 739.009 899.488 737.953C898.433 736.898 897.377 735.842 896.321 734.786C895.265 733.73 893.154 733.73 891.042 733.73C888.931 733.73 886.82 733.73 885.764 734.786C884.708 735.842 883.652 736.898 882.597 737.953C881.541 739.009 881.541 741.121 881.541 743.232V777.016C881.541 779.127 881.541 781.239 882.597 782.294C883.652 783.35 884.708 784.406 885.764 785.462C886.82 786.517 888.931 786.517 891.042 786.517C893.154 786.517 895.265 785.462 896.321 785.462Z" fill="white"/>
<path d="M835.088 791.796C818.196 791.796 803.416 778.071 803.416 760.124C803.416 742.176 817.14 728.452 835.088 728.452C851.98 728.452 866.76 742.176 866.76 760.124C866.76 778.071 853.035 791.796 835.088 791.796ZM835.088 734.786C821.363 734.786 809.75 746.399 809.75 760.124C809.75 773.848 821.363 785.462 835.088 785.462C848.812 785.462 860.425 773.848 860.425 760.124C860.425 746.399 848.812 734.786 835.088 734.786Z" fill="white"/>
<path d="M852.874 737.919L812.557 778.225L817.035 782.704L857.353 742.398L852.874 737.919Z" fill="white"/>
<path d="M904.766 756.96H878.373V763.294H904.766V756.96Z" fill="white"/>
<path d="M842.479 816.082L862.538 851.977L881.541 816.082H842.479Z" fill="#5ABFAE"/>
</svg>
