<svg width="32" height="32" viewBox="0 0 32 32" fill="none" xmlns="http://www.w3.org/2000/svg">
<path d="M9.33301 24C7.86634 24 6.67967 25.2 6.67967 26.6667C6.67967 28.1334 7.86634 29.3334 9.33301 29.3334C10.7997 29.3334 11.9997 28.1334 11.9997 26.6667C11.9997 25.2 10.7997 24 9.33301 24ZM1.33301 4.00002C1.33301 4.73335 1.93301 5.33335 2.66634 5.33335H3.99967L8.79967 15.4534L6.99967 18.7067C6.02634 20.4934 7.30634 22.6667 9.33301 22.6667H23.9997C24.733 22.6667 25.333 22.0667 25.333 21.3334C25.333 20.6 24.733 20 23.9997 20H9.33301L10.7997 17.3334H20.733C21.733 17.3334 22.613 16.7867 23.0663 15.96L27.8397 7.30669C28.333 6.42669 27.693 5.33335 26.6797 5.33335H6.94634L6.05301 3.42669C5.83967 2.96002 5.35967 2.66669 4.85301 2.66669H2.66634C1.93301 2.66669 1.33301 3.26669 1.33301 4.00002V4.00002ZM22.6663 24C21.1997 24 20.013 25.2 20.013 26.6667C20.013 28.1334 21.1997 29.3334 22.6663 29.3334C24.133 29.3334 25.333 28.1334 25.333 26.6667C25.333 25.2 24.133 24 22.6663 24Z" fill="#5ABEAE"/>
</svg>
