<svg width="18" height="18" viewBox="0 0 18 18" fill="none" xmlns="http://www.w3.org/2000/svg">
<g clip-path="url(#clip0_796_3435)">
<path d="M18.0003 9.05527C18.0003 4.05352 13.9705 -0.000976562 9.0003 -0.000976562C4.0278 0.000148438 -0.00195312 4.05352 -0.00195312 9.0564C-0.00195312 13.5755 3.2898 17.3218 7.5918 18.0013V11.6731H5.30805V9.0564H7.59405V7.05952C7.59405 4.7904 8.93842 3.53715 10.9938 3.53715C11.9793 3.53715 13.0087 3.71377 13.0087 3.71377V5.94127H11.8735C10.7564 5.94127 10.4077 6.6399 10.4077 7.35652V9.05527H12.9029L12.5047 11.672H10.4065V18.0001C14.7085 17.3206 18.0003 13.5744 18.0003 9.05527Z" fill="#5ABEAE"/>
</g>
<defs>
<clipPath id="clip0_796_3435">
<rect width="18" height="18" fill="white"/>
</clipPath>
</defs>
</svg>
