<svg width="34" height="34" viewBox="0 0 34 34" fill="none" xmlns="http://www.w3.org/2000/svg">
<path d="M16.9997 2.83325C9.17967 2.83325 2.83301 9.17992 2.83301 16.9999C2.83301 24.8199 9.17967 31.1666 16.9997 31.1666C24.8197 31.1666 31.1663 24.8199 31.1663 16.9999C31.1663 9.17992 24.8197 2.83325 16.9997 2.83325ZM16.9997 28.3333C10.7522 28.3333 5.66634 23.2474 5.66634 16.9999C5.66634 10.7524 10.7522 5.66659 16.9997 5.66659C23.2472 5.66659 28.333 10.7524 28.333 16.9999C28.333 23.2474 23.2472 28.3333 16.9997 28.3333ZM15.583 22.6666H18.4163V25.4999H15.583V22.6666ZM17.8638 8.55659C14.9455 8.13159 12.3672 9.93075 11.588 12.5091C11.333 13.3308 11.9563 14.1666 12.8205 14.1666H13.1038C13.6847 14.1666 14.1522 13.7558 14.3505 13.2174C14.8038 11.9566 16.1497 11.0924 17.6088 11.4041C18.9547 11.6874 19.9463 13.0049 19.833 14.3791C19.6913 16.2774 17.538 16.6883 16.3622 18.4591C16.3622 18.4733 16.348 18.4733 16.348 18.4874C16.3338 18.5158 16.3197 18.5299 16.3055 18.5583C16.178 18.7708 16.0505 19.0116 15.9513 19.2666C15.9372 19.3091 15.9088 19.3374 15.8947 19.3799C15.8805 19.4083 15.8805 19.4366 15.8663 19.4791C15.6963 19.9608 15.583 20.5416 15.583 21.2499H18.4163C18.4163 20.6549 18.5722 20.1591 18.813 19.7341C18.8413 19.6916 18.8555 19.6491 18.8838 19.6066C18.9972 19.4083 19.1388 19.2241 19.2805 19.0541C19.2947 19.0399 19.3088 19.0116 19.323 18.9974C19.4647 18.8274 19.6205 18.6716 19.7905 18.5158C21.1505 17.2266 22.9922 16.1783 22.6097 13.4724C22.2697 11.0074 20.3288 8.92492 17.8638 8.55659V8.55659Z" fill="#3A4A67"/>
</svg>
