<svg width="44" height="41" viewBox="0 0 44 41" fill="none" xmlns="http://www.w3.org/2000/svg">
<path d="M3.73286 5.80218C6.81849 1.95178 11.4876 0 17.6083 0H19.8076V7.13628L18.0394 7.54385C15.0263 8.23748 12.9304 9.60196 11.8087 11.6044C11.2235 12.6831 10.8915 13.9183 10.8454 15.189H17.6083C18.1916 15.189 18.751 15.4557 19.1634 15.9304C19.5759 16.4052 19.8076 17.0491 19.8076 17.7205V35.4409C19.8076 38.2332 17.8348 40.5039 15.409 40.5039H2.21314C1.62984 40.5039 1.07044 40.2372 0.657991 39.7625C0.245541 39.2877 0.0138289 38.6438 0.0138289 37.9724V25.3149L0.0204269 17.9255C0.000633076 17.6445 -0.417236 10.9867 3.73286 5.80218ZM39.6014 40.5039H26.4055C25.8222 40.5039 25.2628 40.2372 24.8504 39.7625C24.4379 39.2877 24.2062 38.6438 24.2062 37.9724V25.3149L24.2128 17.9255C24.193 17.6445 23.7752 10.9867 27.9253 5.80218C31.0109 1.95178 35.68 0 41.8007 0H44V7.13628L42.2318 7.54385C39.2187 8.23748 37.1228 9.60196 36.0011 11.6044C35.4159 12.6831 35.0839 13.9183 35.0378 15.189H41.8007C42.384 15.189 42.9434 15.4557 43.3558 15.9304C43.7683 16.4052 44 17.0491 44 17.7205V35.4409C44 38.2332 42.0272 40.5039 39.6014 40.5039Z" fill="#5ABEAE"/>
</svg>
