<svg width="32" height="32" viewBox="0 0 32 32" fill="none" xmlns="http://www.w3.org/2000/svg">
<path d="M24.1239 30.2222H7.87501C7.53296 30.2142 7.19586 30.1388 6.88295 30.0004C6.57005 29.862 6.28748 29.6633 6.0514 29.4156C5.81531 29.168 5.63033 28.8763 5.50703 28.5571C5.38373 28.2379 5.32452 27.8976 5.33279 27.5556V9.98224H7.11057V27.5556C7.10208 27.6642 7.11516 27.7734 7.14903 27.877C7.18291 27.9805 7.23692 28.0764 7.30796 28.159C7.379 28.2416 7.46567 28.3093 7.56299 28.3583C7.6603 28.4073 7.76635 28.4366 7.87501 28.4445H24.1239C24.2326 28.4366 24.3386 28.4073 24.4359 28.3583C24.5332 28.3093 24.6199 28.2416 24.691 28.159C24.762 28.0764 24.816 27.9805 24.8499 27.877C24.8838 27.7734 24.8968 27.6642 24.8883 27.5556V9.98224H26.6661V27.5556C26.6744 27.8976 26.6152 28.2379 26.4919 28.5571C26.3686 28.8763 26.1836 29.168 25.9475 29.4156C25.7114 29.6633 25.4289 29.862 25.116 30.0004C24.8031 30.1388 24.466 30.2142 24.1239 30.2222V30.2222Z" fill="#EE5C3C"/>
<path d="M27.3591 8.00001H4.44358C4.20783 8.00001 3.98174 7.90636 3.81504 7.73966C3.64834 7.57296 3.55469 7.34687 3.55469 7.11112C3.55469 6.87537 3.64834 6.64928 3.81504 6.48258C3.98174 6.31588 4.20783 6.22223 4.44358 6.22223H27.3591C27.5949 6.22223 27.821 6.31588 27.9877 6.48258C28.1544 6.64928 28.248 6.87537 28.248 7.11112C28.248 7.34687 28.1544 7.57296 27.9877 7.73966C27.821 7.90636 27.5949 8.00001 27.3591 8.00001Z" fill="#EE5C3C"/>
<path d="M18.666 11.5555H20.4438V24.8889H18.666V11.5555Z" fill="#EE5C3C"/>
<path d="M11.5547 11.5555H13.3325V24.8889H11.5547V11.5555Z" fill="#EE5C3C"/>
<path d="M20.4436 5.20888H18.7547V3.55555H13.2436V5.20888H11.5547V3.55555C11.5541 3.09906 11.7292 2.65984 12.0436 2.32888C12.358 1.99793 12.7877 1.8006 13.2436 1.77777H18.7547C19.2106 1.8006 19.6403 1.99793 19.9547 2.32888C20.2691 2.65984 20.4441 3.09906 20.4436 3.55555V5.20888Z" fill="#EE5C3C"/>
</svg>
