<svg width="19" height="19" viewBox="0 0 19 19" fill="none" xmlns="http://www.w3.org/2000/svg">
<path d="M16.7407 14.6439C15.8889 15.3977 14.6543 15.9384 13.037 16.2659C11.4198 16.5933 9.75309 16.6891 8.03704 16.5532L4.77778 19V15.9415C3.7037 15.6078 2.8642 15.1753 2.25926 14.6439C1.54321 14.0137 0.987654 13.1085 0.592593 11.9283C0.197531 10.7481 0 9.54325 0 8.31366C0 7.08406 0.197531 5.87919 0.592593 4.69902C0.987654 3.51886 1.5463 2.61057 2.26852 1.97415C2.99074 1.33772 4.02469 0.849593 5.37037 0.509756C6.71605 0.169919 8.09259 0 9.5 0C10.9074 0 12.284 0.169919 13.6296 0.509756C14.9753 0.849593 16.0093 1.33772 16.7315 1.97415C17.4537 2.61057 18.0123 3.51886 18.4074 4.69902C18.8025 5.87919 19 7.08406 19 8.31366C19 9.54325 18.8025 10.7481 18.4074 11.9283C18.0123 13.1085 17.4568 14.0137 16.7407 14.6439ZM11.8333 10.1024L13.037 10.3063C12.9383 8.82341 12.3673 7.55675 11.3241 6.50634C10.2809 5.45593 9.01852 4.8813 7.53704 4.78244L7.74074 5.98732C8.80247 6.12325 9.71605 6.57431 10.4815 7.34049C11.2469 8.10667 11.6975 9.02732 11.8333 10.1024ZM7.94444 7.22927L8.16667 8.5639C8.66049 8.81106 9.02469 9.17561 9.25926 9.65756L10.5926 9.88C10.4444 9.22504 10.1296 8.65967 9.64815 8.1839C9.16667 7.70813 8.59877 7.38992 7.94444 7.22927ZM5.96296 8.32293V7.13659C5.96296 6.9265 5.8858 6.71642 5.73148 6.50634C5.57716 6.29626 5.41358 6.14488 5.24074 6.05219C5.0679 5.95951 4.93827 5.95024 4.85185 6.02439L4 6.89561C3.51852 7.37756 3.44753 8.12829 3.78704 9.1478C4.12654 10.1673 4.77469 11.1559 5.73148 12.1137C6.68827 13.0714 7.67593 13.7202 8.69444 14.06C9.71296 14.3998 10.4568 14.3288 10.9259 13.8468L11.7963 12.9756C11.8827 12.9015 11.8796 12.7748 11.787 12.5956C11.6944 12.4164 11.5432 12.2527 11.3333 12.1044C11.1235 11.9561 10.9136 11.882 10.7037 11.882H9.51852L8.83333 12.4751C8.29012 12.3268 7.6142 11.848 6.80556 11.0385C5.99691 10.2291 5.51852 9.54634 5.37037 8.99024L5.96296 8.32293ZM7.14815 2.39122L7.33333 3.5961C8.5679 3.62081 9.70988 3.9452 10.7593 4.56927C11.8086 5.19333 12.642 6.02748 13.2593 7.07171C13.8765 8.11593 14.2037 9.25593 14.2407 10.4917L15.4444 10.6956C15.4444 9.57106 15.2253 8.49593 14.787 7.47024C14.3488 6.44455 13.7593 5.56098 13.0185 4.81951C12.2778 4.07805 11.3951 3.48797 10.3704 3.04927C9.34568 2.61057 8.27161 2.39122 7.14815 2.39122Z" fill="#5ABEAE"/>
</svg>
