<svg width="248" height="256" viewBox="0 0 248 256" fill="none" xmlns="http://www.w3.org/2000/svg">
<path d="M223.631 73.3352C221.149 68.169 217.208 63.9485 212.355 61.2596C207.424 58.4947 201.484 57.1105 194.534 57.107C187.584 57.1035 181.643 58.4877 176.713 61.2596C171.86 63.9485 167.919 68.169 165.436 73.3352C162.846 78.6172 161.552 84.9936 161.555 92.4645V165.107C161.555 172.577 162.849 178.954 165.436 184.236C167.921 189.416 171.872 193.646 176.738 196.338C181.688 199.102 187.628 200.487 194.558 200.49C201.489 200.494 207.429 199.109 212.379 196.338C217.232 193.649 221.174 189.428 223.656 184.262C226.233 178.966 227.522 172.581 227.522 165.107V92.4645C227.522 84.9936 226.225 78.6172 223.631 73.3352ZM177.059 80.3889C178.546 77.3016 180.909 74.7839 183.817 73.1886C186.767 71.5513 190.344 70.7309 194.549 70.7274C198.753 70.7239 202.329 71.5443 205.276 73.1886C208.184 74.7822 210.548 77.3004 212.033 80.3889C213.587 83.5309 214.364 87.3309 214.364 91.789V122.826H174.728V91.789C174.728 87.3449 175.505 83.5448 177.059 80.3889V80.3889ZM212.033 177.182C210.548 180.271 208.184 182.789 205.276 184.382C202.325 186.023 198.75 186.844 194.549 186.844C190.348 186.844 186.77 186.023 183.817 184.382C180.909 182.787 178.546 180.269 177.059 177.182C175.505 174.04 174.728 170.24 174.728 165.782V136.284H214.364V165.782C214.364 170.23 213.587 174.03 212.033 177.182V177.182Z" fill="#5ABEAE"/>
<path d="M77.497 59.9557C41.2168 59.9557 11.6936 91.1815 11.6936 129.555C11.6936 167.929 41.2069 199.155 77.4871 199.155C113.767 199.155 143.281 167.934 143.281 129.555C143.281 91.1763 113.772 59.9557 77.497 59.9557ZM77.497 73.4138C89.3742 73.4016 100.909 77.6244 110.238 85.4003L35.7567 164.19C29.6085 155.909 25.7868 145.966 24.7284 135.496C23.67 125.026 25.4177 114.452 29.7716 104.983C34.1255 95.5147 40.91 87.5327 49.3495 81.9501C57.7891 76.3674 67.5432 73.4093 77.497 73.4138V73.4138ZM77.497 185.697C65.6183 185.709 54.0823 181.486 44.7512 173.71L119.232 94.9204C125.382 103.2 129.206 113.144 130.265 123.614C131.325 134.084 129.578 144.658 125.224 154.128C120.871 163.597 114.086 171.579 105.646 177.162C97.2058 182.745 87.4511 185.702 77.497 185.697V185.697Z" fill="#5ABEAE"/>
</svg>
