<svg width="31" height="32" viewBox="0 0 31 32" fill="none" xmlns="http://www.w3.org/2000/svg">
<rect width="31" height="32" rx="4" fill="white"/>
<path d="M26.3471 10.0725C26.0769 9.5123 25.6478 9.05466 25.1194 8.76309C24.5827 8.46328 23.9359 8.31319 23.1793 8.31281C22.4226 8.31243 21.7759 8.46252 21.2391 8.76309C20.7107 9.05466 20.2817 9.5123 20.0114 10.0725C19.7294 10.6452 19.5885 11.3367 19.5889 12.1468V20.0236C19.5889 20.8337 19.7297 21.5251 20.0114 22.0979C20.2819 22.6595 20.712 23.1183 21.2418 23.4101C21.7807 23.7099 22.4274 23.86 23.182 23.8604C23.9365 23.8608 24.5832 23.7107 25.1221 23.4101C25.6505 23.1185 26.0796 22.6609 26.3498 22.1007C26.6304 21.5264 26.7707 20.8341 26.7707 20.0236V12.1468C26.7707 11.3367 26.6295 10.6452 26.3471 10.0725ZM21.2768 10.8373C21.4387 10.5026 21.6959 10.2296 22.0125 10.0566C22.3337 9.87905 22.7231 9.7901 23.1809 9.78972C23.6386 9.78934 24.0279 9.8783 24.3488 10.0566C24.6654 10.2294 24.9227 10.5025 25.0844 10.8373C25.2536 11.178 25.3382 11.5901 25.3382 12.0735V15.439H21.023V12.0735C21.023 11.5916 21.1076 11.1796 21.2768 10.8373V10.8373ZM25.0844 21.333C24.9227 21.6679 24.6654 21.941 24.3488 22.1138C24.0275 22.2917 23.6383 22.3806 23.1809 22.3806C22.7235 22.3806 22.334 22.2917 22.0125 22.1138C21.6959 21.9408 21.4387 21.6678 21.2768 21.333C21.1076 20.9923 21.023 20.5803 21.023 20.0968V16.8983H25.3382V20.0968C25.3382 20.5791 25.2536 20.9912 25.0844 21.333V21.333Z" fill="#5ABEAE"/>
<path d="M10.4373 8.6217C6.48741 8.6217 3.27319 12.0076 3.27319 16.1686C3.27319 20.3297 6.48633 23.7156 10.4362 23.7156C14.3861 23.7156 17.5992 20.3302 17.5992 16.1686C17.5992 12.0071 14.3866 8.6217 10.4373 8.6217ZM10.4373 10.081C11.7304 10.0797 12.9861 10.5376 14.0018 11.3808L5.89296 19.9242C5.2236 19.0263 4.80753 17.9481 4.69231 16.8128C4.57708 15.6775 4.76735 14.531 5.24136 13.5042C5.71537 12.4775 6.45401 11.612 7.37283 11.0066C8.29166 10.4013 9.3536 10.0805 10.4373 10.081V10.081ZM10.4373 22.2563C9.14403 22.2576 7.88809 21.7997 6.87221 20.9565L14.981 12.4131C15.6506 13.3109 16.0668 14.3891 16.1822 15.5244C16.2976 16.6597 16.1074 17.8063 15.6334 18.8331C15.1594 19.8599 14.4207 20.7255 13.5019 21.3308C12.583 21.9362 11.521 22.2569 10.4373 22.2563V22.2563Z" fill="#5ABEAE"/>
</svg>
