<svg width="30" height="20" viewBox="0 0 30 20" fill="none" xmlns="http://www.w3.org/2000/svg">
<path d="M29.1908 2.15526C28.8526 1.47037 28.3196 0.910968 27.6645 0.55355C26.9091 0.188934 26.0864 6.10352e-05 25.2538 6.10352e-05C24.4211 6.10352e-05 23.5985 0.188934 22.8431 0.55355C22.188 0.910968 21.655 1.47037 21.3168 2.15526C20.9478 2.9485 20.7678 3.8227 20.7921 4.70377V14.3834C20.7676 15.2645 20.9476 16.1388 21.3168 16.932C21.654 17.6175 22.1873 18.1772 22.8431 18.5337C23.5985 18.8983 24.4211 19.0872 25.2538 19.0872C26.0864 19.0872 26.9091 18.8983 27.6645 18.5337C28.3203 18.1772 28.8535 17.6175 29.1908 16.932C29.56 16.1388 29.74 15.2645 29.7155 14.3834V4.70377C29.7398 3.8227 29.5598 2.9485 29.1908 2.15526ZM22.8875 3.09493C23.0883 2.68333 23.4081 2.34779 23.8019 2.13569C24.2581 1.91962 24.7535 1.80782 25.2546 1.80782C25.7558 1.80782 26.2512 1.91962 26.7074 2.13569C27.1013 2.34827 27.4215 2.68363 27.6235 3.09493C27.8439 3.56794 27.9518 4.08923 27.938 4.61478V8.75076H22.5662V4.61478C22.5537 4.08857 22.664 3.56704 22.8875 3.09493ZM27.6218 15.9923C27.4198 16.4036 27.0995 16.7389 26.7057 16.9515C26.2495 17.1676 25.7541 17.2794 25.2529 17.2794C24.7518 17.2794 24.2564 17.1676 23.8002 16.9515C23.4064 16.7394 23.0866 16.4039 22.8858 15.9923C22.6642 15.5203 22.5557 14.9994 22.5696 14.4742V10.55H27.9345V14.4813C27.9476 15.0038 27.8403 15.5218 27.6218 15.9923Z" fill="#5ABEAE"/>
<path d="M9.40607 0.374329C7.64452 0.374329 5.92253 0.918279 4.45788 1.93739C2.99323 2.9565 1.85169 4.40499 1.17766 6.09968C0.503618 7.79438 0.327353 9.65915 0.671139 11.4582C1.01492 13.2572 1.86332 14.9096 3.10905 16.2065C4.35477 17.5035 5.94186 18.3866 7.6696 18.7442C9.39735 19.1018 11.1881 18.9179 12.8155 18.2157C14.4429 17.5135 15.8337 16.3246 16.8121 14.7993C17.7905 13.274 18.3126 11.4808 18.3123 9.64648C18.3091 7.18805 17.3697 4.83129 15.7001 3.09309C14.0305 1.35489 11.767 0.377154 9.40607 0.374329ZM9.40607 2.16647C11.0138 2.16585 12.5747 2.7302 13.8361 3.76818L3.75232 14.2683C2.91786 13.166 2.39835 11.8412 2.25325 10.4458C2.10814 9.05031 2.3433 7.64049 2.93182 6.37771C3.52034 5.11493 4.43844 4.05022 5.581 3.30545C6.72357 2.56068 8.04443 2.16596 9.39239 2.16647H9.40607ZM9.40607 17.1354C7.79836 17.1359 6.23752 16.5715 4.97605 15.5337L15.0598 5.03354C15.895 6.13683 16.4147 7.46287 16.5593 8.85962C16.7039 10.2564 16.4675 11.6673 15.8773 12.9306C15.2872 14.1938 14.367 15.2584 13.2225 16.0021C12.0779 16.7458 10.7552 17.1386 9.40607 17.1354Z" fill="#5ABEAE"/>
</svg>
