<svg width="210" height="33" viewBox="0 0 210 33" fill="none" xmlns="http://www.w3.org/2000/svg">
<path d="M31.6296 1.22681L27.2455 15.8186L22.67 1.22681H20.2454H19.8439H16.6695L2.76762 21.0238V1.22681H0V32.6131H2.76762V25.0769L9.35037 16.0932L18.1132 32.6131H21.4178L11.2672 13.4787L19.9689 1.60287L25.8631 19.424V32.6131H28.6307V19.424L34.4584 1.22681H31.6296Z" fill="#3A4A67"/>
<path d="M39.6401 1.22681L33.1797 32.6131H36.2557L37.6382 24.9934H44.9893L46.3717 32.6131H49.4611L43.0006 1.22681H39.6401ZM38.1619 22.0983L41.3124 4.70091L44.4655 22.0983H38.1619Z" fill="#3A4A67"/>
<path d="M65.8357 29.0733L62.0285 1.22681H59.7208L55.9137 29.0733L52.8962 1.22681H49.9717L54.1058 32.6131H57.913L60.9917 9.60165L63.8364 32.6131H67.6436L71.7777 1.22681H68.8559L65.8357 29.0733Z" fill="#3A4A67"/>
<path d="M88.3962 16.9203C86.9764 16.3195 85.5132 15.8572 84.0228 15.5384C83.9457 15.5235 83.8739 15.5056 83.8021 15.4847C83.7299 15.4602 83.6561 15.4422 83.5814 15.431L83.398 15.3862L83.2358 15.3444C81.9479 15.0745 80.6736 14.7288 79.418 14.3088C78.5439 14.0131 77.7436 13.4918 77.0811 12.7866C76.4537 12.1021 76.14 11.17 76.14 9.99003V9.96914C76.14 8.01123 76.7683 6.49305 78.0249 5.4146C79.2816 4.33616 81.054 3.79594 83.3421 3.79395C84.5103 3.8032 85.6681 4.04053 86.7638 4.49534C88.0218 5.02632 89.2117 5.74188 90.3024 6.62338L91.9374 4.18494C91.0576 3.47851 90.1202 2.86693 89.1379 2.35835C88.2193 1.88589 87.2598 1.52083 86.2746 1.26897C85.3149 1.02562 84.334 0.902492 83.3501 0.901855C81.2604 0.901855 79.4721 1.262 77.985 1.98229C76.5938 2.61286 75.4093 3.70916 74.5926 5.12212C73.7897 6.49902 73.3883 8.15747 73.3883 10.0975V10.1184C73.3883 12.0484 73.8021 13.5567 74.6299 14.6431C75.4265 15.7076 76.4685 16.5058 77.6421 16.9502C79.1841 17.5058 80.7581 17.9425 82.3531 18.2574L82.9115 18.3858C82.9586 18.4004 83.0065 18.4114 83.055 18.4186C83.0974 18.4258 83.1392 18.4367 83.18 18.4514C84.3677 18.6832 85.5382 19.0155 86.6814 19.4453C87.5297 19.7634 88.2913 20.3204 88.8933 21.063C89.4623 21.7833 89.7476 22.7403 89.7494 23.9342V23.9551C89.7494 25.8871 89.0918 27.3844 87.7767 28.4469C86.4616 29.5094 84.6059 30.0417 82.2096 30.0437C80.645 30.0611 79.0899 29.7691 77.6155 29.1811C76.1933 28.598 74.8819 27.7191 73.7499 26.5905L72.0723 29.0528C72.9639 29.9058 73.9462 30.6316 74.9967 31.2137C76.0697 31.7985 77.2029 32.2326 78.3705 32.506C79.6314 32.7998 80.9165 32.9428 82.2043 32.9328C84.3701 32.9328 86.2197 32.5766 87.7528 31.8643C89.1748 31.248 90.398 30.1641 91.2622 28.7543C92.0964 27.2905 92.5188 25.5787 92.4745 23.8417V23.7999C92.4745 21.9295 92.0863 20.4432 91.31 19.3408C90.5497 18.2553 89.5432 17.4192 88.3962 16.9203Z" fill="#3A4A67"/>
<path d="M100.052 1.22681L93.5938 32.6131H96.6698L98.0496 24.9934H105.403L106.783 32.6131H109.859L103.399 1.22681H100.052ZM98.5707 22.0983L101.724 4.70091L104.877 22.0983H98.5707Z" fill="#3A4A67"/>
<path d="M122.885 25.6589L114.481 1.22681H111.886V32.5892H114.616V8.16307L122.98 32.5892H125.615V1.22681H122.885V25.6589Z" fill="#3A4A67"/>
<path d="M146.198 15.6037H131.929V1.22681H129.161V32.6131H131.929V18.6033H146.198V32.6131H148.965V1.22681H146.198V15.6037Z" fill="#3A4A67"/>
<path d="M164.531 1.22681H150.956V4.11891H156.358V32.6131H159.129V4.11891H164.531V1.22681Z" fill="#3A4A67"/>
<path d="M209.18 4.52772C208.654 3.37913 207.825 2.44097 206.806 1.84156C205.631 1.23008 204.351 0.91333 203.056 0.91333C201.761 0.91333 200.481 1.23008 199.306 1.84156C198.287 2.44097 197.458 3.37913 196.932 4.52772C196.358 5.85803 196.078 7.3241 196.116 8.8017V25.0351C196.078 26.5127 196.358 27.9788 196.932 29.309C197.456 30.4588 198.286 31.3974 199.306 31.9952C200.481 32.6067 201.761 32.9234 203.056 32.9234C204.351 32.9234 205.631 32.6067 206.806 31.9952C207.826 31.3974 208.656 30.4588 209.18 29.309C209.755 27.9788 210.035 26.5127 209.996 25.0351V8.8017C210.034 7.3241 209.754 5.85803 209.18 4.52772V4.52772ZM199.375 6.1036C199.688 5.41332 200.185 4.8506 200.798 4.49489C201.507 4.13253 202.278 3.94504 203.057 3.94504C203.837 3.94504 204.608 4.13253 205.317 4.49489C205.93 4.85141 206.428 5.41382 206.742 6.1036C207.085 6.89686 207.253 7.77109 207.232 8.65247V15.5887H198.875V8.65247C198.856 7.76998 199.028 6.89536 199.375 6.1036V6.1036ZM206.74 27.7332C206.426 28.4229 205.927 28.9853 205.315 29.3419C204.605 29.7042 203.834 29.8917 203.055 29.8917C202.275 29.8917 201.505 29.7042 200.795 29.3419C200.182 28.9862 199.685 28.4234 199.373 27.7332C199.028 26.9416 198.859 26.0681 198.881 25.1873V18.6062H207.226V25.1992C207.246 26.0754 207.08 26.9442 206.74 27.7332V27.7332Z" fill="#5ABEAE"/>
<path d="M178.404 1.54095C175.664 1.54095 172.985 2.45319 170.707 4.16229C168.428 5.8714 166.653 8.3006 165.604 11.1427C164.556 13.9848 164.281 17.1121 164.816 20.1291C165.351 23.1462 166.671 25.9175 168.609 28.0924C170.546 30.2674 173.015 31.7485 175.703 32.3482C178.39 32.948 181.176 32.6396 183.707 31.462C186.239 30.2843 188.402 28.2904 189.924 25.7324C191.446 23.1743 192.258 20.167 192.258 17.0909C192.253 12.9679 190.792 9.01553 188.195 6.10047C185.597 3.18541 182.076 1.54569 178.404 1.54095ZM178.404 4.54647C180.905 4.54543 183.333 5.49188 185.295 7.23264L169.609 24.8419C168.311 22.9932 167.503 20.7716 167.277 18.4313C167.052 16.091 167.417 13.7267 168.333 11.609C169.248 9.4912 170.676 7.70562 172.454 6.45661C174.231 5.20759 176.286 4.54562 178.383 4.54647H178.404ZM178.404 29.6502C175.903 29.651 173.475 28.7045 171.513 26.964L187.199 9.3547C188.498 11.205 189.306 13.4288 189.531 15.7712C189.756 18.1137 189.388 20.4798 188.47 22.5984C187.552 24.717 186.121 26.5023 184.34 27.7495C182.56 28.9968 180.503 29.6555 178.404 29.6502Z" fill="#5ABEAE"/>
</svg>
